  0
SECTION
  2
HEADER
  9
$ACADVER
  1
AC1024
  9
$ACADMAINTVER
 70
     6
  9
$DWGCODEPAGE
  3
ANSI_1252
  9
$INSBASE
 10
0.0
 20
0.0
 30
0.0
  9
$EXTMIN
 10
1.000000000000000E+20
 20
1.000000000000000E+20
 30
1.000000000000000E+20
  9
$EXTMAX
 10
-1.000000000000000E+20
 20
-1.000000000000000E+20
 30
-1.000000000000000E+20
  9
$LIMMIN
 10
0.0
 20
0.0
  9
$LIMMAX
 10
12.0
 20
9.0
  9
$ORTHOMODE
 70
     0
  9
$REGENMODE
 70
     1
  9
$FILLMODE
 70
     1
  9
$QTEXTMODE
 70
     0
  9
$MIRRTEXT
 70
     1
  9
$LTSCALE
 40
1.0
  9
$ATTMODE
 70
     1
  9
$TEXTSIZE
 40
0.2
  9
$TRACEWID
 40
0.05
  9
$TEXTSTYLE
  7
Standard
  9
$CLAYER
  8
0
  9
$CELTYPE
  6
ByLayer
  9
$CECOLOR
 62
   256
  9
$CELTSCALE
 40
1.0
  9
$DISPSILH
 70
     0
  9
$DIMSCALE
 40
1.0
  9
$DIMASZ
 40
0.18
  9
$DIMEXO
 40
0.0625
  9
$DIMDLI
 40
0.38
  9
$DIMRND
 40
0.0
  9
$DIMDLE
 40
0.0
  9
$DIMEXE
 40
0.18
  9
$DIMTP
 40
0.0
  9
$DIMTM
 40
0.0
  9
$DIMTXT
 40
0.18
  9
$DIMCEN
 40
0.09
  9
$DIMTSZ
 40
0.0
  9
$DIMTOL
 70
     0
  9
$DIMLIM
 70
     0
  9
$DIMTIH
 70
     1
  9
$DIMTOH
 70
     1
  9
$DIMSE1
 70
     0
  9
$DIMSE2
 70
     0
  9
$DIMTAD
 70
     0
  9
$DIMZIN
 70
     0
  9
$DIMBLK
  1

  9
$DIMASO
 70
     1
  9
$DIMSHO
 70
     1
  9
$DIMPOST
  1

  9
$DIMAPOST
  1

  9
$DIMALT
 70
     0
  9
$DIMALTD
 70
     2
  9
$DIMALTF
 40
25.4
  9
$DIMLFAC
 40
1.0
  9
$DIMTOFL
 70
     0
  9
$DIMTVP
 40
0.0
  9
$DIMTIX
 70
     0
  9
$DIMSOXD
 70
     0
  9
$DIMSAH
 70
     0
  9
$DIMBLK1
  1

  9
$DIMBLK2
  1

  9
$DIMSTYLE
  2
Standard
  9
$DIMCLRD
 70
     0
  9
$DIMCLRE
 70
     0
  9
$DIMCLRT
 70
     0
  9
$DIMTFAC
 40
1.0
  9
$DIMGAP
 40
0.09
  9
$DIMJUST
 70
     0
  9
$DIMSD1
 70
     0
  9
$DIMSD2
 70
     0
  9
$DIMTOLJ
 70
     1
  9
$DIMTZIN
 70
     0
  9
$DIMALTZ
 70
     0
  9
$DIMALTTZ
 70
     0
  9
$DIMUPT
 70
     0
  9
$DIMDEC
 70
     4
  9
$DIMTDEC
 70
     4
  9
$DIMALTU
 70
     2
  9
$DIMALTTD
 70
     2
  9
$DIMTXSTY
  7
Standard
  9
$DIMAUNIT
 70
     0
  9
$DIMADEC
 70
     0
  9
$DIMALTRND
 40
0.0
  9
$DIMAZIN
 70
     0
  9
$DIMDSEP
 70
    46
  9
$DIMATFIT
 70
     3
  9
$DIMFRAC
 70
     0
  9
$DIMLDRBLK
  1

  9
$DIMLUNIT
 70
     2
  9
$DIMLWD
 70
    -2
  9
$DIMLWE
 70
    -2
  9
$DIMTMOVE
 70
     0
  9
$DIMFXL
 40
1.0
  9
$DIMFXLON
 70
     0
  9
$DIMJOGANG
 40
0.7853981633974483
  9
$DIMTFILL
 70
     0
  9
$DIMTFILLCLR
 70
     0
  9
$DIMARCSYM
 70
     0
  9
$DIMLTYPE
  6

  9
$DIMLTEX1
  6

  9
$DIMLTEX2
  6

  9
$DIMTXTDIRECTION
 70
     0
  9
$LUNITS
 70
     2
  9
$LUPREC
 70
     4
  9
$SKETCHINC
 40
0.1
  9
$FILLETRAD
 40
0.5
  9
$AUNITS
 70
     0
  9
$AUPREC
 70
     0
  9
$MENU
  1
.
  9
$ELEVATION
 40
0.0
  9
$PELEVATION
 40
0.0
  9
$THICKNESS
 40
0.0
  9
$LIMCHECK
 70
     0
  9
$CHAMFERA
 40
0.5
  9
$CHAMFERB
 40
0.5
  9
$CHAMFERC
 40
1.0
  9
$CHAMFERD
 40
0.0
  9
$SKPOLY
 70
     0
  9
$TDCREATE
 40
2457812.68893772
  9
$TDUCREATE
 40
2457812.647271053
  9
$TDUPDATE
 40
2457812.688938808
  9
$TDUUPDATE
 40
2457812.647272141
  9
$TDINDWG
 40
0.0000000116
  9
$TDUSRTIMER
 40
0.0000000116
  9
$USRTIMER
 70
     1
  9
$ANGBASE
 50
0.0
  9
$ANGDIR
 70
     0
  9
$PDMODE
 70
     0
  9
$PDSIZE
 40
0.0
  9
$PLINEWID
 40
0.0
  9
$SPLFRAME
 70
     0
  9
$SPLINETYPE
 70
     6
  9
$SPLINESEGS
 70
     8
  9
$HANDSEED
  5
3CE
  9
$SURFTAB1
 70
     6
  9
$SURFTAB2
 70
     6
  9
$SURFTYPE
 70
     6
  9
$SURFU
 70
     6
  9
$SURFV
 70
     6
  9
$UCSBASE
  2

  9
$UCSNAME
  2

  9
$UCSORG
 10
0.0
 20
0.0
 30
0.0
  9
$UCSXDIR
 10
1.0
 20
0.0
 30
0.0
  9
$UCSYDIR
 10
0.0
 20
1.0
 30
0.0
  9
$UCSORTHOREF
  2

  9
$UCSORTHOVIEW
 70
     0
  9
$UCSORGTOP
 10
0.0
 20
0.0
 30
0.0
  9
$UCSORGBOTTOM
 10
0.0
 20
0.0
 30
0.0
  9
$UCSORGLEFT
 10
0.0
 20
0.0
 30
0.0
  9
$UCSORGRIGHT
 10
0.0
 20
0.0
 30
0.0
  9
$UCSORGFRONT
 10
0.0
 20
0.0
 30
0.0
  9
$UCSORGBACK
 10
0.0
 20
0.0
 30
0.0
  9
$PUCSBASE
  2

  9
$PUCSNAME
  2

  9
$PUCSORG
 10
0.0
 20
0.0
 30
0.0
  9
$PUCSXDIR
 10
1.0
 20
0.0
 30
0.0
  9
$PUCSYDIR
 10
0.0
 20
1.0
 30
0.0
  9
$PUCSORTHOREF
  2

  9
$PUCSORTHOVIEW
 70
     0
  9
$PUCSORGTOP
 10
0.0
 20
0.0
 30
0.0
  9
$PUCSORGBOTTOM
 10
0.0
 20
0.0
 30
0.0
  9
$PUCSORGLEFT
 10
0.0
 20
0.0
 30
0.0
  9
$PUCSORGRIGHT
 10
0.0
 20
0.0
 30
0.0
  9
$PUCSORGFRONT
 10
0.0
 20
0.0
 30
0.0
  9
$PUCSORGBACK
 10
0.0
 20
0.0
 30
0.0
  9
$USERI1
 70
     0
  9
$USERI2
 70
     0
  9
$USERI3
 70
     0
  9
$USERI4
 70
     0
  9
$USERI5
 70
     0
  9
$USERR1
 40
0.0
  9
$USERR2
 40
0.0
  9
$USERR3
 40
0.0
  9
$USERR4
 40
0.0
  9
$USERR5
 40
0.0
  9
$WORLDVIEW
 70
     1
  9
$SHADEDGE
 70
     3
  9
$SHADEDIF
 70
    70
  9
$TILEMODE
 70
     1
  9
$MAXACTVP
 70
    64
  9
$PINSBASE
 10
0.0
 20
0.0
 30
0.0
  9
$PLIMCHECK
 70
     0
  9
$PEXTMIN
 10
1.000000000000000E+20
 20
1.000000000000000E+20
 30
1.000000000000000E+20
  9
$PEXTMAX
 10
-1.000000000000000E+20
 20
-1.000000000000000E+20
 30
-1.000000000000000E+20
  9
$PLIMMIN
 10
0.0
 20
0.0
  9
$PLIMMAX
 10
12.0
 20
9.0
  9
$UNITMODE
 70
     0
  9
$VISRETAIN
 70
     1
  9
$PLINEGEN
 70
     0
  9
$PSLTSCALE
 70
     1
  9
$TREEDEPTH
 70
  3020
  9
$CMLSTYLE
  2
Standard
  9
$CMLJUST
 70
     0
  9
$CMLSCALE
 40
1.0
  9
$PROXYGRAPHICS
 70
     1
  9
$MEASUREMENT
 70
     0
  9
$CELWEIGHT
370
    -1
  9
$ENDCAPS
280
     0
  9
$JOINSTYLE
280
     0
  9
$LWDISPLAY
290
     1
  9
$INSUNITS
 70
     1
  9
$HYPERLINKBASE
  1

  9
$STYLESHEET
  1

  9
$XEDIT
290
     1
  9
$CEPSNTYPE
380
     0
  9
$PSTYLEMODE
290
     1
  9
$FINGERPRINTGUID
  2
{B14E1D5F-5645-40DD-9A32-21AE4B291166}
  9
$VERSIONGUID
  2
{FAEB1C32-E019-11D5-929B-00C0DF256EC4}
  9
$EXTNAMES
290
     1
  9
$PSVPSCALE
 40
0.0
  9
$OLESTARTUP
290
     0
  9
$SORTENTS
280
   127
  9
$INDEXCTL
280
     0
  9
$HIDETEXT
280
     1
  9
$XCLIPFRAME
280
     2
  9
$HALOGAP
280
     0
  9
$OBSCOLOR
 70
   257
  9
$OBSLTYPE
280
     0
  9
$INTERSECTIONDISPLAY
280
     0
  9
$INTERSECTIONCOLOR
 70
   257
  9
$DIMASSOC
280
     2
  9
$PROJECTNAME
  1

  9
$CAMERADISPLAY
290
     0
  9
$LENSLENGTH
 40
50.0
  9
$CAMERAHEIGHT
 40
0.0
  9
$STEPSPERSEC
 40
2.0
  9
$STEPSIZE
 40
6.0
  9
$3DDWFPREC
 40
2.0
  9
$PSOLWIDTH
 40
0.25
  9
$PSOLHEIGHT
 40
4.0
  9
$LOFTANG1
 40
1.570796326794897
  9
$LOFTANG2
 40
1.570796326794897
  9
$LOFTMAG1
 40
0.0
  9
$LOFTMAG2
 40
0.0
  9
$LOFTPARAM
 70
     7
  9
$LOFTNORMALS
280
     1
  9
$LATITUDE
 40
37.795
  9
$LONGITUDE
 40
-122.394
  9
$NORTHDIRECTION
 40
0.0
  9
$TIMEZONE
 70
 -8000
  9
$LIGHTGLYPHDISPLAY
280
     1
  9
$TILEMODELIGHTSYNCH
280
     1
  9
$CMATERIAL
347
3C
  9
$SOLIDHIST
280
     1
  9
$SHOWHIST
280
     1
  9
$DWFFRAME
280
     2
  9
$DGNFRAME
280
     2
  9
$REALWORLDSCALE
290
     1
  9
$INTERFERECOLOR
 62
   256
  9
$CSHADOW
280
     0
  9
$SHADOWPLANELOCATION
 40
0.0
  0
ENDSEC
  0
SECTION
  2
CLASSES
  0
CLASS
  1
ACDBDICTIONARYWDFLT
  2
AcDbDictionaryWithDefault
  3
ObjectDBX Classes
 90
        0
 91
        4
280
     0
281
     0
  0
CLASS
  1
VISUALSTYLE
  2
AcDbVisualStyle
  3
ObjectDBX Classes
 90
     4095
 91
        4
280
     0
281
     0
  0
CLASS
  1
MATERIAL
  2
AcDbMaterial
  3
ObjectDBX Classes
 90
     1153
 91
        4
280
     0
281
     0
  0
CLASS
  1
SUN
  2
AcDbSun
  3
SCENEOE
 90
     1024
 91
        4
280
     0
281
     0
  0
ENDSEC
  0
SECTION
  2
TABLES
  0
TABLE
  2
VPORT
  5
8
330
0
100
AcDbSymbolTable
 70
     1
  0
VPORT
  5
29
330
8
100
AcDbSymbolTableRecord
100
AcDbViewportTableRecord
  2
*Active
 70
     0
 10
0.0
 20
0.0
 11
1.0
 21
1.0
 12
0.0
 22
0.0
 13
0.0
 23
0.0
 14
0.5
 24
0.5
 15
0.5
 25
0.5
 16
0.0
 26
0.0
 36
1.0
 17
359.9991387988892
 27
-209.9997916141666
 37
0.0
 40
419.9995832283332
 41
1.714283314434506
 42
50.0
 43
0.0
 44
0.0
 50
0.0
 51
0.0
 71
     0
 72
   100
 73
     1
 74
     3
 75
     0
 76
     0
 77
     0
 78
     0
281
     0
 65
     1
110
0.0
120
0.0
130
0.0
111
1.0
121
0.0
131
0.0
112
0.0
122
1.0
132
0.0
 79
     0
146
0.0
 60
     3
 61
     5
292
     1
282
     1
141
0.0
142
0.0
 63
   250
361
3F
  0
ENDTAB
  0
TABLE
  2
LTYPE
  5
5
330
0
100
AcDbSymbolTable
 70
     1
  0
LTYPE
  5
14
330
5
100
AcDbSymbolTableRecord
100
AcDbLinetypeTableRecord
  2
ByBlock
 70
     0
  3

 72
    65
 73
     0
 40
0.0
  0
LTYPE
  5
15
330
5
100
AcDbSymbolTableRecord
100
AcDbLinetypeTableRecord
  2
ByLayer
 70
     0
  3

 72
    65
 73
     0
 40
0.0
  0
LTYPE
  5
16
330
5
100
AcDbSymbolTableRecord
100
AcDbLinetypeTableRecord
  2
Continuous
 70
     0
  3
Solid line
 72
    65
 73
     0
 40
0.0
  0
ENDTAB
  0
TABLE
  2
LAYER
  5
2
330
0
100
AcDbSymbolTable
 70
     2
  0
LAYER
  5
10
330
2
100
AcDbSymbolTableRecord
100
AcDbLayerTableRecord
  2
0
 70
     0
 62
     7
  6
Continuous
370
    -3
390
F
347
3E
  0
LAYER
  5
40
330
2
100
AcDbSymbolTableRecord
100
AcDbLayerTableRecord
  2
Calque 1
 70
     0
 62
     7
  6
Continuous
370
    -3
390
F
347
3E
  0
ENDTAB
  0
TABLE
  2
STYLE
  5
3
330
0
100
AcDbSymbolTable
 70
     1
  0
STYLE
  5
11
330
3
100
AcDbSymbolTableRecord
100
AcDbTextStyleTableRecord
  2
Standard
 70
     0
 40
0.0
 41
1.0
 50
0.0
 71
     0
 42
0.2
  3
txt
  4

  0
ENDTAB
  0
TABLE
  2
VIEW
  5
6
330
0
100
AcDbSymbolTable
 70
     0
  0
ENDTAB
  0
TABLE
  2
UCS
  5
7
330
0
100
AcDbSymbolTable
 70
     0
  0
ENDTAB
  0
TABLE
  2
APPID
  5
9
330
0
100
AcDbSymbolTable
 70
     1
  0
APPID
  5
12
330
9
100
AcDbSymbolTableRecord
100
AcDbRegAppTableRecord
  2
ACAD
 70
     0
  0
ENDTAB
  0
TABLE
  2
DIMSTYLE
  5
A
330
0
100
AcDbSymbolTable
 70
     1
100
AcDbDimStyleTable
  0
DIMSTYLE
105
27
330
A
100
AcDbSymbolTableRecord
100
AcDbDimStyleTableRecord
  2
Standard
 70
     0
178
     0
340
11
  0
ENDTAB
  0
TABLE
  2
BLOCK_RECORD
  5
1
330
0
100
AcDbSymbolTable
 70
    11
  0
BLOCK_RECORD
  5
1F
330
1
100
AcDbSymbolTableRecord
100
AcDbBlockTableRecord
  2
*Model_Space
340
22
 70
     0
280
     1
281
     0
  0
BLOCK_RECORD
  5
1B
330
1
100
AcDbSymbolTableRecord
100
AcDbBlockTableRecord
  2
*Paper_Space
340
1E
 70
     0
280
     1
281
     0
  0
BLOCK_RECORD
  5
23
330
1
100
AcDbSymbolTableRecord
100
AcDbBlockTableRecord
  2
*Paper_Space0
340
26
 70
     0
280
     1
281
     0
  0
BLOCK_RECORD
  5
41
330
1
100
AcDbSymbolTableRecord
100
AcDbBlockTableRecord
  2
block 2
340
0
102
{BLKREFS
331
42
102
}
 70
     0
280
     1
281
     0
  0
BLOCK_RECORD
  5
DC
330
1
100
AcDbSymbolTableRecord
100
AcDbBlockTableRecord
  2
block 3
340
0
102
{BLKREFS
331
DD
102
}
 70
     0
280
     1
281
     0
  0
BLOCK_RECORD
  5
14F
330
1
100
AcDbSymbolTableRecord
100
AcDbBlockTableRecord
  2
block 4
340
0
102
{BLKREFS
331
150
102
}
 70
     0
280
     1
281
     0
  0
BLOCK_RECORD
  5
153
330
1
100
AcDbSymbolTableRecord
100
AcDbBlockTableRecord
  2
block 5
340
0
102
{BLKREFS
331
154
102
}
 70
     0
280
     1
281
     0
  0
BLOCK_RECORD
  5
1F9
330
1
100
AcDbSymbolTableRecord
100
AcDbBlockTableRecord
  2
block 6
340
0
102
{BLKREFS
331
1FA
102
}
 70
     0
280
     1
281
     0
  0
BLOCK_RECORD
  5
1FD
330
1
100
AcDbSymbolTableRecord
100
AcDbBlockTableRecord
  2
block 7
340
0
102
{BLKREFS
331
1FE
102
}
 70
     0
280
     1
281
     0
  0
BLOCK_RECORD
  5
277
330
1
100
AcDbSymbolTableRecord
100
AcDbBlockTableRecord
  2
block 8
340
0
102
{BLKREFS
331
278
102
}
 70
     0
280
     1
281
     0
  0
BLOCK_RECORD
  5
27B
330
1
100
AcDbSymbolTableRecord
100
AcDbBlockTableRecord
  2
block 9
340
0
102
{BLKREFS
331
27C
102
}
 70
     0
280
     1
281
     0
  0
BLOCK_RECORD
  5
30F
330
1
100
AcDbSymbolTableRecord
100
AcDbBlockTableRecord
  2
block 10
340
0
102
{BLKREFS
331
310
102
}
 70
     0
280
     1
281
     0
  0
BLOCK_RECORD
  5
313
330
1
100
AcDbSymbolTableRecord
100
AcDbBlockTableRecord
  2
block 11
340
0
102
{BLKREFS
331
314
102
}
 70
     0
280
     1
281
     0
  0
ENDTAB
  0
ENDSEC
  0
SECTION
  2
BLOCKS
  0
BLOCK
  5
20
330
1F
100
AcDbEntity
  8
0
100
AcDbBlockBegin
  2
*Model_Space
 70
     0
 10
0.0
 20
0.0
 30
0.0
  3
*Model_Space
  1

  0
ENDBLK
  5
21
330
1F
100
AcDbEntity
  8
0
100
AcDbBlockEnd
  0
BLOCK
  5
1C
330
1B
100
AcDbEntity
 67
     1
  8
0
100
AcDbBlockBegin
  2
*Paper_Space
 70
     0
 10
0.0
 20
0.0
 30
0.0
  3
*Paper_Space
  1

  0
ENDBLK
  5
1D
330
1B
100
AcDbEntity
 67
     1
  8
0
100
AcDbBlockEnd
  0
BLOCK
  5
24
330
23
100
AcDbEntity
  8
0
100
AcDbBlockBegin
  2
*Paper_Space0
 70
     0
 10
0.0
 20
0.0
 30
0.0
  3
*Paper_Space0
  1

  0
ENDBLK
  5
25
330
23
100
AcDbEntity
  8
0
100
AcDbBlockEnd
  0
BLOCK
  5
43
330
41
100
AcDbEntity
  8
0
100
AcDbBlockBegin
  2
block 2
 70
     0
 10
0.0
 20
0.0
 30
0.0
  3
block 2
  1

  0
POLYLINE
  5
45
330
41
100
AcDbEntity
  8
Calque 1
370
     0
100
AcDb2dPolyline
 66
     1
 10
0.0
 20
0.0
 30
0.0
  0
VERTEX
  5
46
330
45
100
AcDbEntity
  8
Calque 1
370
     0
100
AcDbVertex
100
AcDb2dVertex
 10
155.0148263453308
 20
-3.215700444308934
 30
0.0
  0
VERTEX
  5
47
330
45
100
AcDbEntity
  8
Calque 1
370
     0
100
AcDbVertex
100
AcDb2dVertex
 10
164.0148257123909
 20
-3.215700444308934
 30
0.0
  0
VERTEX
  5
48
330
45
100
AcDbEntity
  8
Calque 1
370
     0
100
AcDbVertex
100
AcDb2dVertex
 10
164.0148257123909
 20
-6.215700143613362
 30
0.0
  0
VERTEX
  5
49
330
45
100
AcDbEntity
  8
Calque 1
370
     0
100
AcDbVertex
100
AcDb2dVertex
 10
173.0148250794511
 20
-6.215700143613362
 30
0.0
  0
VERTEX
  5
4A
330
45
100
AcDbEntity
  8
Calque 1
370
     0
100
AcDbVertex
100
AcDb2dVertex
 10
173.0148250794511
 20
-3.215700444308934
 30
0.0
  0
VERTEX
  5
4B
330
45
100
AcDbEntity
  8
Calque 1
370
     0
100
AcDbVertex
100
AcDb2dVertex
 10
179.0148239397637
 20
-3.215700444308934
 30
0.0
  0
VERTEX
  5
4C
330
45
100
AcDbEntity
  8
Calque 1
370
     0
100
AcDbVertex
100
AcDb2dVertex
 10
179.0148239397637
 20
-6.215700143613362
 30
0.0
  0
VERTEX
  5
4D
330
45
100
AcDbEntity
  8
Calque 1
370
     0
100
AcDbVertex
100
AcDb2dVertex
 10
185.0148249532592
 20
-6.215700143613362
 30
0.0
  0
VERTEX
  5
4E
330
45
100
AcDbEntity
  8
Calque 1
370
     0
100
AcDbVertex
100
AcDb2dVertex
 10
185.0148249532592
 20
-3.215700444308934
 30
0.0
  0
VERTEX
  5
4F
330
45
100
AcDbEntity
  8
Calque 1
370
     0
100
AcDbVertex
100
AcDb2dVertex
 10
191.0148238135717
 20
-3.215700444308934
 30
0.0
  0
VERTEX
  5
50
330
45
100
AcDbEntity
  8
Calque 1
370
     0
100
AcDbVertex
100
AcDb2dVertex
 10
191.0148238135717
 20
-6.215700143613362
 30
0.0
  0
VERTEX
  5
51
330
45
100
AcDbEntity
  8
Calque 1
370
     0
100
AcDbVertex
100
AcDb2dVertex
 10
197.0148226738843
 20
-6.215700143613362
 30
0.0
  0
VERTEX
  5
52
330
45
100
AcDbEntity
  8
Calque 1
370
     0
100
AcDbVertex
100
AcDb2dVertex
 10
197.0148226738843
 20
-3.215700444308934
 30
0.0
  0
VERTEX
  5
53
330
45
100
AcDbEntity
  8
Calque 1
370
     0
100
AcDbVertex
100
AcDb2dVertex
 10
203.0148215341968
 20
-3.215700444308934
 30
0.0
  0
VERTEX
  5
54
330
45
100
AcDbEntity
  8
Calque 1
370
     0
100
AcDbVertex
100
AcDb2dVertex
 10
203.0148215341968
 20
-6.215700143613362
 30
0.0
  0
VERTEX
  5
55
330
45
100
AcDbEntity
  8
Calque 1
370
     0
100
AcDbVertex
100
AcDb2dVertex
 10
209.014824700875
 20
-6.215700143613362
 30
0.0
  0
VERTEX
  5
56
330
45
100
AcDbEntity
  8
Calque 1
370
     0
100
AcDbVertex
100
AcDb2dVertex
 10
209.014824700875
 20
-3.215700444308934
 30
0.0
  0
VERTEX
  5
57
330
45
100
AcDbEntity
  8
Calque 1
370
     0
100
AcDbVertex
100
AcDb2dVertex
 10
215.0148235611875
 20
-3.215700444308934
 30
0.0
  0
VERTEX
  5
58
330
45
100
AcDbEntity
  8
Calque 1
370
     0
100
AcDbVertex
100
AcDb2dVertex
 10
215.0148235611875
 20
-6.215700143613362
 30
0.0
  0
VERTEX
  5
59
330
45
100
AcDbEntity
  8
Calque 1
370
     0
100
AcDbVertex
100
AcDb2dVertex
 10
221.0148224215001
 20
-6.215700143613362
 30
0.0
  0
VERTEX
  5
5A
330
45
100
AcDbEntity
  8
Calque 1
370
     0
100
AcDbVertex
100
AcDb2dVertex
 10
221.0148224215001
 20
-3.215700444308934
 30
0.0
  0
VERTEX
  5
5B
330
45
100
AcDbEntity
  8
Calque 1
370
     0
100
AcDbVertex
100
AcDb2dVertex
 10
227.0148212818126
 20
-3.215700444308934
 30
0.0
  0
VERTEX
  5
5C
330
45
100
AcDbEntity
  8
Calque 1
370
     0
100
AcDbVertex
100
AcDb2dVertex
 10
227.0148212818126
 20
-6.215700143613362
 30
0.0
  0
VERTEX
  5
5D
330
45
100
AcDbEntity
  8
Calque 1
370
     0
100
AcDbVertex
100
AcDb2dVertex
 10
233.0148201421252
 20
-6.215700143613362
 30
0.0
  0
VERTEX
  5
5E
330
45
100
AcDbEntity
  8
Calque 1
370
     0
100
AcDbVertex
100
AcDb2dVertex
 10
233.0148201421252
 20
-3.215700444308934
 30
0.0
  0
VERTEX
  5
5F
330
45
100
AcDbEntity
  8
Calque 1
370
     0
100
AcDbVertex
100
AcDb2dVertex
 10
239.0148190024377
 20
-3.215700444308934
 30
0.0
  0
VERTEX
  5
60
330
45
100
AcDbEntity
  8
Calque 1
370
     0
100
AcDbVertex
100
AcDb2dVertex
 10
239.0148190024377
 20
-6.215700143613362
 30
0.0
  0
VERTEX
  5
61
330
45
100
AcDbEntity
  8
Calque 1
370
     0
100
AcDbVertex
100
AcDb2dVertex
 10
245.0148178627503
 20
-6.215700143613362
 30
0.0
  0
VERTEX
  5
62
330
45
100
AcDbEntity
  8
Calque 1
370
     0
100
AcDbVertex
100
AcDb2dVertex
 10
245.0148178627503
 20
-3.215700444308934
 30
0.0
  0
VERTEX
  5
63
330
45
100
AcDbEntity
  8
Calque 1
370
     0
100
AcDbVertex
100
AcDb2dVertex
 10
251.0148167230629
 20
-3.215700444308934
 30
0.0
  0
VERTEX
  5
64
330
45
100
AcDbEntity
  8
Calque 1
370
     0
100
AcDbVertex
100
AcDb2dVertex
 10
251.0148167230629
 20
-6.215700143613362
 30
0.0
  0
VERTEX
  5
65
330
45
100
AcDbEntity
  8
Calque 1
370
     0
100
AcDbVertex
100
AcDb2dVertex
 10
257.0148241961066
 20
-6.215700143613362
 30
0.0
  0
VERTEX
  5
66
330
45
100
AcDbEntity
  8
Calque 1
370
     0
100
AcDbVertex
100
AcDb2dVertex
 10
257.0148241961066
 20
-3.215700444308934
 30
0.0
  0
VERTEX
  5
67
330
45
100
AcDbEntity
  8
Calque 1
370
     0
100
AcDbVertex
100
AcDb2dVertex
 10
263.0148230564191
 20
-3.215700444308934
 30
0.0
  0
VERTEX
  5
68
330
45
100
AcDbEntity
  8
Calque 1
370
     0
100
AcDbVertex
100
AcDb2dVertex
 10
263.0148230564191
 20
-6.215700143613362
 30
0.0
  0
VERTEX
  5
69
330
45
100
AcDbEntity
  8
Calque 1
370
     0
100
AcDbVertex
100
AcDb2dVertex
 10
269.0148219167316
 20
-6.215700143613362
 30
0.0
  0
VERTEX
  5
6A
330
45
100
AcDbEntity
  8
Calque 1
370
     0
100
AcDbVertex
100
AcDb2dVertex
 10
269.0148219167316
 20
-3.215700444308934
 30
0.0
  0
VERTEX
  5
6B
330
45
100
AcDbEntity
  8
Calque 1
370
     0
100
AcDbVertex
100
AcDb2dVertex
 10
275.0148207770442
 20
-3.215700444308934
 30
0.0
  0
VERTEX
  5
6C
330
45
100
AcDbEntity
  8
Calque 1
370
     0
100
AcDbVertex
100
AcDb2dVertex
 10
275.0148207770442
 20
-6.215700143613362
 30
0.0
  0
VERTEX
  5
6D
330
45
100
AcDbEntity
  8
Calque 1
370
     0
100
AcDbVertex
100
AcDb2dVertex
 10
281.0148196373568
 20
-6.215700143613362
 30
0.0
  0
VERTEX
  5
6E
330
45
100
AcDbEntity
  8
Calque 1
370
     0
100
AcDbVertex
100
AcDb2dVertex
 10
281.0148196373568
 20
-3.215700444308934
 30
0.0
  0
VERTEX
  5
6F
330
45
100
AcDbEntity
  8
Calque 1
370
     0
100
AcDbVertex
100
AcDb2dVertex
 10
287.0148184976694
 20
-3.215700444308934
 30
0.0
  0
VERTEX
  5
70
330
45
100
AcDbEntity
  8
Calque 1
370
     0
100
AcDbVertex
100
AcDb2dVertex
 10
287.0148184976694
 20
-6.215700143613362
 30
0.0
  0
VERTEX
  5
71
330
45
100
AcDbEntity
  8
Calque 1
370
     0
100
AcDbVertex
100
AcDb2dVertex
 10
296.0148210945038
 20
-6.215700143613362
 30
0.0
  0
VERTEX
  5
72
330
45
100
AcDbEntity
  8
Calque 1
370
     0
100
AcDbVertex
100
AcDb2dVertex
 10
296.0148210945038
 20
-3.215700444308934
 30
0.0
  0
VERTEX
  5
73
330
45
100
AcDbEntity
  8
Calque 1
370
     0
100
AcDbVertex
100
AcDb2dVertex
 10
305.0148236913382
 20
-3.215700444308934
 30
0.0
  0
VERTEX
  5
74
330
45
100
AcDbEntity
  8
Calque 1
370
     0
100
AcDbVertex
100
AcDb2dVertex
 10
305.0148236913382
 20
-11.71570008577498
 30
0.0
  0
VERTEX
  5
75
330
45
100
AcDbEntity
  8
Calque 1
370
     0
100
AcDbVertex
100
AcDb2dVertex
 10
302.0148199548163
 20
-11.71570008577498
 30
0.0
  0
VERTEX
  5
76
330
45
100
AcDbEntity
  8
Calque 1
370
     0
100
AcDbVertex
100
AcDb2dVertex
 10
302.0148199548163
 20
-20.21569972724102
 30
0.0
  0
VERTEX
  5
77
330
45
100
AcDbEntity
  8
Calque 1
370
     0
100
AcDbVertex
100
AcDb2dVertex
 10
305.0148236913382
 20
-20.21569972724102
 30
0.0
  0
VERTEX
  5
78
330
45
100
AcDbEntity
  8
Calque 1
370
     0
100
AcDbVertex
100
AcDb2dVertex
 10
305.0148236913382
 20
-26.21569966414553
 30
0.0
  0
VERTEX
  5
79
330
45
100
AcDbEntity
  8
Calque 1
370
     0
100
AcDbVertex
100
AcDb2dVertex
 10
302.0148199548163
 20
-26.21569966414553
 30
0.0
  0
VERTEX
  5
7A
330
45
100
AcDbEntity
  8
Calque 1
370
     0
100
AcDbVertex
100
AcDb2dVertex
 10
302.0148199548163
 20
-32.21569852445808
 30
0.0
  0
VERTEX
  5
7B
330
45
100
AcDbEntity
  8
Calque 1
370
     0
100
AcDbVertex
100
AcDb2dVertex
 10
305.0148236913382
 20
-32.21569852445808
 30
0.0
  0
VERTEX
  5
7C
330
45
100
AcDbEntity
  8
Calque 1
370
     0
100
AcDbVertex
100
AcDb2dVertex
 10
305.0148236913382
 20
-38.21569738477064
 30
0.0
  0
VERTEX
  5
7D
330
45
100
AcDbEntity
  8
Calque 1
370
     0
100
AcDbVertex
100
AcDb2dVertex
 10
302.0148199548163
 20
-38.21569738477064
 30
0.0
  0
VERTEX
  5
7E
330
45
100
AcDbEntity
  8
Calque 1
370
     0
100
AcDbVertex
100
AcDb2dVertex
 10
302.0148199548163
 20
-44.21569839826583
 30
0.0
  0
VERTEX
  5
7F
330
45
100
AcDbEntity
  8
Calque 1
370
     0
100
AcDbVertex
100
AcDb2dVertex
 10
305.0148236913382
 20
-44.21569839826583
 30
0.0
  0
VERTEX
  5
80
330
45
100
AcDbEntity
  8
Calque 1
370
     0
100
AcDbVertex
100
AcDb2dVertex
 10
305.0148236913382
 20
-50.21569725857839
 30
0.0
  0
VERTEX
  5
81
330
45
100
AcDbEntity
  8
Calque 1
370
     0
100
AcDbVertex
100
AcDb2dVertex
 10
302.0148199548163
 20
-50.21569725857839
 30
0.0
  0
VERTEX
  5
82
330
45
100
AcDbEntity
  8
Calque 1
370
     0
100
AcDbVertex
100
AcDb2dVertex
 10
302.0148199548163
 20
-56.21569611889095
 30
0.0
  0
VERTEX
  5
83
330
45
100
AcDbEntity
  8
Calque 1
370
     0
100
AcDbVertex
100
AcDb2dVertex
 10
305.0148236913382
 20
-56.21569611889095
 30
0.0
  0
VERTEX
  5
84
330
45
100
AcDbEntity
  8
Calque 1
370
     0
100
AcDbVertex
100
AcDb2dVertex
 10
305.0148236913382
 20
-62.2156949792035
 30
0.0
  0
VERTEX
  5
85
330
45
100
AcDbEntity
  8
Calque 1
370
     0
100
AcDbVertex
100
AcDb2dVertex
 10
302.0148199548163
 20
-62.2156949792035
 30
0.0
  0
VERTEX
  5
86
330
45
100
AcDbEntity
  8
Calque 1
370
     0
100
AcDbVertex
100
AcDb2dVertex
 10
302.0148199548163
 20
-68.21569814588099
 30
0.0
  0
VERTEX
  5
87
330
45
100
AcDbEntity
  8
Calque 1
370
     0
100
AcDbVertex
100
AcDb2dVertex
 10
305.0148236913382
 20
-68.21569814588099
 30
0.0
  0
VERTEX
  5
88
330
45
100
AcDbEntity
  8
Calque 1
370
     0
100
AcDbVertex
100
AcDb2dVertex
 10
305.0148236913382
 20
-74.21569700619386
 30
0.0
  0
VERTEX
  5
89
330
45
100
AcDbEntity
  8
Calque 1
370
     0
100
AcDbVertex
100
AcDb2dVertex
 10
302.0148199548163
 20
-74.21569700619386
 30
0.0
  0
VERTEX
  5
8A
330
45
100
AcDbEntity
  8
Calque 1
370
     0
100
AcDbVertex
100
AcDb2dVertex
 10
302.0148199548163
 20
-80.21569586650642
 30
0.0
  0
VERTEX
  5
8B
330
45
100
AcDbEntity
  8
Calque 1
370
     0
100
AcDbVertex
100
AcDb2dVertex
 10
305.0148236913382
 20
-80.21569586650642
 30
0.0
  0
VERTEX
  5
8C
330
45
100
AcDbEntity
  8
Calque 1
370
     0
100
AcDbVertex
100
AcDb2dVertex
 10
305.0148236913382
 20
-86.21569472681898
 30
0.0
  0
VERTEX
  5
8D
330
45
100
AcDbEntity
  8
Calque 1
370
     0
100
AcDbVertex
100
AcDb2dVertex
 10
302.0148199548163
 20
-86.21569472681898
 30
0.0
  0
VERTEX
  5
8E
330
45
100
AcDbEntity
  8
Calque 1
370
     0
100
AcDbVertex
100
AcDb2dVertex
 10
302.0148199548163
 20
-94.71569382998936
 30
0.0
  0
VERTEX
  5
8F
330
45
100
AcDbEntity
  8
Calque 1
370
     0
100
AcDbVertex
100
AcDb2dVertex
 10
305.0148236913382
 20
-94.71569382998936
 30
0.0
  0
VERTEX
  5
90
330
45
100
AcDbEntity
  8
Calque 1
370
     0
100
AcDbVertex
100
AcDb2dVertex
 10
305.0148236913382
 20
-103.2156929331598
 30
0.0
  0
VERTEX
  5
91
330
45
100
AcDbEntity
  8
Calque 1
370
     0
100
AcDbVertex
100
AcDb2dVertex
 10
296.0148210945038
 20
-103.2156929331598
 30
0.0
  0
VERTEX
  5
92
330
45
100
AcDbEntity
  8
Calque 1
370
     0
100
AcDbVertex
100
AcDb2dVertex
 10
296.0148210945038
 20
-100.2156978093687
 30
0.0
  0
VERTEX
  5
93
330
45
100
AcDbEntity
  8
Calque 1
370
     0
100
AcDbVertex
100
AcDb2dVertex
 10
287.0148184976694
 20
-100.2156978093687
 30
0.0
  0
VERTEX
  5
94
330
45
100
AcDbEntity
  8
Calque 1
370
     0
100
AcDbVertex
100
AcDb2dVertex
 10
287.0148184976694
 20
-103.2156929331598
 30
0.0
  0
VERTEX
  5
95
330
45
100
AcDbEntity
  8
Calque 1
370
     0
100
AcDbVertex
100
AcDb2dVertex
 10
281.0148196373568
 20
-103.2156929331598
 30
0.0
  0
VERTEX
  5
96
330
45
100
AcDbEntity
  8
Calque 1
370
     0
100
AcDbVertex
100
AcDb2dVertex
 10
281.0148196373568
 20
-100.2156978093687
 30
0.0
  0
VERTEX
  5
97
330
45
100
AcDbEntity
  8
Calque 1
370
     0
100
AcDbVertex
100
AcDb2dVertex
 10
275.0148207770442
 20
-100.2156978093687
 30
0.0
  0
VERTEX
  5
98
330
45
100
AcDbEntity
  8
Calque 1
370
     0
100
AcDbVertex
100
AcDb2dVertex
 10
275.0148207770442
 20
-103.2156929331598
 30
0.0
  0
VERTEX
  5
99
330
45
100
AcDbEntity
  8
Calque 1
370
     0
100
AcDbVertex
100
AcDb2dVertex
 10
269.0148219167316
 20
-103.2156929331598
 30
0.0
  0
VERTEX
  5
9A
330
45
100
AcDbEntity
  8
Calque 1
370
     0
100
AcDbVertex
100
AcDb2dVertex
 10
269.0148219167316
 20
-100.2156978093687
 30
0.0
  0
VERTEX
  5
9B
330
45
100
AcDbEntity
  8
Calque 1
370
     0
100
AcDbVertex
100
AcDb2dVertex
 10
263.0148230564191
 20
-100.2156978093687
 30
0.0
  0
VERTEX
  5
9C
330
45
100
AcDbEntity
  8
Calque 1
370
     0
100
AcDbVertex
100
AcDb2dVertex
 10
263.0148230564191
 20
-103.2156929331598
 30
0.0
  0
VERTEX
  5
9D
330
45
100
AcDbEntity
  8
Calque 1
370
     0
100
AcDbVertex
100
AcDb2dVertex
 10
257.0148241961066
 20
-103.2156929331598
 30
0.0
  0
VERTEX
  5
9E
330
45
100
AcDbEntity
  8
Calque 1
370
     0
100
AcDbVertex
100
AcDb2dVertex
 10
257.0148241961066
 20
-100.2156978093687
 30
0.0
  0
VERTEX
  5
9F
330
45
100
AcDbEntity
  8
Calque 1
370
     0
100
AcDbVertex
100
AcDb2dVertex
 10
251.0148167230629
 20
-100.2156978093687
 30
0.0
  0
VERTEX
  5
A0
330
45
100
AcDbEntity
  8
Calque 1
370
     0
100
AcDbVertex
100
AcDb2dVertex
 10
251.0148167230629
 20
-103.2156929331598
 30
0.0
  0
VERTEX
  5
A1
330
45
100
AcDbEntity
  8
Calque 1
370
     0
100
AcDbVertex
100
AcDb2dVertex
 10
245.0148178627503
 20
-103.2156929331598
 30
0.0
  0
VERTEX
  5
A2
330
45
100
AcDbEntity
  8
Calque 1
370
     0
100
AcDbVertex
100
AcDb2dVertex
 10
245.0148178627503
 20
-100.2156978093687
 30
0.0
  0
VERTEX
  5
A3
330
45
100
AcDbEntity
  8
Calque 1
370
     0
100
AcDbVertex
100
AcDb2dVertex
 10
239.0148190024377
 20
-100.2156978093687
 30
0.0
  0
VERTEX
  5
A4
330
45
100
AcDbEntity
  8
Calque 1
370
     0
100
AcDbVertex
100
AcDb2dVertex
 10
239.0148190024377
 20
-103.2156929331598
 30
0.0
  0
VERTEX
  5
A5
330
45
100
AcDbEntity
  8
Calque 1
370
     0
100
AcDbVertex
100
AcDb2dVertex
 10
233.0148201421252
 20
-103.2156929331598
 30
0.0
  0
VERTEX
  5
A6
330
45
100
AcDbEntity
  8
Calque 1
370
     0
100
AcDbVertex
100
AcDb2dVertex
 10
233.0148201421252
 20
-100.2156978093687
 30
0.0
  0
VERTEX
  5
A7
330
45
100
AcDbEntity
  8
Calque 1
370
     0
100
AcDbVertex
100
AcDb2dVertex
 10
227.0148212818126
 20
-100.2156978093687
 30
0.0
  0
VERTEX
  5
A8
330
45
100
AcDbEntity
  8
Calque 1
370
     0
100
AcDbVertex
100
AcDb2dVertex
 10
227.0148212818126
 20
-103.2156929331598
 30
0.0
  0
VERTEX
  5
A9
330
45
100
AcDbEntity
  8
Calque 1
370
     0
100
AcDbVertex
100
AcDb2dVertex
 10
221.0148224215001
 20
-103.2156929331598
 30
0.0
  0
VERTEX
  5
AA
330
45
100
AcDbEntity
  8
Calque 1
370
     0
100
AcDbVertex
100
AcDb2dVertex
 10
221.0148224215001
 20
-100.2156978093687
 30
0.0
  0
VERTEX
  5
AB
330
45
100
AcDbEntity
  8
Calque 1
370
     0
100
AcDbVertex
100
AcDb2dVertex
 10
215.0148235611875
 20
-100.2156978093687
 30
0.0
  0
VERTEX
  5
AC
330
45
100
AcDbEntity
  8
Calque 1
370
     0
100
AcDbVertex
100
AcDb2dVertex
 10
215.0148235611875
 20
-103.2156929331598
 30
0.0
  0
VERTEX
  5
AD
330
45
100
AcDbEntity
  8
Calque 1
370
     0
100
AcDbVertex
100
AcDb2dVertex
 10
209.014824700875
 20
-103.2156929331598
 30
0.0
  0
VERTEX
  5
AE
330
45
100
AcDbEntity
  8
Calque 1
370
     0
100
AcDbVertex
100
AcDb2dVertex
 10
209.014824700875
 20
-100.2156978093687
 30
0.0
  0
VERTEX
  5
AF
330
45
100
AcDbEntity
  8
Calque 1
370
     0
100
AcDbVertex
100
AcDb2dVertex
 10
203.0148215341968
 20
-100.2156978093687
 30
0.0
  0
VERTEX
  5
B0
330
45
100
AcDbEntity
  8
Calque 1
370
     0
100
AcDbVertex
100
AcDb2dVertex
 10
203.0148215341968
 20
-103.2156929331598
 30
0.0
  0
VERTEX
  5
B1
330
45
100
AcDbEntity
  8
Calque 1
370
     0
100
AcDbVertex
100
AcDb2dVertex
 10
197.0148226738843
 20
-103.2156929331598
 30
0.0
  0
VERTEX
  5
B2
330
45
100
AcDbEntity
  8
Calque 1
370
     0
100
AcDbVertex
100
AcDb2dVertex
 10
197.0148226738843
 20
-100.2156978093687
 30
0.0
  0
VERTEX
  5
B3
330
45
100
AcDbEntity
  8
Calque 1
370
     0
100
AcDbVertex
100
AcDb2dVertex
 10
191.0148238135717
 20
-100.2156978093687
 30
0.0
  0
VERTEX
  5
B4
330
45
100
AcDbEntity
  8
Calque 1
370
     0
100
AcDbVertex
100
AcDb2dVertex
 10
191.0148238135717
 20
-103.2156929331598
 30
0.0
  0
VERTEX
  5
B5
330
45
100
AcDbEntity
  8
Calque 1
370
     0
100
AcDbVertex
100
AcDb2dVertex
 10
185.0148249532592
 20
-103.2156929331598
 30
0.0
  0
VERTEX
  5
B6
330
45
100
AcDbEntity
  8
Calque 1
370
     0
100
AcDbVertex
100
AcDb2dVertex
 10
185.0148249532592
 20
-100.2156978093687
 30
0.0
  0
VERTEX
  5
B7
330
45
100
AcDbEntity
  8
Calque 1
370
     0
100
AcDbVertex
100
AcDb2dVertex
 10
179.0148239397637
 20
-100.2156978093687
 30
0.0
  0
VERTEX
  5
B8
330
45
100
AcDbEntity
  8
Calque 1
370
     0
100
AcDbVertex
100
AcDb2dVertex
 10
179.0148239397637
 20
-103.2156929331598
 30
0.0
  0
VERTEX
  5
B9
330
45
100
AcDbEntity
  8
Calque 1
370
     0
100
AcDbVertex
100
AcDb2dVertex
 10
173.0148250794511
 20
-103.2156929331598
 30
0.0
  0
VERTEX
  5
BA
330
45
100
AcDbEntity
  8
Calque 1
370
     0
100
AcDbVertex
100
AcDb2dVertex
 10
173.0148250794511
 20
-100.2156978093687
 30
0.0
  0
VERTEX
  5
BB
330
45
100
AcDbEntity
  8
Calque 1
370
     0
100
AcDbVertex
100
AcDb2dVertex
 10
164.0148257123909
 20
-100.2156978093687
 30
0.0
  0
VERTEX
  5
BC
330
45
100
AcDbEntity
  8
Calque 1
370
     0
100
AcDbVertex
100
AcDb2dVertex
 10
164.0148257123909
 20
-103.2156929331598
 30
0.0
  0
VERTEX
  5
BD
330
45
100
AcDbEntity
  8
Calque 1
370
     0
100
AcDbVertex
100
AcDb2dVertex
 10
155.0148263453308
 20
-103.2156929331598
 30
0.0
  0
VERTEX
  5
BE
330
45
100
AcDbEntity
  8
Calque 1
370
     0
100
AcDbVertex
100
AcDb2dVertex
 10
155.0148263453308
 20
-94.71569382998936
 30
0.0
  0
VERTEX
  5
BF
330
45
100
AcDbEntity
  8
Calque 1
370
     0
100
AcDbVertex
100
AcDb2dVertex
 10
158.0148260446352
 20
-94.71569382998936
 30
0.0
  0
VERTEX
  5
C0
330
45
100
AcDbEntity
  8
Calque 1
370
     0
100
AcDbVertex
100
AcDb2dVertex
 10
158.0148260446352
 20
-86.21569472681898
 30
0.0
  0
VERTEX
  5
C1
330
45
100
AcDbEntity
  8
Calque 1
370
     0
100
AcDbVertex
100
AcDb2dVertex
 10
155.0148263453308
 20
-86.21569472681898
 30
0.0
  0
VERTEX
  5
C2
330
45
100
AcDbEntity
  8
Calque 1
370
     0
100
AcDbVertex
100
AcDb2dVertex
 10
155.0148263453308
 20
-80.21569586650642
 30
0.0
  0
VERTEX
  5
C3
330
45
100
AcDbEntity
  8
Calque 1
370
     0
100
AcDbVertex
100
AcDb2dVertex
 10
158.0148260446352
 20
-80.21569586650642
 30
0.0
  0
VERTEX
  5
C4
330
45
100
AcDbEntity
  8
Calque 1
370
     0
100
AcDbVertex
100
AcDb2dVertex
 10
158.0148260446352
 20
-74.21569700619386
 30
0.0
  0
VERTEX
  5
C5
330
45
100
AcDbEntity
  8
Calque 1
370
     0
100
AcDbVertex
100
AcDb2dVertex
 10
155.0148263453308
 20
-74.21569700619386
 30
0.0
  0
VERTEX
  5
C6
330
45
100
AcDbEntity
  8
Calque 1
370
     0
100
AcDbVertex
100
AcDb2dVertex
 10
155.0148263453308
 20
-68.21569814588099
 30
0.0
  0
VERTEX
  5
C7
330
45
100
AcDbEntity
  8
Calque 1
370
     0
100
AcDbVertex
100
AcDb2dVertex
 10
158.0148260446352
 20
-68.21569814588099
 30
0.0
  0
VERTEX
  5
C8
330
45
100
AcDbEntity
  8
Calque 1
370
     0
100
AcDbVertex
100
AcDb2dVertex
 10
158.0148260446352
 20
-62.2156949792035
 30
0.0
  0
VERTEX
  5
C9
330
45
100
AcDbEntity
  8
Calque 1
370
     0
100
AcDbVertex
100
AcDb2dVertex
 10
155.0148263453308
 20
-62.2156949792035
 30
0.0
  0
VERTEX
  5
CA
330
45
100
AcDbEntity
  8
Calque 1
370
     0
100
AcDbVertex
100
AcDb2dVertex
 10
155.0148263453308
 20
-56.21569611889095
 30
0.0
  0
VERTEX
  5
CB
330
45
100
AcDbEntity
  8
Calque 1
370
     0
100
AcDbVertex
100
AcDb2dVertex
 10
158.0148260446352
 20
-56.21569611889095
 30
0.0
  0
VERTEX
  5
CC
330
45
100
AcDbEntity
  8
Calque 1
370
     0
100
AcDbVertex
100
AcDb2dVertex
 10
158.0148260446352
 20
-50.21569725857839
 30
0.0
  0
VERTEX
  5
CD
330
45
100
AcDbEntity
  8
Calque 1
370
     0
100
AcDbVertex
100
AcDb2dVertex
 10
155.0148263453308
 20
-50.21569725857839
 30
0.0
  0
VERTEX
  5
CE
330
45
100
AcDbEntity
  8
Calque 1
370
     0
100
AcDbVertex
100
AcDb2dVertex
 10
155.0148263453308
 20
-44.21569839826583
 30
0.0
  0
VERTEX
  5
CF
330
45
100
AcDbEntity
  8
Calque 1
370
     0
100
AcDbVertex
100
AcDb2dVertex
 10
158.0148260446352
 20
-44.21569839826583
 30
0.0
  0
VERTEX
  5
D0
330
45
100
AcDbEntity
  8
Calque 1
370
     0
100
AcDbVertex
100
AcDb2dVertex
 10
158.0148260446352
 20
-38.21569738477064
 30
0.0
  0
VERTEX
  5
D1
330
45
100
AcDbEntity
  8
Calque 1
370
     0
100
AcDbVertex
100
AcDb2dVertex
 10
155.0148263453308
 20
-38.21569738477064
 30
0.0
  0
VERTEX
  5
D2
330
45
100
AcDbEntity
  8
Calque 1
370
     0
100
AcDbVertex
100
AcDb2dVertex
 10
155.0148263453308
 20
-32.21569852445808
 30
0.0
  0
VERTEX
  5
D3
330
45
100
AcDbEntity
  8
Calque 1
370
     0
100
AcDbVertex
100
AcDb2dVertex
 10
158.0148260446352
 20
-32.21569852445808
 30
0.0
  0
VERTEX
  5
D4
330
45
100
AcDbEntity
  8
Calque 1
370
     0
100
AcDbVertex
100
AcDb2dVertex
 10
158.0148260446352
 20
-26.21569966414553
 30
0.0
  0
VERTEX
  5
D5
330
45
100
AcDbEntity
  8
Calque 1
370
     0
100
AcDbVertex
100
AcDb2dVertex
 10
155.0148263453308
 20
-26.21569966414553
 30
0.0
  0
VERTEX
  5
D6
330
45
100
AcDbEntity
  8
Calque 1
370
     0
100
AcDbVertex
100
AcDb2dVertex
 10
155.0148263453308
 20
-20.21569972724102
 30
0.0
  0
VERTEX
  5
D7
330
45
100
AcDbEntity
  8
Calque 1
370
     0
100
AcDbVertex
100
AcDb2dVertex
 10
158.0148260446352
 20
-20.21569972724102
 30
0.0
  0
VERTEX
  5
D8
330
45
100
AcDbEntity
  8
Calque 1
370
     0
100
AcDbVertex
100
AcDb2dVertex
 10
158.0148260446352
 20
-11.71570008577498
 30
0.0
  0
VERTEX
  5
D9
330
45
100
AcDbEntity
  8
Calque 1
370
     0
100
AcDbVertex
100
AcDb2dVertex
 10
155.0148263453308
 20
-11.71570008577498
 30
0.0
  0
VERTEX
  5
DA
330
45
100
AcDbEntity
  8
Calque 1
370
     0
100
AcDbVertex
100
AcDb2dVertex
 10
155.0148263453308
 20
-3.215700444308934
 30
0.0
  0
SEQEND
  5
DB
330
45
100
AcDbEntity
  8
Calque 1
370
     0
  0
ENDBLK
  5
44
330
41
100
AcDbEntity
  8
0
100
AcDbBlockEnd
  0
BLOCK
  5
DE
330
DC
100
AcDbEntity
  8
0
100
AcDbBlockBegin
  2
block 3
 70
     0
 10
0.0
 20
0.0
 30
0.0
  3
block 3
  1

  0
POLYLINE
  5
E0
330
DC
100
AcDbEntity
  8
Calque 1
370
     0
100
AcDb2dPolyline
 66
     1
 10
0.0
 20
0.0
 30
0.0
  0
VERTEX
  5
E1
330
E0
100
AcDbEntity
  8
Calque 1
370
     0
100
AcDbVertex
100
AcDb2dVertex
 10
402.7658903554882
 20
-3.215700444308934
 30
0.0
  0
VERTEX
  5
E2
330
E0
100
AcDbEntity
  8
Calque 1
370
     0
100
AcDbVertex
100
AcDb2dVertex
 10
408.7658900232424
 20
-3.215700444308934
 30
0.0
  0
VERTEX
  5
E3
330
E0
100
AcDbEntity
  8
Calque 1
370
     0
100
AcDbVertex
100
AcDb2dVertex
 10
408.7658900232424
 20
-6.215700143613362
 30
0.0
  0
VERTEX
  5
E4
330
E0
100
AcDbEntity
  8
Calque 1
370
     0
100
AcDbVertex
100
AcDb2dVertex
 10
417.7658893903028
 20
-6.215700143613362
 30
0.0
  0
VERTEX
  5
E5
330
E0
100
AcDbEntity
  8
Calque 1
370
     0
100
AcDbVertex
100
AcDb2dVertex
 10
417.7658893903028
 20
-3.215700444308934
 30
0.0
  0
VERTEX
  5
E6
330
E0
100
AcDbEntity
  8
Calque 1
370
     0
100
AcDbVertex
100
AcDb2dVertex
 10
423.7658882506154
 20
-3.215700444308934
 30
0.0
  0
VERTEX
  5
E7
330
E0
100
AcDbEntity
  8
Calque 1
370
     0
100
AcDbVertex
100
AcDb2dVertex
 10
423.7658882506154
 20
-6.215700143613362
 30
0.0
  0
VERTEX
  5
E8
330
E0
100
AcDbEntity
  8
Calque 1
370
     0
100
AcDbVertex
100
AcDb2dVertex
 10
429.7658892641138
 20
-6.215700143613362
 30
0.0
  0
VERTEX
  5
E9
330
E0
100
AcDbEntity
  8
Calque 1
370
     0
100
AcDbVertex
100
AcDb2dVertex
 10
429.7658892641138
 20
-3.215700444308934
 30
0.0
  0
VERTEX
  5
EA
330
E0
100
AcDbEntity
  8
Calque 1
370
     0
100
AcDbVertex
100
AcDb2dVertex
 10
435.7658881244231
 20
-3.215700444308934
 30
0.0
  0
VERTEX
  5
EB
330
E0
100
AcDbEntity
  8
Calque 1
370
     0
100
AcDbVertex
100
AcDb2dVertex
 10
435.7658881244231
 20
-6.215700143613362
 30
0.0
  0
VERTEX
  5
EC
330
E0
100
AcDbEntity
  8
Calque 1
370
     0
100
AcDbVertex
100
AcDb2dVertex
 10
441.7658869847389
 20
-6.215700143613362
 30
0.0
  0
VERTEX
  5
ED
330
E0
100
AcDbEntity
  8
Calque 1
370
     0
100
AcDbVertex
100
AcDb2dVertex
 10
441.7658869847389
 20
-3.215700444308934
 30
0.0
  0
VERTEX
  5
EE
330
E0
100
AcDbEntity
  8
Calque 1
370
     0
100
AcDbVertex
100
AcDb2dVertex
 10
447.7658858450482
 20
-3.215700444308934
 30
0.0
  0
VERTEX
  5
EF
330
E0
100
AcDbEntity
  8
Calque 1
370
     0
100
AcDbVertex
100
AcDb2dVertex
 10
447.7658858450482
 20
-6.215700143613362
 30
0.0
  0
VERTEX
  5
F0
330
E0
100
AcDbEntity
  8
Calque 1
370
     0
100
AcDbVertex
100
AcDb2dVertex
 10
453.7658890117299
 20
-6.215700143613362
 30
0.0
  0
VERTEX
  5
F1
330
E0
100
AcDbEntity
  8
Calque 1
370
     0
100
AcDbVertex
100
AcDb2dVertex
 10
453.7658890117299
 20
-3.215700444308934
 30
0.0
  0
VERTEX
  5
F2
330
E0
100
AcDbEntity
  8
Calque 1
370
     0
100
AcDbVertex
100
AcDb2dVertex
 10
459.7658878720425
 20
-3.215700444308934
 30
0.0
  0
VERTEX
  5
F3
330
E0
100
AcDbEntity
  8
Calque 1
370
     0
100
AcDbVertex
100
AcDb2dVertex
 10
459.7658878720425
 20
-6.215700143613362
 30
0.0
  0
VERTEX
  5
F4
330
E0
100
AcDbEntity
  8
Calque 1
370
     0
100
AcDbVertex
100
AcDb2dVertex
 10
465.765886732355
 20
-6.215700143613362
 30
0.0
  0
VERTEX
  5
F5
330
E0
100
AcDbEntity
  8
Calque 1
370
     0
100
AcDbVertex
100
AcDb2dVertex
 10
465.765886732355
 20
-3.215700444308934
 30
0.0
  0
VERTEX
  5
F6
330
E0
100
AcDbEntity
  8
Calque 1
370
     0
100
AcDbVertex
100
AcDb2dVertex
 10
471.7658855926676
 20
-3.215700444308934
 30
0.0
  0
VERTEX
  5
F7
330
E0
100
AcDbEntity
  8
Calque 1
370
     0
100
AcDbVertex
100
AcDb2dVertex
 10
471.7658855926676
 20
-6.215700143613362
 30
0.0
  0
VERTEX
  5
F8
330
E0
100
AcDbEntity
  8
Calque 1
370
     0
100
AcDbVertex
100
AcDb2dVertex
 10
480.7658881895001
 20
-6.215700143613362
 30
0.0
  0
VERTEX
  5
F9
330
E0
100
AcDbEntity
  8
Calque 1
370
     0
100
AcDbVertex
100
AcDb2dVertex
 10
480.7658881895001
 20
-3.215700444308934
 30
0.0
  0
VERTEX
  5
FA
330
E0
100
AcDbEntity
  8
Calque 1
370
     0
100
AcDbVertex
100
AcDb2dVertex
 10
486.7658870498126
 20
-3.215700444308934
 30
0.0
  0
VERTEX
  5
FB
330
E0
100
AcDbEntity
  8
Calque 1
370
     0
100
AcDbVertex
100
AcDb2dVertex
 10
486.7658870498126
 20
-11.71570008577498
 30
0.0
  0
VERTEX
  5
FC
330
E0
100
AcDbEntity
  8
Calque 1
370
     0
100
AcDbVertex
100
AcDb2dVertex
 10
489.7658821736014
 20
-11.71570008577498
 30
0.0
  0
VERTEX
  5
FD
330
E0
100
AcDbEntity
  8
Calque 1
370
     0
100
AcDbVertex
100
AcDb2dVertex
 10
489.7658821736014
 20
-20.21569972724102
 30
0.0
  0
VERTEX
  5
FE
330
E0
100
AcDbEntity
  8
Calque 1
370
     0
100
AcDbVertex
100
AcDb2dVertex
 10
486.7658870498126
 20
-20.21569972724102
 30
0.0
  0
VERTEX
  5
FF
330
E0
100
AcDbEntity
  8
Calque 1
370
     0
100
AcDbVertex
100
AcDb2dVertex
 10
486.7658870498126
 20
-26.21569966414489
 30
0.0
  0
VERTEX
  5
100
330
E0
100
AcDbEntity
  8
Calque 1
370
     0
100
AcDbVertex
100
AcDb2dVertex
 10
489.7658821736014
 20
-26.21569966414489
 30
0.0
  0
VERTEX
  5
101
330
E0
100
AcDbEntity
  8
Calque 1
370
     0
100
AcDbVertex
100
AcDb2dVertex
 10
489.7658821736014
 20
-32.21569852445744
 30
0.0
  0
VERTEX
  5
102
330
E0
100
AcDbEntity
  8
Calque 1
370
     0
100
AcDbVertex
100
AcDb2dVertex
 10
486.7658870498126
 20
-32.21569852445744
 30
0.0
  0
VERTEX
  5
103
330
E0
100
AcDbEntity
  8
Calque 1
370
     0
100
AcDbVertex
100
AcDb2dVertex
 10
486.7658870498126
 20
-38.21569738477
 30
0.0
  0
VERTEX
  5
104
330
E0
100
AcDbEntity
  8
Calque 1
370
     0
100
AcDbVertex
100
AcDb2dVertex
 10
489.7658821736014
 20
-38.21569738477
 30
0.0
  0
VERTEX
  5
105
330
E0
100
AcDbEntity
  8
Calque 1
370
     0
100
AcDbVertex
100
AcDb2dVertex
 10
489.7658821736014
 20
-44.21569839826583
 30
0.0
  0
VERTEX
  5
106
330
E0
100
AcDbEntity
  8
Calque 1
370
     0
100
AcDbVertex
100
AcDb2dVertex
 10
486.7658870498126
 20
-44.21569839826583
 30
0.0
  0
VERTEX
  5
107
330
E0
100
AcDbEntity
  8
Calque 1
370
     0
100
AcDbVertex
100
AcDb2dVertex
 10
486.7658870498126
 20
-50.21569725857774
 30
0.0
  0
VERTEX
  5
108
330
E0
100
AcDbEntity
  8
Calque 1
370
     0
100
AcDbVertex
100
AcDb2dVertex
 10
489.7658821736014
 20
-50.21569725857774
 30
0.0
  0
VERTEX
  5
109
330
E0
100
AcDbEntity
  8
Calque 1
370
     0
100
AcDbVertex
100
AcDb2dVertex
 10
489.7658821736014
 20
-56.21569611889095
 30
0.0
  0
VERTEX
  5
10A
330
E0
100
AcDbEntity
  8
Calque 1
370
     0
100
AcDbVertex
100
AcDb2dVertex
 10
486.7658870498126
 20
-56.21569611889095
 30
0.0
  0
VERTEX
  5
10B
330
E0
100
AcDbEntity
  8
Calque 1
370
     0
100
AcDbVertex
100
AcDb2dVertex
 10
486.7658870498126
 20
-62.21569497920286
 30
0.0
  0
VERTEX
  5
10C
330
E0
100
AcDbEntity
  8
Calque 1
370
     0
100
AcDbVertex
100
AcDb2dVertex
 10
489.7658821736014
 20
-62.21569497920286
 30
0.0
  0
VERTEX
  5
10D
330
E0
100
AcDbEntity
  8
Calque 1
370
     0
100
AcDbVertex
100
AcDb2dVertex
 10
489.7658821736014
 20
-68.21569814588099
 30
0.0
  0
VERTEX
  5
10E
330
E0
100
AcDbEntity
  8
Calque 1
370
     0
100
AcDbVertex
100
AcDb2dVertex
 10
486.7658870498126
 20
-68.21569814588099
 30
0.0
  0
VERTEX
  5
10F
330
E0
100
AcDbEntity
  8
Calque 1
370
     0
100
AcDbVertex
100
AcDb2dVertex
 10
486.7658870498126
 20
-74.21569700619386
 30
0.0
  0
VERTEX
  5
110
330
E0
100
AcDbEntity
  8
Calque 1
370
     0
100
AcDbVertex
100
AcDb2dVertex
 10
489.7658821736014
 20
-74.21569700619386
 30
0.0
  0
VERTEX
  5
111
330
E0
100
AcDbEntity
  8
Calque 1
370
     0
100
AcDbVertex
100
AcDb2dVertex
 10
489.7658821736014
 20
-80.21569586650675
 30
0.0
  0
VERTEX
  5
112
330
E0
100
AcDbEntity
  8
Calque 1
370
     0
100
AcDbVertex
100
AcDb2dVertex
 10
486.7658870498126
 20
-80.21569586650675
 30
0.0
  0
VERTEX
  5
113
330
E0
100
AcDbEntity
  8
Calque 1
370
     0
100
AcDbVertex
100
AcDb2dVertex
 10
486.7658870498126
 20
-86.21569472681867
 30
0.0
  0
VERTEX
  5
114
330
E0
100
AcDbEntity
  8
Calque 1
370
     0
100
AcDbVertex
100
AcDb2dVertex
 10
489.7658821736014
 20
-86.21569472681867
 30
0.0
  0
VERTEX
  5
115
330
E0
100
AcDbEntity
  8
Calque 1
370
     0
100
AcDbVertex
100
AcDb2dVertex
 10
489.7658821736014
 20
-94.71569382998969
 30
0.0
  0
VERTEX
  5
116
330
E0
100
AcDbEntity
  8
Calque 1
370
     0
100
AcDbVertex
100
AcDb2dVertex
 10
486.7658870498126
 20
-94.71569382998969
 30
0.0
  0
VERTEX
  5
117
330
E0
100
AcDbEntity
  8
Calque 1
370
     0
100
AcDbVertex
100
AcDb2dVertex
 10
486.7658870498126
 20
-103.2156929331594
 30
0.0
  0
VERTEX
  5
118
330
E0
100
AcDbEntity
  8
Calque 1
370
     0
100
AcDbVertex
100
AcDb2dVertex
 10
480.7658881895001
 20
-103.2156929331594
 30
0.0
  0
VERTEX
  5
119
330
E0
100
AcDbEntity
  8
Calque 1
370
     0
100
AcDbVertex
100
AcDb2dVertex
 10
480.7658881895001
 20
-100.2156978093694
 30
0.0
  0
VERTEX
  5
11A
330
E0
100
AcDbEntity
  8
Calque 1
370
     0
100
AcDbVertex
100
AcDb2dVertex
 10
471.7658855926676
 20
-100.2156978093694
 30
0.0
  0
VERTEX
  5
11B
330
E0
100
AcDbEntity
  8
Calque 1
370
     0
100
AcDbVertex
100
AcDb2dVertex
 10
471.7658855926676
 20
-103.2156929331594
 30
0.0
  0
VERTEX
  5
11C
330
E0
100
AcDbEntity
  8
Calque 1
370
     0
100
AcDbVertex
100
AcDb2dVertex
 10
465.765886732355
 20
-103.2156929331594
 30
0.0
  0
VERTEX
  5
11D
330
E0
100
AcDbEntity
  8
Calque 1
370
     0
100
AcDbVertex
100
AcDb2dVertex
 10
465.765886732355
 20
-100.2156978093694
 30
0.0
  0
VERTEX
  5
11E
330
E0
100
AcDbEntity
  8
Calque 1
370
     0
100
AcDbVertex
100
AcDb2dVertex
 10
459.7658878720425
 20
-100.2156978093694
 30
0.0
  0
VERTEX
  5
11F
330
E0
100
AcDbEntity
  8
Calque 1
370
     0
100
AcDbVertex
100
AcDb2dVertex
 10
459.7658878720425
 20
-103.2156929331594
 30
0.0
  0
VERTEX
  5
120
330
E0
100
AcDbEntity
  8
Calque 1
370
     0
100
AcDbVertex
100
AcDb2dVertex
 10
453.7658890117299
 20
-103.2156929331594
 30
0.0
  0
VERTEX
  5
121
330
E0
100
AcDbEntity
  8
Calque 1
370
     0
100
AcDbVertex
100
AcDb2dVertex
 10
453.7658890117299
 20
-100.2156978093694
 30
0.0
  0
VERTEX
  5
122
330
E0
100
AcDbEntity
  8
Calque 1
370
     0
100
AcDbVertex
100
AcDb2dVertex
 10
447.7658858450482
 20
-100.2156978093694
 30
0.0
  0
VERTEX
  5
123
330
E0
100
AcDbEntity
  8
Calque 1
370
     0
100
AcDbVertex
100
AcDb2dVertex
 10
447.7658858450482
 20
-103.2156929331594
 30
0.0
  0
VERTEX
  5
124
330
E0
100
AcDbEntity
  8
Calque 1
370
     0
100
AcDbVertex
100
AcDb2dVertex
 10
441.7658869847389
 20
-103.2156929331594
 30
0.0
  0
VERTEX
  5
125
330
E0
100
AcDbEntity
  8
Calque 1
370
     0
100
AcDbVertex
100
AcDb2dVertex
 10
441.7658869847389
 20
-100.2156978093694
 30
0.0
  0
VERTEX
  5
126
330
E0
100
AcDbEntity
  8
Calque 1
370
     0
100
AcDbVertex
100
AcDb2dVertex
 10
435.7658881244231
 20
-100.2156978093694
 30
0.0
  0
VERTEX
  5
127
330
E0
100
AcDbEntity
  8
Calque 1
370
     0
100
AcDbVertex
100
AcDb2dVertex
 10
435.7658881244231
 20
-103.2156929331594
 30
0.0
  0
VERTEX
  5
128
330
E0
100
AcDbEntity
  8
Calque 1
370
     0
100
AcDbVertex
100
AcDb2dVertex
 10
429.7658892641138
 20
-103.2156929331594
 30
0.0
  0
VERTEX
  5
129
330
E0
100
AcDbEntity
  8
Calque 1
370
     0
100
AcDbVertex
100
AcDb2dVertex
 10
429.7658892641138
 20
-100.2156978093694
 30
0.0
  0
VERTEX
  5
12A
330
E0
100
AcDbEntity
  8
Calque 1
370
     0
100
AcDbVertex
100
AcDb2dVertex
 10
423.7658882506154
 20
-100.2156978093694
 30
0.0
  0
VERTEX
  5
12B
330
E0
100
AcDbEntity
  8
Calque 1
370
     0
100
AcDbVertex
100
AcDb2dVertex
 10
423.7658882506154
 20
-103.2156929331594
 30
0.0
  0
VERTEX
  5
12C
330
E0
100
AcDbEntity
  8
Calque 1
370
     0
100
AcDbVertex
100
AcDb2dVertex
 10
417.7658893903028
 20
-103.2156929331594
 30
0.0
  0
VERTEX
  5
12D
330
E0
100
AcDbEntity
  8
Calque 1
370
     0
100
AcDbVertex
100
AcDb2dVertex
 10
417.7658893903028
 20
-100.2156978093694
 30
0.0
  0
VERTEX
  5
12E
330
E0
100
AcDbEntity
  8
Calque 1
370
     0
100
AcDbVertex
100
AcDb2dVertex
 10
408.7658900232424
 20
-100.2156978093694
 30
0.0
  0
VERTEX
  5
12F
330
E0
100
AcDbEntity
  8
Calque 1
370
     0
100
AcDbVertex
100
AcDb2dVertex
 10
408.7658900232424
 20
-103.2156929331594
 30
0.0
  0
VERTEX
  5
130
330
E0
100
AcDbEntity
  8
Calque 1
370
     0
100
AcDbVertex
100
AcDb2dVertex
 10
402.7658903554882
 20
-103.2156929331594
 30
0.0
  0
VERTEX
  5
131
330
E0
100
AcDbEntity
  8
Calque 1
370
     0
100
AcDbVertex
100
AcDb2dVertex
 10
402.7658903554882
 20
-94.71569382998969
 30
0.0
  0
VERTEX
  5
132
330
E0
100
AcDbEntity
  8
Calque 1
370
     0
100
AcDbVertex
100
AcDb2dVertex
 10
399.7658906561819
 20
-94.71569382998969
 30
0.0
  0
VERTEX
  5
133
330
E0
100
AcDbEntity
  8
Calque 1
370
     0
100
AcDbVertex
100
AcDb2dVertex
 10
399.7658906561819
 20
-86.21569472681867
 30
0.0
  0
VERTEX
  5
134
330
E0
100
AcDbEntity
  8
Calque 1
370
     0
100
AcDbVertex
100
AcDb2dVertex
 10
402.7658903554882
 20
-86.21569472681867
 30
0.0
  0
VERTEX
  5
135
330
E0
100
AcDbEntity
  8
Calque 1
370
     0
100
AcDbVertex
100
AcDb2dVertex
 10
402.7658903554882
 20
-80.21569586650675
 30
0.0
  0
VERTEX
  5
136
330
E0
100
AcDbEntity
  8
Calque 1
370
     0
100
AcDbVertex
100
AcDb2dVertex
 10
399.7658906561819
 20
-80.21569586650675
 30
0.0
  0
VERTEX
  5
137
330
E0
100
AcDbEntity
  8
Calque 1
370
     0
100
AcDbVertex
100
AcDb2dVertex
 10
399.7658906561819
 20
-74.21569700619386
 30
0.0
  0
VERTEX
  5
138
330
E0
100
AcDbEntity
  8
Calque 1
370
     0
100
AcDbVertex
100
AcDb2dVertex
 10
402.7658903554882
 20
-74.21569700619386
 30
0.0
  0
VERTEX
  5
139
330
E0
100
AcDbEntity
  8
Calque 1
370
     0
100
AcDbVertex
100
AcDb2dVertex
 10
402.7658903554882
 20
-68.21569814588099
 30
0.0
  0
VERTEX
  5
13A
330
E0
100
AcDbEntity
  8
Calque 1
370
     0
100
AcDbVertex
100
AcDb2dVertex
 10
399.7658906561819
 20
-68.21569814588099
 30
0.0
  0
VERTEX
  5
13B
330
E0
100
AcDbEntity
  8
Calque 1
370
     0
100
AcDbVertex
100
AcDb2dVertex
 10
399.7658906561819
 20
-62.21569497920286
 30
0.0
  0
VERTEX
  5
13C
330
E0
100
AcDbEntity
  8
Calque 1
370
     0
100
AcDbVertex
100
AcDb2dVertex
 10
402.7658903554882
 20
-62.21569497920286
 30
0.0
  0
VERTEX
  5
13D
330
E0
100
AcDbEntity
  8
Calque 1
370
     0
100
AcDbVertex
100
AcDb2dVertex
 10
402.7658903554882
 20
-56.21569611889095
 30
0.0
  0
VERTEX
  5
13E
330
E0
100
AcDbEntity
  8
Calque 1
370
     0
100
AcDbVertex
100
AcDb2dVertex
 10
399.7658906561819
 20
-56.21569611889095
 30
0.0
  0
VERTEX
  5
13F
330
E0
100
AcDbEntity
  8
Calque 1
370
     0
100
AcDbVertex
100
AcDb2dVertex
 10
399.7658906561819
 20
-50.21569725857774
 30
0.0
  0
VERTEX
  5
140
330
E0
100
AcDbEntity
  8
Calque 1
370
     0
100
AcDbVertex
100
AcDb2dVertex
 10
402.7658903554882
 20
-50.21569725857774
 30
0.0
  0
VERTEX
  5
141
330
E0
100
AcDbEntity
  8
Calque 1
370
     0
100
AcDbVertex
100
AcDb2dVertex
 10
402.7658903554882
 20
-44.21569839826583
 30
0.0
  0
VERTEX
  5
142
330
E0
100
AcDbEntity
  8
Calque 1
370
     0
100
AcDbVertex
100
AcDb2dVertex
 10
399.7658906561819
 20
-44.21569839826583
 30
0.0
  0
VERTEX
  5
143
330
E0
100
AcDbEntity
  8
Calque 1
370
     0
100
AcDbVertex
100
AcDb2dVertex
 10
399.7658906561819
 20
-38.21569738477
 30
0.0
  0
VERTEX
  5
144
330
E0
100
AcDbEntity
  8
Calque 1
370
     0
100
AcDbVertex
100
AcDb2dVertex
 10
402.7658903554882
 20
-38.21569738477
 30
0.0
  0
VERTEX
  5
145
330
E0
100
AcDbEntity
  8
Calque 1
370
     0
100
AcDbVertex
100
AcDb2dVertex
 10
402.7658903554882
 20
-32.21569852445744
 30
0.0
  0
VERTEX
  5
146
330
E0
100
AcDbEntity
  8
Calque 1
370
     0
100
AcDbVertex
100
AcDb2dVertex
 10
399.7658906561819
 20
-32.21569852445744
 30
0.0
  0
VERTEX
  5
147
330
E0
100
AcDbEntity
  8
Calque 1
370
     0
100
AcDbVertex
100
AcDb2dVertex
 10
399.7658906561819
 20
-26.21569966414489
 30
0.0
  0
VERTEX
  5
148
330
E0
100
AcDbEntity
  8
Calque 1
370
     0
100
AcDbVertex
100
AcDb2dVertex
 10
402.7658903554882
 20
-26.21569966414489
 30
0.0
  0
VERTEX
  5
149
330
E0
100
AcDbEntity
  8
Calque 1
370
     0
100
AcDbVertex
100
AcDb2dVertex
 10
402.7658903554882
 20
-20.21569972724102
 30
0.0
  0
VERTEX
  5
14A
330
E0
100
AcDbEntity
  8
Calque 1
370
     0
100
AcDbVertex
100
AcDb2dVertex
 10
399.7658906561819
 20
-20.21569972724102
 30
0.0
  0
VERTEX
  5
14B
330
E0
100
AcDbEntity
  8
Calque 1
370
     0
100
AcDbVertex
100
AcDb2dVertex
 10
399.7658906561819
 20
-11.71570008577498
 30
0.0
  0
VERTEX
  5
14C
330
E0
100
AcDbEntity
  8
Calque 1
370
     0
100
AcDbVertex
100
AcDb2dVertex
 10
402.7658903554882
 20
-11.71570008577498
 30
0.0
  0
VERTEX
  5
14D
330
E0
100
AcDbEntity
  8
Calque 1
370
     0
100
AcDbVertex
100
AcDb2dVertex
 10
402.7658903554882
 20
-3.215700444308934
 30
0.0
  0
SEQEND
  5
14E
330
E0
100
AcDbEntity
  8
Calque 1
370
     0
  0
ENDBLK
  5
DF
330
DC
100
AcDbEntity
  8
0
100
AcDbBlockEnd
  0
BLOCK
  5
151
330
14F
100
AcDbEntity
  8
0
100
AcDbBlockBegin
  2
block 4
 70
     0
 10
0.0
 20
0.0
 30
0.0
  3
block 4
  1

  0
INSERT
  5
154
330
14F
100
AcDbEntity
  8
Calque 1
100
AcDbBlockReference
  2
block 5
 10
0.0
 20
0.0
 30
0.0
  0
POLYLINE
  5
1EE
330
14F
100
AcDbEntity
  8
Calque 1
370
     0
100
AcDb2dPolyline
 66
     1
 10
0.0
 20
0.0
 30
0.0
  0
VERTEX
  5
1EF
330
1EE
100
AcDbEntity
  8
Calque 1
370
     0
100
AcDbVertex
100
AcDb2dVertex
 10
141.8916659536373
 20
-85.21570040602678
 30
0.0
  0
VERTEX
  5
1F0
330
1EE
100
AcDbEntity
  8
Calque 1
370
     0
100
AcDbVertex
100
AcDb2dVertex
 10
13.39166598576229
 20
-85.21570040602678
 30
0.0
  0
VERTEX
  5
1F1
330
1EE
100
AcDbEntity
  8
Calque 1
370
     0
100
AcDbVertex
100
AcDb2dVertex
 10
13.39166598576229
 20
-21.21570042202817
 30
0.0
  0
VERTEX
  5
1F2
330
1EE
100
AcDbEntity
  8
Calque 1
370
     0
100
AcDbVertex
100
AcDb2dVertex
 10
141.8916659536373
 20
-21.21570042202817
 30
0.0
  0
VERTEX
  5
1F3
330
1EE
100
AcDbEntity
  8
Calque 1
370
     0
100
AcDbVertex
100
AcDb2dVertex
 10
141.8916659536373
 20
-85.21570040602678
 30
0.0
  0
SEQEND
  5
1F4
330
1EE
100
AcDbEntity
  8
Calque 1
370
     0
  0
SPLINE
  5
1F5
330
14F
100
AcDbEntity
  8
Calque 1
370
     0
100
AcDbSpline
210
0.0
220
0.0
230
1.0
 70
    11
 71
     3
 72
    17
 73
    13
 74
     0
 42
0.0000000001
 43
0.0000000001
 12
1.0
 22
0.0
 32
0.0
 13
1.0
 23
0.0
 33
0.0
 40
0.0
 40
0.0
 40
0.0
 40
0.0
 40
1.0
 40
1.0
 40
1.0
 40
2.0
 40
2.0
 40
2.0
 40
3.0
 40
3.0
 40
3.0
 40
4.0
 40
4.0
 40
4.0
 40
4.0
 10
20.96899065055402
 20
-15.9157004233531
 30
0.0
 10
20.96899065055402
 20
-17.1583411100927
 30
0.0
 10
19.95798509510445
 20
-18.16570042279056
 30
0.0
 10
18.71084653998784
 20
-18.16570042279056
 30
0.0
 10
17.4637079848706
 20
-18.16570042279056
 30
0.0
 10
16.45270242942038
 20
-17.1583411100927
 30
0.0
 10
16.45270242942038
 20
-15.9157004233531
 30
0.0
 10
16.45270242942038
 20
-14.67305973661413
 30
0.0
 10
17.4637079848706
 20
-13.66570042391498
 30
0.0
 10
18.71084653998784
 20
-13.66570042391498
 30
0.0
 10
19.95798509510445
 20
-13.66570042391498
 30
0.0
 10
20.96899065055402
 20
-14.67305973661413
 30
0.0
 10
20.96899065055402
 20
-15.9157004233531
 30
0.0
  0
SPLINE
  5
1F6
330
14F
100
AcDbEntity
  8
Calque 1
370
     0
100
AcDbSpline
210
0.0
220
0.0
230
1.0
 70
    11
 71
     3
 72
    17
 73
    13
 74
     0
 42
0.0000000001
 43
0.0000000001
 12
1.0
 22
0.0
 32
0.0
 13
1.0
 23
0.0
 33
0.0
 40
0.0
 40
0.0
 40
0.0
 40
0.0
 40
1.0
 40
1.0
 40
1.0
 40
2.0
 40
2.0
 40
2.0
 40
3.0
 40
3.0
 40
3.0
 40
4.0
 40
4.0
 40
4.0
 40
4.0
 10
138.8306295099779
 20
-15.9157004233531
 30
0.0
 10
138.8306295099779
 20
-17.1583411100927
 30
0.0
 10
137.8196239545283
 20
-18.16570042279056
 30
0.0
 10
136.5724853994111
 20
-18.16570042279056
 30
0.0
 10
135.3253468442948
 20
-18.16570042279056
 30
0.0
 10
134.3143412888446
 20
-17.1583411100927
 30
0.0
 10
134.3143412888446
 20
-15.9157004233531
 30
0.0
 10
134.3143412888446
 20
-14.67305973661413
 30
0.0
 10
135.3253468442948
 20
-13.66570042391498
 30
0.0
 10
136.5724853994111
 20
-13.66570042391498
 30
0.0
 10
137.8196239545283
 20
-13.66570042391498
 30
0.0
 10
138.8306295099779
 20
-14.67305973661413
 30
0.0
 10
138.8306295099779
 20
-15.9157004233531
 30
0.0
  0
SPLINE
  5
1F7
330
14F
100
AcDbEntity
  8
Calque 1
370
     0
100
AcDbSpline
210
0.0
220
0.0
230
1.0
 70
    11
 71
     3
 72
    17
 73
    13
 74
     0
 42
0.0000000001
 43
0.0000000001
 12
1.0
 22
0.0
 32
0.0
 13
1.0
 23
0.0
 33
0.0
 40
0.0
 40
0.0
 40
0.0
 40
0.0
 40
1.0
 40
1.0
 40
1.0
 40
2.0
 40
2.0
 40
2.0
 40
3.0
 40
3.0
 40
3.0
 40
4.0
 40
4.0
 40
4.0
 40
4.0
 10
138.8242822877573
 20
-90.51570040470283
 30
0.0
 10
138.8242822877573
 20
-91.75834109144242
 30
0.0
 10
137.8132767323071
 20
-92.76570040414062
 30
0.0
 10
136.5661381771914
 20
-92.76570040414062
 30
0.0
 10
135.3189996220739
 20
-92.76570040414062
 30
0.0
 10
134.3079940666233
 20
-91.75834109144242
 30
0.0
 10
134.3079940666233
 20
-90.51570040470283
 30
0.0
 10
134.3079940666233
 20
-89.27305971796322
 30
0.0
 10
135.3189996220739
 20
-88.26570040526535
 30
0.0
 10
136.5661381771914
 20
-88.26570040526535
 30
0.0
 10
137.8132767323071
 20
-88.26570040526535
 30
0.0
 10
138.8242822877573
 20
-89.27305971796322
 30
0.0
 10
138.8242822877573
 20
-90.51570040470283
 30
0.0
  0
SPLINE
  5
1F8
330
14F
100
AcDbEntity
  8
Calque 1
370
     0
100
AcDbSpline
210
0.0
220
0.0
230
1.0
 70
    11
 71
     3
 72
    17
 73
    13
 74
     0
 42
0.0000000001
 43
0.0000000001
 12
1.0
 22
0.0
 32
0.0
 13
1.0
 23
0.0
 33
0.0
 40
0.0
 40
0.0
 40
0.0
 40
0.0
 40
1.0
 40
1.0
 40
1.0
 40
2.0
 40
2.0
 40
2.0
 40
3.0
 40
3.0
 40
3.0
 40
4.0
 40
4.0
 40
4.0
 40
4.0
 10
20.96899065055402
 20
-90.51570040470283
 30
0.0
 10
20.96899065055402
 20
-91.75834109144242
 30
0.0
 10
19.95798509510381
 20
-92.76570040414062
 30
0.0
 10
18.71084653998753
 20
-92.76570040414062
 30
0.0
 10
17.4637079848706
 20
-92.76570040414062
 30
0.0
 10
16.45270242942038
 20
-91.75834109144242
 30
0.0
 10
16.45270242942038
 20
-90.51570040470283
 30
0.0
 10
16.45270242942038
 20
-89.27305971796322
 30
0.0
 10
17.4637079848706
 20
-88.26570040526535
 30
0.0
 10
18.71084653998753
 20
-88.26570040526535
 30
0.0
 10
19.95798509510381
 20
-88.26570040526535
 30
0.0
 10
20.96899065055402
 20
-89.27305971796322
 30
0.0
 10
20.96899065055402
 20
-90.51570040470283
 30
0.0
  0
ENDBLK
  5
152
330
14F
100
AcDbEntity
  8
0
100
AcDbBlockEnd
  0
BLOCK
  5
155
330
153
100
AcDbEntity
  8
0
100
AcDbBlockBegin
  2
block 5
 70
     0
 10
0.0
 20
0.0
 30
0.0
  3
block 5
  1

  0
POLYLINE
  5
157
330
153
100
AcDbEntity
  8
Calque 1
370
     0
100
AcDb2dPolyline
 66
     1
 10
0.0
 20
0.0
 30
0.0
  0
VERTEX
  5
158
330
157
100
AcDbEntity
  8
Calque 1
370
     0
100
AcDbVertex
100
AcDb2dVertex
 10
2.641667296696101
 20
-3.215700444308934
 30
0.0
  0
VERTEX
  5
159
330
157
100
AcDbEntity
  8
Calque 1
370
     0
100
AcDbVertex
100
AcDb2dVertex
 10
11.64166666375625
 20
-3.215700444308934
 30
0.0
  0
VERTEX
  5
15A
330
157
100
AcDbEntity
  8
Calque 1
370
     0
100
AcDbVertex
100
AcDb2dVertex
 10
11.64166666375625
 20
-6.215700143613362
 30
0.0
  0
VERTEX
  5
15B
330
157
100
AcDbEntity
  8
Calque 1
370
     0
100
AcDbVertex
100
AcDb2dVertex
 10
20.6416660308164
 20
-6.215700143613362
 30
0.0
  0
VERTEX
  5
15C
330
157
100
AcDbEntity
  8
Calque 1
370
     0
100
AcDbVertex
100
AcDb2dVertex
 10
20.6416660308164
 20
-3.215700444308934
 30
0.0
  0
VERTEX
  5
15D
330
157
100
AcDbEntity
  8
Calque 1
370
     0
100
AcDbVertex
100
AcDb2dVertex
 10
26.64166489112896
 20
-3.215700444308934
 30
0.0
  0
VERTEX
  5
15E
330
157
100
AcDbEntity
  8
Calque 1
370
     0
100
AcDbVertex
100
AcDb2dVertex
 10
26.64166489112896
 20
-6.215700143613362
 30
0.0
  0
VERTEX
  5
15F
330
157
100
AcDbEntity
  8
Calque 1
370
     0
100
AcDbVertex
100
AcDb2dVertex
 10
32.64166590462446
 20
-6.215700143613362
 30
0.0
  0
VERTEX
  5
160
330
157
100
AcDbEntity
  8
Calque 1
370
     0
100
AcDbVertex
100
AcDb2dVertex
 10
32.64166590462446
 20
-3.215700444308934
 30
0.0
  0
VERTEX
  5
161
330
157
100
AcDbEntity
  8
Calque 1
370
     0
100
AcDbVertex
100
AcDb2dVertex
 10
38.64166476493702
 20
-3.215700444308934
 30
0.0
  0
VERTEX
  5
162
330
157
100
AcDbEntity
  8
Calque 1
370
     0
100
AcDbVertex
100
AcDb2dVertex
 10
38.64166476493702
 20
-6.215700143613362
 30
0.0
  0
VERTEX
  5
163
330
157
100
AcDbEntity
  8
Calque 1
370
     0
100
AcDbVertex
100
AcDb2dVertex
 10
44.64166362524958
 20
-6.215700143613362
 30
0.0
  0
VERTEX
  5
164
330
157
100
AcDbEntity
  8
Calque 1
370
     0
100
AcDbVertex
100
AcDb2dVertex
 10
44.64166362524958
 20
-3.215700444308934
 30
0.0
  0
VERTEX
  5
165
330
157
100
AcDbEntity
  8
Calque 1
370
     0
100
AcDbVertex
100
AcDb2dVertex
 10
50.64166248556214
 20
-3.215700444308934
 30
0.0
  0
VERTEX
  5
166
330
157
100
AcDbEntity
  8
Calque 1
370
     0
100
AcDbVertex
100
AcDb2dVertex
 10
50.64166248556214
 20
-6.215700143613362
 30
0.0
  0
VERTEX
  5
167
330
157
100
AcDbEntity
  8
Calque 1
370
     0
100
AcDbVertex
100
AcDb2dVertex
 10
56.64166565224026
 20
-6.215700143613362
 30
0.0
  0
VERTEX
  5
168
330
157
100
AcDbEntity
  8
Calque 1
370
     0
100
AcDbVertex
100
AcDb2dVertex
 10
56.64166565224026
 20
-3.215700444308934
 30
0.0
  0
VERTEX
  5
169
330
157
100
AcDbEntity
  8
Calque 1
370
     0
100
AcDbVertex
100
AcDb2dVertex
 10
62.64166451255314
 20
-3.215700444308934
 30
0.0
  0
VERTEX
  5
16A
330
157
100
AcDbEntity
  8
Calque 1
370
     0
100
AcDbVertex
100
AcDb2dVertex
 10
62.64166451255314
 20
-6.215700143613362
 30
0.0
  0
VERTEX
  5
16B
330
157
100
AcDbEntity
  8
Calque 1
370
     0
100
AcDbVertex
100
AcDb2dVertex
 10
68.64166337286538
 20
-6.215700143613362
 30
0.0
  0
VERTEX
  5
16C
330
157
100
AcDbEntity
  8
Calque 1
370
     0
100
AcDbVertex
100
AcDb2dVertex
 10
68.64166337286538
 20
-3.215700444308934
 30
0.0
  0
VERTEX
  5
16D
330
157
100
AcDbEntity
  8
Calque 1
370
     0
100
AcDbVertex
100
AcDb2dVertex
 10
74.64166223317794
 20
-3.215700444308934
 30
0.0
  0
VERTEX
  5
16E
330
157
100
AcDbEntity
  8
Calque 1
370
     0
100
AcDbVertex
100
AcDb2dVertex
 10
74.64166223317794
 20
-6.215700143613362
 30
0.0
  0
VERTEX
  5
16F
330
157
100
AcDbEntity
  8
Calque 1
370
     0
100
AcDbVertex
100
AcDb2dVertex
 10
80.6416610934905
 20
-6.215700143613362
 30
0.0
  0
VERTEX
  5
170
330
157
100
AcDbEntity
  8
Calque 1
370
     0
100
AcDbVertex
100
AcDb2dVertex
 10
80.6416610934905
 20
-3.215700444308934
 30
0.0
  0
VERTEX
  5
171
330
157
100
AcDbEntity
  8
Calque 1
370
     0
100
AcDbVertex
100
AcDb2dVertex
 10
86.64165995380306
 20
-3.215700444308934
 30
0.0
  0
VERTEX
  5
172
330
157
100
AcDbEntity
  8
Calque 1
370
     0
100
AcDbVertex
100
AcDb2dVertex
 10
86.64165995380306
 20
-6.215700143613362
 30
0.0
  0
VERTEX
  5
173
330
157
100
AcDbEntity
  8
Calque 1
370
     0
100
AcDbVertex
100
AcDb2dVertex
 10
92.64165881411562
 20
-6.215700143613362
 30
0.0
  0
VERTEX
  5
174
330
157
100
AcDbEntity
  8
Calque 1
370
     0
100
AcDbVertex
100
AcDb2dVertex
 10
92.64165881411562
 20
-3.215700444308934
 30
0.0
  0
VERTEX
  5
175
330
157
100
AcDbEntity
  8
Calque 1
370
     0
100
AcDbVertex
100
AcDb2dVertex
 10
98.64165767442817
 20
-3.215700444308934
 30
0.0
  0
VERTEX
  5
176
330
157
100
AcDbEntity
  8
Calque 1
370
     0
100
AcDbVertex
100
AcDb2dVertex
 10
98.64165767442817
 20
-6.215700143613362
 30
0.0
  0
VERTEX
  5
177
330
157
100
AcDbEntity
  8
Calque 1
370
     0
100
AcDbVertex
100
AcDb2dVertex
 10
104.6416651474719
 20
-6.215700143613362
 30
0.0
  0
VERTEX
  5
178
330
157
100
AcDbEntity
  8
Calque 1
370
     0
100
AcDbVertex
100
AcDb2dVertex
 10
104.6416651474719
 20
-3.215700444308934
 30
0.0
  0
VERTEX
  5
179
330
157
100
AcDbEntity
  8
Calque 1
370
     0
100
AcDbVertex
100
AcDb2dVertex
 10
110.6416640077844
 20
-3.215700444308934
 30
0.0
  0
VERTEX
  5
17A
330
157
100
AcDbEntity
  8
Calque 1
370
     0
100
AcDbVertex
100
AcDb2dVertex
 10
110.6416640077844
 20
-6.215700143613362
 30
0.0
  0
VERTEX
  5
17B
330
157
100
AcDbEntity
  8
Calque 1
370
     0
100
AcDbVertex
100
AcDb2dVertex
 10
116.641662868097
 20
-6.215700143613362
 30
0.0
  0
VERTEX
  5
17C
330
157
100
AcDbEntity
  8
Calque 1
370
     0
100
AcDbVertex
100
AcDb2dVertex
 10
116.641662868097
 20
-3.215700444308934
 30
0.0
  0
VERTEX
  5
17D
330
157
100
AcDbEntity
  8
Calque 1
370
     0
100
AcDbVertex
100
AcDb2dVertex
 10
122.6416617284095
 20
-3.215700444308934
 30
0.0
  0
VERTEX
  5
17E
330
157
100
AcDbEntity
  8
Calque 1
370
     0
100
AcDbVertex
100
AcDb2dVertex
 10
122.6416617284095
 20
-6.215700143613362
 30
0.0
  0
VERTEX
  5
17F
330
157
100
AcDbEntity
  8
Calque 1
370
     0
100
AcDbVertex
100
AcDb2dVertex
 10
128.6416605887221
 20
-6.215700143613362
 30
0.0
  0
VERTEX
  5
180
330
157
100
AcDbEntity
  8
Calque 1
370
     0
100
AcDbVertex
100
AcDb2dVertex
 10
128.6416605887221
 20
-3.215700444308934
 30
0.0
  0
VERTEX
  5
181
330
157
100
AcDbEntity
  8
Calque 1
370
     0
100
AcDbVertex
100
AcDb2dVertex
 10
134.6416594490346
 20
-3.215700444308934
 30
0.0
  0
VERTEX
  5
182
330
157
100
AcDbEntity
  8
Calque 1
370
     0
100
AcDbVertex
100
AcDb2dVertex
 10
134.6416594490346
 20
-6.215700143613362
 30
0.0
  0
VERTEX
  5
183
330
157
100
AcDbEntity
  8
Calque 1
370
     0
100
AcDbVertex
100
AcDb2dVertex
 10
143.6416620458691
 20
-6.215700143613362
 30
0.0
  0
VERTEX
  5
184
330
157
100
AcDbEntity
  8
Calque 1
370
     0
100
AcDbVertex
100
AcDb2dVertex
 10
143.6416620458691
 20
-3.215700444308934
 30
0.0
  0
VERTEX
  5
185
330
157
100
AcDbEntity
  8
Calque 1
370
     0
100
AcDbVertex
100
AcDb2dVertex
 10
152.6416646427038
 20
-3.215700444308934
 30
0.0
  0
VERTEX
  5
186
330
157
100
AcDbEntity
  8
Calque 1
370
     0
100
AcDbVertex
100
AcDb2dVertex
 10
152.6416646427038
 20
-11.71570008577498
 30
0.0
  0
VERTEX
  5
187
330
157
100
AcDbEntity
  8
Calque 1
370
     0
100
AcDbVertex
100
AcDb2dVertex
 10
149.6416609061816
 20
-11.71570008577498
 30
0.0
  0
VERTEX
  5
188
330
157
100
AcDbEntity
  8
Calque 1
370
     0
100
AcDbVertex
100
AcDb2dVertex
 10
149.6416609061816
 20
-20.21569972724102
 30
0.0
  0
VERTEX
  5
189
330
157
100
AcDbEntity
  8
Calque 1
370
     0
100
AcDbVertex
100
AcDb2dVertex
 10
152.6416646427038
 20
-20.21569972724102
 30
0.0
  0
VERTEX
  5
18A
330
157
100
AcDbEntity
  8
Calque 1
370
     0
100
AcDbVertex
100
AcDb2dVertex
 10
152.6416646427038
 20
-26.21569966414553
 30
0.0
  0
VERTEX
  5
18B
330
157
100
AcDbEntity
  8
Calque 1
370
     0
100
AcDbVertex
100
AcDb2dVertex
 10
149.6416609061816
 20
-26.21569966414553
 30
0.0
  0
VERTEX
  5
18C
330
157
100
AcDbEntity
  8
Calque 1
370
     0
100
AcDbVertex
100
AcDb2dVertex
 10
149.6416609061816
 20
-32.21569852445808
 30
0.0
  0
VERTEX
  5
18D
330
157
100
AcDbEntity
  8
Calque 1
370
     0
100
AcDbVertex
100
AcDb2dVertex
 10
152.6416646427038
 20
-32.21569852445808
 30
0.0
  0
VERTEX
  5
18E
330
157
100
AcDbEntity
  8
Calque 1
370
     0
100
AcDbVertex
100
AcDb2dVertex
 10
152.6416646427038
 20
-38.21569738477064
 30
0.0
  0
VERTEX
  5
18F
330
157
100
AcDbEntity
  8
Calque 1
370
     0
100
AcDbVertex
100
AcDb2dVertex
 10
149.6416609061816
 20
-38.21569738477064
 30
0.0
  0
VERTEX
  5
190
330
157
100
AcDbEntity
  8
Calque 1
370
     0
100
AcDbVertex
100
AcDb2dVertex
 10
149.6416609061816
 20
-44.21569839826583
 30
0.0
  0
VERTEX
  5
191
330
157
100
AcDbEntity
  8
Calque 1
370
     0
100
AcDbVertex
100
AcDb2dVertex
 10
152.6416646427038
 20
-44.21569839826583
 30
0.0
  0
VERTEX
  5
192
330
157
100
AcDbEntity
  8
Calque 1
370
     0
100
AcDbVertex
100
AcDb2dVertex
 10
152.6416646427038
 20
-50.21569725857839
 30
0.0
  0
VERTEX
  5
193
330
157
100
AcDbEntity
  8
Calque 1
370
     0
100
AcDbVertex
100
AcDb2dVertex
 10
149.6416609061816
 20
-50.21569725857839
 30
0.0
  0
VERTEX
  5
194
330
157
100
AcDbEntity
  8
Calque 1
370
     0
100
AcDbVertex
100
AcDb2dVertex
 10
149.6416609061816
 20
-56.21569611889095
 30
0.0
  0
VERTEX
  5
195
330
157
100
AcDbEntity
  8
Calque 1
370
     0
100
AcDbVertex
100
AcDb2dVertex
 10
152.6416646427038
 20
-56.21569611889095
 30
0.0
  0
VERTEX
  5
196
330
157
100
AcDbEntity
  8
Calque 1
370
     0
100
AcDbVertex
100
AcDb2dVertex
 10
152.6416646427038
 20
-62.2156949792035
 30
0.0
  0
VERTEX
  5
197
330
157
100
AcDbEntity
  8
Calque 1
370
     0
100
AcDbVertex
100
AcDb2dVertex
 10
149.6416609061816
 20
-62.2156949792035
 30
0.0
  0
VERTEX
  5
198
330
157
100
AcDbEntity
  8
Calque 1
370
     0
100
AcDbVertex
100
AcDb2dVertex
 10
149.6416609061816
 20
-68.21569814588099
 30
0.0
  0
VERTEX
  5
199
330
157
100
AcDbEntity
  8
Calque 1
370
     0
100
AcDbVertex
100
AcDb2dVertex
 10
152.6416646427038
 20
-68.21569814588099
 30
0.0
  0
VERTEX
  5
19A
330
157
100
AcDbEntity
  8
Calque 1
370
     0
100
AcDbVertex
100
AcDb2dVertex
 10
152.6416646427038
 20
-74.21569700619386
 30
0.0
  0
VERTEX
  5
19B
330
157
100
AcDbEntity
  8
Calque 1
370
     0
100
AcDbVertex
100
AcDb2dVertex
 10
149.6416609061816
 20
-74.21569700619386
 30
0.0
  0
VERTEX
  5
19C
330
157
100
AcDbEntity
  8
Calque 1
370
     0
100
AcDbVertex
100
AcDb2dVertex
 10
149.6416609061816
 20
-80.21569586650642
 30
0.0
  0
VERTEX
  5
19D
330
157
100
AcDbEntity
  8
Calque 1
370
     0
100
AcDbVertex
100
AcDb2dVertex
 10
152.6416646427038
 20
-80.21569586650642
 30
0.0
  0
VERTEX
  5
19E
330
157
100
AcDbEntity
  8
Calque 1
370
     0
100
AcDbVertex
100
AcDb2dVertex
 10
152.6416646427038
 20
-86.21569472681898
 30
0.0
  0
VERTEX
  5
19F
330
157
100
AcDbEntity
  8
Calque 1
370
     0
100
AcDbVertex
100
AcDb2dVertex
 10
149.6416609061816
 20
-86.21569472681898
 30
0.0
  0
VERTEX
  5
1A0
330
157
100
AcDbEntity
  8
Calque 1
370
     0
100
AcDbVertex
100
AcDb2dVertex
 10
149.6416609061816
 20
-94.71569382998936
 30
0.0
  0
VERTEX
  5
1A1
330
157
100
AcDbEntity
  8
Calque 1
370
     0
100
AcDbVertex
100
AcDb2dVertex
 10
152.6416646427038
 20
-94.71569382998936
 30
0.0
  0
VERTEX
  5
1A2
330
157
100
AcDbEntity
  8
Calque 1
370
     0
100
AcDbVertex
100
AcDb2dVertex
 10
152.6416646427038
 20
-103.2156929331598
 30
0.0
  0
VERTEX
  5
1A3
330
157
100
AcDbEntity
  8
Calque 1
370
     0
100
AcDbVertex
100
AcDb2dVertex
 10
143.6416620458691
 20
-103.2156929331598
 30
0.0
  0
VERTEX
  5
1A4
330
157
100
AcDbEntity
  8
Calque 1
370
     0
100
AcDbVertex
100
AcDb2dVertex
 10
143.6416620458691
 20
-100.2156978093687
 30
0.0
  0
VERTEX
  5
1A5
330
157
100
AcDbEntity
  8
Calque 1
370
     0
100
AcDbVertex
100
AcDb2dVertex
 10
134.6416594490346
 20
-100.2156978093687
 30
0.0
  0
VERTEX
  5
1A6
330
157
100
AcDbEntity
  8
Calque 1
370
     0
100
AcDbVertex
100
AcDb2dVertex
 10
134.6416594490346
 20
-103.2156929331598
 30
0.0
  0
VERTEX
  5
1A7
330
157
100
AcDbEntity
  8
Calque 1
370
     0
100
AcDbVertex
100
AcDb2dVertex
 10
128.6416605887221
 20
-103.2156929331598
 30
0.0
  0
VERTEX
  5
1A8
330
157
100
AcDbEntity
  8
Calque 1
370
     0
100
AcDbVertex
100
AcDb2dVertex
 10
128.6416605887221
 20
-100.2156978093687
 30
0.0
  0
VERTEX
  5
1A9
330
157
100
AcDbEntity
  8
Calque 1
370
     0
100
AcDbVertex
100
AcDb2dVertex
 10
122.6416617284095
 20
-100.2156978093687
 30
0.0
  0
VERTEX
  5
1AA
330
157
100
AcDbEntity
  8
Calque 1
370
     0
100
AcDbVertex
100
AcDb2dVertex
 10
122.6416617284095
 20
-103.2156929331598
 30
0.0
  0
VERTEX
  5
1AB
330
157
100
AcDbEntity
  8
Calque 1
370
     0
100
AcDbVertex
100
AcDb2dVertex
 10
116.641662868097
 20
-103.2156929331598
 30
0.0
  0
VERTEX
  5
1AC
330
157
100
AcDbEntity
  8
Calque 1
370
     0
100
AcDbVertex
100
AcDb2dVertex
 10
116.641662868097
 20
-100.2156978093687
 30
0.0
  0
VERTEX
  5
1AD
330
157
100
AcDbEntity
  8
Calque 1
370
     0
100
AcDbVertex
100
AcDb2dVertex
 10
110.6416640077844
 20
-100.2156978093687
 30
0.0
  0
VERTEX
  5
1AE
330
157
100
AcDbEntity
  8
Calque 1
370
     0
100
AcDbVertex
100
AcDb2dVertex
 10
110.6416640077844
 20
-103.2156929331598
 30
0.0
  0
VERTEX
  5
1AF
330
157
100
AcDbEntity
  8
Calque 1
370
     0
100
AcDbVertex
100
AcDb2dVertex
 10
104.6416651474719
 20
-103.2156929331598
 30
0.0
  0
VERTEX
  5
1B0
330
157
100
AcDbEntity
  8
Calque 1
370
     0
100
AcDbVertex
100
AcDb2dVertex
 10
104.6416651474719
 20
-100.2156978093687
 30
0.0
  0
VERTEX
  5
1B1
330
157
100
AcDbEntity
  8
Calque 1
370
     0
100
AcDbVertex
100
AcDb2dVertex
 10
98.64165767442817
 20
-100.2156978093687
 30
0.0
  0
VERTEX
  5
1B2
330
157
100
AcDbEntity
  8
Calque 1
370
     0
100
AcDbVertex
100
AcDb2dVertex
 10
98.64165767442817
 20
-103.2156929331598
 30
0.0
  0
VERTEX
  5
1B3
330
157
100
AcDbEntity
  8
Calque 1
370
     0
100
AcDbVertex
100
AcDb2dVertex
 10
92.64165881411562
 20
-103.2156929331598
 30
0.0
  0
VERTEX
  5
1B4
330
157
100
AcDbEntity
  8
Calque 1
370
     0
100
AcDbVertex
100
AcDb2dVertex
 10
92.64165881411562
 20
-100.2156978093687
 30
0.0
  0
VERTEX
  5
1B5
330
157
100
AcDbEntity
  8
Calque 1
370
     0
100
AcDbVertex
100
AcDb2dVertex
 10
86.64165995380306
 20
-100.2156978093687
 30
0.0
  0
VERTEX
  5
1B6
330
157
100
AcDbEntity
  8
Calque 1
370
     0
100
AcDbVertex
100
AcDb2dVertex
 10
86.64165995380306
 20
-103.2156929331598
 30
0.0
  0
VERTEX
  5
1B7
330
157
100
AcDbEntity
  8
Calque 1
370
     0
100
AcDbVertex
100
AcDb2dVertex
 10
80.6416610934905
 20
-103.2156929331598
 30
0.0
  0
VERTEX
  5
1B8
330
157
100
AcDbEntity
  8
Calque 1
370
     0
100
AcDbVertex
100
AcDb2dVertex
 10
80.6416610934905
 20
-100.2156978093687
 30
0.0
  0
VERTEX
  5
1B9
330
157
100
AcDbEntity
  8
Calque 1
370
     0
100
AcDbVertex
100
AcDb2dVertex
 10
74.64166223317794
 20
-100.2156978093687
 30
0.0
  0
VERTEX
  5
1BA
330
157
100
AcDbEntity
  8
Calque 1
370
     0
100
AcDbVertex
100
AcDb2dVertex
 10
74.64166223317794
 20
-103.2156929331598
 30
0.0
  0
VERTEX
  5
1BB
330
157
100
AcDbEntity
  8
Calque 1
370
     0
100
AcDbVertex
100
AcDb2dVertex
 10
68.64166337286538
 20
-103.2156929331598
 30
0.0
  0
VERTEX
  5
1BC
330
157
100
AcDbEntity
  8
Calque 1
370
     0
100
AcDbVertex
100
AcDb2dVertex
 10
68.64166337286538
 20
-100.2156978093687
 30
0.0
  0
VERTEX
  5
1BD
330
157
100
AcDbEntity
  8
Calque 1
370
     0
100
AcDbVertex
100
AcDb2dVertex
 10
62.64166451255314
 20
-100.2156978093687
 30
0.0
  0
VERTEX
  5
1BE
330
157
100
AcDbEntity
  8
Calque 1
370
     0
100
AcDbVertex
100
AcDb2dVertex
 10
62.64166451255314
 20
-103.2156929331598
 30
0.0
  0
VERTEX
  5
1BF
330
157
100
AcDbEntity
  8
Calque 1
370
     0
100
AcDbVertex
100
AcDb2dVertex
 10
56.64166565224026
 20
-103.2156929331598
 30
0.0
  0
VERTEX
  5
1C0
330
157
100
AcDbEntity
  8
Calque 1
370
     0
100
AcDbVertex
100
AcDb2dVertex
 10
56.64166565224026
 20
-100.2156978093687
 30
0.0
  0
VERTEX
  5
1C1
330
157
100
AcDbEntity
  8
Calque 1
370
     0
100
AcDbVertex
100
AcDb2dVertex
 10
50.64166248556214
 20
-100.2156978093687
 30
0.0
  0
VERTEX
  5
1C2
330
157
100
AcDbEntity
  8
Calque 1
370
     0
100
AcDbVertex
100
AcDb2dVertex
 10
50.64166248556214
 20
-103.2156929331598
 30
0.0
  0
VERTEX
  5
1C3
330
157
100
AcDbEntity
  8
Calque 1
370
     0
100
AcDbVertex
100
AcDb2dVertex
 10
44.64166362524958
 20
-103.2156929331598
 30
0.0
  0
VERTEX
  5
1C4
330
157
100
AcDbEntity
  8
Calque 1
370
     0
100
AcDbVertex
100
AcDb2dVertex
 10
44.64166362524958
 20
-100.2156978093687
 30
0.0
  0
VERTEX
  5
1C5
330
157
100
AcDbEntity
  8
Calque 1
370
     0
100
AcDbVertex
100
AcDb2dVertex
 10
38.64166476493702
 20
-100.2156978093687
 30
0.0
  0
VERTEX
  5
1C6
330
157
100
AcDbEntity
  8
Calque 1
370
     0
100
AcDbVertex
100
AcDb2dVertex
 10
38.64166476493702
 20
-103.2156929331598
 30
0.0
  0
VERTEX
  5
1C7
330
157
100
AcDbEntity
  8
Calque 1
370
     0
100
AcDbVertex
100
AcDb2dVertex
 10
32.64166590462446
 20
-103.2156929331598
 30
0.0
  0
VERTEX
  5
1C8
330
157
100
AcDbEntity
  8
Calque 1
370
     0
100
AcDbVertex
100
AcDb2dVertex
 10
32.64166590462446
 20
-100.2156978093687
 30
0.0
  0
VERTEX
  5
1C9
330
157
100
AcDbEntity
  8
Calque 1
370
     0
100
AcDbVertex
100
AcDb2dVertex
 10
26.64166489112896
 20
-100.2156978093687
 30
0.0
  0
VERTEX
  5
1CA
330
157
100
AcDbEntity
  8
Calque 1
370
     0
100
AcDbVertex
100
AcDb2dVertex
 10
26.64166489112896
 20
-103.2156929331598
 30
0.0
  0
VERTEX
  5
1CB
330
157
100
AcDbEntity
  8
Calque 1
370
     0
100
AcDbVertex
100
AcDb2dVertex
 10
20.6416660308164
 20
-103.2156929331598
 30
0.0
  0
VERTEX
  5
1CC
330
157
100
AcDbEntity
  8
Calque 1
370
     0
100
AcDbVertex
100
AcDb2dVertex
 10
20.6416660308164
 20
-100.2156978093687
 30
0.0
  0
VERTEX
  5
1CD
330
157
100
AcDbEntity
  8
Calque 1
370
     0
100
AcDbVertex
100
AcDb2dVertex
 10
11.64166666375625
 20
-100.2156978093687
 30
0.0
  0
VERTEX
  5
1CE
330
157
100
AcDbEntity
  8
Calque 1
370
     0
100
AcDbVertex
100
AcDb2dVertex
 10
11.64166666375625
 20
-103.2156929331598
 30
0.0
  0
VERTEX
  5
1CF
330
157
100
AcDbEntity
  8
Calque 1
370
     0
100
AcDbVertex
100
AcDb2dVertex
 10
2.641667296696101
 20
-103.2156929331598
 30
0.0
  0
VERTEX
  5
1D0
330
157
100
AcDbEntity
  8
Calque 1
370
     0
100
AcDbVertex
100
AcDb2dVertex
 10
2.641667296696101
 20
-94.71569382998936
 30
0.0
  0
VERTEX
  5
1D1
330
157
100
AcDbEntity
  8
Calque 1
370
     0
100
AcDbVertex
100
AcDb2dVertex
 10
5.641666996000208
 20
-94.71569382998936
 30
0.0
  0
VERTEX
  5
1D2
330
157
100
AcDbEntity
  8
Calque 1
370
     0
100
AcDbVertex
100
AcDb2dVertex
 10
5.641666996000208
 20
-86.21569472681898
 30
0.0
  0
VERTEX
  5
1D3
330
157
100
AcDbEntity
  8
Calque 1
370
     0
100
AcDbVertex
100
AcDb2dVertex
 10
2.641667296696101
 20
-86.21569472681898
 30
0.0
  0
VERTEX
  5
1D4
330
157
100
AcDbEntity
  8
Calque 1
370
     0
100
AcDbVertex
100
AcDb2dVertex
 10
2.641667296696101
 20
-80.21569586650642
 30
0.0
  0
VERTEX
  5
1D5
330
157
100
AcDbEntity
  8
Calque 1
370
     0
100
AcDbVertex
100
AcDb2dVertex
 10
5.641666996000208
 20
-80.21569586650642
 30
0.0
  0
VERTEX
  5
1D6
330
157
100
AcDbEntity
  8
Calque 1
370
     0
100
AcDbVertex
100
AcDb2dVertex
 10
5.641666996000208
 20
-74.21569700619386
 30
0.0
  0
VERTEX
  5
1D7
330
157
100
AcDbEntity
  8
Calque 1
370
     0
100
AcDbVertex
100
AcDb2dVertex
 10
2.641667296696101
 20
-74.21569700619386
 30
0.0
  0
VERTEX
  5
1D8
330
157
100
AcDbEntity
  8
Calque 1
370
     0
100
AcDbVertex
100
AcDb2dVertex
 10
2.641667296696101
 20
-68.21569814588099
 30
0.0
  0
VERTEX
  5
1D9
330
157
100
AcDbEntity
  8
Calque 1
370
     0
100
AcDbVertex
100
AcDb2dVertex
 10
5.641666996000208
 20
-68.21569814588099
 30
0.0
  0
VERTEX
  5
1DA
330
157
100
AcDbEntity
  8
Calque 1
370
     0
100
AcDbVertex
100
AcDb2dVertex
 10
5.641666996000208
 20
-62.2156949792035
 30
0.0
  0
VERTEX
  5
1DB
330
157
100
AcDbEntity
  8
Calque 1
370
     0
100
AcDbVertex
100
AcDb2dVertex
 10
2.641667296696101
 20
-62.2156949792035
 30
0.0
  0
VERTEX
  5
1DC
330
157
100
AcDbEntity
  8
Calque 1
370
     0
100
AcDbVertex
100
AcDb2dVertex
 10
2.641667296696101
 20
-56.21569611889095
 30
0.0
  0
VERTEX
  5
1DD
330
157
100
AcDbEntity
  8
Calque 1
370
     0
100
AcDbVertex
100
AcDb2dVertex
 10
5.641666996000208
 20
-56.21569611889095
 30
0.0
  0
VERTEX
  5
1DE
330
157
100
AcDbEntity
  8
Calque 1
370
     0
100
AcDbVertex
100
AcDb2dVertex
 10
5.641666996000208
 20
-50.21569725857839
 30
0.0
  0
VERTEX
  5
1DF
330
157
100
AcDbEntity
  8
Calque 1
370
     0
100
AcDbVertex
100
AcDb2dVertex
 10
2.641667296696101
 20
-50.21569725857839
 30
0.0
  0
VERTEX
  5
1E0
330
157
100
AcDbEntity
  8
Calque 1
370
     0
100
AcDbVertex
100
AcDb2dVertex
 10
2.641667296696101
 20
-44.21569839826583
 30
0.0
  0
VERTEX
  5
1E1
330
157
100
AcDbEntity
  8
Calque 1
370
     0
100
AcDbVertex
100
AcDb2dVertex
 10
5.641666996000208
 20
-44.21569839826583
 30
0.0
  0
VERTEX
  5
1E2
330
157
100
AcDbEntity
  8
Calque 1
370
     0
100
AcDbVertex
100
AcDb2dVertex
 10
5.641666996000208
 20
-38.21569738477064
 30
0.0
  0
VERTEX
  5
1E3
330
157
100
AcDbEntity
  8
Calque 1
370
     0
100
AcDbVertex
100
AcDb2dVertex
 10
2.641667296696101
 20
-38.21569738477064
 30
0.0
  0
VERTEX
  5
1E4
330
157
100
AcDbEntity
  8
Calque 1
370
     0
100
AcDbVertex
100
AcDb2dVertex
 10
2.641667296696101
 20
-32.21569852445808
 30
0.0
  0
VERTEX
  5
1E5
330
157
100
AcDbEntity
  8
Calque 1
370
     0
100
AcDbVertex
100
AcDb2dVertex
 10
5.641666996000208
 20
-32.21569852445808
 30
0.0
  0
VERTEX
  5
1E6
330
157
100
AcDbEntity
  8
Calque 1
370
     0
100
AcDbVertex
100
AcDb2dVertex
 10
5.641666996000208
 20
-26.21569966414553
 30
0.0
  0
VERTEX
  5
1E7
330
157
100
AcDbEntity
  8
Calque 1
370
     0
100
AcDbVertex
100
AcDb2dVertex
 10
2.641667296696101
 20
-26.21569966414553
 30
0.0
  0
VERTEX
  5
1E8
330
157
100
AcDbEntity
  8
Calque 1
370
     0
100
AcDbVertex
100
AcDb2dVertex
 10
2.641667296696101
 20
-20.21569972724102
 30
0.0
  0
VERTEX
  5
1E9
330
157
100
AcDbEntity
  8
Calque 1
370
     0
100
AcDbVertex
100
AcDb2dVertex
 10
5.641666996000208
 20
-20.21569972724102
 30
0.0
  0
VERTEX
  5
1EA
330
157
100
AcDbEntity
  8
Calque 1
370
     0
100
AcDbVertex
100
AcDb2dVertex
 10
5.641666996000208
 20
-11.71570008577498
 30
0.0
  0
VERTEX
  5
1EB
330
157
100
AcDbEntity
  8
Calque 1
370
     0
100
AcDbVertex
100
AcDb2dVertex
 10
2.641667296696101
 20
-11.71570008577498
 30
0.0
  0
VERTEX
  5
1EC
330
157
100
AcDbEntity
  8
Calque 1
370
     0
100
AcDbVertex
100
AcDb2dVertex
 10
2.641667296696101
 20
-3.215700444308934
 30
0.0
  0
SEQEND
  5
1ED
330
157
100
AcDbEntity
  8
Calque 1
370
     0
  0
ENDBLK
  5
156
330
153
100
AcDbEntity
  8
0
100
AcDbBlockEnd
  0
BLOCK
  5
1FB
330
1F9
100
AcDbEntity
  8
0
100
AcDbBlockBegin
  2
block 6
 70
     0
 10
0.0
 20
0.0
 30
0.0
  3
block 6
  1

  0
INSERT
  5
1FE
330
1F9
100
AcDbEntity
  8
Calque 1
100
AcDbBlockReference
  2
block 7
 10
0.0
 20
0.0
 30
0.0
  0
POLYLINE
  5
270
330
1F9
100
AcDbEntity
  8
Calque 1
370
     0
100
AcDb2dPolyline
 66
     1
 10
0.0
 20
0.0
 30
0.0
  0
VERTEX
  5
271
330
270
100
AcDbEntity
  8
Calque 1
370
     0
100
AcDbVertex
100
AcDb2dVertex
 10
359.4274025824787
 20
-80.13237303242738
 30
0.0
  0
VERTEX
  5
272
330
270
100
AcDbEntity
  8
Calque 1
370
     0
100
AcDbVertex
100
AcDb2dVertex
 10
359.4274025824787
 20
-96.7129285838378
 30
0.0
  0
VERTEX
  5
273
330
270
100
AcDbEntity
  8
Calque 1
370
     0
100
AcDbVertex
100
AcDb2dVertex
 10
316.0945322229385
 20
-96.7129285838378
 30
0.0
  0
VERTEX
  5
274
330
270
100
AcDbEntity
  8
Calque 1
370
     0
100
AcDbVertex
100
AcDb2dVertex
 10
316.0945322229385
 20
-80.13237303242738
 30
0.0
  0
VERTEX
  5
275
330
270
100
AcDbEntity
  8
Calque 1
370
     0
100
AcDbVertex
100
AcDb2dVertex
 10
359.4274025824787
 20
-80.13237303242738
 30
0.0
  0
SEQEND
  5
276
330
270
100
AcDbEntity
  8
Calque 1
370
     0
  0
ENDBLK
  5
1FC
330
1F9
100
AcDbEntity
  8
0
100
AcDbBlockEnd
  0
BLOCK
  5
1FF
330
1FD
100
AcDbEntity
  8
0
100
AcDbBlockBegin
  2
block 7
 70
     0
 10
0.0
 20
0.0
 30
0.0
  3
block 7
  1

  0
POLYLINE
  5
201
330
1FD
100
AcDbEntity
  8
Calque 1
370
     0
100
AcDb2dPolyline
 66
     1
 10
0.0
 20
0.0
 30
0.0
  0
VERTEX
  5
202
330
201
100
AcDbEntity
  8
Calque 1
370
     0
100
AcDbVertex
100
AcDb2dVertex
 10
310.8196472896537
 20
-3.215700444308934
 30
0.0
  0
VERTEX
  5
203
330
201
100
AcDbEntity
  8
Calque 1
370
     0
100
AcDbVertex
100
AcDb2dVertex
 10
316.8196469574091
 20
-3.215700444308934
 30
0.0
  0
VERTEX
  5
204
330
201
100
AcDbEntity
  8
Calque 1
370
     0
100
AcDbVertex
100
AcDb2dVertex
 10
316.8196469574091
 20
-6.215700143613362
 30
0.0
  0
VERTEX
  5
205
330
201
100
AcDbEntity
  8
Calque 1
370
     0
100
AcDbVertex
100
AcDb2dVertex
 10
325.8196463244696
 20
-6.215700143613362
 30
0.0
  0
VERTEX
  5
206
330
201
100
AcDbEntity
  8
Calque 1
370
     0
100
AcDbVertex
100
AcDb2dVertex
 10
325.8196463244696
 20
-3.215700444308934
 30
0.0
  0
VERTEX
  5
207
330
201
100
AcDbEntity
  8
Calque 1
370
     0
100
AcDbVertex
100
AcDb2dVertex
 10
331.8196451847821
 20
-3.215700444308934
 30
0.0
  0
VERTEX
  5
208
330
201
100
AcDbEntity
  8
Calque 1
370
     0
100
AcDbVertex
100
AcDb2dVertex
 10
331.8196451847821
 20
-6.215700143613362
 30
0.0
  0
VERTEX
  5
209
330
201
100
AcDbEntity
  8
Calque 1
370
     0
100
AcDbVertex
100
AcDb2dVertex
 10
337.8196461982786
 20
-6.215700143613362
 30
0.0
  0
VERTEX
  5
20A
330
201
100
AcDbEntity
  8
Calque 1
370
     0
100
AcDbVertex
100
AcDb2dVertex
 10
337.8196461982786
 20
-3.215700444308934
 30
0.0
  0
VERTEX
  5
20B
330
201
100
AcDbEntity
  8
Calque 1
370
     0
100
AcDbVertex
100
AcDb2dVertex
 10
343.8196450585902
 20
-3.215700444308934
 30
0.0
  0
VERTEX
  5
20C
330
201
100
AcDbEntity
  8
Calque 1
370
     0
100
AcDbVertex
100
AcDb2dVertex
 10
343.8196450585902
 20
-6.215700143613362
 30
0.0
  0
VERTEX
  5
20D
330
201
100
AcDbEntity
  8
Calque 1
370
     0
100
AcDbVertex
100
AcDb2dVertex
 10
349.8196439189034
 20
-6.215700143613362
 30
0.0
  0
VERTEX
  5
20E
330
201
100
AcDbEntity
  8
Calque 1
370
     0
100
AcDbVertex
100
AcDb2dVertex
 10
349.8196439189034
 20
-3.215700444308934
 30
0.0
  0
VERTEX
  5
20F
330
201
100
AcDbEntity
  8
Calque 1
370
     0
100
AcDbVertex
100
AcDb2dVertex
 10
355.8196427792157
 20
-3.215700444308934
 30
0.0
  0
VERTEX
  5
210
330
201
100
AcDbEntity
  8
Calque 1
370
     0
100
AcDbVertex
100
AcDb2dVertex
 10
355.8196427792157
 20
-6.215700143613362
 30
0.0
  0
VERTEX
  5
211
330
201
100
AcDbEntity
  8
Calque 1
370
     0
100
AcDbVertex
100
AcDb2dVertex
 10
361.8196459458937
 20
-6.215700143613362
 30
0.0
  0
VERTEX
  5
212
330
201
100
AcDbEntity
  8
Calque 1
370
     0
100
AcDbVertex
100
AcDb2dVertex
 10
361.8196459458937
 20
-3.215700444308934
 30
0.0
  0
VERTEX
  5
213
330
201
100
AcDbEntity
  8
Calque 1
370
     0
100
AcDbVertex
100
AcDb2dVertex
 10
367.8196448062063
 20
-3.215700444308934
 30
0.0
  0
VERTEX
  5
214
330
201
100
AcDbEntity
  8
Calque 1
370
     0
100
AcDbVertex
100
AcDb2dVertex
 10
367.8196448062063
 20
-6.215700143613362
 30
0.0
  0
VERTEX
  5
215
330
201
100
AcDbEntity
  8
Calque 1
370
     0
100
AcDbVertex
100
AcDb2dVertex
 10
373.8196436665189
 20
-6.215700143613362
 30
0.0
  0
VERTEX
  5
216
330
201
100
AcDbEntity
  8
Calque 1
370
     0
100
AcDbVertex
100
AcDb2dVertex
 10
373.8196436665189
 20
-3.215700444308934
 30
0.0
  0
VERTEX
  5
217
330
201
100
AcDbEntity
  8
Calque 1
370
     0
100
AcDbVertex
100
AcDb2dVertex
 10
379.8196425268314
 20
-3.215700444308934
 30
0.0
  0
VERTEX
  5
218
330
201
100
AcDbEntity
  8
Calque 1
370
     0
100
AcDbVertex
100
AcDb2dVertex
 10
379.8196425268314
 20
-6.215700143613362
 30
0.0
  0
VERTEX
  5
219
330
201
100
AcDbEntity
  8
Calque 1
370
     0
100
AcDbVertex
100
AcDb2dVertex
 10
388.8196451236671
 20
-6.215700143613362
 30
0.0
  0
VERTEX
  5
21A
330
201
100
AcDbEntity
  8
Calque 1
370
     0
100
AcDbVertex
100
AcDb2dVertex
 10
388.8196451236671
 20
-3.215700444308934
 30
0.0
  0
VERTEX
  5
21B
330
201
100
AcDbEntity
  8
Calque 1
370
     0
100
AcDbVertex
100
AcDb2dVertex
 10
394.8196439839764
 20
-3.215700444308934
 30
0.0
  0
VERTEX
  5
21C
330
201
100
AcDbEntity
  8
Calque 1
370
     0
100
AcDbVertex
100
AcDb2dVertex
 10
394.8196439839764
 20
-11.71570008577498
 30
0.0
  0
VERTEX
  5
21D
330
201
100
AcDbEntity
  8
Calque 1
370
     0
100
AcDbVertex
100
AcDb2dVertex
 10
397.8196391077691
 20
-11.71570008577498
 30
0.0
  0
VERTEX
  5
21E
330
201
100
AcDbEntity
  8
Calque 1
370
     0
100
AcDbVertex
100
AcDb2dVertex
 10
397.8196391077691
 20
-20.21569972724102
 30
0.0
  0
VERTEX
  5
21F
330
201
100
AcDbEntity
  8
Calque 1
370
     0
100
AcDbVertex
100
AcDb2dVertex
 10
394.8196439839764
 20
-20.21569972724102
 30
0.0
  0
VERTEX
  5
220
330
201
100
AcDbEntity
  8
Calque 1
370
     0
100
AcDbVertex
100
AcDb2dVertex
 10
394.8196439839764
 20
-26.21569966414553
 30
0.0
  0
VERTEX
  5
221
330
201
100
AcDbEntity
  8
Calque 1
370
     0
100
AcDbVertex
100
AcDb2dVertex
 10
397.8196391077691
 20
-26.21569966414553
 30
0.0
  0
VERTEX
  5
222
330
201
100
AcDbEntity
  8
Calque 1
370
     0
100
AcDbVertex
100
AcDb2dVertex
 10
397.8196391077691
 20
-32.21569852445808
 30
0.0
  0
VERTEX
  5
223
330
201
100
AcDbEntity
  8
Calque 1
370
     0
100
AcDbVertex
100
AcDb2dVertex
 10
394.8196439839764
 20
-32.21569852445808
 30
0.0
  0
VERTEX
  5
224
330
201
100
AcDbEntity
  8
Calque 1
370
     0
100
AcDbVertex
100
AcDb2dVertex
 10
394.8196439839764
 20
-38.21569738477064
 30
0.0
  0
VERTEX
  5
225
330
201
100
AcDbEntity
  8
Calque 1
370
     0
100
AcDbVertex
100
AcDb2dVertex
 10
397.8196391077691
 20
-38.21569738477064
 30
0.0
  0
VERTEX
  5
226
330
201
100
AcDbEntity
  8
Calque 1
370
     0
100
AcDbVertex
100
AcDb2dVertex
 10
397.8196391077691
 20
-44.21569839826583
 30
0.0
  0
VERTEX
  5
227
330
201
100
AcDbEntity
  8
Calque 1
370
     0
100
AcDbVertex
100
AcDb2dVertex
 10
394.8196439839764
 20
-44.21569839826583
 30
0.0
  0
VERTEX
  5
228
330
201
100
AcDbEntity
  8
Calque 1
370
     0
100
AcDbVertex
100
AcDb2dVertex
 10
394.8196439839764
 20
-50.21569725857839
 30
0.0
  0
VERTEX
  5
229
330
201
100
AcDbEntity
  8
Calque 1
370
     0
100
AcDbVertex
100
AcDb2dVertex
 10
397.8196391077691
 20
-50.21569725857839
 30
0.0
  0
VERTEX
  5
22A
330
201
100
AcDbEntity
  8
Calque 1
370
     0
100
AcDbVertex
100
AcDb2dVertex
 10
397.8196391077691
 20
-56.21569611889095
 30
0.0
  0
VERTEX
  5
22B
330
201
100
AcDbEntity
  8
Calque 1
370
     0
100
AcDbVertex
100
AcDb2dVertex
 10
394.8196439839764
 20
-56.21569611889095
 30
0.0
  0
VERTEX
  5
22C
330
201
100
AcDbEntity
  8
Calque 1
370
     0
100
AcDbVertex
100
AcDb2dVertex
 10
394.8196439839764
 20
-62.2156949792035
 30
0.0
  0
VERTEX
  5
22D
330
201
100
AcDbEntity
  8
Calque 1
370
     0
100
AcDbVertex
100
AcDb2dVertex
 10
397.8196391077691
 20
-62.2156949792035
 30
0.0
  0
VERTEX
  5
22E
330
201
100
AcDbEntity
  8
Calque 1
370
     0
100
AcDbVertex
100
AcDb2dVertex
 10
397.8196391077691
 20
-68.21569814588099
 30
0.0
  0
VERTEX
  5
22F
330
201
100
AcDbEntity
  8
Calque 1
370
     0
100
AcDbVertex
100
AcDb2dVertex
 10
394.8196439839764
 20
-68.21569814588099
 30
0.0
  0
VERTEX
  5
230
330
201
100
AcDbEntity
  8
Calque 1
370
     0
100
AcDbVertex
100
AcDb2dVertex
 10
394.8196439839764
 20
-74.21569700619386
 30
0.0
  0
VERTEX
  5
231
330
201
100
AcDbEntity
  8
Calque 1
370
     0
100
AcDbVertex
100
AcDb2dVertex
 10
397.8196391077691
 20
-74.21569700619386
 30
0.0
  0
VERTEX
  5
232
330
201
100
AcDbEntity
  8
Calque 1
370
     0
100
AcDbVertex
100
AcDb2dVertex
 10
397.8196391077691
 20
-80.21569586650642
 30
0.0
  0
VERTEX
  5
233
330
201
100
AcDbEntity
  8
Calque 1
370
     0
100
AcDbVertex
100
AcDb2dVertex
 10
394.8196439839764
 20
-80.21569586650642
 30
0.0
  0
VERTEX
  5
234
330
201
100
AcDbEntity
  8
Calque 1
370
     0
100
AcDbVertex
100
AcDb2dVertex
 10
394.8196439839764
 20
-86.21569472681898
 30
0.0
  0
VERTEX
  5
235
330
201
100
AcDbEntity
  8
Calque 1
370
     0
100
AcDbVertex
100
AcDb2dVertex
 10
397.8196391077691
 20
-86.21569472681898
 30
0.0
  0
VERTEX
  5
236
330
201
100
AcDbEntity
  8
Calque 1
370
     0
100
AcDbVertex
100
AcDb2dVertex
 10
397.8196391077691
 20
-94.71569382998936
 30
0.0
  0
VERTEX
  5
237
330
201
100
AcDbEntity
  8
Calque 1
370
     0
100
AcDbVertex
100
AcDb2dVertex
 10
394.8196439839764
 20
-94.71569382998936
 30
0.0
  0
VERTEX
  5
238
330
201
100
AcDbEntity
  8
Calque 1
370
     0
100
AcDbVertex
100
AcDb2dVertex
 10
394.8196439839764
 20
-103.2156929331598
 30
0.0
  0
VERTEX
  5
239
330
201
100
AcDbEntity
  8
Calque 1
370
     0
100
AcDbVertex
100
AcDb2dVertex
 10
388.8196451236671
 20
-103.2156929331598
 30
0.0
  0
VERTEX
  5
23A
330
201
100
AcDbEntity
  8
Calque 1
370
     0
100
AcDbVertex
100
AcDb2dVertex
 10
388.8196451236671
 20
-100.2156978093687
 30
0.0
  0
VERTEX
  5
23B
330
201
100
AcDbEntity
  8
Calque 1
370
     0
100
AcDbVertex
100
AcDb2dVertex
 10
379.8196425268314
 20
-100.2156978093687
 30
0.0
  0
VERTEX
  5
23C
330
201
100
AcDbEntity
  8
Calque 1
370
     0
100
AcDbVertex
100
AcDb2dVertex
 10
379.8196425268314
 20
-103.2156929331598
 30
0.0
  0
VERTEX
  5
23D
330
201
100
AcDbEntity
  8
Calque 1
370
     0
100
AcDbVertex
100
AcDb2dVertex
 10
373.8196436665189
 20
-103.2156929331598
 30
0.0
  0
VERTEX
  5
23E
330
201
100
AcDbEntity
  8
Calque 1
370
     0
100
AcDbVertex
100
AcDb2dVertex
 10
373.8196436665189
 20
-100.2156978093687
 30
0.0
  0
VERTEX
  5
23F
330
201
100
AcDbEntity
  8
Calque 1
370
     0
100
AcDbVertex
100
AcDb2dVertex
 10
367.8196448062063
 20
-100.2156978093687
 30
0.0
  0
VERTEX
  5
240
330
201
100
AcDbEntity
  8
Calque 1
370
     0
100
AcDbVertex
100
AcDb2dVertex
 10
367.8196448062063
 20
-103.2156929331598
 30
0.0
  0
VERTEX
  5
241
330
201
100
AcDbEntity
  8
Calque 1
370
     0
100
AcDbVertex
100
AcDb2dVertex
 10
361.8196459458937
 20
-103.2156929331598
 30
0.0
  0
VERTEX
  5
242
330
201
100
AcDbEntity
  8
Calque 1
370
     0
100
AcDbVertex
100
AcDb2dVertex
 10
361.8196459458937
 20
-100.2156978093687
 30
0.0
  0
VERTEX
  5
243
330
201
100
AcDbEntity
  8
Calque 1
370
     0
100
AcDbVertex
100
AcDb2dVertex
 10
355.8196427792157
 20
-100.2156978093687
 30
0.0
  0
VERTEX
  5
244
330
201
100
AcDbEntity
  8
Calque 1
370
     0
100
AcDbVertex
100
AcDb2dVertex
 10
355.8196427792157
 20
-103.2156929331598
 30
0.0
  0
VERTEX
  5
245
330
201
100
AcDbEntity
  8
Calque 1
370
     0
100
AcDbVertex
100
AcDb2dVertex
 10
349.8196439189034
 20
-103.2156929331598
 30
0.0
  0
VERTEX
  5
246
330
201
100
AcDbEntity
  8
Calque 1
370
     0
100
AcDbVertex
100
AcDb2dVertex
 10
349.8196439189034
 20
-100.2156978093687
 30
0.0
  0
VERTEX
  5
247
330
201
100
AcDbEntity
  8
Calque 1
370
     0
100
AcDbVertex
100
AcDb2dVertex
 10
343.8196450585902
 20
-100.2156978093687
 30
0.0
  0
VERTEX
  5
248
330
201
100
AcDbEntity
  8
Calque 1
370
     0
100
AcDbVertex
100
AcDb2dVertex
 10
343.8196450585902
 20
-103.2156929331598
 30
0.0
  0
VERTEX
  5
249
330
201
100
AcDbEntity
  8
Calque 1
370
     0
100
AcDbVertex
100
AcDb2dVertex
 10
337.8196461982786
 20
-103.2156929331598
 30
0.0
  0
VERTEX
  5
24A
330
201
100
AcDbEntity
  8
Calque 1
370
     0
100
AcDbVertex
100
AcDb2dVertex
 10
337.8196461982786
 20
-100.2156978093687
 30
0.0
  0
VERTEX
  5
24B
330
201
100
AcDbEntity
  8
Calque 1
370
     0
100
AcDbVertex
100
AcDb2dVertex
 10
331.8196451847821
 20
-100.2156978093687
 30
0.0
  0
VERTEX
  5
24C
330
201
100
AcDbEntity
  8
Calque 1
370
     0
100
AcDbVertex
100
AcDb2dVertex
 10
331.8196451847821
 20
-103.2156929331598
 30
0.0
  0
VERTEX
  5
24D
330
201
100
AcDbEntity
  8
Calque 1
370
     0
100
AcDbVertex
100
AcDb2dVertex
 10
325.8196463244696
 20
-103.2156929331598
 30
0.0
  0
VERTEX
  5
24E
330
201
100
AcDbEntity
  8
Calque 1
370
     0
100
AcDbVertex
100
AcDb2dVertex
 10
325.8196463244696
 20
-100.2156978093687
 30
0.0
  0
VERTEX
  5
24F
330
201
100
AcDbEntity
  8
Calque 1
370
     0
100
AcDbVertex
100
AcDb2dVertex
 10
316.8196469574091
 20
-100.2156978093687
 30
0.0
  0
VERTEX
  5
250
330
201
100
AcDbEntity
  8
Calque 1
370
     0
100
AcDbVertex
100
AcDb2dVertex
 10
316.8196469574091
 20
-103.2156929331598
 30
0.0
  0
VERTEX
  5
251
330
201
100
AcDbEntity
  8
Calque 1
370
     0
100
AcDbVertex
100
AcDb2dVertex
 10
310.8196472896537
 20
-103.2156929331598
 30
0.0
  0
VERTEX
  5
252
330
201
100
AcDbEntity
  8
Calque 1
370
     0
100
AcDbVertex
100
AcDb2dVertex
 10
310.8196472896537
 20
-94.71569382998936
 30
0.0
  0
VERTEX
  5
253
330
201
100
AcDbEntity
  8
Calque 1
370
     0
100
AcDbVertex
100
AcDb2dVertex
 10
307.8196475903496
 20
-94.71569382998936
 30
0.0
  0
VERTEX
  5
254
330
201
100
AcDbEntity
  8
Calque 1
370
     0
100
AcDbVertex
100
AcDb2dVertex
 10
307.8196475903496
 20
-86.21569472681898
 30
0.0
  0
VERTEX
  5
255
330
201
100
AcDbEntity
  8
Calque 1
370
     0
100
AcDbVertex
100
AcDb2dVertex
 10
310.8196472896537
 20
-86.21569472681898
 30
0.0
  0
VERTEX
  5
256
330
201
100
AcDbEntity
  8
Calque 1
370
     0
100
AcDbVertex
100
AcDb2dVertex
 10
310.8196472896537
 20
-80.21569586650642
 30
0.0
  0
VERTEX
  5
257
330
201
100
AcDbEntity
  8
Calque 1
370
     0
100
AcDbVertex
100
AcDb2dVertex
 10
307.8196475903496
 20
-80.21569586650642
 30
0.0
  0
VERTEX
  5
258
330
201
100
AcDbEntity
  8
Calque 1
370
     0
100
AcDbVertex
100
AcDb2dVertex
 10
307.8196475903496
 20
-74.21569700619386
 30
0.0
  0
VERTEX
  5
259
330
201
100
AcDbEntity
  8
Calque 1
370
     0
100
AcDbVertex
100
AcDb2dVertex
 10
310.8196472896537
 20
-74.21569700619386
 30
0.0
  0
VERTEX
  5
25A
330
201
100
AcDbEntity
  8
Calque 1
370
     0
100
AcDbVertex
100
AcDb2dVertex
 10
310.8196472896537
 20
-68.21569814588099
 30
0.0
  0
VERTEX
  5
25B
330
201
100
AcDbEntity
  8
Calque 1
370
     0
100
AcDbVertex
100
AcDb2dVertex
 10
307.8196475903496
 20
-68.21569814588099
 30
0.0
  0
VERTEX
  5
25C
330
201
100
AcDbEntity
  8
Calque 1
370
     0
100
AcDbVertex
100
AcDb2dVertex
 10
307.8196475903496
 20
-62.2156949792035
 30
0.0
  0
VERTEX
  5
25D
330
201
100
AcDbEntity
  8
Calque 1
370
     0
100
AcDbVertex
100
AcDb2dVertex
 10
310.8196472896537
 20
-62.2156949792035
 30
0.0
  0
VERTEX
  5
25E
330
201
100
AcDbEntity
  8
Calque 1
370
     0
100
AcDbVertex
100
AcDb2dVertex
 10
310.8196472896537
 20
-56.21569611889095
 30
0.0
  0
VERTEX
  5
25F
330
201
100
AcDbEntity
  8
Calque 1
370
     0
100
AcDbVertex
100
AcDb2dVertex
 10
307.8196475903496
 20
-56.21569611889095
 30
0.0
  0
VERTEX
  5
260
330
201
100
AcDbEntity
  8
Calque 1
370
     0
100
AcDbVertex
100
AcDb2dVertex
 10
307.8196475903496
 20
-50.21569725857839
 30
0.0
  0
VERTEX
  5
261
330
201
100
AcDbEntity
  8
Calque 1
370
     0
100
AcDbVertex
100
AcDb2dVertex
 10
310.8196472896537
 20
-50.21569725857839
 30
0.0
  0
VERTEX
  5
262
330
201
100
AcDbEntity
  8
Calque 1
370
     0
100
AcDbVertex
100
AcDb2dVertex
 10
310.8196472896537
 20
-44.21569839826583
 30
0.0
  0
VERTEX
  5
263
330
201
100
AcDbEntity
  8
Calque 1
370
     0
100
AcDbVertex
100
AcDb2dVertex
 10
307.8196475903496
 20
-44.21569839826583
 30
0.0
  0
VERTEX
  5
264
330
201
100
AcDbEntity
  8
Calque 1
370
     0
100
AcDbVertex
100
AcDb2dVertex
 10
307.8196475903496
 20
-38.21569738477064
 30
0.0
  0
VERTEX
  5
265
330
201
100
AcDbEntity
  8
Calque 1
370
     0
100
AcDbVertex
100
AcDb2dVertex
 10
310.8196472896537
 20
-38.21569738477064
 30
0.0
  0
VERTEX
  5
266
330
201
100
AcDbEntity
  8
Calque 1
370
     0
100
AcDbVertex
100
AcDb2dVertex
 10
310.8196472896537
 20
-32.21569852445808
 30
0.0
  0
VERTEX
  5
267
330
201
100
AcDbEntity
  8
Calque 1
370
     0
100
AcDbVertex
100
AcDb2dVertex
 10
307.8196475903496
 20
-32.21569852445808
 30
0.0
  0
VERTEX
  5
268
330
201
100
AcDbEntity
  8
Calque 1
370
     0
100
AcDbVertex
100
AcDb2dVertex
 10
307.8196475903496
 20
-26.21569966414553
 30
0.0
  0
VERTEX
  5
269
330
201
100
AcDbEntity
  8
Calque 1
370
     0
100
AcDbVertex
100
AcDb2dVertex
 10
310.8196472896537
 20
-26.21569966414553
 30
0.0
  0
VERTEX
  5
26A
330
201
100
AcDbEntity
  8
Calque 1
370
     0
100
AcDbVertex
100
AcDb2dVertex
 10
310.8196472896537
 20
-20.21569972724102
 30
0.0
  0
VERTEX
  5
26B
330
201
100
AcDbEntity
  8
Calque 1
370
     0
100
AcDbVertex
100
AcDb2dVertex
 10
307.8196475903496
 20
-20.21569972724102
 30
0.0
  0
VERTEX
  5
26C
330
201
100
AcDbEntity
  8
Calque 1
370
     0
100
AcDbVertex
100
AcDb2dVertex
 10
307.8196475903496
 20
-11.71570008577498
 30
0.0
  0
VERTEX
  5
26D
330
201
100
AcDbEntity
  8
Calque 1
370
     0
100
AcDbVertex
100
AcDb2dVertex
 10
310.8196472896537
 20
-11.71570008577498
 30
0.0
  0
VERTEX
  5
26E
330
201
100
AcDbEntity
  8
Calque 1
370
     0
100
AcDbVertex
100
AcDb2dVertex
 10
310.8196472896537
 20
-3.215700444308934
 30
0.0
  0
SEQEND
  5
26F
330
201
100
AcDbEntity
  8
Calque 1
370
     0
  0
ENDBLK
  5
200
330
1FD
100
AcDbEntity
  8
0
100
AcDbBlockEnd
  0
BLOCK
  5
279
330
277
100
AcDbEntity
  8
0
100
AcDbBlockBegin
  2
block 8
 70
     0
 10
0.0
 20
0.0
 30
0.0
  3
block 8
  1

  0
INSERT
  5
27C
330
277
100
AcDbEntity
  8
Calque 1
100
AcDbBlockReference
  2
block 9
 10
0.0
 20
0.0
 30
0.0
  0
SPLINE
  5
30E
330
277
100
AcDbEntity
  8
Calque 1
370
     0
100
AcDbSpline
210
0.0
220
0.0
230
1.0
 70
    11
 71
     3
 72
    17
 73
    13
 74
     0
 42
0.0000000001
 43
0.0000000001
 12
1.0
 22
0.0
 32
0.0
 13
1.0
 23
0.0
 33
0.0
 40
0.0
 40
0.0
 40
0.0
 40
0.0
 40
1.0
 40
1.0
 40
1.0
 40
2.0
 40
2.0
 40
2.0
 40
3.0
 40
3.0
 40
3.0
 40
4.0
 40
4.0
 40
4.0
 40
4.0
 10
628.2511497505824
 20
-88.44070555731703
 30
0.0
 10
622.6040381852913
 20
-88.44070555706355
 30
0.0
 10
618.0261497533444
 20
-83.86281424099975
 30
0.0
 10
618.0261497535953
 20
-78.21569911846993
 30
0.0
 10
618.0261497538488
 20
-72.56858399594394
 30
0.0
 10
622.6040381862083
 20
-67.99069268028698
 30
0.0
 10
628.2511497514994
 20
-67.99069268054045
 30
0.0
 10
633.8982613167943
 20
-67.99069268079424
 30
0.0
 10
638.4761497487373
 20
-72.56858399686189
 30
0.0
 10
638.4761497484832
 20
-78.21569911938788
 30
0.0
 10
638.476149748233
 20
-83.8628142419177
 30
0.0
 10
633.8982613158742
 20
-88.44070555757082
 30
0.0
 10
628.2511497505824
 20
-88.44070555731703
 30
0.0
  0
ENDBLK
  5
27A
330
277
100
AcDbEntity
  8
0
100
AcDbBlockEnd
  0
BLOCK
  5
27D
330
27B
100
AcDbEntity
  8
0
100
AcDbBlockBegin
  2
block 9
 70
     0
 10
0.0
 20
0.0
 30
0.0
  3
block 9
  1

  0
POLYLINE
  5
27F
330
27B
100
AcDbEntity
  8
Calque 1
370
     0
100
AcDb2dPolyline
 66
     1
 10
0.0
 20
0.0
 30
0.0
  0
VERTEX
  5
280
330
27F
100
AcDbEntity
  8
Calque 1
370
     0
100
AcDbVertex
100
AcDb2dVertex
 10
586.2511536884042
 20
-150.215698090743
 30
0.0
  0
VERTEX
  5
281
330
27F
100
AcDbEntity
  8
Calque 1
370
     0
100
AcDbVertex
100
AcDb2dVertex
 10
586.2511536886725
 20
-144.2156984229863
 30
0.0
  0
VERTEX
  5
282
330
27F
100
AcDbEntity
  8
Calque 1
370
     0
100
AcDbVertex
100
AcDb2dVertex
 10
583.25115398937
 20
-144.2156984228522
 30
0.0
  0
VERTEX
  5
283
330
27F
100
AcDbEntity
  8
Calque 1
370
     0
100
AcDbVertex
100
AcDb2dVertex
 10
583.2511539897716
 20
-135.2156990557917
 30
0.0
  0
VERTEX
  5
284
330
27F
100
AcDbEntity
  8
Calque 1
370
     0
100
AcDbVertex
100
AcDb2dVertex
 10
586.251153689078
 20
-135.2156990559265
 30
0.0
  0
VERTEX
  5
285
330
27F
100
AcDbEntity
  8
Calque 1
370
     0
100
AcDbVertex
100
AcDb2dVertex
 10
586.2511536893463
 20
-129.2157001956139
 30
0.0
  0
VERTEX
  5
286
330
27F
100
AcDbEntity
  8
Calque 1
370
     0
100
AcDbVertex
100
AcDb2dVertex
 10
583.2511539900438
 20
-129.2157001954798
 30
0.0
  0
VERTEX
  5
287
330
27F
100
AcDbEntity
  8
Calque 1
370
     0
100
AcDbVertex
100
AcDb2dVertex
 10
583.2511539903113
 20
-123.2156991819837
 30
0.0
  0
VERTEX
  5
288
330
27F
100
AcDbEntity
  8
Calque 1
370
     0
100
AcDbVertex
100
AcDb2dVertex
 10
586.2511536896145
 20
-123.2156991821184
 30
0.0
  0
VERTEX
  5
289
330
27F
100
AcDbEntity
  8
Calque 1
370
     0
100
AcDbVertex
100
AcDb2dVertex
 10
586.251153689886
 20
-117.2157003218056
 30
0.0
  0
VERTEX
  5
28A
330
27F
100
AcDbEntity
  8
Calque 1
370
     0
100
AcDbVertex
100
AcDb2dVertex
 10
583.2511539905796
 20
-117.2157003216718
 30
0.0
  0
VERTEX
  5
28B
330
27F
100
AcDbEntity
  8
Calque 1
370
     0
100
AcDbVertex
100
AcDb2dVertex
 10
583.251153990851
 20
-111.2157014613589
 30
0.0
  0
VERTEX
  5
28C
330
27F
100
AcDbEntity
  8
Calque 1
370
     0
100
AcDbVertex
100
AcDb2dVertex
 10
586.2511536901542
 20
-111.2157014614936
 30
0.0
  0
VERTEX
  5
28D
330
27F
100
AcDbEntity
  8
Calque 1
370
     0
100
AcDbVertex
100
AcDb2dVertex
 10
586.2511536904256
 20
-105.2157026011804
 30
0.0
  0
VERTEX
  5
28E
330
27F
100
AcDbEntity
  8
Calque 1
370
     0
100
AcDbVertex
100
AcDb2dVertex
 10
583.2511539911193
 20
-105.2157026010463
 30
0.0
  0
VERTEX
  5
28F
330
27F
100
AcDbEntity
  8
Calque 1
370
     0
100
AcDbVertex
100
AcDb2dVertex
 10
583.2511539913913
 20
-99.21569943436819
 30
0.0
  0
VERTEX
  5
290
330
27F
100
AcDbEntity
  8
Calque 1
370
     0
100
AcDbVertex
100
AcDb2dVertex
 10
586.2511536906939
 20
-99.21569943450262
 30
0.0
  0
VERTEX
  5
291
330
27F
100
AcDbEntity
  8
Calque 1
370
     0
100
AcDbVertex
100
AcDb2dVertex
 10
586.251153690962
 20
-93.21570057419007
 30
0.0
  0
VERTEX
  5
292
330
27F
100
AcDbEntity
  8
Calque 1
370
     0
100
AcDbVertex
100
AcDb2dVertex
 10
583.2511539916595
 20
-93.21570057405563
 30
0.0
  0
VERTEX
  5
293
330
27F
100
AcDbEntity
  8
Calque 1
370
     0
100
AcDbVertex
100
AcDb2dVertex
 10
583.2511539919271
 20
-87.21570171374307
 30
0.0
  0
VERTEX
  5
294
330
27F
100
AcDbEntity
  8
Calque 1
370
     0
100
AcDbVertex
100
AcDb2dVertex
 10
586.2511536912335
 20
-87.2157017138772
 30
0.0
  0
VERTEX
  5
295
330
27F
100
AcDbEntity
  8
Calque 1
370
     0
100
AcDbVertex
100
AcDb2dVertex
 10
586.2511536915017
 20
-81.21570285356528
 30
0.0
  0
VERTEX
  5
296
330
27F
100
AcDbEntity
  8
Calque 1
370
     0
100
AcDbVertex
100
AcDb2dVertex
 10
583.2511539921992
 20
-81.21570285343051
 30
0.0
  0
VERTEX
  5
297
330
27F
100
AcDbEntity
  8
Calque 1
370
     0
100
AcDbVertex
100
AcDb2dVertex
 10
583.2511539924668
 20
-75.21570399311828
 30
0.0
  0
VERTEX
  5
298
330
27F
100
AcDbEntity
  8
Calque 1
370
     0
100
AcDbVertex
100
AcDb2dVertex
 10
586.25115369177
 20
-75.2157039932524
 30
0.0
  0
VERTEX
  5
299
330
27F
100
AcDbEntity
  8
Calque 1
370
     0
100
AcDbVertex
100
AcDb2dVertex
 10
586.2511536920414
 20
-69.21570513293985
 30
0.0
  0
VERTEX
  5
29A
330
27F
100
AcDbEntity
  8
Calque 1
370
     0
100
AcDbVertex
100
AcDb2dVertex
 10
583.251153992735
 20
-69.2157051328054
 30
0.0
  0
VERTEX
  5
29B
330
27F
100
AcDbEntity
  8
Calque 1
370
     0
100
AcDbVertex
100
AcDb2dVertex
 10
583.2511539930072
 20
-63.21570627249285
 30
0.0
  0
VERTEX
  5
29C
330
27F
100
AcDbEntity
  8
Calque 1
370
     0
100
AcDbVertex
100
AcDb2dVertex
 10
586.2511536923097
 20
-63.21570627262728
 30
0.0
  0
VERTEX
  5
29D
330
27F
100
AcDbEntity
  8
Calque 1
370
     0
100
AcDbVertex
100
AcDb2dVertex
 10
586.2511536925779
 20
-57.21570741231472
 30
0.0
  0
VERTEX
  5
29E
330
27F
100
AcDbEntity
  8
Calque 1
370
     0
100
AcDbVertex
100
AcDb2dVertex
 10
583.2511539932747
 20
-57.21570741218029
 30
0.0
  0
VERTEX
  5
29F
330
27F
100
AcDbEntity
  8
Calque 1
370
     0
100
AcDbVertex
100
AcDb2dVertex
 10
583.251153993543
 20
-51.21569993913659
 30
0.0
  0
VERTEX
  5
2A0
330
27F
100
AcDbEntity
  8
Calque 1
370
     0
100
AcDbVertex
100
AcDb2dVertex
 10
586.2511536928494
 20
-51.21569993927103
 30
0.0
  0
VERTEX
  5
2A1
330
27F
100
AcDbEntity
  8
Calque 1
370
     0
100
AcDbVertex
100
AcDb2dVertex
 10
586.2511536931175
 20
-45.21570107895847
 30
0.0
  0
VERTEX
  5
2A2
330
27F
100
AcDbEntity
  8
Calque 1
370
     0
100
AcDbVertex
100
AcDb2dVertex
 10
583.2511539938143
 20
-45.21570107882403
 30
0.0
  0
VERTEX
  5
2A3
330
27F
100
AcDbEntity
  8
Calque 1
370
     0
100
AcDbVertex
100
AcDb2dVertex
 10
583.2511539940826
 20
-39.21570221851147
 30
0.0
  0
VERTEX
  5
2A4
330
27F
100
AcDbEntity
  8
Calque 1
370
     0
100
AcDbVertex
100
AcDb2dVertex
 10
586.251153693389
 20
-39.21570221864591
 30
0.0
  0
VERTEX
  5
2A5
330
27F
100
AcDbEntity
  8
Calque 1
370
     0
100
AcDbVertex
100
AcDb2dVertex
 10
586.2511536936572
 20
-33.21570335833335
 30
0.0
  0
VERTEX
  5
2A6
330
27F
100
AcDbEntity
  8
Calque 1
370
     0
100
AcDbVertex
100
AcDb2dVertex
 10
583.2511539943508
 20
-33.21570335819892
 30
0.0
  0
VERTEX
  5
2A7
330
27F
100
AcDbEntity
  8
Calque 1
370
     0
100
AcDbVertex
100
AcDb2dVertex
 10
583.2511539946223
 20
-27.21570449788636
 30
0.0
  0
VERTEX
  5
2A8
330
27F
100
AcDbEntity
  8
Calque 1
370
     0
100
AcDbVertex
100
AcDb2dVertex
 10
586.2511536939254
 20
-27.21570449802079
 30
0.0
  0
VERTEX
  5
2A9
330
27F
100
AcDbEntity
  8
Calque 1
370
     0
100
AcDbVertex
100
AcDb2dVertex
 10
586.2511536941937
 20
-21.21570563770824
 30
0.0
  0
VERTEX
  5
2AA
330
27F
100
AcDbEntity
  8
Calque 1
370
     0
100
AcDbVertex
100
AcDb2dVertex
 10
583.2511539948905
 20
-21.2157056375738
 30
0.0
  0
VERTEX
  5
2AB
330
27F
100
AcDbEntity
  8
Calque 1
370
     0
100
AcDbVertex
100
AcDb2dVertex
 10
583.2511539952967
 20
-12.21570304073939
 30
0.0
  0
VERTEX
  5
2AC
330
27F
100
AcDbEntity
  8
Calque 1
370
     0
100
AcDbVertex
100
AcDb2dVertex
 10
586.2511536945992
 20
-12.21570304087383
 30
0.0
  0
VERTEX
  5
2AD
330
27F
100
AcDbEntity
  8
Calque 1
370
     0
100
AcDbVertex
100
AcDb2dVertex
 10
586.2511536948674
 20
-6.21570418056127
 30
0.0
  0
VERTEX
  5
2AE
330
27F
100
AcDbEntity
  8
Calque 1
370
     0
100
AcDbVertex
100
AcDb2dVertex
 10
592.2511533626248
 20
-6.215704180830784
 30
0.0
  0
VERTEX
  5
2AF
330
27F
100
AcDbEntity
  8
Calque 1
370
     0
100
AcDbVertex
100
AcDb2dVertex
 10
592.2511533627589
 20
-3.215700444308934
 30
0.0
  0
VERTEX
  5
2B0
330
27F
100
AcDbEntity
  8
Calque 1
370
     0
100
AcDbVertex
100
AcDb2dVertex
 10
601.2511527298187
 20
-3.215700444712883
 30
0.0
  0
VERTEX
  5
2B1
330
27F
100
AcDbEntity
  8
Calque 1
370
     0
100
AcDbVertex
100
AcDb2dVertex
 10
601.2511527296846
 20
-6.215704181234733
 30
0.0
  0
VERTEX
  5
2B2
330
27F
100
AcDbEntity
  8
Calque 1
370
     0
100
AcDbVertex
100
AcDb2dVertex
 10
607.2511515899978
 20
-6.215704181504247
 30
0.0
  0
VERTEX
  5
2B3
330
27F
100
AcDbEntity
  8
Calque 1
370
     0
100
AcDbVertex
100
AcDb2dVertex
 10
607.2511515901313
 20
-3.215700444982397
 30
0.0
  0
VERTEX
  5
2B4
330
27F
100
AcDbEntity
  8
Calque 1
370
     0
100
AcDbVertex
100
AcDb2dVertex
 10
613.2511526036271
 20
-3.21570044525159
 30
0.0
  0
VERTEX
  5
2B5
330
27F
100
AcDbEntity
  8
Calque 1
370
     0
100
AcDbVertex
100
AcDb2dVertex
 10
613.251152603493
 20
-6.21570418177344
 30
0.0
  0
VERTEX
  5
2B6
330
27F
100
AcDbEntity
  8
Calque 1
370
     0
100
AcDbVertex
100
AcDb2dVertex
 10
619.2511514638055
 20
-6.215704182042953
 30
0.0
  0
VERTEX
  5
2B7
330
27F
100
AcDbEntity
  8
Calque 1
370
     0
100
AcDbVertex
100
AcDb2dVertex
 10
619.2511514639397
 20
-3.215700445521104
 30
0.0
  0
VERTEX
  5
2B8
330
27F
100
AcDbEntity
  8
Calque 1
370
     0
100
AcDbVertex
100
AcDb2dVertex
 10
625.2511503242522
 20
-3.215700445790617
 30
0.0
  0
VERTEX
  5
2B9
330
27F
100
AcDbEntity
  8
Calque 1
370
     0
100
AcDbVertex
100
AcDb2dVertex
 10
625.2511503241182
 20
-6.215704182312466
 30
0.0
  0
VERTEX
  5
2BA
330
27F
100
AcDbEntity
  8
Calque 1
370
     0
100
AcDbVertex
100
AcDb2dVertex
 10
631.2511491844307
 20
-6.21570418258166
 30
0.0
  0
VERTEX
  5
2BB
330
27F
100
AcDbEntity
  8
Calque 1
370
     0
100
AcDbVertex
100
AcDb2dVertex
 10
631.2511491845647
 20
-3.21570044605981
 30
0.0
  0
VERTEX
  5
2BC
330
27F
100
AcDbEntity
  8
Calque 1
370
     0
100
AcDbVertex
100
AcDb2dVertex
 10
637.2511523512426
 20
-3.215700446329323
 30
0.0
  0
VERTEX
  5
2BD
330
27F
100
AcDbEntity
  8
Calque 1
370
     0
100
AcDbVertex
100
AcDb2dVertex
 10
637.2511523511084
 20
-6.215704182851173
 30
0.0
  0
VERTEX
  5
2BE
330
27F
100
AcDbEntity
  8
Calque 1
370
     0
100
AcDbVertex
100
AcDb2dVertex
 10
643.2511512114211
 20
-6.215704183120366
 30
0.0
  0
VERTEX
  5
2BF
330
27F
100
AcDbEntity
  8
Calque 1
370
     0
100
AcDbVertex
100
AcDb2dVertex
 10
643.2511512115551
 20
-3.215700446598516
 30
0.0
  0
VERTEX
  5
2C0
330
27F
100
AcDbEntity
  8
Calque 1
370
     0
100
AcDbVertex
100
AcDb2dVertex
 10
649.2511500718678
 20
-3.21570044686803
 30
0.0
  0
VERTEX
  5
2C1
330
27F
100
AcDbEntity
  8
Calque 1
370
     0
100
AcDbVertex
100
AcDb2dVertex
 10
649.2511500717336
 20
-6.215704183389879
 30
0.0
  0
VERTEX
  5
2C2
330
27F
100
AcDbEntity
  8
Calque 1
370
     0
100
AcDbVertex
100
AcDb2dVertex
 10
655.2511489320461
 20
-6.215704183659393
 30
0.0
  0
VERTEX
  5
2C3
330
27F
100
AcDbEntity
  8
Calque 1
370
     0
100
AcDbVertex
100
AcDb2dVertex
 10
655.2511489321803
 20
-3.215700447137543
 30
0.0
  0
VERTEX
  5
2C4
330
27F
100
AcDbEntity
  8
Calque 1
370
     0
100
AcDbVertex
100
AcDb2dVertex
 10
664.2511515290166
 20
-3.215700447541493
 30
0.0
  0
VERTEX
  5
2C5
330
27F
100
AcDbEntity
  8
Calque 1
370
     0
100
AcDbVertex
100
AcDb2dVertex
 10
664.2511515288825
 20
-6.215704184063342
 30
0.0
  0
VERTEX
  5
2C6
330
27F
100
AcDbEntity
  8
Calque 1
370
     0
100
AcDbVertex
100
AcDb2dVertex
 10
670.251150389195
 20
-6.215704184332535
 30
0.0
  0
VERTEX
  5
2C7
330
27F
100
AcDbEntity
  8
Calque 1
370
     0
100
AcDbVertex
100
AcDb2dVertex
 10
670.2511503889236
 20
-12.21570304464509
 30
0.0
  0
VERTEX
  5
2C8
330
27F
100
AcDbEntity
  8
Calque 1
370
     0
100
AcDbVertex
100
AcDb2dVertex
 10
673.2511455127162
 20
-12.21570304477985
 30
0.0
  0
VERTEX
  5
2C9
330
27F
100
AcDbEntity
  8
Calque 1
370
     0
100
AcDbVertex
100
AcDb2dVertex
 10
673.25114551231
 20
-21.21570564161426
 30
0.0
  0
VERTEX
  5
2CA
330
27F
100
AcDbEntity
  8
Calque 1
370
     0
100
AcDbVertex
100
AcDb2dVertex
 10
670.2511503885213
 20
-21.2157056414795
 30
0.0
  0
VERTEX
  5
2CB
330
27F
100
AcDbEntity
  8
Calque 1
370
     0
100
AcDbVertex
100
AcDb2dVertex
 10
670.2511503882491
 20
-27.21570450179206
 30
0.0
  0
VERTEX
  5
2CC
330
27F
100
AcDbEntity
  8
Calque 1
370
     0
100
AcDbVertex
100
AcDb2dVertex
 10
673.2511455120424
 20
-27.21570450192682
 30
0.0
  0
VERTEX
  5
2CD
330
27F
100
AcDbEntity
  8
Calque 1
370
     0
100
AcDbVertex
100
AcDb2dVertex
 10
673.2511455117703
 20
-33.21570336223937
 30
0.0
  0
VERTEX
  5
2CE
330
27F
100
AcDbEntity
  8
Calque 1
370
     0
100
AcDbVertex
100
AcDb2dVertex
 10
670.2511503879816
 20
-33.21570336210462
 30
0.0
  0
VERTEX
  5
2CF
330
27F
100
AcDbEntity
  8
Calque 1
370
     0
100
AcDbVertex
100
AcDb2dVertex
 10
670.2511503877133
 20
-39.21570222241717
 30
0.0
  0
VERTEX
  5
2D0
330
27F
100
AcDbEntity
  8
Calque 1
370
     0
100
AcDbVertex
100
AcDb2dVertex
 10
673.2511455115022
 20
-39.21570222255193
 30
0.0
  0
VERTEX
  5
2D1
330
27F
100
AcDbEntity
  8
Calque 1
370
     0
100
AcDbVertex
100
AcDb2dVertex
 10
673.2511455112339
 20
-45.21570108286449
 30
0.0
  0
VERTEX
  5
2D2
330
27F
100
AcDbEntity
  8
Calque 1
370
     0
100
AcDbVertex
100
AcDb2dVertex
 10
670.2511503874413
 20
-45.21570108272973
 30
0.0
  0
VERTEX
  5
2D3
330
27F
100
AcDbEntity
  8
Calque 1
370
     0
100
AcDbVertex
100
AcDb2dVertex
 10
670.2511503871737
 20
-51.21569994304229
 30
0.0
  0
VERTEX
  5
2D4
330
27F
100
AcDbEntity
  8
Calque 1
370
     0
100
AcDbVertex
100
AcDb2dVertex
 10
673.2511455109625
 20
-51.21569994317705
 30
0.0
  0
VERTEX
  5
2D5
330
27F
100
AcDbEntity
  8
Calque 1
370
     0
100
AcDbVertex
100
AcDb2dVertex
 10
673.2511455106942
 20
-57.21570741622075
 30
0.0
  0
VERTEX
  5
2D6
330
27F
100
AcDbEntity
  8
Calque 1
370
     0
100
AcDbVertex
100
AcDb2dVertex
 10
670.2511503869016
 20
-57.21570741608599
 30
0.0
  0
VERTEX
  5
2D7
330
27F
100
AcDbEntity
  8
Calque 1
370
     0
100
AcDbVertex
100
AcDb2dVertex
 10
670.251150386634
 20
-63.21570627639855
 30
0.0
  0
VERTEX
  5
2D8
330
27F
100
AcDbEntity
  8
Calque 1
370
     0
100
AcDbVertex
100
AcDb2dVertex
 10
673.2511455104267
 20
-63.2157062765333
 30
0.0
  0
VERTEX
  5
2D9
330
27F
100
AcDbEntity
  8
Calque 1
370
     0
100
AcDbVertex
100
AcDb2dVertex
 10
673.2511455101545
 20
-69.21570513684586
 30
0.0
  0
VERTEX
  5
2DA
330
27F
100
AcDbEntity
  8
Calque 1
370
     0
100
AcDbVertex
100
AcDb2dVertex
 10
670.2511503863658
 20
-69.21570513671111
 30
0.0
  0
VERTEX
  5
2DB
330
27F
100
AcDbEntity
  8
Calque 1
370
     0
100
AcDbVertex
100
AcDb2dVertex
 10
670.2511503860937
 20
-75.21570399702367
 30
0.0
  0
VERTEX
  5
2DC
330
27F
100
AcDbEntity
  8
Calque 1
370
     0
100
AcDbVertex
100
AcDb2dVertex
 10
673.2511455098863
 20
-75.21570399715841
 30
0.0
  0
VERTEX
  5
2DD
330
27F
100
AcDbEntity
  8
Calque 1
370
     0
100
AcDbVertex
100
AcDb2dVertex
 10
673.2511455096148
 20
-81.21570285747097
 30
0.0
  0
VERTEX
  5
2DE
330
27F
100
AcDbEntity
  8
Calque 1
370
     0
100
AcDbVertex
100
AcDb2dVertex
 10
670.2511503858261
 20
-81.21570285733623
 30
0.0
  0
VERTEX
  5
2DF
330
27F
100
AcDbEntity
  8
Calque 1
370
     0
100
AcDbVertex
100
AcDb2dVertex
 10
670.2511503855579
 20
-87.21570171764878
 30
0.0
  0
VERTEX
  5
2E0
330
27F
100
AcDbEntity
  8
Calque 1
370
     0
100
AcDbVertex
100
AcDb2dVertex
 10
673.2511455093467
 20
-87.21570171778353
 30
0.0
  0
VERTEX
  5
2E1
330
27F
100
AcDbEntity
  8
Calque 1
370
     0
100
AcDbVertex
100
AcDb2dVertex
 10
673.251145509079
 20
-93.21570057809609
 30
0.0
  0
VERTEX
  5
2E2
330
27F
100
AcDbEntity
  8
Calque 1
370
     0
100
AcDbVertex
100
AcDb2dVertex
 10
670.2511503852865
 20
-93.21570057796134
 30
0.0
  0
VERTEX
  5
2E3
330
27F
100
AcDbEntity
  8
Calque 1
370
     0
100
AcDbVertex
100
AcDb2dVertex
 10
670.2511503850183
 20
-99.21569943827421
 30
0.0
  0
VERTEX
  5
2E4
330
27F
100
AcDbEntity
  8
Calque 1
370
     0
100
AcDbVertex
100
AcDb2dVertex
 10
673.251145508807
 20
-99.21569943840898
 30
0.0
  0
VERTEX
  5
2E5
330
27F
100
AcDbEntity
  8
Calque 1
370
     0
100
AcDbVertex
100
AcDb2dVertex
 10
673.2511455085388
 20
-105.2157026050871
 30
0.0
  0
VERTEX
  5
2E6
330
27F
100
AcDbEntity
  8
Calque 1
370
     0
100
AcDbVertex
100
AcDb2dVertex
 10
670.25115038475
 20
-105.2157026049523
 30
0.0
  0
VERTEX
  5
2E7
330
27F
100
AcDbEntity
  8
Calque 1
370
     0
100
AcDbVertex
100
AcDb2dVertex
 10
670.2511503844779
 20
-111.2157014652643
 30
0.0
  0
VERTEX
  5
2E8
330
27F
100
AcDbEntity
  8
Calque 1
370
     0
100
AcDbVertex
100
AcDb2dVertex
 10
673.2511455082712
 20
-111.215701465399
 30
0.0
  0
VERTEX
  5
2E9
330
27F
100
AcDbEntity
  8
Calque 1
370
     0
100
AcDbVertex
100
AcDb2dVertex
 10
673.2511455079991
 20
-117.2157003257122
 30
0.0
  0
VERTEX
  5
2EA
330
27F
100
AcDbEntity
  8
Calque 1
370
     0
100
AcDbVertex
100
AcDb2dVertex
 10
670.2511503842103
 20
-117.2157003255775
 30
0.0
  0
VERTEX
  5
2EB
330
27F
100
AcDbEntity
  8
Calque 1
370
     0
100
AcDbVertex
100
AcDb2dVertex
 10
670.2511503839421
 20
-123.2156991858894
 30
0.0
  0
VERTEX
  5
2EC
330
27F
100
AcDbEntity
  8
Calque 1
370
     0
100
AcDbVertex
100
AcDb2dVertex
 10
673.2511455077315
 20
-123.2156991860241
 30
0.0
  0
VERTEX
  5
2ED
330
27F
100
AcDbEntity
  8
Calque 1
370
     0
100
AcDbVertex
100
AcDb2dVertex
 10
673.2511455074633
 20
-129.2157001995199
 30
0.0
  0
VERTEX
  5
2EE
330
27F
100
AcDbEntity
  8
Calque 1
370
     0
100
AcDbVertex
100
AcDb2dVertex
 10
670.2511503836706
 20
-129.2157001993852
 30
0.0
  0
VERTEX
  5
2EF
330
27F
100
AcDbEntity
  8
Calque 1
370
     0
100
AcDbVertex
100
AcDb2dVertex
 10
670.2511503834024
 20
-135.2156990596978
 30
0.0
  0
VERTEX
  5
2F0
330
27F
100
AcDbEntity
  8
Calque 1
370
     0
100
AcDbVertex
100
AcDb2dVertex
 10
673.2511455071912
 20
-135.2156990598325
 30
0.0
  0
VERTEX
  5
2F1
330
27F
100
AcDbEntity
  8
Calque 1
370
     0
100
AcDbVertex
100
AcDb2dVertex
 10
673.2511455067895
 20
-144.215698426893
 30
0.0
  0
VERTEX
  5
2F2
330
27F
100
AcDbEntity
  8
Calque 1
370
     0
100
AcDbVertex
100
AcDb2dVertex
 10
670.2511503829969
 20
-144.2156984267582
 30
0.0
  0
VERTEX
  5
2F3
330
27F
100
AcDbEntity
  8
Calque 1
370
     0
100
AcDbVertex
100
AcDb2dVertex
 10
670.2511503827286
 20
-150.2156980945136
 30
0.0
  0
VERTEX
  5
2F4
330
27F
100
AcDbEntity
  8
Calque 1
370
     0
100
AcDbVertex
100
AcDb2dVertex
 10
664.2511515224161
 20
-150.2156980942447
 30
0.0
  0
VERTEX
  5
2F5
330
27F
100
AcDbEntity
  8
Calque 1
370
     0
100
AcDbVertex
100
AcDb2dVertex
 10
664.2511515222819
 20
-153.2156977935485
 30
0.0
  0
VERTEX
  5
2F6
330
27F
100
AcDbEntity
  8
Calque 1
370
     0
100
AcDbVertex
100
AcDb2dVertex
 10
655.2511489254456
 20
-153.2156977931449
 30
0.0
  0
VERTEX
  5
2F7
330
27F
100
AcDbEntity
  8
Calque 1
370
     0
100
AcDbVertex
100
AcDb2dVertex
 10
655.2511489255836
 20
-150.2156980938411
 30
0.0
  0
VERTEX
  5
2F8
330
27F
100
AcDbEntity
  8
Calque 1
370
     0
100
AcDbVertex
100
AcDb2dVertex
 10
649.2511500652672
 20
-150.2156980935716
 30
0.0
  0
VERTEX
  5
2F9
330
27F
100
AcDbEntity
  8
Calque 1
370
     0
100
AcDbVertex
100
AcDb2dVertex
 10
649.2511500651331
 20
-153.2156977928754
 30
0.0
  0
VERTEX
  5
2FA
330
27F
100
AcDbEntity
  8
Calque 1
370
     0
100
AcDbVertex
100
AcDb2dVertex
 10
643.2511512048205
 20
-153.2156977926059
 30
0.0
  0
VERTEX
  5
2FB
330
27F
100
AcDbEntity
  8
Calque 1
370
     0
100
AcDbVertex
100
AcDb2dVertex
 10
643.2511512049547
 20
-150.2156980933021
 30
0.0
  0
VERTEX
  5
2FC
330
27F
100
AcDbEntity
  8
Calque 1
370
     0
100
AcDbVertex
100
AcDb2dVertex
 10
637.251152344642
 20
-150.2156980930326
 30
0.0
  0
VERTEX
  5
2FD
330
27F
100
AcDbEntity
  8
Calque 1
370
     0
100
AcDbVertex
100
AcDb2dVertex
 10
637.251152344508
 20
-153.215697792337
 30
0.0
  0
VERTEX
  5
2FE
330
27F
100
AcDbEntity
  8
Calque 1
370
     0
100
AcDbVertex
100
AcDb2dVertex
 10
631.2511491778301
 20
-153.2156977920675
 30
0.0
  0
VERTEX
  5
2FF
330
27F
100
AcDbEntity
  8
Calque 1
370
     0
100
AcDbVertex
100
AcDb2dVertex
 10
631.2511491779643
 20
-150.2156980927631
 30
0.0
  0
VERTEX
  5
300
330
27F
100
AcDbEntity
  8
Calque 1
370
     0
100
AcDbVertex
100
AcDb2dVertex
 10
625.2511503176516
 20
-150.2156980924936
 30
0.0
  0
VERTEX
  5
301
330
27F
100
AcDbEntity
  8
Calque 1
370
     0
100
AcDbVertex
100
AcDb2dVertex
 10
625.2511503175176
 20
-153.215697791798
 30
0.0
  0
VERTEX
  5
302
330
27F
100
AcDbEntity
  8
Calque 1
370
     0
100
AcDbVertex
100
AcDb2dVertex
 10
619.2511514572051
 20
-153.2156977915285
 30
0.0
  0
VERTEX
  5
303
330
27F
100
AcDbEntity
  8
Calque 1
370
     0
100
AcDbVertex
100
AcDb2dVertex
 10
619.2511514573391
 20
-150.215698092224
 30
0.0
  0
VERTEX
  5
304
330
27F
100
AcDbEntity
  8
Calque 1
370
     0
100
AcDbVertex
100
AcDb2dVertex
 10
613.2511525970266
 20
-150.2156980919545
 30
0.0
  0
VERTEX
  5
305
330
27F
100
AcDbEntity
  8
Calque 1
370
     0
100
AcDbVertex
100
AcDb2dVertex
 10
613.2511525968924
 20
-153.2156977912589
 30
0.0
  0
VERTEX
  5
306
330
27F
100
AcDbEntity
  8
Calque 1
370
     0
100
AcDbVertex
100
AcDb2dVertex
 10
607.2511515833972
 20
-153.2156977909895
 30
0.0
  0
VERTEX
  5
307
330
27F
100
AcDbEntity
  8
Calque 1
370
     0
100
AcDbVertex
100
AcDb2dVertex
 10
607.2511515835307
 20
-150.2156980916857
 30
0.0
  0
VERTEX
  5
308
330
27F
100
AcDbEntity
  8
Calque 1
370
     0
100
AcDbVertex
100
AcDb2dVertex
 10
601.2511527232189
 20
-150.2156980914162
 30
0.0
  0
VERTEX
  5
309
330
27F
100
AcDbEntity
  8
Calque 1
370
     0
100
AcDbVertex
100
AcDb2dVertex
 10
601.2511527230847
 20
-153.2156977907199
 30
0.0
  0
VERTEX
  5
30A
330
27F
100
AcDbEntity
  8
Calque 1
370
     0
100
AcDbVertex
100
AcDb2dVertex
 10
592.2511533560242
 20
-153.2156977903163
 30
0.0
  0
VERTEX
  5
30B
330
27F
100
AcDbEntity
  8
Calque 1
370
     0
100
AcDbVertex
100
AcDb2dVertex
 10
592.2511533561584
 20
-150.2156980910125
 30
0.0
  0
VERTEX
  5
30C
330
27F
100
AcDbEntity
  8
Calque 1
370
     0
100
AcDbVertex
100
AcDb2dVertex
 10
586.2511536884042
 20
-150.215698090743
 30
0.0
  0
SEQEND
  5
30D
330
27F
100
AcDbEntity
  8
Calque 1
370
     0
  0
ENDBLK
  5
27E
330
27B
100
AcDbEntity
  8
0
100
AcDbBlockEnd
  0
BLOCK
  5
311
330
30F
100
AcDbEntity
  8
0
100
AcDbBlockBegin
  2
block 10
 70
     0
 10
0.0
 20
0.0
 30
0.0
  3
block 10
  1

  0
INSERT
  5
314
330
30F
100
AcDbEntity
  8
Calque 1
100
AcDbBlockReference
  2
block 11
 10
0.0
 20
0.0
 30
0.0
  0
SPLINE
  5
3A6
330
30F
100
AcDbEntity
  8
Calque 1
370
     0
100
AcDbSpline
210
0.0
220
0.0
230
1.0
 70
    11
 71
     3
 72
    17
 73
    13
 74
     0
 42
0.0000000001
 43
0.0000000001
 12
1.0
 22
0.0
 32
0.0
 13
1.0
 23
0.0
 33
0.0
 40
0.0
 40
0.0
 40
0.0
 40
0.0
 40
1.0
 40
1.0
 40
1.0
 40
2.0
 40
2.0
 40
2.0
 40
3.0
 40
3.0
 40
3.0
 40
4.0
 40
4.0
 40
4.0
 40
4.0
 10
535.2230323695939
 20
-75.68447739763963
 30
0.0
 10
535.2230323695553
 20
-76.56818745330041
 30
0.0
 10
534.5067539544475
 20
-77.28450354907623
 30
0.0
 10
533.6230438987848
 20
-77.28450354903677
 30
0.0
 10
532.7393338431222
 20
-77.284503548997
 30
0.0
 10
532.0230554280811
 20
-76.56818745315667
 30
0.0
 10
532.0230554281195
 20
-75.68447739749588
 30
0.0
 10
532.0230554281587
 20
-74.80080502256791
 30
0.0
 10
532.7393338432665
 20
-74.08448892679112
 30
0.0
 10
533.6230438989292
 20
-74.08448892683059
 30
0.0
 10
534.5067539545887
 20
-74.08448892687005
 30
0.0
 10
535.223032369633
 20
-74.80080502271134
 30
0.0
 10
535.2230323695939
 20
-75.68447739763963
 30
0.0
  0
SPLINE
  5
3A7
330
30F
100
AcDbEntity
  8
Calque 1
370
     0
100
AcDbSpline
210
0.0
220
0.0
230
1.0
 70
    11
 71
     3
 72
    17
 73
    13
 74
     0
 42
0.0000000001
 43
0.0000000001
 12
1.0
 22
0.0
 32
0.0
 13
1.0
 23
0.0
 33
0.0
 40
0.0
 40
0.0
 40
0.0
 40
0.0
 40
1.0
 40
1.0
 40
1.0
 40
2.0
 40
2.0
 40
2.0
 40
3.0
 40
3.0
 40
3.0
 40
4.0
 40
4.0
 40
4.0
 40
4.0
 10
507.2830280702102
 20
-75.68447739638509
 30
0.0
 10
507.2830280701716
 20
-76.56818745204589
 30
0.0
 10
506.5667496550638
 20
-77.28450354782204
 30
0.0
 10
505.6830395994043
 20
-77.28450354778225
 30
0.0
 10
504.7993295437416
 20
-77.28450354774247
 30
0.0
 10
504.0830511286973
 20
-76.56818745190215
 30
0.0
 10
504.0830511287358
 20
-75.68447739624136
 30
0.0
 10
504.083051128775
 20
-74.80080502131308
 30
0.0
 10
504.7993295438828
 20
-74.08448892553629
 30
0.0
 10
505.6830395995455
 20
-74.08448892557607
 30
0.0
 10
506.566749655205
 20
-74.08448892561586
 30
0.0
 10
507.2830280702493
 20
-74.80080502145682
 30
0.0
 10
507.2830280702102
 20
-75.68447739638509
 30
0.0
  0
SPLINE
  5
3A8
330
30F
100
AcDbEntity
  8
Calque 1
370
     0
100
AcDbSpline
210
0.0
220
0.0
230
1.0
 70
    11
 71
     3
 72
    17
 73
    13
 74
     0
 42
0.0000000001
 43
0.0000000001
 12
1.0
 22
0.0
 32
0.0
 13
1.0
 23
0.0
 33
0.0
 40
0.0
 40
0.0
 40
0.0
 40
0.0
 40
1.0
 40
1.0
 40
1.0
 40
2.0
 40
2.0
 40
2.0
 40
3.0
 40
3.0
 40
3.0
 40
4.0
 40
4.0
 40
4.0
 40
4.0
 10
502.2030302270051
 20
-23.61458560670455
 30
0.0
 10
502.2030302269634
 20
-24.49829297088386
 30
0.0
 10
501.4867518118517
 20
-25.21457407740963
 30
0.0
 10
500.6030417561922
 20
-25.21457407736984
 30
0.0
 10
499.7193317005334
 20
-25.21457407733006
 30
0.0
 10
499.003053285489
 20
-24.49829297074012
 30
0.0
 10
499.0030532855308
 20
-23.61458560656082
 30
0.0
 10
499.0030532855699
 20
-22.73087555090067
 30
0.0
 10
499.7193317006777
 20
-22.01459713585574
 30
0.0
 10
500.6030417563372
 20
-22.01459713589553
 30
0.0
 10
501.4867518119961
 20
-22.01459713593531
 30
0.0
 10
502.2030302270442
 20
-22.73087555104441
 30
0.0
 10
502.2030302270051
 20
-23.61458560670455
 30
0.0
  0
ENDBLK
  5
312
330
30F
100
AcDbEntity
  8
0
100
AcDbBlockEnd
  0
BLOCK
  5
315
330
313
100
AcDbEntity
  8
0
100
AcDbBlockBegin
  2
block 11
 70
     0
 10
0.0
 20
0.0
 30
0.0
  3
block 11
  1

  0
POLYLINE
  5
317
330
313
100
AcDbEntity
  8
Calque 1
370
     0
100
AcDb2dPolyline
 66
     1
 10
0.0
 20
0.0
 30
0.0
  0
VERTEX
  5
318
330
317
100
AcDbEntity
  8
Calque 1
370
     0
100
AcDbVertex
100
AcDb2dVertex
 10
494.5085220188488
 20
-150.215698090743
 30
0.0
  0
VERTEX
  5
319
330
317
100
AcDbEntity
  8
Calque 1
370
     0
100
AcDbVertex
100
AcDb2dVertex
 10
494.508522019117
 20
-144.215698422987
 30
0.0
  0
VERTEX
  5
31A
330
317
100
AcDbEntity
  8
Calque 1
370
     0
100
AcDbVertex
100
AcDb2dVertex
 10
491.5085223198145
 20
-144.2156984228529
 30
0.0
  0
VERTEX
  5
31B
330
317
100
AcDbEntity
  8
Calque 1
370
     0
100
AcDbVertex
100
AcDb2dVertex
 10
491.5085223202169
 20
-135.2156990557924
 30
0.0
  0
VERTEX
  5
31C
330
317
100
AcDbEntity
  8
Calque 1
370
     0
100
AcDbVertex
100
AcDb2dVertex
 10
494.5085220195226
 20
-135.2156990559265
 30
0.0
  0
VERTEX
  5
31D
330
317
100
AcDbEntity
  8
Calque 1
370
     0
100
AcDbVertex
100
AcDb2dVertex
 10
494.5085220197908
 20
-129.2157001956146
 30
0.0
  0
VERTEX
  5
31E
330
317
100
AcDbEntity
  8
Calque 1
370
     0
100
AcDbVertex
100
AcDb2dVertex
 10
491.5085223204883
 20
-129.2157001954798
 30
0.0
  0
VERTEX
  5
31F
330
317
100
AcDbEntity
  8
Calque 1
370
     0
100
AcDbVertex
100
AcDb2dVertex
 10
491.5085223207565
 20
-123.2156991819837
 30
0.0
  0
VERTEX
  5
320
330
317
100
AcDbEntity
  8
Calque 1
370
     0
100
AcDbVertex
100
AcDb2dVertex
 10
494.508522020059
 20
-123.2156991821184
 30
0.0
  0
VERTEX
  5
321
330
317
100
AcDbEntity
  8
Calque 1
370
     0
100
AcDbVertex
100
AcDb2dVertex
 10
494.5085220203305
 20
-117.2157003218065
 30
0.0
  0
VERTEX
  5
322
330
317
100
AcDbEntity
  8
Calque 1
370
     0
100
AcDbVertex
100
AcDb2dVertex
 10
491.5085223210241
 20
-117.2157003216721
 30
0.0
  0
VERTEX
  5
323
330
317
100
AcDbEntity
  8
Calque 1
370
     0
100
AcDbVertex
100
AcDb2dVertex
 10
491.5085223212962
 20
-111.2157014613589
 30
0.0
  0
VERTEX
  5
324
330
317
100
AcDbEntity
  8
Calque 1
370
     0
100
AcDbVertex
100
AcDb2dVertex
 10
494.5085220205987
 20
-111.2157014614936
 30
0.0
  0
VERTEX
  5
325
330
317
100
AcDbEntity
  8
Calque 1
370
     0
100
AcDbVertex
100
AcDb2dVertex
 10
494.5085220208701
 20
-105.2157026011811
 30
0.0
  0
VERTEX
  5
326
330
317
100
AcDbEntity
  8
Calque 1
370
     0
100
AcDbVertex
100
AcDb2dVertex
 10
491.5085223215644
 20
-105.2157026010473
 30
0.0
  0
VERTEX
  5
327
330
317
100
AcDbEntity
  8
Calque 1
370
     0
100
AcDbVertex
100
AcDb2dVertex
 10
491.508522321832
 20
-99.21569943436852
 30
0.0
  0
VERTEX
  5
328
330
317
100
AcDbEntity
  8
Calque 1
370
     0
100
AcDbVertex
100
AcDb2dVertex
 10
494.5085220211383
 20
-99.21569943450295
 30
0.0
  0
VERTEX
  5
329
330
317
100
AcDbEntity
  8
Calque 1
370
     0
100
AcDbVertex
100
AcDb2dVertex
 10
494.5085220214066
 20
-93.2157005741904
 30
0.0
  0
VERTEX
  5
32A
330
317
100
AcDbEntity
  8
Calque 1
370
     0
100
AcDbVertex
100
AcDb2dVertex
 10
491.5085223221041
 20
-93.21570057405596
 30
0.0
  0
VERTEX
  5
32B
330
317
100
AcDbEntity
  8
Calque 1
370
     0
100
AcDbVertex
100
AcDb2dVertex
 10
491.5085223223717
 20
-87.2157017137434
 30
0.0
  0
VERTEX
  5
32C
330
317
100
AcDbEntity
  8
Calque 1
370
     0
100
AcDbVertex
100
AcDb2dVertex
 10
494.5085220216787
 20
-87.21570171387783
 30
0.0
  0
VERTEX
  5
32D
330
317
100
AcDbEntity
  8
Calque 1
370
     0
100
AcDbVertex
100
AcDb2dVertex
 10
494.5085220219462
 20
-81.21570285356528
 30
0.0
  0
VERTEX
  5
32E
330
317
100
AcDbEntity
  8
Calque 1
370
     0
100
AcDbVertex
100
AcDb2dVertex
 10
491.5085223226399
 20
-81.21570285343084
 30
0.0
  0
VERTEX
  5
32F
330
317
100
AcDbEntity
  8
Calque 1
370
     0
100
AcDbVertex
100
AcDb2dVertex
 10
491.508522322912
 20
-75.21570399311828
 30
0.0
  0
VERTEX
  5
330
330
317
100
AcDbEntity
  8
Calque 1
370
     0
100
AcDbVertex
100
AcDb2dVertex
 10
494.5085220222145
 20
-75.21570399325304
 30
0.0
  0
VERTEX
  5
331
330
317
100
AcDbEntity
  8
Calque 1
370
     0
100
AcDbVertex
100
AcDb2dVertex
 10
494.5085220224859
 20
-69.21570513294016
 30
0.0
  0
VERTEX
  5
332
330
317
100
AcDbEntity
  8
Calque 1
370
     0
100
AcDbVertex
100
AcDb2dVertex
 10
491.5085223231796
 20
-69.21570513280605
 30
0.0
  0
VERTEX
  5
333
330
317
100
AcDbEntity
  8
Calque 1
370
     0
100
AcDbVertex
100
AcDb2dVertex
 10
491.5085223234516
 20
-63.21570627249316
 30
0.0
  0
VERTEX
  5
334
330
317
100
AcDbEntity
  8
Calque 1
370
     0
100
AcDbVertex
100
AcDb2dVertex
 10
494.5085220227542
 20
-63.2157062726276
 30
0.0
  0
VERTEX
  5
335
330
317
100
AcDbEntity
  8
Calque 1
370
     0
100
AcDbVertex
100
AcDb2dVertex
 10
494.5085220230224
 20
-57.21570741231505
 30
0.0
  0
VERTEX
  5
336
330
317
100
AcDbEntity
  8
Calque 1
370
     0
100
AcDbVertex
100
AcDb2dVertex
 10
491.5085223237192
 20
-57.21570741218061
 30
0.0
  0
VERTEX
  5
337
330
317
100
AcDbEntity
  8
Calque 1
370
     0
100
AcDbVertex
100
AcDb2dVertex
 10
491.5085223239874
 20
-51.21569993913691
 30
0.0
  0
VERTEX
  5
338
330
317
100
AcDbEntity
  8
Calque 1
370
     0
100
AcDbVertex
100
AcDb2dVertex
 10
494.5085220232938
 20
-51.21569993927135
 30
0.0
  0
VERTEX
  5
339
330
317
100
AcDbEntity
  8
Calque 1
370
     0
100
AcDbVertex
100
AcDb2dVertex
 10
494.508522023562
 20
-45.21570107895879
 30
0.0
  0
VERTEX
  5
33A
330
317
100
AcDbEntity
  8
Calque 1
370
     0
100
AcDbVertex
100
AcDb2dVertex
 10
491.5085223242596
 20
-45.21570107882435
 30
0.0
  0
VERTEX
  5
33B
330
317
100
AcDbEntity
  8
Calque 1
370
     0
100
AcDbVertex
100
AcDb2dVertex
 10
491.5085223245277
 20
-39.21570221851179
 30
0.0
  0
VERTEX
  5
33C
330
317
100
AcDbEntity
  8
Calque 1
370
     0
100
AcDbVertex
100
AcDb2dVertex
 10
494.5085220238303
 20
-39.21570221864623
 30
0.0
  0
VERTEX
  5
33D
330
317
100
AcDbEntity
  8
Calque 1
370
     0
100
AcDbVertex
100
AcDb2dVertex
 10
494.5085220241017
 20
-33.21570335833367
 30
0.0
  0
VERTEX
  5
33E
330
317
100
AcDbEntity
  8
Calque 1
370
     0
100
AcDbVertex
100
AcDb2dVertex
 10
491.5085223247954
 20
-33.21570335819924
 30
0.0
  0
VERTEX
  5
33F
330
317
100
AcDbEntity
  8
Calque 1
370
     0
100
AcDbVertex
100
AcDb2dVertex
 10
491.5085223250674
 20
-27.21570449788668
 30
0.0
  0
VERTEX
  5
340
330
317
100
AcDbEntity
  8
Calque 1
370
     0
100
AcDbVertex
100
AcDb2dVertex
 10
494.5085220243699
 20
-27.21570449802111
 30
0.0
  0
VERTEX
  5
341
330
317
100
AcDbEntity
  8
Calque 1
370
     0
100
AcDbVertex
100
AcDb2dVertex
 10
494.5085220246382
 20
-21.21570563770856
 30
0.0
  0
VERTEX
  5
342
330
317
100
AcDbEntity
  8
Calque 1
370
     0
100
AcDbVertex
100
AcDb2dVertex
 10
491.508522325335
 20
-21.21570563757412
 30
0.0
  0
VERTEX
  5
343
330
317
100
AcDbEntity
  8
Calque 1
370
     0
100
AcDbVertex
100
AcDb2dVertex
 10
491.5085223257412
 20
-12.21570304073971
 30
0.0
  0
VERTEX
  5
344
330
317
100
AcDbEntity
  8
Calque 1
370
     0
100
AcDbVertex
100
AcDb2dVertex
 10
494.5085220250437
 20
-12.21570304087415
 30
0.0
  0
VERTEX
  5
345
330
317
100
AcDbEntity
  8
Calque 1
370
     0
100
AcDbVertex
100
AcDb2dVertex
 10
494.5085220253119
 20
-6.215704180561912
 30
0.0
  0
VERTEX
  5
346
330
317
100
AcDbEntity
  8
Calque 1
370
     0
100
AcDbVertex
100
AcDb2dVertex
 10
500.5085216930693
 20
-6.215704180830784
 30
0.0
  0
VERTEX
  5
347
330
317
100
AcDbEntity
  8
Calque 1
370
     0
100
AcDbVertex
100
AcDb2dVertex
 10
500.5085216932034
 20
-3.215700444308934
 30
0.0
  0
VERTEX
  5
348
330
317
100
AcDbEntity
  8
Calque 1
370
     0
100
AcDbVertex
100
AcDb2dVertex
 10
509.5085210602639
 20
-3.215700444713204
 30
0.0
  0
VERTEX
  5
349
330
317
100
AcDbEntity
  8
Calque 1
370
     0
100
AcDbVertex
100
AcDb2dVertex
 10
509.5085210601297
 20
-6.215704181235054
 30
0.0
  0
VERTEX
  5
34A
330
317
100
AcDbEntity
  8
Calque 1
370
     0
100
AcDbVertex
100
AcDb2dVertex
 10
515.5085199204423
 20
-6.215704181504567
 30
0.0
  0
VERTEX
  5
34B
330
317
100
AcDbEntity
  8
Calque 1
370
     0
100
AcDbVertex
100
AcDb2dVertex
 10
515.5085199205764
 20
-3.215700444982718
 30
0.0
  0
VERTEX
  5
34C
330
317
100
AcDbEntity
  8
Calque 1
370
     0
100
AcDbVertex
100
AcDb2dVertex
 10
521.5085209340716
 20
-3.215700445252232
 30
0.0
  0
VERTEX
  5
34D
330
317
100
AcDbEntity
  8
Calque 1
370
     0
100
AcDbVertex
100
AcDb2dVertex
 10
521.5085209339375
 20
-6.215704181774081
 30
0.0
  0
VERTEX
  5
34E
330
317
100
AcDbEntity
  8
Calque 1
370
     0
100
AcDbVertex
100
AcDb2dVertex
 10
527.5085197942501
 20
-6.215704182043595
 30
0.0
  0
VERTEX
  5
34F
330
317
100
AcDbEntity
  8
Calque 1
370
     0
100
AcDbVertex
100
AcDb2dVertex
 10
527.5085197943841
 20
-3.215700445521745
 30
0.0
  0
VERTEX
  5
350
330
317
100
AcDbEntity
  8
Calque 1
370
     0
100
AcDbVertex
100
AcDb2dVertex
 10
533.5085186546967
 20
-3.215700445790617
 30
0.0
  0
VERTEX
  5
351
330
317
100
AcDbEntity
  8
Calque 1
370
     0
100
AcDbVertex
100
AcDb2dVertex
 10
533.5085186545626
 20
-6.215704182312466
 30
0.0
  0
VERTEX
  5
352
330
317
100
AcDbEntity
  8
Calque 1
370
     0
100
AcDbVertex
100
AcDb2dVertex
 10
539.5085175148752
 20
-6.21570418258198
 30
0.0
  0
VERTEX
  5
353
330
317
100
AcDbEntity
  8
Calque 1
370
     0
100
AcDbVertex
100
AcDb2dVertex
 10
539.5085175150093
 20
-3.215700446060131
 30
0.0
  0
VERTEX
  5
354
330
317
100
AcDbEntity
  8
Calque 1
370
     0
100
AcDbVertex
100
AcDb2dVertex
 10
545.5085206816871
 20
-3.215700446329644
 30
0.0
  0
VERTEX
  5
355
330
317
100
AcDbEntity
  8
Calque 1
370
     0
100
AcDbVertex
100
AcDb2dVertex
 10
545.508520681553
 20
-6.215704182851494
 30
0.0
  0
VERTEX
  5
356
330
317
100
AcDbEntity
  8
Calque 1
370
     0
100
AcDbVertex
100
AcDb2dVertex
 10
551.5085195418656
 20
-6.215704183121007
 30
0.0
  0
VERTEX
  5
357
330
317
100
AcDbEntity
  8
Calque 1
370
     0
100
AcDbVertex
100
AcDb2dVertex
 10
551.5085195419997
 20
-3.215700446599158
 30
0.0
  0
VERTEX
  5
358
330
317
100
AcDbEntity
  8
Calque 1
370
     0
100
AcDbVertex
100
AcDb2dVertex
 10
557.5085184023122
 20
-3.21570044686803
 30
0.0
  0
VERTEX
  5
359
330
317
100
AcDbEntity
  8
Calque 1
370
     0
100
AcDbVertex
100
AcDb2dVertex
 10
557.5085184021781
 20
-6.215704183389879
 30
0.0
  0
VERTEX
  5
35A
330
317
100
AcDbEntity
  8
Calque 1
370
     0
100
AcDbVertex
100
AcDb2dVertex
 10
563.5085172624906
 20
-6.215704183659393
 30
0.0
  0
VERTEX
  5
35B
330
317
100
AcDbEntity
  8
Calque 1
370
     0
100
AcDbVertex
100
AcDb2dVertex
 10
563.5085172626248
 20
-3.215700447137543
 30
0.0
  0
VERTEX
  5
35C
330
317
100
AcDbEntity
  8
Calque 1
370
     0
100
AcDbVertex
100
AcDb2dVertex
 10
572.5085198594611
 20
-3.215700447541814
 30
0.0
  0
VERTEX
  5
35D
330
317
100
AcDbEntity
  8
Calque 1
370
     0
100
AcDbVertex
100
AcDb2dVertex
 10
572.5085198593231
 20
-6.215704184063664
 30
0.0
  0
VERTEX
  5
35E
330
317
100
AcDbEntity
  8
Calque 1
370
     0
100
AcDbVertex
100
AcDb2dVertex
 10
578.5085187196357
 20
-6.215704184333177
 30
0.0
  0
VERTEX
  5
35F
330
317
100
AcDbEntity
  8
Calque 1
370
     0
100
AcDbVertex
100
AcDb2dVertex
 10
578.5085187193681
 20
-12.21570304464541
 30
0.0
  0
VERTEX
  5
360
330
317
100
AcDbEntity
  8
Calque 1
370
     0
100
AcDbVertex
100
AcDb2dVertex
 10
581.5085138431607
 20
-12.21570304478017
 30
0.0
  0
VERTEX
  5
361
330
317
100
AcDbEntity
  8
Calque 1
370
     0
100
AcDbVertex
100
AcDb2dVertex
 10
581.5085138427545
 20
-21.21570564161458
 30
0.0
  0
VERTEX
  5
362
330
317
100
AcDbEntity
  8
Calque 1
370
     0
100
AcDbVertex
100
AcDb2dVertex
 10
578.5085187189658
 20
-21.21570564147982
 30
0.0
  0
VERTEX
  5
363
330
317
100
AcDbEntity
  8
Calque 1
370
     0
100
AcDbVertex
100
AcDb2dVertex
 10
578.5085187186943
 20
-27.21570450179238
 30
0.0
  0
VERTEX
  5
364
330
317
100
AcDbEntity
  8
Calque 1
370
     0
100
AcDbVertex
100
AcDb2dVertex
 10
581.508513842487
 20
-27.21570450192714
 30
0.0
  0
VERTEX
  5
365
330
317
100
AcDbEntity
  8
Calque 1
370
     0
100
AcDbVertex
100
AcDb2dVertex
 10
581.5085138422148
 20
-33.21570336223969
 30
0.0
  0
VERTEX
  5
366
330
317
100
AcDbEntity
  8
Calque 1
370
     0
100
AcDbVertex
100
AcDb2dVertex
 10
578.5085187184261
 20
-33.21570336210494
 30
0.0
  0
VERTEX
  5
367
330
317
100
AcDbEntity
  8
Calque 1
370
     0
100
AcDbVertex
100
AcDb2dVertex
 10
578.5085187181579
 20
-39.2157022224175
 30
0.0
  0
VERTEX
  5
368
330
317
100
AcDbEntity
  8
Calque 1
370
     0
100
AcDbVertex
100
AcDb2dVertex
 10
581.5085138419473
 20
-39.21570222255225
 30
0.0
  0
VERTEX
  5
369
330
317
100
AcDbEntity
  8
Calque 1
370
     0
100
AcDbVertex
100
AcDb2dVertex
 10
581.508513841679
 20
-45.21570108286481
 30
0.0
  0
VERTEX
  5
36A
330
317
100
AcDbEntity
  8
Calque 1
370
     0
100
AcDbVertex
100
AcDb2dVertex
 10
578.5085187178864
 20
-45.21570108273005
 30
0.0
  0
VERTEX
  5
36B
330
317
100
AcDbEntity
  8
Calque 1
370
     0
100
AcDbVertex
100
AcDb2dVertex
 10
578.5085187176182
 20
-51.21569994304261
 30
0.0
  0
VERTEX
  5
36C
330
317
100
AcDbEntity
  8
Calque 1
370
     0
100
AcDbVertex
100
AcDb2dVertex
 10
581.508513841407
 20
-51.21569994317737
 30
0.0
  0
VERTEX
  5
36D
330
317
100
AcDbEntity
  8
Calque 1
370
     0
100
AcDbVertex
100
AcDb2dVertex
 10
581.5085138411393
 20
-57.21570741622106
 30
0.0
  0
VERTEX
  5
36E
330
317
100
AcDbEntity
  8
Calque 1
370
     0
100
AcDbVertex
100
AcDb2dVertex
 10
578.5085187173461
 20
-57.21570741608631
 30
0.0
  0
VERTEX
  5
36F
330
317
100
AcDbEntity
  8
Calque 1
370
     0
100
AcDbVertex
100
AcDb2dVertex
 10
578.5085187170786
 20
-63.21570627639887
 30
0.0
  0
VERTEX
  5
370
330
317
100
AcDbEntity
  8
Calque 1
370
     0
100
AcDbVertex
100
AcDb2dVertex
 10
581.5085138408673
 20
-63.21570627653362
 30
0.0
  0
VERTEX
  5
371
330
317
100
AcDbEntity
  8
Calque 1
370
     0
100
AcDbVertex
100
AcDb2dVertex
 10
581.5085138405997
 20
-69.21570513684618
 30
0.0
  0
VERTEX
  5
372
330
317
100
AcDbEntity
  8
Calque 1
370
     0
100
AcDbVertex
100
AcDb2dVertex
 10
578.5085187168103
 20
-69.21570513671142
 30
0.0
  0
VERTEX
  5
373
330
317
100
AcDbEntity
  8
Calque 1
370
     0
100
AcDbVertex
100
AcDb2dVertex
 10
578.5085187165389
 20
-75.21570399702398
 30
0.0
  0
VERTEX
  5
374
330
317
100
AcDbEntity
  8
Calque 1
370
     0
100
AcDbVertex
100
AcDb2dVertex
 10
581.5085138403315
 20
-75.21570399715874
 30
0.0
  0
VERTEX
  5
375
330
317
100
AcDbEntity
  8
Calque 1
370
     0
100
AcDbVertex
100
AcDb2dVertex
 10
581.5085138400594
 20
-81.2157028574713
 30
0.0
  0
VERTEX
  5
376
330
317
100
AcDbEntity
  8
Calque 1
370
     0
100
AcDbVertex
100
AcDb2dVertex
 10
578.5085187162706
 20
-81.21570285733654
 30
0.0
  0
VERTEX
  5
377
330
317
100
AcDbEntity
  8
Calque 1
370
     0
100
AcDbVertex
100
AcDb2dVertex
 10
578.5085187160024
 20
-87.2157017176491
 30
0.0
  0
VERTEX
  5
378
330
317
100
AcDbEntity
  8
Calque 1
370
     0
100
AcDbVertex
100
AcDb2dVertex
 10
581.5085138397911
 20
-87.21570171778386
 30
0.0
  0
VERTEX
  5
379
330
317
100
AcDbEntity
  8
Calque 1
370
     0
100
AcDbVertex
100
AcDb2dVertex
 10
581.5085138395236
 20
-93.21570057809673
 30
0.0
  0
VERTEX
  5
37A
330
317
100
AcDbEntity
  8
Calque 1
370
     0
100
AcDbVertex
100
AcDb2dVertex
 10
578.5085187157309
 20
-93.21570057796198
 30
0.0
  0
VERTEX
  5
37B
330
317
100
AcDbEntity
  8
Calque 1
370
     0
100
AcDbVertex
100
AcDb2dVertex
 10
578.5085187154627
 20
-99.21569943827421
 30
0.0
  0
VERTEX
  5
37C
330
317
100
AcDbEntity
  8
Calque 1
370
     0
100
AcDbVertex
100
AcDb2dVertex
 10
581.5085138392515
 20
-99.21569943840898
 30
0.0
  0
VERTEX
  5
37D
330
317
100
AcDbEntity
  8
Calque 1
370
     0
100
AcDbVertex
100
AcDb2dVertex
 10
581.508513838984
 20
-105.2157026050871
 30
0.0
  0
VERTEX
  5
37E
330
317
100
AcDbEntity
  8
Calque 1
370
     0
100
AcDbVertex
100
AcDb2dVertex
 10
578.5085187151944
 20
-105.2157026049523
 30
0.0
  0
VERTEX
  5
37F
330
317
100
AcDbEntity
  8
Calque 1
370
     0
100
AcDbVertex
100
AcDb2dVertex
 10
578.5085187149231
 20
-111.2157014652649
 30
0.0
  0
VERTEX
  5
380
330
317
100
AcDbEntity
  8
Calque 1
370
     0
100
AcDbVertex
100
AcDb2dVertex
 10
581.5085138387157
 20
-111.2157014653997
 30
0.0
  0
VERTEX
  5
381
330
317
100
AcDbEntity
  8
Calque 1
370
     0
100
AcDbVertex
100
AcDb2dVertex
 10
581.5085138384436
 20
-117.2157003257122
 30
0.0
  0
VERTEX
  5
382
330
317
100
AcDbEntity
  8
Calque 1
370
     0
100
AcDbVertex
100
AcDb2dVertex
 10
578.5085187146548
 20
-117.2157003255775
 30
0.0
  0
VERTEX
  5
383
330
317
100
AcDbEntity
  8
Calque 1
370
     0
100
AcDbVertex
100
AcDb2dVertex
 10
578.5085187143866
 20
-123.21569918589
 30
0.0
  0
VERTEX
  5
384
330
317
100
AcDbEntity
  8
Calque 1
370
     0
100
AcDbVertex
100
AcDb2dVertex
 10
581.508513838176
 20
-123.2156991860248
 30
0.0
  0
VERTEX
  5
385
330
317
100
AcDbEntity
  8
Calque 1
370
     0
100
AcDbVertex
100
AcDb2dVertex
 10
581.5085138379078
 20
-129.2157001995199
 30
0.0
  0
VERTEX
  5
386
330
317
100
AcDbEntity
  8
Calque 1
370
     0
100
AcDbVertex
100
AcDb2dVertex
 10
578.5085187141152
 20
-129.2157001993852
 30
0.0
  0
VERTEX
  5
387
330
317
100
AcDbEntity
  8
Calque 1
370
     0
100
AcDbVertex
100
AcDb2dVertex
 10
578.5085187138469
 20
-135.2156990596984
 30
0.0
  0
VERTEX
  5
388
330
317
100
AcDbEntity
  8
Calque 1
370
     0
100
AcDbVertex
100
AcDb2dVertex
 10
581.5085138376363
 20
-135.2156990598332
 30
0.0
  0
VERTEX
  5
389
330
317
100
AcDbEntity
  8
Calque 1
370
     0
100
AcDbVertex
100
AcDb2dVertex
 10
581.508513837234
 20
-144.215698426893
 30
0.0
  0
VERTEX
  5
38A
330
317
100
AcDbEntity
  8
Calque 1
370
     0
100
AcDbVertex
100
AcDb2dVertex
 10
578.5085187134414
 20
-144.2156984267582
 30
0.0
  0
VERTEX
  5
38B
330
317
100
AcDbEntity
  8
Calque 1
370
     0
100
AcDbVertex
100
AcDb2dVertex
 10
578.5085187131731
 20
-150.2156980945143
 30
0.0
  0
VERTEX
  5
38C
330
317
100
AcDbEntity
  8
Calque 1
370
     0
100
AcDbVertex
100
AcDb2dVertex
 10
572.5085198528606
 20
-150.2156980942454
 30
0.0
  0
VERTEX
  5
38D
330
317
100
AcDbEntity
  8
Calque 1
370
     0
100
AcDbVertex
100
AcDb2dVertex
 10
572.5085198527265
 20
-153.2156977935492
 30
0.0
  0
VERTEX
  5
38E
330
317
100
AcDbEntity
  8
Calque 1
370
     0
100
AcDbVertex
100
AcDb2dVertex
 10
563.5085172558908
 20
-153.2156977931456
 30
0.0
  0
VERTEX
  5
38F
330
317
100
AcDbEntity
  8
Calque 1
370
     0
100
AcDbVertex
100
AcDb2dVertex
 10
563.5085172560242
 20
-150.2156980938411
 30
0.0
  0
VERTEX
  5
390
330
317
100
AcDbEntity
  8
Calque 1
370
     0
100
AcDbVertex
100
AcDb2dVertex
 10
557.5085183957117
 20
-150.2156980935716
 30
0.0
  0
VERTEX
  5
391
330
317
100
AcDbEntity
  8
Calque 1
370
     0
100
AcDbVertex
100
AcDb2dVertex
 10
557.5085183955775
 20
-153.215697792876
 30
0.0
  0
VERTEX
  5
392
330
317
100
AcDbEntity
  8
Calque 1
370
     0
100
AcDbVertex
100
AcDb2dVertex
 10
551.508519535265
 20
-153.2156977926065
 30
0.0
  0
VERTEX
  5
393
330
317
100
AcDbEntity
  8
Calque 1
370
     0
100
AcDbVertex
100
AcDb2dVertex
 10
551.5085195353992
 20
-150.2156980933021
 30
0.0
  0
VERTEX
  5
394
330
317
100
AcDbEntity
  8
Calque 1
370
     0
100
AcDbVertex
100
AcDb2dVertex
 10
545.5085206750866
 20
-150.2156980930326
 30
0.0
  0
VERTEX
  5
395
330
317
100
AcDbEntity
  8
Calque 1
370
     0
100
AcDbVertex
100
AcDb2dVertex
 10
545.5085206749525
 20
-153.215697792337
 30
0.0
  0
VERTEX
  5
396
330
317
100
AcDbEntity
  8
Calque 1
370
     0
100
AcDbVertex
100
AcDb2dVertex
 10
539.5085175082746
 20
-153.2156977920675
 30
0.0
  0
VERTEX
  5
397
330
317
100
AcDbEntity
  8
Calque 1
370
     0
100
AcDbVertex
100
AcDb2dVertex
 10
539.5085175084088
 20
-150.2156980927631
 30
0.0
  0
VERTEX
  5
398
330
317
100
AcDbEntity
  8
Calque 1
370
     0
100
AcDbVertex
100
AcDb2dVertex
 10
533.5085186480962
 20
-150.2156980924942
 30
0.0
  0
VERTEX
  5
399
330
317
100
AcDbEntity
  8
Calque 1
370
     0
100
AcDbVertex
100
AcDb2dVertex
 10
533.5085186479621
 20
-153.215697791798
 30
0.0
  0
VERTEX
  5
39A
330
317
100
AcDbEntity
  8
Calque 1
370
     0
100
AcDbVertex
100
AcDb2dVertex
 10
527.5085197876496
 20
-153.2156977915285
 30
0.0
  0
VERTEX
  5
39B
330
317
100
AcDbEntity
  8
Calque 1
370
     0
100
AcDbVertex
100
AcDb2dVertex
 10
527.5085197877836
 20
-150.2156980922247
 30
0.0
  0
VERTEX
  5
39C
330
317
100
AcDbEntity
  8
Calque 1
370
     0
100
AcDbVertex
100
AcDb2dVertex
 10
521.5085209274711
 20
-150.2156980919552
 30
0.0
  0
VERTEX
  5
39D
330
317
100
AcDbEntity
  8
Calque 1
370
     0
100
AcDbVertex
100
AcDb2dVertex
 10
521.508520927337
 20
-153.2156977912589
 30
0.0
  0
VERTEX
  5
39E
330
317
100
AcDbEntity
  8
Calque 1
370
     0
100
AcDbVertex
100
AcDb2dVertex
 10
515.5085199138418
 20
-153.2156977909901
 30
0.0
  0
VERTEX
  5
39F
330
317
100
AcDbEntity
  8
Calque 1
370
     0
100
AcDbVertex
100
AcDb2dVertex
 10
515.5085199139759
 20
-150.2156980916863
 30
0.0
  0
VERTEX
  5
3A0
330
317
100
AcDbEntity
  8
Calque 1
370
     0
100
AcDbVertex
100
AcDb2dVertex
 10
509.5085210536633
 20
-150.2156980914168
 30
0.0
  0
VERTEX
  5
3A1
330
317
100
AcDbEntity
  8
Calque 1
370
     0
100
AcDbVertex
100
AcDb2dVertex
 10
509.5085210535293
 20
-153.2156977907206
 30
0.0
  0
VERTEX
  5
3A2
330
317
100
AcDbEntity
  8
Calque 1
370
     0
100
AcDbVertex
100
AcDb2dVertex
 10
500.5085216864688
 20
-153.2156977903173
 30
0.0
  0
VERTEX
  5
3A3
330
317
100
AcDbEntity
  8
Calque 1
370
     0
100
AcDbVertex
100
AcDb2dVertex
 10
500.5085216866029
 20
-150.2156980910125
 30
0.0
  0
VERTEX
  5
3A4
330
317
100
AcDbEntity
  8
Calque 1
370
     0
100
AcDbVertex
100
AcDb2dVertex
 10
494.5085220188488
 20
-150.215698090743
 30
0.0
  0
SEQEND
  5
3A5
330
317
100
AcDbEntity
  8
Calque 1
370
     0
  0
ENDBLK
  5
316
330
313
100
AcDbEntity
  8
0
100
AcDbBlockEnd
  0
ENDSEC
  0
SECTION
  2
ENTITIES
  0
INSERT
  5
42
330
1F
100
AcDbEntity
  8
Calque 1
100
AcDbBlockReference
  2
block 2
 10
0.0
 20
0.0
 30
0.0
  0
INSERT
  5
DD
330
1F
100
AcDbEntity
  8
Calque 1
100
AcDbBlockReference
  2
block 3
 10
0.0
 20
0.0
 30
0.0
  0
INSERT
  5
150
330
1F
100
AcDbEntity
  8
Calque 1
100
AcDbBlockReference
  2
block 4
 10
0.0
 20
0.0
 30
0.0
  0
INSERT
  5
1FA
330
1F
100
AcDbEntity
  8
Calque 1
100
AcDbBlockReference
  2
block 6
 10
0.0
 20
0.0
 30
0.0
  0
INSERT
  5
278
330
1F
100
AcDbEntity
  8
Calque 1
100
AcDbBlockReference
  2
block 8
 10
0.0
 20
0.0
 30
0.0
  0
INSERT
  5
310
330
1F
100
AcDbEntity
  8
Calque 1
100
AcDbBlockReference
  2
block 10
 10
0.0
 20
0.0
 30
0.0
  0
MTEXT
  5
3A9
330
1F
100
AcDbEntity
  8
Calque 1
 62
     7
420
 16777215
100
AcDbMText
 10
37.51855399995196
 20
-93.61677709994107
 30
0.0
 40
3.540000454875956
 41
0.0
 46
0.0
 71
     7
 72
     1
  1
\fMyriad Pro|b0|i0|c0|p34;\W1;Intrieur
 73
     1
 44
1.0
  0
MTEXT
  5
3AA
330
1F
100
AcDbEntity
  8
Calque 1
 62
     7
420
 16777215
100
AcDbMText
 10
8.73417832897965
 20
-45.97639260732101
 30
0.0
 40
3.540000454875956
 41
0.0
 46
0.0
 71
     7
 72
     1
  1
\fMyriad Pro|b0|i0|c0|p34;\W1;Gauche
 11
-1.836970198721030E-16
 21
-1.0
 31
0.0
 73
     1
 44
1.0
  0
MTEXT
  5
3AB
330
1F
100
AcDbEntity
  8
Calque 1
 62
     7
420
 16777215
100
AcDbMText
 10
146.5351393863127
 20
-60.78595376084518
 30
0.0
 40
3.540000454875956
 41
0.0
 46
0.0
 71
     7
 72
     1
  1
\fMyriad Pro|b0|i0|c0|p34;\W1;Droite
 11
6.123233995736766E-17
 21
1.0
 31
0.0
 73
     1
 44
1.0
  0
MTEXT
  5
3AC
330
1F
100
AcDbEntity
  8
Calque 1
 62
     7
420
 16777215
100
AcDbMText
 10
81.82528108034664
 20
-93.61677709994107
 30
0.0
 40
3.540000454875956
 41
0.0
 46
0.0
 71
     7
 72
     1
  1
\fMyriad Pro|b0|i0|c0|p34;\W1;Bas
 73
     1
 44
1.0
  0
MTEXT
  5
3AD
330
1F
100
AcDbEntity
  8
Calque 1
 62
     7
420
 16777215
100
AcDbMText
 10
70.88417458351594
 20
-17.21569927632894
 30
0.0
 40
3.540000454875956
 41
0.0
 46
0.0
 71
     7
 72
     1
  1
\fMyriad Pro|b0|i0|c0|p34;\W1;Haut
 73
     1
 44
1.0
  0
MTEXT
  5
3AE
330
1F
100
AcDbEntity
  8
Calque 1
 62
     7
420
 16777215
100
AcDbMText
 10
217.755786756542
 20
-49.23472085357674
 30
0.0
 40
3.540000454875956
 41
0.0
 46
0.0
 71
     7
 72
     1
  1
\fMyriad Pro|b0|i0|c0|p34;\W1;Intrieur
 73
     1
 44
1.0
  0
MTEXT
  5
3AF
330
1F
100
AcDbEntity
  8
Calque 1
 62
     7
420
 16777215
100
AcDbMText
 10
170.6378186964899
 20
-43.02510849618817
 30
0.0
 40
3.540000454875956
 41
0.0
 46
0.0
 71
     7
 72
     1
  1
\fMyriad Pro|b0|i0|c0|p34;\W1;Droite
 11
-1.836970198721030E-16
 21
-1.0
 31
0.0
 73
     1
 44
1.0
  0
MTEXT
  5
3B0
330
1F
100
AcDbEntity
  8
Calque 1
 62
     7
420
 16777215
100
AcDbMText
 10
289.3919072593307
 20
-60.83349607854163
 30
0.0
 40
3.540000454875956
 41
0.0
 46
0.0
 71
     7
 72
     1
  1
\fMyriad Pro|b0|i0|c0|p34;\W1;Gauche
 11
6.123233995736766E-17
 21
1.0
 31
0.0
 73
     1
 44
1.0
  0
MTEXT
  5
3B1
330
1F
100
AcDbEntity
  8
Calque 1
 62
     7
420
 16777215
100
AcDbMText
 10
215.6391200904045
 20
-16.38099974116775
 30
0.0
 40
3.540000454875956
 41
0.0
 46
0.0
 71
     7
 72
     1
  1
\fMyriad Pro|b0|i0|c0|p34;\W1;Haut
 73
     1
 44
1.0
  0
MTEXT
  5
3B2
330
1F
100
AcDbEntity
  8
Calque 1
 62
     7
420
 16777215
100
AcDbMText
 10
216.8788377007716
 20
-92.0939802999203
 30
0.0
 40
3.540000454875956
 41
0.0
 46
0.0
 71
     7
 72
     1
  1
\fMyriad Pro|b0|i0|c0|p34;\W1;Bas
 73
     1
 44
1.0
  0
MTEXT
  5
3B3
330
1F
100
AcDbEntity
  8
Calque 1
 62
     7
420
 16777215
100
AcDbMText
 10
217.7558298202355
 20
-43.21680114513384
 30
0.0
 40
3.540000454875956
 41
0.0
 46
0.0
 71
     7
 72
     1
  1
\fMyriad Pro|b0|i0|c0|p34;\W1;Arrire
 73
     1
 44
1.0
  0
MTEXT
  5
3B4
330
1F
100
AcDbEntity
  8
Calque 1
 62
     7
420
 16777215
100
AcDbMText
 10
343.313411372505
 20
-46.93838034621965
 30
0.0
 40
3.540000454875956
 41
0.0
 46
0.0
 71
     7
 72
     1
  1
\fMyriad Pro|b0|i0|c0|p34;\W1;Intrieur
 73
     1
 44
1.0
  0
MTEXT
  5
3B5
330
1F
100
AcDbEntity
  8
Calque 1
 62
     7
420
 16777215
100
AcDbMText
 10
319.6445287964995
 20
-63.85622285729983
 30
0.0
 40
3.540000454875956
 41
0.0
 46
0.0
 71
     7
 72
     1
  1
\fMyriad Pro|b0|i0|c0|p34;\W1;Arrire
 11
6.123233995736766E-17
 21
1.0
 31
0.0
 73
     1
 44
1.0
  0
MTEXT
  5
3B6
330
1F
100
AcDbEntity
  8
Calque 1
 62
     7
420
 16777215
100
AcDbMText
 10
387.6864134772972
 20
-42.49955917991331
 30
0.0
 40
3.540000454875956
 41
0.0
 46
0.0
 71
     7
 72
     1
  1
\fMyriad Pro|b0|i0|c0|p34;\W1;Avant
 11
-1.836970198721030E-16
 21
-1.0
 31
0.0
 73
     1
 44
1.0
  0
MTEXT
  5
3B7
330
1F
100
AcDbEntity
  8
Calque 1
 62
     7
420
 16777215
100
AcDbMText
 10
343.313411372505
 20
-40.22180603929147
 30
0.0
 40
3.540000454875956
 41
0.0
 46
0.0
 71
     7
 72
     1
  1
\fMyriad Pro|b0|i0|c0|p34;\W1;Gauche
 73
     1
 44
1.0
  0
MTEXT
  5
3B8
330
1F
100
AcDbEntity
  8
Calque 1
 62
     7
420
 16777215
100
AcDbMText
 10
344.2594345927546
 20
-13.56239352417017
 30
0.0
 40
3.540000454875956
 41
0.0
 46
0.0
 71
     7
 72
     1
  1
\fMyriad Pro|b0|i0|c0|p34;\W1;Haut
 73
     1
 44
1.0
  0
MTEXT
  5
3B9
330
1F
100
AcDbEntity
  8
Calque 1
 62
     7
420
 16777215
100
AcDbMText
 10
365.7197956442471
 20
-91.56843098364544
 30
0.0
 40
3.540000454875956
 41
0.0
 46
0.0
 71
     7
 72
     1
  1
\fMyriad Pro|b0|i0|c0|p34;\W1;Bas
 73
     1
 44
1.0
  0
MTEXT
  5
3BA
330
1F
100
AcDbEntity
  8
Calque 1
 62
     7
420
 16777215
100
AcDbMText
 10
412.4935125379357
 20
-47.48547362094114
 30
0.0
 40
3.540000454875956
 41
0.0
 46
0.0
 71
     7
 72
     1
  1
\fMyriad Pro|b0|i0|c0|p34;\W1;Avant
 11
-1.836970198721030E-16
 21
-1.0
 31
0.0
 73
     1
 44
1.0
  0
MTEXT
  5
3BB
330
1F
100
AcDbEntity
  8
Calque 1
 62
     7
420
 16777215
100
AcDbMText
 10
434.6235570880672
 20
-55.09221484608345
 30
0.0
 40
3.540000454875956
 41
0.0
 46
0.0
 71
     7
 72
     1
  1
\fMyriad Pro|b0|i0|c0|p34;\W1;Intrieur
 73
     1
 44
1.0
  0
MTEXT
  5
3BC
330
1F
100
AcDbEntity
  8
Calque 1
 62
     7
420
 16777215
100
AcDbMText
 10
434.6235570880672
 20
-48.375636501934
 30
0.0
 40
3.540000454875956
 41
0.0
 46
0.0
 71
     7
 72
     1
  1
\fMyriad Pro|b0|i0|c0|p34;\W1;Droite
 73
     1
 44
1.0
  0
MTEXT
  5
3BD
330
1F
100
AcDbEntity
  8
Calque 1
 62
     7
420
 16777215
100
AcDbMText
 10
477.0378932184142
 20
-62.6339029791332
 30
0.0
 40
3.540000454875956
 41
0.0
 46
0.0
 71
     7
 72
     1
  1
\fMyriad Pro|b0|i0|c0|p34;\W1;Arrire
 11
6.123233995736766E-17
 21
1.0
 31
0.0
 73
     1
 44
1.0
  0
MTEXT
  5
3BE
330
1F
100
AcDbEntity
  8
Calque 1
 62
     7
420
 16777215
100
AcDbMText
 10
437.7999674232377
 20
-18.18154525302297
 30
0.0
 40
3.540000454875956
 41
0.0
 46
0.0
 71
     7
 72
     1
  1
\fMyriad Pro|b0|i0|c0|p34;\W1;Haut
 73
     1
 44
1.0
  0
MTEXT
  5
3BF
330
1F
100
AcDbEntity
  8
Calque 1
 62
     7
420
 16777215
100
AcDbMText
 10
438.9168243158622
 20
-92.99512576851284
 30
0.0
 40
3.540000454875956
 41
0.0
 46
0.0
 71
     7
 72
     1
  1
\fMyriad Pro|b0|i0|c0|p34;\W1;Bas
 73
     1
 44
1.0
  0
MTEXT
  5
3C0
330
1F
100
AcDbEntity
  8
Calque 1
 62
     7
420
 16777215
100
AcDbMText
 10
534.1542281616818
 20
-98.66899886313658
 30
0.0
 40
3.540000454875956
 41
0.0
 46
0.0
 71
     7
 72
     1
  1
\fMyriad Pro|b0|i0|c0|p34;\W1;Intrieur
 73
     1
 44
1.0
  0
MTEXT
  5
3C1
330
1F
100
AcDbEntity
  8
Calque 1
 62
     7
420
 16777215
100
AcDbMText
 10
509.8519109510961
 20
-83.45661991999957
 30
0.0
 40
3.540000454875956
 41
0.0
 46
0.0
 71
     7
 72
     1
  1
\fMyriad Pro|b0|i0|c0|p34;\W1;Arrire
 11
-1.836970198721030E-16
 21
-1.0
 31
0.0
 73
     1
 44
1.0
  0
MTEXT
  5
3C2
330
1F
100
AcDbEntity
  8
Calque 1
 62
     7
420
 16777215
100
AcDbMText
 10
569.2154278497752
 20
-87.15884871952974
 30
0.0
 40
3.540000454875956
 41
0.0
 46
0.0
 71
     7
 72
     1
  1
\fMyriad Pro|b0|i0|c0|p34;\W1;Avant
 11
6.123233995736766E-17
 21
1.0
 31
0.0
 73
     1
 44
1.0
  0
MTEXT
  5
3C3
330
1F
100
AcDbEntity
  8
Calque 1
 62
     7
420
 16777215
100
AcDbMText
 10
533.7388034757776
 20
-143.5755708971302
 30
0.0
 40
3.540000454875956
 41
0.0
 46
0.0
 71
     7
 72
     1
  1
\fMyriad Pro|b0|i0|c0|p34;\W1;Droite
 73
     1
 44
1.0
  0
MTEXT
  5
3C4
330
1F
100
AcDbEntity
  8
Calque 1
 62
     7
420
 16777215
100
AcDbMText
 10
551.3737520322954
 20
-20.08611246242639
 30
0.0
 40
3.540000454875956
 41
0.0
 46
0.0
 71
     7
 72
     1
  1
\fMyriad Pro|b0|i0|c0|p34;\W1;Gauche
 11
-1.0
 21
1.224646799147353E-16
 31
0.0
 73
     1
 44
1.0
  0
MTEXT
  5
3C5
330
1F
100
AcDbEntity
  8
Calque 1
 62
     7
420
 16777215
100
AcDbMText
 10
536.5084664592974
 20
-104.8131813211139
 30
0.0
 40
3.540000454875956
 41
0.0
 46
0.0
 71
     7
 72
     1
  1
\fMyriad Pro|b0|i0|c0|p34;\W1;Bas
 73
     1
 44
1.0
  0
MTEXT
  5
3C6
330
1F
100
AcDbEntity
  8
Calque 1
 62
     7
420
 16777215
100
AcDbMText
 10
625.3523389683415
 20
-139.9605137793002
 30
0.0
 40
3.540000454875956
 41
0.0
 46
0.0
 71
     7
 72
     1
  1
\fMyriad Pro|b0|i0|c0|p34;\W1;Gauche
 73
     1
 44
1.0
  0
MTEXT
  5
3C7
330
1F
100
AcDbEntity
  8
Calque 1
 62
     7
420
 16777215
100
AcDbMText
 10
618.0626977554223
 20
-55.18996539325614
 30
0.0
 40
3.540000454875956
 41
0.0
 46
0.0
 71
     7
 72
     1
  1
\fMyriad Pro|b0|i0|c0|p34;\W1;Intrieur
 73
     1
 44
1.0
  0
MTEXT
  5
3C8
330
1F
100
AcDbEntity
  8
Calque 1
 62
     7
420
 16777215
100
AcDbMText
 10
634.7009655531303
 20
-16.47082926020521
 30
0.0
 40
3.540000454875956
 41
0.0
 46
0.0
 71
     7
 72
     1
  1
\fMyriad Pro|b0|i0|c0|p34;\W1;Droite
 11
-1.0
 21
1.224646799147353E-16
 31
0.0
 73
     1
 44
1.0
  0
MTEXT
  5
3C9
330
1F
100
AcDbEntity
  8
Calque 1
 62
     7
420
 16777215
100
AcDbMText
 10
592.8787121456171
 20
-70.4928978637787
 30
0.0
 40
3.540000454875956
 41
0.0
 46
0.0
 71
     7
 72
     1
  1
\fMyriad Pro|b0|i0|c0|p34;\W1;Avant
 11
-1.836970198721030E-16
 21
-1.0
 31
0.0
 73
     1
 44
1.0
  0
MTEXT
  5
3CA
330
1F
100
AcDbEntity
  8
Calque 1
 62
     7
420
 16777215
100
AcDbMText
 10
659.2829706875013
 20
-84.62463648057995
 30
0.0
 40
3.540000454875956
 41
0.0
 46
0.0
 71
     7
 72
     1
  1
\fMyriad Pro|b0|i0|c0|p34;\W1;Arrire
 11
6.123233995736766E-17
 21
1.0
 31
0.0
 73
     1
 44
1.0
  0
MTEXT
  5
3CB
330
1F
100
AcDbEntity
  8
Calque 1
 62
     7
420
 16777215
100
AcDbMText
 10
620.2969311646924
 20
-62.22482480506825
 30
0.0
 40
3.540000454875956
 41
0.0
 46
0.0
 71
     7
 72
     1
  1
\fMyriad Pro|b0|i0|c0|p34;\W1;Haut
 73
     1
 44
1.0
  0
ENDSEC
  0
SECTION
  2
OBJECTS
  0
DICTIONARY
  5
C
330
0
100
AcDbDictionary
281
     1
  3
ACAD_GROUP
350
D
  3
ACAD_LAYOUT
350
1A
  3
ACAD_MATERIAL
350
3B
  3
ACAD_MLEADERSTYLE
350
3CD
  3
ACAD_MLINESTYLE
350
17
  3
ACAD_PLOTSETTINGS
350
19
  3
ACAD_PLOTSTYLENAME
350
E
  3
ACAD_TABLESTYLE
350
3CC
  3
ACAD_VISUALSTYLE
350
2A
  0
SUN
  5
3F
330
29
100
AcDbSun
 90
        1
290
     0
 63
     7
421
 16777215
 40
1.0
291
     1
 91
  2455826
 92
 54000000
292
     0
 70
     2
 71
   256
280
     1
  0
DICTIONARY
  5
D
102
{ACAD_REACTORS
330
C
102
}
330
C
100
AcDbDictionary
281
     1
  0
DICTIONARY
  5
1A
102
{ACAD_REACTORS
330
C
102
}
330
C
100
AcDbDictionary
281
     1
  3
Layout1
350
1E
  3
Layout2
350
26
  3
Model
350
22
  0
DICTIONARY
  5
3B
102
{ACAD_REACTORS
330
C
102
}
330
C
100
AcDbDictionary
281
     1
  3
ByBlock
350
3D
  3
ByLayer
350
3C
  3
Global
350
3E
  0
DICTIONARY
  5
3CD
102
{ACAD_REACTORS
330
C
102
}
330
C
100
AcDbDictionary
281
     1
  0
DICTIONARY
  5
17
102
{ACAD_REACTORS
330
C
102
}
330
C
100
AcDbDictionary
281
     1
  3
Standard
350
18
  0
DICTIONARY
  5
19
102
{ACAD_REACTORS
330
C
102
}
330
C
100
AcDbDictionary
281
     1
  0
ACDBDICTIONARYWDFLT
  5
E
102
{ACAD_REACTORS
330
C
102
}
330
C
100
AcDbDictionary
281
     1
  3
Normal
350
F
100
AcDbDictionaryWithDefault
340
F
  0
DICTIONARY
  5
3CC
102
{ACAD_REACTORS
330
C
102
}
330
C
100
AcDbDictionary
281
     1
  0
DICTIONARY
  5
2A
102
{ACAD_REACTORS
330
C
102
}
330
C
100
AcDbDictionary
281
     1
  3
2dWireframe
350
2F
  3
3D Hidden
350
31
  3
3dWireframe
350
30
  3
Basic
350
32
  3
Brighten
350
36
  3
ColorChange
350
3A
  3
Conceptual
350
34
  3
Dim
350
35
  3
Facepattern
350
39
  3
Flat
350
2B
  3
FlatWithEdges
350
2C
  3
Gouraud
350
2D
  3
GouraudWithEdges
350
2E
  3
Linepattern
350
38
  3
Realistic
350
33
  3
Thicken
350
37
  0
LAYOUT
  5
1E
102
{ACAD_REACTORS
330
1A
102
}
330
1A
100
AcDbPlotSettings
  1

  2
none_device
  4

  6

 40
0.0
 41
0.0
 42
0.0
 43
0.0
 44
0.0
 45
0.0
 46
0.0
 47
0.0
 48
0.0
 49
0.0
140
0.0
141
0.0
142
1.0
143
1.0
 70
   688
 72
     0
 73
     0
 74
     5
  7

 75
    16
 76
     0
 77
     2
 78
   300
147
1.0
148
0.0
149
0.0
100
AcDbLayout
  1
Layout1
 70
     1
 71
     1
 10
0.0
 20
0.0
 11
12.0
 21
9.0
 12
0.0
 22
0.0
 32
0.0
 14
1.000000000000000E+20
 24
1.000000000000000E+20
 34
1.000000000000000E+20
 15
-1.000000000000000E+20
 25
-1.000000000000000E+20
 35
-1.000000000000000E+20
146
0.0
 13
0.0
 23
0.0
 33
0.0
 16
1.0
 26
0.0
 36
0.0
 17
0.0
 27
1.0
 37
0.0
 76
     0
330
1B
  0
LAYOUT
  5
26
102
{ACAD_REACTORS
330
1A
102
}
330
1A
100
AcDbPlotSettings
  1

  2
none_device
  4

  6

 40
0.0
 41
0.0
 42
0.0
 43
0.0
 44
0.0
 45
0.0
 46
0.0
 47
0.0
 48
0.0
 49
0.0
140
0.0
141
0.0
142
1.0
143
1.0
 70
   688
 72
     0
 73
     0
 74
     5
  7

 75
    16
 76
     0
 77
     2
 78
   300
147
1.0
148
0.0
149
0.0
100
AcDbLayout
  1
Layout2
 70
     1
 71
     2
 10
0.0
 20
0.0
 11
0.0
 21
0.0
 12
0.0
 22
0.0
 32
0.0
 14
0.0
 24
0.0
 34
0.0
 15
0.0
 25
0.0
 35
0.0
146
0.0
 13
0.0
 23
0.0
 33
0.0
 16
1.0
 26
0.0
 36
0.0
 17
0.0
 27
1.0
 37
0.0
 76
     0
330
23
  0
LAYOUT
  5
22
102
{ACAD_REACTORS
330
1A
102
}
330
1A
100
AcDbPlotSettings
  1

  2
none_device
  4

  6

 40
0.0
 41
0.0
 42
0.0
 43
0.0
 44
0.0
 45
0.0
 46
0.0
 47
0.0
 48
0.0
 49
0.0
140
0.0
141
0.0
142
1.0
143
1.0
 70
  1712
 72
     0
 73
     0
 74
     0
  7

 75
     0
 76
     0
 77
     2
 78
   300
147
1.0
148
0.0
149
0.0
100
AcDbLayout
  1
Model
 70
     1
 71
     0
 10
0.0
 20
0.0
 11
12.0
 21
9.0
 12
0.0
 22
0.0
 32
0.0
 14
1.000000000000000E+20
 24
1.000000000000000E+20
 34
1.000000000000000E+20
 15
-1.000000000000000E+20
 25
-1.000000000000000E+20
 35
-1.000000000000000E+20
146
0.0
 13
0.0
 23
0.0
 33
0.0
 16
1.0
 26
0.0
 36
0.0
 17
0.0
 27
1.0
 37
0.0
 76
     0
330
1F
331
29
  0
MATERIAL
  5
3D
102
{ACAD_REACTORS
330
3B
102
}
330
3B
100
AcDbMaterial
  1
ByBlock
 72
     1
 94
      127
  0
MATERIAL
  5
3C
102
{ACAD_REACTORS
330
3B
102
}
330
3B
100
AcDbMaterial
  1
ByLayer
 72
     1
 94
      127
  0
MATERIAL
  5
3E
102
{ACAD_REACTORS
330
3B
102
}
330
3B
100
AcDbMaterial
  1
Global
 72
     1
 94
      127
  0
MLINESTYLE
  5
18
102
{ACAD_REACTORS
330
17
102
}
330
17
100
AcDbMlineStyle
  2
Standard
 70
     0
  3

 62
   256
 51
90.0
 52
90.0
 71
     2
 49
0.5
 62
   256
  6
BYLAYER
 49
-0.5
 62
   256
  6
BYLAYER
  0
ACDBPLACEHOLDER
  5
F
102
{ACAD_REACTORS
330
E
102
}
330
E
  0
VISUALSTYLE
  5
2F
102
{ACAD_REACTORS
330
2A
102
}
330
2A
100
AcDbVisualStyle
  2
2dWireframe
 70
     4
177
     2
291
     0
 71
     0
176
     1
 72
     2
176
     1
 73
     0
176
     1
 90
        0
176
     1
 40
-0.6
176
     1
 41
-30.0
176
     1
 62
     5
 63
     7
421
 16777215
176
     1
 74
     1
176
     1
 91
        4
176
     1
 64
     7
176
     1
 65
   257
176
     1
 75
     1
176
     1
175
     1
176
     1
 42
1.0
176
     1
 92
        0
176
     1
 66
   257
176
     1
 43
1.0
176
     1
 76
     1
176
     1
 77
     6
176
     1
 78
     2
176
     1
 67
     7
176
     1
 79
     5
176
     1
170
     0
176
     1
171
     0
176
     1
290
     0
176
     1
 93
        1
176
     1
 44
0.0
176
     1
173
     0
176
     1
  0
VISUALSTYLE
  5
31
102
{ACAD_REACTORS
330
2A
102
}
330
2A
100
AcDbVisualStyle
  2
3D Hidden
 70
     6
177
     2
291
     0
 71
     1
176
     1
 72
     2
176
     1
 73
     2
176
     1
 90
        0
176
     1
 40
-0.6
176
     1
 41
-30.0
176
     1
 62
     5
 63
     7
421
 16777215
176
     1
 74
     2
176
     1
 91
        2
176
     1
 64
     7
176
     1
 65
   257
176
     1
 75
     2
176
     1
175
     1
176
     1
 42
40.0
176
     1
 92
        0
176
     1
 66
   257
176
     1
 43
1.0
176
     1
 76
     1
176
     1
 77
     6
176
     1
 78
     2
176
     1
 67
     7
176
     1
 79
     3
176
     1
170
     0
176
     1
171
     0
176
     1
290
     0
176
     1
 93
        1
176
     1
 44
0.0
176
     1
173
     0
176
     1
  0
VISUALSTYLE
  5
30
102
{ACAD_REACTORS
330
2A
102
}
330
2A
100
AcDbVisualStyle
  2
3dWireframe
 70
     5
177
     2
291
     0
 71
     0
176
     1
 72
     2
176
     1
 73
     0
176
     1
 90
        0
176
     1
 40
-0.6
176
     1
 41
-30.0
176
     1
 62
     5
 63
     7
421
 16777215
176
     1
 74
     1
176
     1
 91
        4
176
     1
 64
     7
176
     1
 65
   257
176
     1
 75
     1
176
     1
175
     1
176
     1
 42
1.0
176
     1
 92
        0
176
     1
 66
   257
176
     1
 43
1.0
176
     1
 76
     1
176
     1
 77
     6
176
     1
 78
     2
176
     1
 67
     7
176
     1
 79
     5
176
     1
170
     0
176
     1
171
     0
176
     1
290
     0
176
     1
 93
        1
176
     1
 44
0.0
176
     1
173
     0
176
     1
  0
VISUALSTYLE
  5
32
102
{ACAD_REACTORS
330
2A
102
}
330
2A
100
AcDbVisualStyle
  2
Basic
 70
     7
177
     2
291
     1
 71
     1
176
     1
 72
     0
176
     1
 73
     1
176
     1
 90
        0
176
     1
 40
-0.6
176
     1
 41
-30.0
176
     1
 62
     5
 63
     7
421
 16777215
176
     1
 74
     0
176
     1
 91
        4
176
     1
 64
     7
176
     1
 65
   257
176
     1
 75
     1
176
     1
175
     1
176
     1
 42
1.0
176
     1
 92
        8
176
     1
 66
     7
176
     1
 43
1.0
176
     1
 76
     1
176
     1
 77
     6
176
     1
 78
     2
176
     1
 67
     7
176
     1
 79
     5
176
     1
170
     0
176
     1
171
     0
176
     1
290
     0
176
     1
 93
        1
176
     1
 44
0.0
176
     1
173
     0
176
     1
  0
VISUALSTYLE
  5
36
102
{ACAD_REACTORS
330
2A
102
}
330
2A
100
AcDbVisualStyle
  2
Brighten
 70
    12
177
     2
291
     1
 71
     2
176
     1
 72
     2
176
     1
 73
     0
176
     1
 90
        0
176
     1
 40
-0.6
176
     1
 41
-30.0
176
     1
 62
     5
 63
     7
421
 16777215
176
     1
 74
     1
176
     1
 91
        4
176
     1
 64
     7
176
     1
 65
   257
176
     1
 75
     1
176
     1
175
     1
176
     1
 42
1.0
176
     1
 92
        8
176
     1
 66
     7
176
     1
 43
1.0
176
     1
 76
     1
176
     1
 77
     6
176
     1
 78
     2
176
     1
 67
     7
176
     1
 79
     5
176
     1
170
     0
176
     1
171
     0
176
     1
290
     0
176
     1
 93
        1
176
     1
 44
50.0
176
     1
173
     0
176
     1
  0
VISUALSTYLE
  5
3A
102
{ACAD_REACTORS
330
2A
102
}
330
2A
100
AcDbVisualStyle
  2
ColorChange
 70
    16
177
     2
291
     1
 71
     2
176
     1
 72
     2
176
     1
 73
     3
176
     1
 90
        0
176
     1
 40
-0.6
176
     1
 41
-30.0
176
     1
 62
     5
 63
     8
421
  8421504
176
     1
 74
     1
176
     1
 91
        4
176
     1
 64
     7
176
     1
 65
   257
176
     1
 75
     1
176
     1
175
     1
176
     1
 42
1.0
176
     1
 92
        8
176
     1
 66
     8
424
  8421504
176
     1
 43
1.0
176
     1
 76
     1
176
     1
 77
     6
176
     1
 78
     2
176
     1
 67
     7
176
     1
 79
     5
176
     1
170
     0
176
     1
171
     0
176
     1
290
     0
176
     1
 93
        1
176
     1
 44
0.0
176
     1
173
     0
176
     1
  0
VISUALSTYLE
  5
34
102
{ACAD_REACTORS
330
2A
102
}
330
2A
100
AcDbVisualStyle
  2
Conceptual
 70
     9
177
     2
291
     0
 71
     3
176
     1
 72
     2
176
     1
 73
     0
176
     1
 90
        0
176
     1
 40
-0.6
176
     1
 41
-30.0
176
     1
 62
     5
 63
     7
421
 16777215
176
     1
 74
     2
176
     1
 91
        2
176
     1
 64
     7
176
     1
 65
   257
176
     1
 75
     1
176
     1
175
     1
176
     1
 42
40.0
176
     1
 92
        8
176
     1
 66
     7
176
     1
 43
1.0
176
     1
 76
     1
176
     1
 77
     6
176
     1
 78
     2
176
     1
 67
     7
176
     1
 79
     3
176
     1
170
     0
176
     1
171
     0
176
     1
290
     0
176
     1
 93
        1
176
     1
 44
0.0
176
     1
173
     0
176
     1
  0
VISUALSTYLE
  5
35
102
{ACAD_REACTORS
330
2A
102
}
330
2A
100
AcDbVisualStyle
  2
Dim
 70
    11
177
     2
291
     1
 71
     2
176
     1
 72
     2
176
     1
 73
     0
176
     1
 90
        0
176
     1
 40
-0.6
176
     1
 41
-30.0
176
     1
 62
     5
 63
     7
421
 16777215
176
     1
 74
     1
176
     1
 91
        4
176
     1
 64
     7
176
     1
 65
   257
176
     1
 75
     1
176
     1
175
     1
176
     1
 42
1.0
176
     1
 92
        8
176
     1
 66
     7
176
     1
 43
1.0
176
     1
 76
     1
176
     1
 77
     6
176
     1
 78
     2
176
     1
 67
     7
176
     1
 79
     5
176
     1
170
     0
176
     1
171
     0
176
     1
290
     0
176
     1
 93
        1
176
     1
 44
-50.0
176
     1
173
     0
176
     1
  0
VISUALSTYLE
  5
39
102
{ACAD_REACTORS
330
2A
102
}
330
2A
100
AcDbVisualStyle
  2
Facepattern
 70
    15
177
     2
291
     1
 71
     2
176
     1
 72
     2
176
     1
 73
     0
176
     1
 90
        0
176
     1
 40
-0.6
176
     1
 41
-30.0
176
     1
 62
     5
 63
     7
421
 16777215
176
     1
 74
     1
176
     1
 91
        4
176
     1
 64
     7
176
     1
 65
   257
176
     1
 75
     1
176
     1
175
     1
176
     1
 42
1.0
176
     1
 92
        8
176
     1
 66
     7
176
     1
 43
1.0
176
     1
 76
     1
176
     1
 77
     6
176
     1
 78
     2
176
     1
 67
     7
176
     1
 79
     5
176
     1
170
     0
176
     1
171
     0
176
     1
290
     0
176
     1
 93
        1
176
     1
 44
0.0
176
     1
173
     0
176
     1
  0
VISUALSTYLE
  5
2B
102
{ACAD_REACTORS
330
2A
102
}
330
2A
100
AcDbVisualStyle
  2
Flat
 70
     0
177
     2
291
     1
 71
     2
176
     1
 72
     1
176
     1
 73
     1
176
     1
 90
        2
176
     1
 40
-0.6
176
     1
 41
30.0
176
     1
 62
     5
 63
     7
421
 16777215
176
     1
 74
     0
176
     1
 91
        4
176
     1
 64
     7
176
     1
 65
   257
176
     1
 75
     1
176
     1
175
     1
176
     1
 42
1.0
176
     1
 92
        8
176
     1
 66
     7
176
     1
 43
1.0
176
     1
 76
     1
176
     1
 77
     6
176
     1
 78
     2
176
     1
 67
     7
176
     1
 79
     5
176
     1
170
     0
176
     1
171
     0
176
     1
290
     0
176
     1
 93
       13
176
     1
 44
0.0
176
     1
173
     0
176
     1
  0
VISUALSTYLE
  5
2C
102
{ACAD_REACTORS
330
2A
102
}
330
2A
100
AcDbVisualStyle
  2
FlatWithEdges
 70
     1
177
     2
291
     1
 71
     2
176
     1
 72
     1
176
     1
 73
     1
176
     1
 90
        2
176
     1
 40
-0.6
176
     1
 41
30.0
176
     1
 62
     5
 63
     7
421
 16777215
176
     1
 74
     1
176
     1
 91
        4
176
     1
 64
     7
176
     1
 65
   257
176
     1
 75
     1
176
     1
175
     1
176
     1
 42
1.0
176
     1
 92
        0
176
     1
 66
   257
176
     1
 43
1.0
176
     1
 76
     1
176
     1
 77
     6
176
     1
 78
     2
176
     1
 67
     7
176
     1
 79
     5
176
     1
170
     0
176
     1
171
     0
176
     1
290
     0
176
     1
 93
       13
176
     1
 44
0.0
176
     1
173
     0
176
     1
  0
VISUALSTYLE
  5
2D
102
{ACAD_REACTORS
330
2A
102
}
330
2A
100
AcDbVisualStyle
  2
Gouraud
 70
     2
177
     2
291
     1
 71
     2
176
     1
 72
     2
176
     1
 73
     1
176
     1
 90
        2
176
     1
 40
-0.6
176
     1
 41
30.0
176
     1
 62
     5
 63
     7
421
 16777215
176
     1
 74
     0
176
     1
 91
        4
176
     1
 64
     7
176
     1
 65
   257
176
     1
 75
     1
176
     1
175
     1
176
     1
 42
1.0
176
     1
 92
        0
176
     1
 66
     7
176
     1
 43
1.0
176
     1
 76
     1
176
     1
 77
     6
176
     1
 78
     2
176
     1
 67
     7
176
     1
 79
     5
176
     1
170
     0
176
     1
171
     0
176
     1
290
     0
176
     1
 93
       13
176
     1
 44
0.0
176
     1
173
     0
176
     1
  0
VISUALSTYLE
  5
2E
102
{ACAD_REACTORS
330
2A
102
}
330
2A
100
AcDbVisualStyle
  2
GouraudWithEdges
 70
     3
177
     2
291
     1
 71
     2
176
     1
 72
     2
176
     1
 73
     1
176
     1
 90
        2
176
     1
 40
-0.6
176
     1
 41
30.0
176
     1
 62
     5
 63
     7
421
 16777215
176
     1
 74
     1
176
     1
 91
        4
176
     1
 64
     7
176
     1
 65
   257
176
     1
 75
     1
176
     1
175
     1
176
     1
 42
1.0
176
     1
 92
        0
176
     1
 66
   257
176
     1
 43
1.0
176
     1
 76
     1
176
     1
 77
     6
176
     1
 78
     2
176
     1
 67
     7
176
     1
 79
     5
176
     1
170
     0
176
     1
171
     0
176
     1
290
     0
176
     1
 93
       13
176
     1
 44
0.0
176
     1
173
     0
176
     1
  0
VISUALSTYLE
  5
38
102
{ACAD_REACTORS
330
2A
102
}
330
2A
100
AcDbVisualStyle
  2
Linepattern
 70
    14
177
     2
291
     1
 71
     2
176
     1
 72
     2
176
     1
 73
     0
176
     1
 90
        0
176
     1
 40
-0.6
176
     1
 41
-30.0
176
     1
 62
     5
 63
     7
421
 16777215
176
     1
 74
     1
176
     1
 91
        4
176
     1
 64
     7
176
     1
 65
   257
176
     1
 75
     7
176
     1
175
     7
176
     1
 42
1.0
176
     1
 92
        8
176
     1
 66
     7
176
     1
 43
1.0
176
     1
 76
     1
176
     1
 77
     6
176
     1
 78
     2
176
     1
 67
     7
176
     1
 79
     5
176
     1
170
     0
176
     1
171
     0
176
     1
290
     0
176
     1
 93
        1
176
     1
 44
0.0
176
     1
173
     0
176
     1
  0
VISUALSTYLE
  5
33
102
{ACAD_REACTORS
330
2A
102
}
330
2A
100
AcDbVisualStyle
  2
Realistic
 70
     8
177
     2
291
     0
 71
     2
176
     1
 72
     2
176
     1
 73
     0
176
     1
 90
        0
176
     1
 40
-0.6
176
     1
 41
-30.0
176
     1
 62
     5
 63
     7
421
 16777215
176
     1
 74
     1
176
     1
 91
        0
176
     1
 64
     7
176
     1
 65
   257
176
     1
 75
     1
176
     1
175
     1
176
     1
 42
1.0
176
     1
 92
        8
176
     1
 66
     8
424
  7895160
176
     1
 43
1.0
176
     1
 76
     1
176
     1
 77
     6
176
     1
 78
     2
176
     1
 67
     7
176
     1
 79
     5
176
     1
170
     0
176
     1
171
     0
176
     1
290
     0
176
     1
 93
       13
176
     1
 44
0.0
176
     1
173
     0
176
     1
  0
VISUALSTYLE
  5
37
102
{ACAD_REACTORS
330
2A
102
}
330
2A
100
AcDbVisualStyle
  2
Thicken
 70
    13
177
     2
291
     1
 71
     2
176
     1
 72
     2
176
     1
 73
     0
176
     1
 90
        0
176
     1
 40
-0.6
176
     1
 41
-30.0
176
     1
 62
     5
 63
     7
421
 16777215
176
     1
 74
     1
176
     1
 91
        4
176
     1
 64
     7
176
     1
 65
   257
176
     1
 75
     1
176
     1
175
     1
176
     1
 42
1.0
176
     1
 92
       12
176
     1
 66
     7
176
     1
 43
1.0
176
     1
 76
     1
176
     1
 77
     6
176
     1
 78
     2
176
     1
 67
     7
176
     1
 79
     5
176
     1
170
     0
176
     1
171
     0
176
     1
290
     0
176
     1
 93
        1
176
     1
 44
0.0
176
     1
173
     0
176
     1
  0
ENDSEC
  0
EOF
