<?xml version="1.0" encoding="utf-8"?>
<!-- Generator: Adobe Illustrator 21.0.2, SVG Export Plug-In . SVG Version: 6.00 Build 0)  -->
<svg version="1.0" id="Calque_1" xmlns="http://www.w3.org/2000/svg" xmlns:xlink="http://www.w3.org/1999/xlink" x="0px" y="0px"
	 viewBox="0 0 2040.9 1190.6" style="enable-background:new 0 0 2040.9 1190.6;" xml:space="preserve">
<style type="text/css">
	.st0{fill:none;stroke:#FF0000;stroke-width:3.543310e-02;}
	.st1{fill:none;stroke:#FF0000;stroke-width:2.834646e-02;}
	.st2{fill:none;stroke:#FF0000;stroke-width:2.834646e-02;stroke-miterlimit:2.6131;}
	.st3{fill:none;stroke:#FF0000;stroke-width:1.000000e-02;stroke-miterlimit:2.6131;}
	.st4{fill:none;}
	.st5{fill:none;stroke:#0000FF;stroke-width:2.835000e-02;stroke-miterlimit:10;}
	.st6{font-family:'MyriadPro-Regular';}
	.st7{font-size:14.1732px;}
</style>
<g transform="translate(538.58312, 7.08662) ">
	<polygon class="st0" points="-99.2,2 -73.7,2 -73.7,10.5 -48.1,10.5 -48.1,2 -31.1,2 -31.1,10.5 -14.1,10.5 -14.1,2 2.9,2 
		2.9,10.5 19.9,10.5 19.9,2 36.9,2 36.9,10.5 53.9,10.5 53.9,2 70.9,2 70.9,10.5 87.9,10.5 87.9,2 104.9,2 104.9,10.5 121.9,10.5 
		121.9,2 138.9,2 138.9,10.5 155.9,10.5 155.9,2 173,2 173,10.5 190,10.5 190,2 207,2 207,10.5 224,10.5 224,2 241,2 241,10.5 
		258,10.5 258,2 275,2 275,10.5 300.5,10.5 300.5,2 326,2 326,26.1 317.5,26.1 317.5,50.2 326,50.2 326,67.2 317.5,67.2 317.5,84.2 
		326,84.2 326,101.2 317.5,101.2 317.5,118.2 326,118.2 326,135.3 317.5,135.3 317.5,152.3 326,152.3 326,169.3 317.5,169.3 
		317.5,186.3 326,186.3 326,203.3 317.5,203.3 317.5,220.3 326,220.3 326,237.3 317.5,237.3 317.5,261.4 326,261.4 326,285.5 
		300.5,285.5 300.5,277 275,277 275,285.5 258,285.5 258,277 241,277 241,285.5 224,285.5 224,277 207,277 207,285.5 190,285.5 
		190,277 173,277 173,285.5 155.9,285.5 155.9,277 138.9,277 138.9,285.5 121.9,285.5 121.9,277 104.9,277 104.9,285.5 87.9,285.5 
		87.9,277 70.9,277 70.9,285.5 53.9,285.5 53.9,277 36.9,277 36.9,285.5 19.9,285.5 19.9,277 2.9,277 2.9,285.5 -14.1,285.5 
		-14.1,277 -31.1,277 -31.1,285.5 -48.1,285.5 -48.1,277 -73.7,277 -73.7,285.5 -99.2,285.5 -99.2,261.4 -90.7,261.4 -90.7,237.3 
		-99.2,237.3 -99.2,220.3 -90.7,220.3 -90.7,203.3 -99.2,203.3 -99.2,186.3 -90.7,186.3 -90.7,169.3 -99.2,169.3 -99.2,152.3 
		-90.7,152.3 -90.7,135.3 -99.2,135.3 -99.2,118.2 -90.7,118.2 -90.7,101.2 -99.2,101.2 -99.2,84.2 -90.7,84.2 -90.7,67.2 
		-99.2,67.2 -99.2,50.2 -90.7,50.2 -90.7,26.1 -99.2,26.1 	"/>
</g>
<g transform="translate(1070.07962, 361.41762) ">
	<polygon class="st0" points="71.6,-352.3 88.6,-352.3 88.6,-343.8 114.1,-343.8 114.1,-352.3 131.1,-352.3 131.1,-343.8 
		148.2,-343.8 148.2,-352.3 165.2,-352.3 165.2,-343.8 182.2,-343.8 182.2,-352.3 199.2,-352.3 199.2,-343.8 216.2,-343.8 
		216.2,-352.3 233.2,-352.3 233.2,-343.8 250.2,-343.8 250.2,-352.3 267.2,-352.3 267.2,-343.8 292.7,-343.8 292.7,-352.3 
		309.7,-352.3 309.7,-328.2 318.2,-328.2 318.2,-304.1 309.7,-304.1 309.7,-287.1 318.2,-287.1 318.2,-270.1 309.7,-270.1 
		309.7,-253.1 318.2,-253.1 318.2,-236.1 309.7,-236.1 309.7,-219.1 318.2,-219.1 318.2,-202.1 309.7,-202.1 309.7,-185.1 
		318.2,-185.1 318.2,-168.1 309.7,-168.1 309.7,-151 318.2,-151 318.2,-134 309.7,-134 309.7,-117 318.2,-117 318.2,-92.9 
		309.7,-92.9 309.7,-68.8 292.7,-68.8 292.7,-77.3 267.2,-77.3 267.2,-68.8 250.2,-68.8 250.2,-77.3 233.2,-77.3 233.2,-68.8 
		216.2,-68.8 216.2,-77.3 199.2,-77.3 199.2,-68.8 182.2,-68.8 182.2,-77.3 165.2,-77.3 165.2,-68.8 148.2,-68.8 148.2,-77.3 
		131.1,-77.3 131.1,-68.8 114.1,-68.8 114.1,-77.3 88.6,-77.3 88.6,-68.8 71.6,-68.8 71.6,-92.9 63.1,-92.9 63.1,-117 71.6,-117 
		71.6,-134 63.1,-134 63.1,-151 71.6,-151 71.6,-168.1 63.1,-168.1 63.1,-185.1 71.6,-185.1 71.6,-202.1 63.1,-202.1 63.1,-219.1 
		71.6,-219.1 71.6,-236.1 63.1,-236.1 63.1,-253.1 71.6,-253.1 71.6,-270.1 63.1,-270.1 63.1,-287.1 71.6,-287.1 71.6,-304.1 
		63.1,-304.1 63.1,-328.2 71.6,-328.2 	"/>
</g>
<g>
	<g transform="translate(7.08662, 7.08662) ">
		<polygon class="st0" points="0.4,2 25.9,2 25.9,10.5 51.4,10.5 51.4,2 68.4,2 68.4,10.5 85.4,10.5 85.4,2 102.4,2 102.4,10.5 
			119.5,10.5 119.5,2 136.5,2 136.5,10.5 153.5,10.5 153.5,2 170.5,2 170.5,10.5 187.5,10.5 187.5,2 204.5,2 204.5,10.5 221.5,10.5 
			221.5,2 238.5,2 238.5,10.5 255.5,10.5 255.5,2 272.5,2 272.5,10.5 289.5,10.5 289.5,2 306.5,2 306.5,10.5 323.6,10.5 323.6,2 
			340.6,2 340.6,10.5 357.6,10.5 357.6,2 374.6,2 374.6,10.5 400.1,10.5 400.1,2 425.6,2 425.6,26.1 417.1,26.1 417.1,50.2 
			425.6,50.2 425.6,67.2 417.1,67.2 417.1,84.2 425.6,84.2 425.6,101.2 417.1,101.2 417.1,118.2 425.6,118.2 425.6,135.3 
			417.1,135.3 417.1,152.3 425.6,152.3 425.6,169.3 417.1,169.3 417.1,186.3 425.6,186.3 425.6,203.3 417.1,203.3 417.1,220.3 
			425.6,220.3 425.6,237.3 417.1,237.3 417.1,261.4 425.6,261.4 425.6,285.5 400.1,285.5 400.1,277 374.6,277 374.6,285.5 
			357.6,285.5 357.6,277 340.6,277 340.6,285.5 323.6,285.5 323.6,277 306.5,277 306.5,285.5 289.5,285.5 289.5,277 272.5,277 
			272.5,285.5 255.5,285.5 255.5,277 238.5,277 238.5,285.5 221.5,285.5 221.5,277 204.5,277 204.5,285.5 187.5,285.5 187.5,277 
			170.5,277 170.5,285.5 153.5,285.5 153.5,277 136.5,277 136.5,285.5 119.5,285.5 119.5,277 102.4,277 102.4,285.5 85.4,285.5 
			85.4,277 68.4,277 68.4,285.5 51.4,285.5 51.4,277 25.9,277 25.9,285.5 0.4,285.5 0.4,261.4 8.9,261.4 8.9,237.3 0.4,237.3 
			0.4,220.3 8.9,220.3 8.9,203.3 0.4,203.3 0.4,186.3 8.9,186.3 8.9,169.3 0.4,169.3 0.4,152.3 8.9,152.3 8.9,135.3 0.4,135.3 
			0.4,118.2 8.9,118.2 8.9,101.2 0.4,101.2 0.4,84.2 8.9,84.2 8.9,67.2 0.4,67.2 0.4,50.2 8.9,50.2 8.9,26.1 0.4,26.1 		"/>
	</g>
	<rect x="38" y="60.1" class="st1" width="364.3" height="181.4"/>
	<ellipse class="st1" cx="53" cy="45.1" rx="6.4" ry="6.4"/>
	<ellipse class="st1" cx="387.1" cy="45.1" rx="6.4" ry="6.4"/>
	<ellipse class="st1" cx="387.1" cy="256.6" rx="6.4" ry="6.4"/>
	<ellipse class="st1" cx="53" cy="256.6" rx="6.4" ry="6.4"/>
</g>
<g>
	<g transform="translate(1070.07962, 7.08662) ">
		<polygon class="st0" points="-189,2 -172,2 -172,10.5 -146.5,10.5 -146.5,2 -129.5,2 -129.5,10.5 -112.5,10.5 -112.5,2 -95.5,2 
			-95.5,10.5 -78.5,10.5 -78.5,2 -61.5,2 -61.5,10.5 -44.4,10.5 -44.4,2 -27.4,2 -27.4,10.5 -10.4,10.5 -10.4,2 6.6,2 6.6,10.5 
			32.1,10.5 32.1,2 49.1,2 49.1,26.1 57.6,26.1 57.6,50.2 49.1,50.2 49.1,67.2 57.6,67.2 57.6,84.2 49.1,84.2 49.1,101.2 
			57.6,101.2 57.6,118.2 49.1,118.2 49.1,135.3 57.6,135.3 57.6,152.3 49.1,152.3 49.1,169.3 57.6,169.3 57.6,186.3 49.1,186.3 
			49.1,203.3 57.6,203.3 57.6,220.3 49.1,220.3 49.1,237.3 57.6,237.3 57.6,261.4 49.1,261.4 49.1,285.5 32.1,285.5 32.1,277 
			6.6,277 6.6,285.5 -10.4,285.5 -10.4,277 -27.4,277 -27.4,285.5 -44.4,285.5 -44.4,277 -61.5,277 -61.5,285.5 -78.5,285.5 
			-78.5,277 -95.5,277 -95.5,285.5 -112.5,285.5 -112.5,277 -129.5,277 -129.5,285.5 -146.5,285.5 -146.5,277 -172,277 -172,285.5 
			-189,285.5 -189,261.4 -197.5,261.4 -197.5,237.3 -189,237.3 -189,220.3 -197.5,220.3 -197.5,203.3 -189,203.3 -189,186.3 
			-197.5,186.3 -197.5,169.3 -189,169.3 -189,152.3 -197.5,152.3 -197.5,135.3 -189,135.3 -189,118.2 -197.5,118.2 -197.5,101.2 
			-189,101.2 -189,84.2 -197.5,84.2 -197.5,67.2 -189,67.2 -189,50.2 -197.5,50.2 -197.5,26.1 -189,26.1 		"/>
	</g>
	
		<rect x="933.9" y="189.2" transform="matrix(-1.836970e-16 1 -1 -1.836970e-16 1208.0796 -706.7858)" class="st2" width="47" height="122.8"/>
</g>
<g>
	<g transform="translate(7.08662, 361.41762) ">
		<polygon class="st0" points="1654.7,64.4 1654.7,47.4 1646.2,47.4 1646.2,21.9 1654.7,21.9 1654.7,4.9 1646.2,4.9 1646.2,-12.1 
			1654.7,-12.1 1654.7,-29.2 1646.2,-29.2 1646.2,-46.2 1654.7,-46.2 1654.7,-63.2 1646.2,-63.2 1646.2,-80.2 1654.7,-80.2 
			1654.7,-97.2 1646.2,-97.2 1646.2,-114.2 1654.7,-114.2 1654.7,-131.2 1646.2,-131.2 1646.2,-148.2 1654.7,-148.2 1654.7,-165.2 
			1646.2,-165.2 1646.2,-182.2 1654.7,-182.2 1654.7,-199.2 1646.2,-199.2 1646.2,-216.2 1654.7,-216.2 1654.7,-233.2 
			1646.2,-233.2 1646.2,-250.3 1654.7,-250.3 1654.7,-267.3 1646.2,-267.3 1646.2,-284.3 1654.7,-284.3 1654.7,-301.3 
			1646.2,-301.3 1646.2,-326.8 1654.7,-326.8 1654.7,-343.8 1671.7,-343.8 1671.7,-352.3 1697.2,-352.3 1697.2,-343.8 
			1714.3,-343.8 1714.3,-352.3 1731.3,-352.3 1731.3,-343.8 1748.3,-343.8 1748.3,-352.3 1765.3,-352.3 1765.3,-343.8 
			1782.3,-343.8 1782.3,-352.3 1799.3,-352.3 1799.3,-343.8 1816.3,-343.8 1816.3,-352.3 1833.3,-352.3 1833.3,-343.8 
			1850.3,-343.8 1850.3,-352.3 1875.8,-352.3 1875.8,-343.8 1892.8,-343.8 1892.8,-326.8 1901.3,-326.8 1901.3,-301.3 
			1892.8,-301.3 1892.8,-284.3 1901.3,-284.3 1901.3,-267.3 1892.8,-267.3 1892.8,-250.3 1901.3,-250.3 1901.3,-233.2 
			1892.8,-233.2 1892.8,-216.2 1901.3,-216.2 1901.3,-199.2 1892.8,-199.2 1892.8,-182.2 1901.3,-182.2 1901.3,-165.2 
			1892.8,-165.2 1892.8,-148.2 1901.3,-148.2 1901.3,-131.2 1892.8,-131.2 1892.8,-114.2 1901.3,-114.2 1901.3,-97.2 1892.8,-97.2 
			1892.8,-80.2 1901.3,-80.2 1901.3,-63.2 1892.8,-63.2 1892.8,-46.2 1901.3,-46.2 1901.3,-29.2 1892.8,-29.2 1892.8,-12.1 
			1901.3,-12.1 1901.3,4.9 1892.8,4.9 1892.8,21.9 1901.3,21.9 1901.3,47.4 1892.8,47.4 1892.8,64.4 1875.8,64.4 1875.8,72.9 
			1850.3,72.9 1850.3,64.4 1833.3,64.4 1833.3,72.9 1816.3,72.9 1816.3,64.4 1799.3,64.4 1799.3,72.9 1782.3,72.9 1782.3,64.4 
			1765.3,64.4 1765.3,72.9 1748.3,72.9 1748.3,64.4 1731.3,64.4 1731.3,72.9 1714.3,72.9 1714.3,64.4 1697.2,64.4 1697.2,72.9 
			1671.7,72.9 1671.7,64.4 		"/>
	</g>
	<circle class="st1" cx="1780.9" cy="221.7" r="29"/>
</g>
<g>
	<g transform="translate(538.58312, 361.41762) ">
		<polygon class="st0" points="863.2,64.4 863.2,47.4 854.7,47.4 854.7,21.9 863.2,21.9 863.2,4.9 854.7,4.9 854.7,-12.1 
			863.2,-12.1 863.2,-29.2 854.7,-29.2 854.7,-46.2 863.2,-46.2 863.2,-63.2 854.7,-63.2 854.7,-80.2 863.2,-80.2 863.2,-97.2 
			854.7,-97.2 854.7,-114.2 863.2,-114.2 863.2,-131.2 854.7,-131.2 854.7,-148.2 863.2,-148.2 863.2,-165.2 854.7,-165.2 
			854.7,-182.2 863.2,-182.2 863.2,-199.2 854.7,-199.2 854.7,-216.2 863.2,-216.2 863.2,-233.2 854.7,-233.2 854.7,-250.3 
			863.2,-250.3 863.2,-267.3 854.7,-267.3 854.7,-284.3 863.2,-284.3 863.2,-301.3 854.7,-301.3 854.7,-326.8 863.2,-326.8 
			863.2,-343.8 880.2,-343.8 880.2,-352.3 905.7,-352.3 905.7,-343.8 922.7,-343.8 922.7,-352.3 939.7,-352.3 939.7,-343.8 
			956.7,-343.8 956.7,-352.3 973.7,-352.3 973.7,-343.8 990.7,-343.8 990.7,-352.3 1007.7,-352.3 1007.7,-343.8 1024.7,-343.8 
			1024.7,-352.3 1041.8,-352.3 1041.8,-343.8 1058.8,-343.8 1058.8,-352.3 1084.3,-352.3 1084.3,-343.8 1101.3,-343.8 
			1101.3,-326.8 1109.8,-326.8 1109.8,-301.3 1101.3,-301.3 1101.3,-284.3 1109.8,-284.3 1109.8,-267.3 1101.3,-267.3 
			1101.3,-250.3 1109.8,-250.3 1109.8,-233.2 1101.3,-233.2 1101.3,-216.2 1109.8,-216.2 1109.8,-199.2 1101.3,-199.2 
			1101.3,-182.2 1109.8,-182.2 1109.8,-165.2 1101.3,-165.2 1101.3,-148.2 1109.8,-148.2 1109.8,-131.2 1101.3,-131.2 
			1101.3,-114.2 1109.8,-114.2 1109.8,-97.2 1101.3,-97.2 1101.3,-80.2 1109.8,-80.2 1109.8,-63.2 1101.3,-63.2 1101.3,-46.2 
			1109.8,-46.2 1109.8,-29.2 1101.3,-29.2 1101.3,-12.1 1109.8,-12.1 1109.8,4.9 1101.3,4.9 1101.3,21.9 1109.8,21.9 1109.8,47.4 
			1101.3,47.4 1101.3,64.4 1084.3,64.4 1084.3,72.9 1058.8,72.9 1058.8,64.4 1041.8,64.4 1041.8,72.9 1024.7,72.9 1024.7,64.4 
			1007.7,64.4 1007.7,72.9 990.7,72.9 990.7,64.4 973.7,64.4 973.7,72.9 956.7,72.9 956.7,64.4 939.7,64.4 939.7,72.9 922.7,72.9 
			922.7,64.4 905.7,64.4 905.7,72.9 880.2,72.9 880.2,64.4 		"/>
	</g>
	<circle class="st3" cx="1512.6" cy="214.5" r="4.5"/>
	<circle class="st3" cx="1433.4" cy="214.5" r="4.5"/>
	<circle class="st3" cx="1419" cy="66.9" r="4.5"/>
</g>
<rect x="106.4" y="255.3" class="st4" width="53" height="67"/>
<text transform="matrix(1 0 0 1 106.3518 265.3704)" class="st5 st6 st7">Intérieur</text>
<rect x="-32.2" y="130.3" class="st4" width="67" height="53"/>
<text transform="matrix(0 1 -1 0 24.7583 130.3268)" class="st5 st6 st7">Gauche</text>
<rect x="405.3" y="119.3" class="st4" width="67" height="53"/>
<text transform="matrix(0 -1 1 0 415.3752 172.3066)" class="st5 st6 st7">Droite</text>
<rect x="231.9" y="255.3" class="st4" width="53" height="67"/>
<text transform="matrix(1 0 0 1 231.9457 265.3704)" class="st5 st6 st7">Bas</text>
<rect x="200.9" y="38.7" class="st4" width="53" height="67"/>
<text transform="matrix(1 0 0 1 200.9315 48.8004)" class="st5 st6 st7">Haut</text>
<rect x="617.3" y="129.5" class="st4" width="53" height="67"/>
<text transform="matrix(1 0 0 1 617.2605 139.563)" class="st5 st6 st7">Intérieur</text>
<rect x="426.8" y="122" class="st4" width="67" height="53"/>
<text transform="matrix(0 1 -1 0 483.6978 121.9609)" class="st5 st6 st7">Droite</text>
<rect x="810.3" y="119.4" class="st4" width="67" height="53"/>
<text transform="matrix(0 -1 1 0 820.3235 172.4414)" class="st5 st6 st7">Gauche</text>
<rect x="611.3" y="36.4" class="st4" width="53" height="67"/>
<text transform="matrix(1 0 0 1 611.2605 46.4343)" class="st5 st6 st7">Haut</text>
<rect x="614.8" y="251" class="st4" width="53" height="67"/>
<text transform="matrix(1 0 0 1 614.7747 261.0538)" class="st5 st6 st7">Bas</text>
<rect x="617.3" y="112.4" class="st4" width="53" height="67"/>
<text transform="matrix(1 0 0 1 617.2606 122.5043)" class="st5 st6 st7">Arrière</text>
<rect x="973.2" y="123" class="st4" width="53" height="67"/>
<text transform="matrix(1 0 0 1 973.1719 133.0537)" class="st5 st6 st7">Intérieur</text>
<rect x="896" y="128" class="st4" width="67" height="53"/>
<text transform="matrix(0 -1 1 0 906.079 181.0098)" class="st5 st6 st7">Arrière</text>
<rect x="1042" y="120.5" class="st4" width="67" height="53"/>
<text transform="matrix(0 1 -1 0 1098.9536 120.4712)" class="st5 st6 st7">Avant</text>
<rect x="973.2" y="104" class="st4" width="53" height="67"/>
<text transform="matrix(1 0 0 1 973.1719 114.0146)" class="st5 st6 st7">Gauche</text>
<rect x="975.9" y="28.4" class="st4" width="53" height="67"/>
<text transform="matrix(1 0 0 1 975.8535 38.4446)" class="st5 st6 st7">Haut</text>
<rect x="1036.7" y="249.5" class="st4" width="53" height="67"/>
<text transform="matrix(1 0 0 1 1036.686 259.5641)" class="st5 st6 st7">Bas</text>
<rect x="1112.3" y="134.6" class="st4" width="67" height="53"/>
<text transform="matrix(0 1 -1 0 1169.2729 134.6045)" class="st5 st6 st7">Avant</text>
<rect x="1232" y="146.1" class="st4" width="53" height="67"/>
<text transform="matrix(1 0 0 1 1232.0038 156.1669)" class="st5 st6 st7">Intérieur</text>
<rect x="1232" y="127.1" class="st4" width="53" height="67"/>
<text transform="matrix(1 0 0 1 1232.0038 137.1278)" class="st5 st6 st7">Droite</text>
<rect x="1342.2" y="124.5" class="st4" width="67" height="53"/>
<text transform="matrix(0 -1 1 0 1352.2334 177.5449)" class="st5 st6 st7">Arrière</text>
<rect x="1241" y="41.5" class="st4" width="53" height="67"/>
<text transform="matrix(1 0 0 1 1241.0078 51.5382)" class="st5 st6 st7">Haut</text>
<rect x="1244.2" y="253.5" class="st4" width="53" height="67"/>
<text transform="matrix(1 0 0 1 1244.1737 263.6082)" class="st5 st6 st7">Bas</text>
<rect x="1514.1" y="269.6" class="st4" width="53" height="67"/>
<text transform="matrix(1 0 0 1 1514.1379 279.6917)" class="st5 st6 st7">Intérieur</text>
<rect x="1388.3" y="236.6" class="st4" width="67" height="53"/>
<text transform="matrix(0 1 -1 0 1445.2495 236.5699)" class="st5 st6 st7">Arrière</text>
<rect x="1603.5" y="194.1" class="st4" width="67" height="53"/>
<text transform="matrix(0 -1 1 0 1613.524 247.0645)" class="st5 st6 st7">Avant</text>
<rect x="1513" y="396.9" class="st4" width="53" height="67"/>
<text transform="matrix(1 0 0 1 1512.9604 406.9859)" class="st5 st6 st7">Droite</text>
<rect x="1509.9" class="st4" width="53" height="67"/>
<text transform="matrix(-1 0 0 -1 1562.9492 56.937)" class="st5 st6 st7">Gauche</text>
<rect x="1520.8" y="287" class="st4" width="53" height="67"/>
<text transform="matrix(1 0 0 1 1520.8114 297.1082)" class="st5 st6 st7">Bas</text>
<rect x="1772.7" y="386.7" class="st4" width="53" height="67"/>
<text transform="matrix(1 0 0 1 1772.6523 396.7385)" class="st5 st6 st7">Gauche</text>
<rect x="1752" y="146.4" class="st4" width="53" height="67"/>
<text transform="matrix(1 0 0 1 1751.9888 156.444)" class="st5 st6 st7">Intérieur</text>
<rect x="1746.2" y="-10.2" class="st4" width="53" height="67"/>
<text transform="matrix(-1 0 0 -1 1799.1523 46.689)" class="st5 st6 st7">Droite</text>
<rect x="1623.7" y="199.8" class="st4" width="67" height="53"/>
<text transform="matrix(0 1 -1 0 1680.6011 199.8224)" class="st5 st6 st7">Avant</text>
<rect x="1858.8" y="186.9" class="st4" width="67" height="53"/>
<text transform="matrix(0 -1 1 0 1868.8336 239.8809)" class="st5 st6 st7">Arrière</text>
<rect x="1758.3" y="166.3" class="st4" width="53" height="67"/>
<text transform="matrix(1 0 0 1 1758.322 176.3853)" class="st5 st6 st7">Haut</text>
</svg>
