  0
SECTION
  2
HEADER
  9
$ACADVER
  1
AC1024
  9
$ACADMAINTVER
 70
     6
  9
$DWGCODEPAGE
  3
ANSI_1252
  9
$INSBASE
 10
0.0
 20
0.0
 30
0.0
  9
$EXTMIN
 10
1.000000000000000E+20
 20
1.000000000000000E+20
 30
1.000000000000000E+20
  9
$EXTMAX
 10
-1.000000000000000E+20
 20
-1.000000000000000E+20
 30
-1.000000000000000E+20
  9
$LIMMIN
 10
0.0
 20
0.0
  9
$LIMMAX
 10
12.0
 20
9.0
  9
$ORTHOMODE
 70
     0
  9
$REGENMODE
 70
     1
  9
$FILLMODE
 70
     1
  9
$QTEXTMODE
 70
     0
  9
$MIRRTEXT
 70
     1
  9
$LTSCALE
 40
1.0
  9
$ATTMODE
 70
     1
  9
$TEXTSIZE
 40
0.2
  9
$TRACEWID
 40
0.05
  9
$TEXTSTYLE
  7
Standard
  9
$CLAYER
  8
0
  9
$CELTYPE
  6
ByLayer
  9
$CECOLOR
 62
   256
  9
$CELTSCALE
 40
1.0
  9
$DISPSILH
 70
     0
  9
$DIMSCALE
 40
1.0
  9
$DIMASZ
 40
0.18
  9
$DIMEXO
 40
0.0625
  9
$DIMDLI
 40
0.38
  9
$DIMRND
 40
0.0
  9
$DIMDLE
 40
0.0
  9
$DIMEXE
 40
0.18
  9
$DIMTP
 40
0.0
  9
$DIMTM
 40
0.0
  9
$DIMTXT
 40
0.18
  9
$DIMCEN
 40
0.09
  9
$DIMTSZ
 40
0.0
  9
$DIMTOL
 70
     0
  9
$DIMLIM
 70
     0
  9
$DIMTIH
 70
     1
  9
$DIMTOH
 70
     1
  9
$DIMSE1
 70
     0
  9
$DIMSE2
 70
     0
  9
$DIMTAD
 70
     0
  9
$DIMZIN
 70
     0
  9
$DIMBLK
  1

  9
$DIMASO
 70
     1
  9
$DIMSHO
 70
     1
  9
$DIMPOST
  1

  9
$DIMAPOST
  1

  9
$DIMALT
 70
     0
  9
$DIMALTD
 70
     2
  9
$DIMALTF
 40
25.4
  9
$DIMLFAC
 40
1.0
  9
$DIMTOFL
 70
     0
  9
$DIMTVP
 40
0.0
  9
$DIMTIX
 70
     0
  9
$DIMSOXD
 70
     0
  9
$DIMSAH
 70
     0
  9
$DIMBLK1
  1

  9
$DIMBLK2
  1

  9
$DIMSTYLE
  2
Standard
  9
$DIMCLRD
 70
     0
  9
$DIMCLRE
 70
     0
  9
$DIMCLRT
 70
     0
  9
$DIMTFAC
 40
1.0
  9
$DIMGAP
 40
0.09
  9
$DIMJUST
 70
     0
  9
$DIMSD1
 70
     0
  9
$DIMSD2
 70
     0
  9
$DIMTOLJ
 70
     1
  9
$DIMTZIN
 70
     0
  9
$DIMALTZ
 70
     0
  9
$DIMALTTZ
 70
     0
  9
$DIMUPT
 70
     0
  9
$DIMDEC
 70
     4
  9
$DIMTDEC
 70
     4
  9
$DIMALTU
 70
     2
  9
$DIMALTTD
 70
     2
  9
$DIMTXSTY
  7
Standard
  9
$DIMAUNIT
 70
     0
  9
$DIMADEC
 70
     0
  9
$DIMALTRND
 40
0.0
  9
$DIMAZIN
 70
     0
  9
$DIMDSEP
 70
    46
  9
$DIMATFIT
 70
     3
  9
$DIMFRAC
 70
     0
  9
$DIMLDRBLK
  1

  9
$DIMLUNIT
 70
     2
  9
$DIMLWD
 70
    -2
  9
$DIMLWE
 70
    -2
  9
$DIMTMOVE
 70
     0
  9
$DIMFXL
 40
1.0
  9
$DIMFXLON
 70
     0
  9
$DIMJOGANG
 40
0.7853981633974483
  9
$DIMTFILL
 70
     0
  9
$DIMTFILLCLR
 70
     0
  9
$DIMARCSYM
 70
     0
  9
$DIMLTYPE
  6

  9
$DIMLTEX1
  6

  9
$DIMLTEX2
  6

  9
$DIMTXTDIRECTION
 70
     0
  9
$LUNITS
 70
     2
  9
$LUPREC
 70
     4
  9
$SKETCHINC
 40
0.1
  9
$FILLETRAD
 40
0.5
  9
$AUNITS
 70
     0
  9
$AUPREC
 70
     0
  9
$MENU
  1
.
  9
$ELEVATION
 40
0.0
  9
$PELEVATION
 40
0.0
  9
$THICKNESS
 40
0.0
  9
$LIMCHECK
 70
     0
  9
$CHAMFERA
 40
0.5
  9
$CHAMFERB
 40
0.5
  9
$CHAMFERC
 40
1.0
  9
$CHAMFERD
 40
0.0
  9
$SKPOLY
 70
     0
  9
$TDCREATE
 40
2457812.690332303
  9
$TDUCREATE
 40
2457812.648665637
  9
$TDUPDATE
 40
2457812.690333033
  9
$TDUUPDATE
 40
2457812.648666366
  9
$TDINDWG
 40
0.0000000116
  9
$TDUSRTIMER
 40
0.0000000116
  9
$USRTIMER
 70
     1
  9
$ANGBASE
 50
0.0
  9
$ANGDIR
 70
     0
  9
$PDMODE
 70
     0
  9
$PDSIZE
 40
0.0
  9
$PLINEWID
 40
0.0
  9
$SPLFRAME
 70
     0
  9
$SPLINETYPE
 70
     6
  9
$SPLINESEGS
 70
     8
  9
$HANDSEED
  5
26E
  9
$SURFTAB1
 70
     6
  9
$SURFTAB2
 70
     6
  9
$SURFTYPE
 70
     6
  9
$SURFU
 70
     6
  9
$SURFV
 70
     6
  9
$UCSBASE
  2

  9
$UCSNAME
  2

  9
$UCSORG
 10
0.0
 20
0.0
 30
0.0
  9
$UCSXDIR
 10
1.0
 20
0.0
 30
0.0
  9
$UCSYDIR
 10
0.0
 20
1.0
 30
0.0
  9
$UCSORTHOREF
  2

  9
$UCSORTHOVIEW
 70
     0
  9
$UCSORGTOP
 10
0.0
 20
0.0
 30
0.0
  9
$UCSORGBOTTOM
 10
0.0
 20
0.0
 30
0.0
  9
$UCSORGLEFT
 10
0.0
 20
0.0
 30
0.0
  9
$UCSORGRIGHT
 10
0.0
 20
0.0
 30
0.0
  9
$UCSORGFRONT
 10
0.0
 20
0.0
 30
0.0
  9
$UCSORGBACK
 10
0.0
 20
0.0
 30
0.0
  9
$PUCSBASE
  2

  9
$PUCSNAME
  2

  9
$PUCSORG
 10
0.0
 20
0.0
 30
0.0
  9
$PUCSXDIR
 10
1.0
 20
0.0
 30
0.0
  9
$PUCSYDIR
 10
0.0
 20
1.0
 30
0.0
  9
$PUCSORTHOREF
  2

  9
$PUCSORTHOVIEW
 70
     0
  9
$PUCSORGTOP
 10
0.0
 20
0.0
 30
0.0
  9
$PUCSORGBOTTOM
 10
0.0
 20
0.0
 30
0.0
  9
$PUCSORGLEFT
 10
0.0
 20
0.0
 30
0.0
  9
$PUCSORGRIGHT
 10
0.0
 20
0.0
 30
0.0
  9
$PUCSORGFRONT
 10
0.0
 20
0.0
 30
0.0
  9
$PUCSORGBACK
 10
0.0
 20
0.0
 30
0.0
  9
$USERI1
 70
     0
  9
$USERI2
 70
     0
  9
$USERI3
 70
     0
  9
$USERI4
 70
     0
  9
$USERI5
 70
     0
  9
$USERR1
 40
0.0
  9
$USERR2
 40
0.0
  9
$USERR3
 40
0.0
  9
$USERR4
 40
0.0
  9
$USERR5
 40
0.0
  9
$WORLDVIEW
 70
     1
  9
$SHADEDGE
 70
     3
  9
$SHADEDIF
 70
    70
  9
$TILEMODE
 70
     1
  9
$MAXACTVP
 70
    64
  9
$PINSBASE
 10
0.0
 20
0.0
 30
0.0
  9
$PLIMCHECK
 70
     0
  9
$PEXTMIN
 10
1.000000000000000E+20
 20
1.000000000000000E+20
 30
1.000000000000000E+20
  9
$PEXTMAX
 10
-1.000000000000000E+20
 20
-1.000000000000000E+20
 30
-1.000000000000000E+20
  9
$PLIMMIN
 10
0.0
 20
0.0
  9
$PLIMMAX
 10
12.0
 20
9.0
  9
$UNITMODE
 70
     0
  9
$VISRETAIN
 70
     1
  9
$PLINEGEN
 70
     0
  9
$PSLTSCALE
 70
     1
  9
$TREEDEPTH
 70
  3020
  9
$CMLSTYLE
  2
Standard
  9
$CMLJUST
 70
     0
  9
$CMLSCALE
 40
1.0
  9
$PROXYGRAPHICS
 70
     1
  9
$MEASUREMENT
 70
     0
  9
$CELWEIGHT
370
    -1
  9
$ENDCAPS
280
     0
  9
$JOINSTYLE
280
     0
  9
$LWDISPLAY
290
     1
  9
$INSUNITS
 70
     1
  9
$HYPERLINKBASE
  1

  9
$STYLESHEET
  1

  9
$XEDIT
290
     1
  9
$CEPSNTYPE
380
     0
  9
$PSTYLEMODE
290
     1
  9
$FINGERPRINTGUID
  2
{559899D7-133F-422A-85A6-E69AC74C8C39}
  9
$VERSIONGUID
  2
{FAEB1C32-E019-11D5-929B-00C0DF256EC4}
  9
$EXTNAMES
290
     1
  9
$PSVPSCALE
 40
0.0
  9
$OLESTARTUP
290
     0
  9
$SORTENTS
280
   127
  9
$INDEXCTL
280
     0
  9
$HIDETEXT
280
     1
  9
$XCLIPFRAME
280
     2
  9
$HALOGAP
280
     0
  9
$OBSCOLOR
 70
   257
  9
$OBSLTYPE
280
     0
  9
$INTERSECTIONDISPLAY
280
     0
  9
$INTERSECTIONCOLOR
 70
   257
  9
$DIMASSOC
280
     2
  9
$PROJECTNAME
  1

  9
$CAMERADISPLAY
290
     0
  9
$LENSLENGTH
 40
50.0
  9
$CAMERAHEIGHT
 40
0.0
  9
$STEPSPERSEC
 40
2.0
  9
$STEPSIZE
 40
6.0
  9
$3DDWFPREC
 40
2.0
  9
$PSOLWIDTH
 40
0.25
  9
$PSOLHEIGHT
 40
4.0
  9
$LOFTANG1
 40
1.570796326794897
  9
$LOFTANG2
 40
1.570796326794897
  9
$LOFTMAG1
 40
0.0
  9
$LOFTMAG2
 40
0.0
  9
$LOFTPARAM
 70
     7
  9
$LOFTNORMALS
280
     1
  9
$LATITUDE
 40
37.795
  9
$LONGITUDE
 40
-122.394
  9
$NORTHDIRECTION
 40
0.0
  9
$TIMEZONE
 70
 -8000
  9
$LIGHTGLYPHDISPLAY
280
     1
  9
$TILEMODELIGHTSYNCH
280
     1
  9
$CMATERIAL
347
3C
  9
$SOLIDHIST
280
     1
  9
$SHOWHIST
280
     1
  9
$DWFFRAME
280
     2
  9
$DGNFRAME
280
     2
  9
$REALWORLDSCALE
290
     1
  9
$INTERFERECOLOR
 62
   256
  9
$CSHADOW
280
     0
  9
$SHADOWPLANELOCATION
 40
0.0
  0
ENDSEC
  0
SECTION
  2
CLASSES
  0
CLASS
  1
ACDBDICTIONARYWDFLT
  2
AcDbDictionaryWithDefault
  3
ObjectDBX Classes
 90
        0
 91
        4
280
     0
281
     0
  0
CLASS
  1
VISUALSTYLE
  2
AcDbVisualStyle
  3
ObjectDBX Classes
 90
     4095
 91
        4
280
     0
281
     0
  0
CLASS
  1
MATERIAL
  2
AcDbMaterial
  3
ObjectDBX Classes
 90
     1153
 91
        4
280
     0
281
     0
  0
CLASS
  1
SUN
  2
AcDbSun
  3
SCENEOE
 90
     1024
 91
        4
280
     0
281
     0
  0
ENDSEC
  0
SECTION
  2
TABLES
  0
TABLE
  2
VPORT
  5
8
330
0
100
AcDbSymbolTable
 70
     1
  0
VPORT
  5
29
330
8
100
AcDbSymbolTableRecord
100
AcDbViewportTableRecord
  2
*Active
 70
     0
 10
0.0
 20
0.0
 11
1.0
 21
1.0
 12
0.0
 22
0.0
 13
0.0
 23
0.0
 14
0.5
 24
0.5
 15
0.5
 25
0.5
 16
0.0
 26
0.0
 36
1.0
 17
359.9991387988892
 27
-209.9997916141666
 37
0.0
 40
419.9995832283332
 41
1.714283314434506
 42
50.0
 43
0.0
 44
0.0
 50
0.0
 51
0.0
 71
     0
 72
   100
 73
     1
 74
     3
 75
     0
 76
     0
 77
     0
 78
     0
281
     0
 65
     1
110
0.0
120
0.0
130
0.0
111
1.0
121
0.0
131
0.0
112
0.0
122
1.0
132
0.0
 79
     0
146
0.0
 60
     3
 61
     5
292
     1
282
     1
141
0.0
142
0.0
 63
   250
361
3F
  0
ENDTAB
  0
TABLE
  2
LTYPE
  5
5
330
0
100
AcDbSymbolTable
 70
     1
  0
LTYPE
  5
14
330
5
100
AcDbSymbolTableRecord
100
AcDbLinetypeTableRecord
  2
ByBlock
 70
     0
  3

 72
    65
 73
     0
 40
0.0
  0
LTYPE
  5
15
330
5
100
AcDbSymbolTableRecord
100
AcDbLinetypeTableRecord
  2
ByLayer
 70
     0
  3

 72
    65
 73
     0
 40
0.0
  0
LTYPE
  5
16
330
5
100
AcDbSymbolTableRecord
100
AcDbLinetypeTableRecord
  2
Continuous
 70
     0
  3
Solid line
 72
    65
 73
     0
 40
0.0
  0
ENDTAB
  0
TABLE
  2
LAYER
  5
2
330
0
100
AcDbSymbolTable
 70
     2
  0
LAYER
  5
10
330
2
100
AcDbSymbolTableRecord
100
AcDbLayerTableRecord
  2
0
 70
     0
 62
     7
  6
Continuous
370
    -3
390
F
347
3E
  0
LAYER
  5
40
330
2
100
AcDbSymbolTableRecord
100
AcDbLayerTableRecord
  2
Calque 1
 70
     0
 62
     7
  6
Continuous
370
    -3
390
F
347
3E
  0
ENDTAB
  0
TABLE
  2
STYLE
  5
3
330
0
100
AcDbSymbolTable
 70
     1
  0
STYLE
  5
11
330
3
100
AcDbSymbolTableRecord
100
AcDbTextStyleTableRecord
  2
Standard
 70
     0
 40
0.0
 41
1.0
 50
0.0
 71
     0
 42
0.2
  3
txt
  4

  0
ENDTAB
  0
TABLE
  2
VIEW
  5
6
330
0
100
AcDbSymbolTable
 70
     0
  0
ENDTAB
  0
TABLE
  2
UCS
  5
7
330
0
100
AcDbSymbolTable
 70
     0
  0
ENDTAB
  0
TABLE
  2
APPID
  5
9
330
0
100
AcDbSymbolTable
 70
     1
  0
APPID
  5
12
330
9
100
AcDbSymbolTableRecord
100
AcDbRegAppTableRecord
  2
ACAD
 70
     0
  0
ENDTAB
  0
TABLE
  2
DIMSTYLE
  5
A
330
0
100
AcDbSymbolTable
 70
     1
100
AcDbDimStyleTable
  0
DIMSTYLE
105
27
330
A
100
AcDbSymbolTableRecord
100
AcDbDimStyleTableRecord
  2
Standard
 70
     0
178
     0
340
11
  0
ENDTAB
  0
TABLE
  2
BLOCK_RECORD
  5
1
330
0
100
AcDbSymbolTable
 70
    11
  0
BLOCK_RECORD
  5
1F
330
1
100
AcDbSymbolTableRecord
100
AcDbBlockTableRecord
  2
*Model_Space
340
22
 70
     0
280
     1
281
     0
  0
BLOCK_RECORD
  5
1B
330
1
100
AcDbSymbolTableRecord
100
AcDbBlockTableRecord
  2
*Paper_Space
340
1E
 70
     0
280
     1
281
     0
  0
BLOCK_RECORD
  5
23
330
1
100
AcDbSymbolTableRecord
100
AcDbBlockTableRecord
  2
*Paper_Space0
340
26
 70
     0
280
     1
281
     0
  0
BLOCK_RECORD
  5
41
330
1
100
AcDbSymbolTableRecord
100
AcDbBlockTableRecord
  2
block 2
340
0
102
{BLKREFS
331
42
102
}
 70
     0
280
     1
281
     0
  0
BLOCK_RECORD
  5
9C
330
1
100
AcDbSymbolTableRecord
100
AcDbBlockTableRecord
  2
block 3
340
0
102
{BLKREFS
331
9D
102
}
 70
     0
280
     1
281
     0
  0
BLOCK_RECORD
  5
DF
330
1
100
AcDbSymbolTableRecord
100
AcDbBlockTableRecord
  2
block 4
340
0
102
{BLKREFS
331
E0
102
}
 70
     0
280
     1
281
     0
  0
BLOCK_RECORD
  5
E3
330
1
100
AcDbSymbolTableRecord
100
AcDbBlockTableRecord
  2
block 5
340
0
102
{BLKREFS
331
E4
102
}
 70
     0
280
     1
281
     0
  0
BLOCK_RECORD
  5
137
330
1
100
AcDbSymbolTableRecord
100
AcDbBlockTableRecord
  2
block 6
340
0
102
{BLKREFS
331
138
102
}
 70
     0
280
     1
281
     0
  0
BLOCK_RECORD
  5
13B
330
1
100
AcDbSymbolTableRecord
100
AcDbBlockTableRecord
  2
block 7
340
0
102
{BLKREFS
331
13C
102
}
 70
     0
280
     1
281
     0
  0
BLOCK_RECORD
  5
191
330
1
100
AcDbSymbolTableRecord
100
AcDbBlockTableRecord
  2
block 8
340
0
102
{BLKREFS
331
192
102
}
 70
     0
280
     1
281
     0
  0
BLOCK_RECORD
  5
195
330
1
100
AcDbSymbolTableRecord
100
AcDbBlockTableRecord
  2
block 9
340
0
102
{BLKREFS
331
196
102
}
 70
     0
280
     1
281
     0
  0
BLOCK_RECORD
  5
1DF
330
1
100
AcDbSymbolTableRecord
100
AcDbBlockTableRecord
  2
block 10
340
0
102
{BLKREFS
331
1E0
102
}
 70
     0
280
     1
281
     0
  0
BLOCK_RECORD
  5
1EE
330
1
100
AcDbSymbolTableRecord
100
AcDbBlockTableRecord
  2
block 11
340
0
102
{BLKREFS
331
1EF
102
}
 70
     0
280
     1
281
     0
  0
ENDTAB
  0
ENDSEC
  0
SECTION
  2
BLOCKS
  0
BLOCK
  5
20
330
1F
100
AcDbEntity
  8
0
100
AcDbBlockBegin
  2
*Model_Space
 70
     0
 10
0.0
 20
0.0
 30
0.0
  3
*Model_Space
  1

  0
ENDBLK
  5
21
330
1F
100
AcDbEntity
  8
0
100
AcDbBlockEnd
  0
BLOCK
  5
1C
330
1B
100
AcDbEntity
 67
     1
  8
0
100
AcDbBlockBegin
  2
*Paper_Space
 70
     0
 10
0.0
 20
0.0
 30
0.0
  3
*Paper_Space
  1

  0
ENDBLK
  5
1D
330
1B
100
AcDbEntity
 67
     1
  8
0
100
AcDbBlockEnd
  0
BLOCK
  5
24
330
23
100
AcDbEntity
  8
0
100
AcDbBlockBegin
  2
*Paper_Space0
 70
     0
 10
0.0
 20
0.0
 30
0.0
  3
*Paper_Space0
  1

  0
ENDBLK
  5
25
330
23
100
AcDbEntity
  8
0
100
AcDbBlockEnd
  0
BLOCK
  5
43
330
41
100
AcDbEntity
  8
0
100
AcDbBlockBegin
  2
block 2
 70
     0
 10
0.0
 20
0.0
 30
0.0
  3
block 2
  1

  0
POLYLINE
  5
45
330
41
100
AcDbEntity
  8
Calque 1
370
     0
100
AcDb2dPolyline
 66
     1
 10
0.0
 20
0.0
 30
0.0
  0
VERTEX
  5
46
330
45
100
AcDbEntity
  8
Calque 1
370
     0
100
AcDbVertex
100
AcDb2dVertex
 10
156.6150209746991
 20
-2.37370518795168
 30
0.0
  0
VERTEX
  5
47
330
45
100
AcDbEntity
  8
Calque 1
370
     0
100
AcDbVertex
100
AcDb2dVertex
 10
171.6150202786638
 20
-2.37370518795168
 30
0.0
  0
VERTEX
  5
48
330
45
100
AcDbEntity
  8
Calque 1
370
     0
100
AcDbVertex
100
AcDb2dVertex
 10
171.6150202786638
 20
-7.373705135371678
 30
0.0
  0
VERTEX
  5
49
330
45
100
AcDbEntity
  8
Calque 1
370
     0
100
AcDbVertex
100
AcDb2dVertex
 10
186.6150195826281
 20
-7.373705135371678
 30
0.0
  0
VERTEX
  5
4A
330
45
100
AcDbEntity
  8
Calque 1
370
     0
100
AcDbVertex
100
AcDb2dVertex
 10
186.6150195826281
 20
-2.37370518795168
 30
0.0
  0
VERTEX
  5
4B
330
45
100
AcDbEntity
  8
Calque 1
370
     0
100
AcDbVertex
100
AcDb2dVertex
 10
196.6150205540591
 20
-2.37370518795168
 30
0.0
  0
VERTEX
  5
4C
330
45
100
AcDbEntity
  8
Calque 1
370
     0
100
AcDbVertex
100
AcDb2dVertex
 10
196.6150205540591
 20
-7.373705135371678
 30
0.0
  0
VERTEX
  5
4D
330
45
100
AcDbEntity
  8
Calque 1
370
     0
100
AcDbVertex
100
AcDb2dVertex
 10
206.6150172191242
 20
-7.373705135371678
 30
0.0
  0
VERTEX
  5
4E
330
45
100
AcDbEntity
  8
Calque 1
370
     0
100
AcDbVertex
100
AcDb2dVertex
 10
206.6150172191242
 20
-2.37370518795168
 30
0.0
  0
VERTEX
  5
4F
330
45
100
AcDbEntity
  8
Calque 1
370
     0
100
AcDbVertex
100
AcDb2dVertex
 10
216.6150181905555
 20
-2.37370518795168
 30
0.0
  0
VERTEX
  5
50
330
45
100
AcDbEntity
  8
Calque 1
370
     0
100
AcDbVertex
100
AcDb2dVertex
 10
216.6150181905555
 20
-7.373705135371678
 30
0.0
  0
VERTEX
  5
51
330
45
100
AcDbEntity
  8
Calque 1
370
     0
100
AcDbVertex
100
AcDb2dVertex
 10
226.6150148556216
 20
-7.373705135371678
 30
0.0
  0
VERTEX
  5
52
330
45
100
AcDbEntity
  8
Calque 1
370
     0
100
AcDbVertex
100
AcDb2dVertex
 10
226.6150148556216
 20
-2.37370518795168
 30
0.0
  0
VERTEX
  5
53
330
45
100
AcDbEntity
  8
Calque 1
370
     0
100
AcDbVertex
100
AcDb2dVertex
 10
236.6150201334184
 20
-2.37370518795168
 30
0.0
  0
VERTEX
  5
54
330
45
100
AcDbEntity
  8
Calque 1
370
     0
100
AcDbVertex
100
AcDb2dVertex
 10
236.6150201334184
 20
-7.373705135371678
 30
0.0
  0
VERTEX
  5
55
330
45
100
AcDbEntity
  8
Calque 1
370
     0
100
AcDbVertex
100
AcDb2dVertex
 10
246.6150124921189
 20
-7.373705135371678
 30
0.0
  0
VERTEX
  5
56
330
45
100
AcDbEntity
  8
Calque 1
370
     0
100
AcDbVertex
100
AcDb2dVertex
 10
246.6150124921189
 20
-2.37370518795168
 30
0.0
  0
VERTEX
  5
57
330
45
100
AcDbEntity
  8
Calque 1
370
     0
100
AcDbVertex
100
AcDb2dVertex
 10
256.6150134635502
 20
-2.37370518795168
 30
0.0
  0
VERTEX
  5
58
330
45
100
AcDbEntity
  8
Calque 1
370
     0
100
AcDbVertex
100
AcDb2dVertex
 10
256.6150134635502
 20
-7.373705135371678
 30
0.0
  0
VERTEX
  5
59
330
45
100
AcDbEntity
  8
Calque 1
370
     0
100
AcDbVertex
100
AcDb2dVertex
 10
266.6150144349816
 20
-7.373705135371678
 30
0.0
  0
VERTEX
  5
5A
330
45
100
AcDbEntity
  8
Calque 1
370
     0
100
AcDbVertex
100
AcDb2dVertex
 10
266.6150144349816
 20
-2.37370518795168
 30
0.0
  0
VERTEX
  5
5B
330
45
100
AcDbEntity
  8
Calque 1
370
     0
100
AcDbVertex
100
AcDb2dVertex
 10
276.6150154064142
 20
-2.37370518795168
 30
0.0
  0
VERTEX
  5
5C
330
45
100
AcDbEntity
  8
Calque 1
370
     0
100
AcDbVertex
100
AcDb2dVertex
 10
276.6150154064142
 20
-7.373705135371678
 30
0.0
  0
VERTEX
  5
5D
330
45
100
AcDbEntity
  8
Calque 1
370
     0
100
AcDbVertex
100
AcDb2dVertex
 10
291.6150168635598
 20
-7.373705135371678
 30
0.0
  0
VERTEX
  5
5E
330
45
100
AcDbEntity
  8
Calque 1
370
     0
100
AcDbVertex
100
AcDb2dVertex
 10
291.6150168635598
 20
-2.37370518795168
 30
0.0
  0
VERTEX
  5
5F
330
45
100
AcDbEntity
  8
Calque 1
370
     0
100
AcDbVertex
100
AcDb2dVertex
 10
306.6150183207081
 20
-2.37370518795168
 30
0.0
  0
VERTEX
  5
60
330
45
100
AcDbEntity
  8
Calque 1
370
     0
100
AcDbVertex
100
AcDb2dVertex
 10
306.6150183207081
 20
-14.87370424905819
 30
0.0
  0
VERTEX
  5
61
330
45
100
AcDbEntity
  8
Calque 1
370
     0
100
AcDbVertex
100
AcDb2dVertex
 10
301.6150178349898
 20
-14.87370424905819
 30
0.0
  0
VERTEX
  5
62
330
45
100
AcDbEntity
  8
Calque 1
370
     0
100
AcDbVertex
100
AcDb2dVertex
 10
301.6150178349898
 20
-27.37370331016471
 30
0.0
  0
VERTEX
  5
63
330
45
100
AcDbEntity
  8
Calque 1
370
     0
100
AcDbVertex
100
AcDb2dVertex
 10
306.6150183207081
 20
-27.37370331016471
 30
0.0
  0
VERTEX
  5
64
330
45
100
AcDbEntity
  8
Calque 1
370
     0
100
AcDbVertex
100
AcDb2dVertex
 10
306.6150183207081
 20
-37.37370212841339
 30
0.0
  0
VERTEX
  5
65
330
45
100
AcDbEntity
  8
Calque 1
370
     0
100
AcDbVertex
100
AcDb2dVertex
 10
301.6150178349898
 20
-37.37370212841339
 30
0.0
  0
VERTEX
  5
66
330
45
100
AcDbEntity
  8
Calque 1
370
     0
100
AcDbVertex
100
AcDb2dVertex
 10
301.6150178349898
 20
-47.37370094666144
 30
0.0
  0
VERTEX
  5
67
330
45
100
AcDbEntity
  8
Calque 1
370
     0
100
AcDbVertex
100
AcDb2dVertex
 10
306.6150183207081
 20
-47.37370094666144
 30
0.0
  0
VERTEX
  5
68
330
45
100
AcDbEntity
  8
Calque 1
370
     0
100
AcDbVertex
100
AcDb2dVertex
 10
306.6150183207081
 20
-57.37370191809307
 30
0.0
  0
VERTEX
  5
69
330
45
100
AcDbEntity
  8
Calque 1
370
     0
100
AcDbVertex
100
AcDb2dVertex
 10
301.6150178349898
 20
-57.37370191809307
 30
0.0
  0
VERTEX
  5
6A
330
45
100
AcDbEntity
  8
Calque 1
370
     0
100
AcDbVertex
100
AcDb2dVertex
 10
301.6150178349898
 20
-67.37370288952405
 30
0.0
  0
VERTEX
  5
6B
330
45
100
AcDbEntity
  8
Calque 1
370
     0
100
AcDbVertex
100
AcDb2dVertex
 10
306.6150183207081
 20
-67.37370288952405
 30
0.0
  0
VERTEX
  5
6C
330
45
100
AcDbEntity
  8
Calque 1
370
     0
100
AcDbVertex
100
AcDb2dVertex
 10
306.6150183207081
 20
-77.37370386095536
 30
0.0
  0
VERTEX
  5
6D
330
45
100
AcDbEntity
  8
Calque 1
370
     0
100
AcDbVertex
100
AcDb2dVertex
 10
301.6150178349898
 20
-77.37370386095536
 30
0.0
  0
VERTEX
  5
6E
330
45
100
AcDbEntity
  8
Calque 1
370
     0
100
AcDbVertex
100
AcDb2dVertex
 10
301.6150178349898
 20
-89.87369646251337
 30
0.0
  0
VERTEX
  5
6F
330
45
100
AcDbEntity
  8
Calque 1
370
     0
100
AcDbVertex
100
AcDb2dVertex
 10
306.6150183207081
 20
-89.87369646251337
 30
0.0
  0
VERTEX
  5
70
330
45
100
AcDbEntity
  8
Calque 1
370
     0
100
AcDbVertex
100
AcDb2dVertex
 10
306.6150183207081
 20
-102.3736976768028
 30
0.0
  0
VERTEX
  5
71
330
45
100
AcDbEntity
  8
Calque 1
370
     0
100
AcDbVertex
100
AcDb2dVertex
 10
291.6150168635598
 20
-102.3736976768028
 30
0.0
  0
VERTEX
  5
72
330
45
100
AcDbEntity
  8
Calque 1
370
     0
100
AcDbVertex
100
AcDb2dVertex
 10
291.6150168635598
 20
-97.37369719108685
 30
0.0
  0
VERTEX
  5
73
330
45
100
AcDbEntity
  8
Calque 1
370
     0
100
AcDbVertex
100
AcDb2dVertex
 10
276.6150154064142
 20
-97.37369719108685
 30
0.0
  0
VERTEX
  5
74
330
45
100
AcDbEntity
  8
Calque 1
370
     0
100
AcDbVertex
100
AcDb2dVertex
 10
276.6150154064142
 20
-102.3736976768028
 30
0.0
  0
VERTEX
  5
75
330
45
100
AcDbEntity
  8
Calque 1
370
     0
100
AcDbVertex
100
AcDb2dVertex
 10
266.6150144349816
 20
-102.3736976768028
 30
0.0
  0
VERTEX
  5
76
330
45
100
AcDbEntity
  8
Calque 1
370
     0
100
AcDbVertex
100
AcDb2dVertex
 10
266.6150144349816
 20
-97.37369719108685
 30
0.0
  0
VERTEX
  5
77
330
45
100
AcDbEntity
  8
Calque 1
370
     0
100
AcDbVertex
100
AcDb2dVertex
 10
256.6150134635502
 20
-97.37369719108685
 30
0.0
  0
VERTEX
  5
78
330
45
100
AcDbEntity
  8
Calque 1
370
     0
100
AcDbVertex
100
AcDb2dVertex
 10
256.6150134635502
 20
-102.3736976768028
 30
0.0
  0
VERTEX
  5
79
330
45
100
AcDbEntity
  8
Calque 1
370
     0
100
AcDbVertex
100
AcDb2dVertex
 10
246.6150124921189
 20
-102.3736976768028
 30
0.0
  0
VERTEX
  5
7A
330
45
100
AcDbEntity
  8
Calque 1
370
     0
100
AcDbVertex
100
AcDb2dVertex
 10
246.6150124921189
 20
-97.37369719108685
 30
0.0
  0
VERTEX
  5
7B
330
45
100
AcDbEntity
  8
Calque 1
370
     0
100
AcDbVertex
100
AcDb2dVertex
 10
236.6150201334184
 20
-97.37369719108685
 30
0.0
  0
VERTEX
  5
7C
330
45
100
AcDbEntity
  8
Calque 1
370
     0
100
AcDbVertex
100
AcDb2dVertex
 10
236.6150201334184
 20
-102.3736976768028
 30
0.0
  0
VERTEX
  5
7D
330
45
100
AcDbEntity
  8
Calque 1
370
     0
100
AcDbVertex
100
AcDb2dVertex
 10
226.6150148556216
 20
-102.3736976768028
 30
0.0
  0
VERTEX
  5
7E
330
45
100
AcDbEntity
  8
Calque 1
370
     0
100
AcDbVertex
100
AcDb2dVertex
 10
226.6150148556216
 20
-97.37369719108685
 30
0.0
  0
VERTEX
  5
7F
330
45
100
AcDbEntity
  8
Calque 1
370
     0
100
AcDbVertex
100
AcDb2dVertex
 10
216.6150181905555
 20
-97.37369719108685
 30
0.0
  0
VERTEX
  5
80
330
45
100
AcDbEntity
  8
Calque 1
370
     0
100
AcDbVertex
100
AcDb2dVertex
 10
216.6150181905555
 20
-102.3736976768028
 30
0.0
  0
VERTEX
  5
81
330
45
100
AcDbEntity
  8
Calque 1
370
     0
100
AcDbVertex
100
AcDb2dVertex
 10
206.6150172191242
 20
-102.3736976768028
 30
0.0
  0
VERTEX
  5
82
330
45
100
AcDbEntity
  8
Calque 1
370
     0
100
AcDbVertex
100
AcDb2dVertex
 10
206.6150172191242
 20
-97.37369719108685
 30
0.0
  0
VERTEX
  5
83
330
45
100
AcDbEntity
  8
Calque 1
370
     0
100
AcDbVertex
100
AcDb2dVertex
 10
196.6150205540591
 20
-97.37369719108685
 30
0.0
  0
VERTEX
  5
84
330
45
100
AcDbEntity
  8
Calque 1
370
     0
100
AcDbVertex
100
AcDb2dVertex
 10
196.6150205540591
 20
-102.3736976768028
 30
0.0
  0
VERTEX
  5
85
330
45
100
AcDbEntity
  8
Calque 1
370
     0
100
AcDbVertex
100
AcDb2dVertex
 10
186.6150195826281
 20
-102.3736976768028
 30
0.0
  0
VERTEX
  5
86
330
45
100
AcDbEntity
  8
Calque 1
370
     0
100
AcDbVertex
100
AcDb2dVertex
 10
186.6150195826281
 20
-97.37369719108685
 30
0.0
  0
VERTEX
  5
87
330
45
100
AcDbEntity
  8
Calque 1
370
     0
100
AcDbVertex
100
AcDb2dVertex
 10
171.6150202786638
 20
-97.37369719108685
 30
0.0
  0
VERTEX
  5
88
330
45
100
AcDbEntity
  8
Calque 1
370
     0
100
AcDbVertex
100
AcDb2dVertex
 10
171.6150202786638
 20
-102.3736976768028
 30
0.0
  0
VERTEX
  5
89
330
45
100
AcDbEntity
  8
Calque 1
370
     0
100
AcDbVertex
100
AcDb2dVertex
 10
156.6150209746991
 20
-102.3736976768028
 30
0.0
  0
VERTEX
  5
8A
330
45
100
AcDbEntity
  8
Calque 1
370
     0
100
AcDbVertex
100
AcDb2dVertex
 10
156.6150209746991
 20
-89.87369646251337
 30
0.0
  0
VERTEX
  5
8B
330
45
100
AcDbEntity
  8
Calque 1
370
     0
100
AcDbVertex
100
AcDb2dVertex
 10
161.6150209221194
 20
-89.87369646251337
 30
0.0
  0
VERTEX
  5
8C
330
45
100
AcDbEntity
  8
Calque 1
370
     0
100
AcDbVertex
100
AcDb2dVertex
 10
161.6150209221194
 20
-77.37370386095536
 30
0.0
  0
VERTEX
  5
8D
330
45
100
AcDbEntity
  8
Calque 1
370
     0
100
AcDbVertex
100
AcDb2dVertex
 10
156.6150209746991
 20
-77.37370386095536
 30
0.0
  0
VERTEX
  5
8E
330
45
100
AcDbEntity
  8
Calque 1
370
     0
100
AcDbVertex
100
AcDb2dVertex
 10
156.6150209746991
 20
-67.37370288952405
 30
0.0
  0
VERTEX
  5
8F
330
45
100
AcDbEntity
  8
Calque 1
370
     0
100
AcDbVertex
100
AcDb2dVertex
 10
161.6150209221194
 20
-67.37370288952405
 30
0.0
  0
VERTEX
  5
90
330
45
100
AcDbEntity
  8
Calque 1
370
     0
100
AcDbVertex
100
AcDb2dVertex
 10
161.6150209221194
 20
-57.37370191809307
 30
0.0
  0
VERTEX
  5
91
330
45
100
AcDbEntity
  8
Calque 1
370
     0
100
AcDbVertex
100
AcDb2dVertex
 10
156.6150209746991
 20
-57.37370191809307
 30
0.0
  0
VERTEX
  5
92
330
45
100
AcDbEntity
  8
Calque 1
370
     0
100
AcDbVertex
100
AcDb2dVertex
 10
156.6150209746991
 20
-47.37370094666144
 30
0.0
  0
VERTEX
  5
93
330
45
100
AcDbEntity
  8
Calque 1
370
     0
100
AcDbVertex
100
AcDb2dVertex
 10
161.6150209221194
 20
-47.37370094666144
 30
0.0
  0
VERTEX
  5
94
330
45
100
AcDbEntity
  8
Calque 1
370
     0
100
AcDbVertex
100
AcDb2dVertex
 10
161.6150209221194
 20
-37.37370212841339
 30
0.0
  0
VERTEX
  5
95
330
45
100
AcDbEntity
  8
Calque 1
370
     0
100
AcDbVertex
100
AcDb2dVertex
 10
156.6150209746991
 20
-37.37370212841339
 30
0.0
  0
VERTEX
  5
96
330
45
100
AcDbEntity
  8
Calque 1
370
     0
100
AcDbVertex
100
AcDb2dVertex
 10
156.6150209746991
 20
-27.37370331016471
 30
0.0
  0
VERTEX
  5
97
330
45
100
AcDbEntity
  8
Calque 1
370
     0
100
AcDbVertex
100
AcDb2dVertex
 10
161.6150209221194
 20
-27.37370331016471
 30
0.0
  0
VERTEX
  5
98
330
45
100
AcDbEntity
  8
Calque 1
370
     0
100
AcDbVertex
100
AcDb2dVertex
 10
161.6150209221194
 20
-14.87370424905819
 30
0.0
  0
VERTEX
  5
99
330
45
100
AcDbEntity
  8
Calque 1
370
     0
100
AcDbVertex
100
AcDb2dVertex
 10
156.6150209746991
 20
-14.87370424905819
 30
0.0
  0
VERTEX
  5
9A
330
45
100
AcDbEntity
  8
Calque 1
370
     0
100
AcDbVertex
100
AcDb2dVertex
 10
156.6150209746991
 20
-2.37370518795168
 30
0.0
  0
SEQEND
  5
9B
330
45
100
AcDbEntity
  8
Calque 1
370
     0
  0
ENDBLK
  5
44
330
41
100
AcDbEntity
  8
0
100
AcDbBlockEnd
  0
BLOCK
  5
9E
330
9C
100
AcDbEntity
  8
0
100
AcDbBlockBegin
  2
block 3
 70
     0
 10
0.0
 20
0.0
 30
0.0
  3
block 3
  1

  0
POLYLINE
  5
A0
330
9C
100
AcDbEntity
  8
Calque 1
370
     0
100
AcDb2dPolyline
 66
     1
 10
0.0
 20
0.0
 30
0.0
  0
VERTEX
  5
A1
330
A0
100
AcDbEntity
  8
Calque 1
370
     0
100
AcDbVertex
100
AcDb2dVertex
 10
407.6435916401746
 20
-2.37370518795168
 30
0.0
  0
VERTEX
  5
A2
330
A0
100
AcDbEntity
  8
Calque 1
370
     0
100
AcDbVertex
100
AcDb2dVertex
 10
417.643590996719
 20
-2.37370518795168
 30
0.0
  0
VERTEX
  5
A3
330
A0
100
AcDbEntity
  8
Calque 1
370
     0
100
AcDbVertex
100
AcDb2dVertex
 10
417.643590996719
 20
-7.373705135371678
 30
0.0
  0
VERTEX
  5
A4
330
A0
100
AcDbEntity
  8
Calque 1
370
     0
100
AcDbVertex
100
AcDb2dVertex
 10
432.6435903006814
 20
-7.373705135371678
 30
0.0
  0
VERTEX
  5
A5
330
A0
100
AcDbEntity
  8
Calque 1
370
     0
100
AcDbVertex
100
AcDb2dVertex
 10
432.6435903006814
 20
-2.37370518795168
 30
0.0
  0
VERTEX
  5
A6
330
A0
100
AcDbEntity
  8
Calque 1
370
     0
100
AcDbVertex
100
AcDb2dVertex
 10
442.6435912721146
 20
-2.37370518795168
 30
0.0
  0
VERTEX
  5
A7
330
A0
100
AcDbEntity
  8
Calque 1
370
     0
100
AcDbVertex
100
AcDb2dVertex
 10
442.6435912721146
 20
-7.373705135371678
 30
0.0
  0
VERTEX
  5
A8
330
A0
100
AcDbEntity
  8
Calque 1
370
     0
100
AcDbVertex
100
AcDb2dVertex
 10
452.6435879371794
 20
-7.373705135371678
 30
0.0
  0
VERTEX
  5
A9
330
A0
100
AcDbEntity
  8
Calque 1
370
     0
100
AcDbVertex
100
AcDb2dVertex
 10
452.6435879371794
 20
-2.37370518795168
 30
0.0
  0
VERTEX
  5
AA
330
A0
100
AcDbEntity
  8
Calque 1
370
     0
100
AcDbVertex
100
AcDb2dVertex
 10
462.6435889086094
 20
-2.37370518795168
 30
0.0
  0
VERTEX
  5
AB
330
A0
100
AcDbEntity
  8
Calque 1
370
     0
100
AcDbVertex
100
AcDb2dVertex
 10
462.6435889086094
 20
-7.373705135371678
 30
0.0
  0
VERTEX
  5
AC
330
A0
100
AcDbEntity
  8
Calque 1
370
     0
100
AcDbVertex
100
AcDb2dVertex
 10
477.6435903657583
 20
-7.373705135371678
 30
0.0
  0
VERTEX
  5
AD
330
A0
100
AcDbEntity
  8
Calque 1
370
     0
100
AcDbVertex
100
AcDb2dVertex
 10
477.6435903657583
 20
-2.37370518795168
 30
0.0
  0
VERTEX
  5
AE
330
A0
100
AcDbEntity
  8
Calque 1
370
     0
100
AcDbVertex
100
AcDb2dVertex
 10
487.6435827244572
 20
-2.37370518795168
 30
0.0
  0
VERTEX
  5
AF
330
A0
100
AcDbEntity
  8
Calque 1
370
     0
100
AcDbVertex
100
AcDb2dVertex
 10
487.6435827244572
 20
-14.87370424905819
 30
0.0
  0
VERTEX
  5
B0
330
A0
100
AcDbEntity
  8
Calque 1
370
     0
100
AcDbVertex
100
AcDb2dVertex
 10
492.6435832101722
 20
-14.87370424905819
 30
0.0
  0
VERTEX
  5
B1
330
A0
100
AcDbEntity
  8
Calque 1
370
     0
100
AcDbVertex
100
AcDb2dVertex
 10
492.6435832101722
 20
-27.37370331016374
 30
0.0
  0
VERTEX
  5
B2
330
A0
100
AcDbEntity
  8
Calque 1
370
     0
100
AcDbVertex
100
AcDb2dVertex
 10
487.6435827244572
 20
-27.37370331016374
 30
0.0
  0
VERTEX
  5
B3
330
A0
100
AcDbEntity
  8
Calque 1
370
     0
100
AcDbVertex
100
AcDb2dVertex
 10
487.6435827244572
 20
-37.37370212841243
 30
0.0
  0
VERTEX
  5
B4
330
A0
100
AcDbEntity
  8
Calque 1
370
     0
100
AcDbVertex
100
AcDb2dVertex
 10
492.6435832101722
 20
-37.37370212841243
 30
0.0
  0
VERTEX
  5
B5
330
A0
100
AcDbEntity
  8
Calque 1
370
     0
100
AcDbVertex
100
AcDb2dVertex
 10
492.6435832101722
 20
-47.37370094666112
 30
0.0
  0
VERTEX
  5
B6
330
A0
100
AcDbEntity
  8
Calque 1
370
     0
100
AcDbVertex
100
AcDb2dVertex
 10
487.6435827244572
 20
-47.37370094666112
 30
0.0
  0
VERTEX
  5
B7
330
A0
100
AcDbEntity
  8
Calque 1
370
     0
100
AcDbVertex
100
AcDb2dVertex
 10
487.6435827244572
 20
-57.37370191809242
 30
0.0
  0
VERTEX
  5
B8
330
A0
100
AcDbEntity
  8
Calque 1
370
     0
100
AcDbVertex
100
AcDb2dVertex
 10
492.6435832101722
 20
-57.37370191809242
 30
0.0
  0
VERTEX
  5
B9
330
A0
100
AcDbEntity
  8
Calque 1
370
     0
100
AcDbVertex
100
AcDb2dVertex
 10
492.6435832101722
 20
-67.37370288952374
 30
0.0
  0
VERTEX
  5
BA
330
A0
100
AcDbEntity
  8
Calque 1
370
     0
100
AcDbVertex
100
AcDb2dVertex
 10
487.6435827244572
 20
-67.37370288952374
 30
0.0
  0
VERTEX
  5
BB
330
A0
100
AcDbEntity
  8
Calque 1
370
     0
100
AcDbVertex
100
AcDb2dVertex
 10
487.6435827244572
 20
-77.37370386095536
 30
0.0
  0
VERTEX
  5
BC
330
A0
100
AcDbEntity
  8
Calque 1
370
     0
100
AcDbVertex
100
AcDb2dVertex
 10
492.6435832101722
 20
-77.37370386095536
 30
0.0
  0
VERTEX
  5
BD
330
A0
100
AcDbEntity
  8
Calque 1
370
     0
100
AcDbVertex
100
AcDb2dVertex
 10
492.6435832101722
 20
-89.87369646251368
 30
0.0
  0
VERTEX
  5
BE
330
A0
100
AcDbEntity
  8
Calque 1
370
     0
100
AcDbVertex
100
AcDb2dVertex
 10
487.6435827244572
 20
-89.87369646251368
 30
0.0
  0
VERTEX
  5
BF
330
A0
100
AcDbEntity
  8
Calque 1
370
     0
100
AcDbVertex
100
AcDb2dVertex
 10
487.6435827244572
 20
-102.3736976768028
 30
0.0
  0
VERTEX
  5
C0
330
A0
100
AcDbEntity
  8
Calque 1
370
     0
100
AcDbVertex
100
AcDb2dVertex
 10
477.6435903657583
 20
-102.3736976768028
 30
0.0
  0
VERTEX
  5
C1
330
A0
100
AcDbEntity
  8
Calque 1
370
     0
100
AcDbVertex
100
AcDb2dVertex
 10
477.6435903657583
 20
-97.37369719108716
 30
0.0
  0
VERTEX
  5
C2
330
A0
100
AcDbEntity
  8
Calque 1
370
     0
100
AcDbVertex
100
AcDb2dVertex
 10
462.6435889086094
 20
-97.37369719108716
 30
0.0
  0
VERTEX
  5
C3
330
A0
100
AcDbEntity
  8
Calque 1
370
     0
100
AcDbVertex
100
AcDb2dVertex
 10
462.6435889086094
 20
-102.3736976768028
 30
0.0
  0
VERTEX
  5
C4
330
A0
100
AcDbEntity
  8
Calque 1
370
     0
100
AcDbVertex
100
AcDb2dVertex
 10
452.6435879371794
 20
-102.3736976768028
 30
0.0
  0
VERTEX
  5
C5
330
A0
100
AcDbEntity
  8
Calque 1
370
     0
100
AcDbVertex
100
AcDb2dVertex
 10
452.6435879371794
 20
-97.37369719108716
 30
0.0
  0
VERTEX
  5
C6
330
A0
100
AcDbEntity
  8
Calque 1
370
     0
100
AcDbVertex
100
AcDb2dVertex
 10
442.6435912721146
 20
-97.37369719108716
 30
0.0
  0
VERTEX
  5
C7
330
A0
100
AcDbEntity
  8
Calque 1
370
     0
100
AcDbVertex
100
AcDb2dVertex
 10
442.6435912721146
 20
-102.3736976768028
 30
0.0
  0
VERTEX
  5
C8
330
A0
100
AcDbEntity
  8
Calque 1
370
     0
100
AcDbVertex
100
AcDb2dVertex
 10
432.6435903006814
 20
-102.3736976768028
 30
0.0
  0
VERTEX
  5
C9
330
A0
100
AcDbEntity
  8
Calque 1
370
     0
100
AcDbVertex
100
AcDb2dVertex
 10
432.6435903006814
 20
-97.37369719108716
 30
0.0
  0
VERTEX
  5
CA
330
A0
100
AcDbEntity
  8
Calque 1
370
     0
100
AcDbVertex
100
AcDb2dVertex
 10
417.643590996719
 20
-97.37369719108716
 30
0.0
  0
VERTEX
  5
CB
330
A0
100
AcDbEntity
  8
Calque 1
370
     0
100
AcDbVertex
100
AcDb2dVertex
 10
417.643590996719
 20
-102.3736976768028
 30
0.0
  0
VERTEX
  5
CC
330
A0
100
AcDbEntity
  8
Calque 1
370
     0
100
AcDbVertex
100
AcDb2dVertex
 10
407.6435916401746
 20
-102.3736976768028
 30
0.0
  0
VERTEX
  5
CD
330
A0
100
AcDbEntity
  8
Calque 1
370
     0
100
AcDbVertex
100
AcDb2dVertex
 10
407.6435916401746
 20
-89.87369646251368
 30
0.0
  0
VERTEX
  5
CE
330
A0
100
AcDbEntity
  8
Calque 1
370
     0
100
AcDbVertex
100
AcDb2dVertex
 10
402.6435916927527
 20
-89.87369646251368
 30
0.0
  0
VERTEX
  5
CF
330
A0
100
AcDbEntity
  8
Calque 1
370
     0
100
AcDbVertex
100
AcDb2dVertex
 10
402.6435916927527
 20
-77.37370386095536
 30
0.0
  0
VERTEX
  5
D0
330
A0
100
AcDbEntity
  8
Calque 1
370
     0
100
AcDbVertex
100
AcDb2dVertex
 10
407.6435916401746
 20
-77.37370386095536
 30
0.0
  0
VERTEX
  5
D1
330
A0
100
AcDbEntity
  8
Calque 1
370
     0
100
AcDbVertex
100
AcDb2dVertex
 10
407.6435916401746
 20
-67.37370288952374
 30
0.0
  0
VERTEX
  5
D2
330
A0
100
AcDbEntity
  8
Calque 1
370
     0
100
AcDbVertex
100
AcDb2dVertex
 10
402.6435916927527
 20
-67.37370288952374
 30
0.0
  0
VERTEX
  5
D3
330
A0
100
AcDbEntity
  8
Calque 1
370
     0
100
AcDbVertex
100
AcDb2dVertex
 10
402.6435916927527
 20
-57.37370191809242
 30
0.0
  0
VERTEX
  5
D4
330
A0
100
AcDbEntity
  8
Calque 1
370
     0
100
AcDbVertex
100
AcDb2dVertex
 10
407.6435916401746
 20
-57.37370191809242
 30
0.0
  0
VERTEX
  5
D5
330
A0
100
AcDbEntity
  8
Calque 1
370
     0
100
AcDbVertex
100
AcDb2dVertex
 10
407.6435916401746
 20
-47.37370094666112
 30
0.0
  0
VERTEX
  5
D6
330
A0
100
AcDbEntity
  8
Calque 1
370
     0
100
AcDbVertex
100
AcDb2dVertex
 10
402.6435916927527
 20
-47.37370094666112
 30
0.0
  0
VERTEX
  5
D7
330
A0
100
AcDbEntity
  8
Calque 1
370
     0
100
AcDbVertex
100
AcDb2dVertex
 10
402.6435916927527
 20
-37.37370212841243
 30
0.0
  0
VERTEX
  5
D8
330
A0
100
AcDbEntity
  8
Calque 1
370
     0
100
AcDbVertex
100
AcDb2dVertex
 10
407.6435916401746
 20
-37.37370212841243
 30
0.0
  0
VERTEX
  5
D9
330
A0
100
AcDbEntity
  8
Calque 1
370
     0
100
AcDbVertex
100
AcDb2dVertex
 10
407.6435916401746
 20
-27.37370331016374
 30
0.0
  0
VERTEX
  5
DA
330
A0
100
AcDbEntity
  8
Calque 1
370
     0
100
AcDbVertex
100
AcDb2dVertex
 10
402.6435916927527
 20
-27.37370331016374
 30
0.0
  0
VERTEX
  5
DB
330
A0
100
AcDbEntity
  8
Calque 1
370
     0
100
AcDbVertex
100
AcDb2dVertex
 10
402.6435916927527
 20
-14.87370424905819
 30
0.0
  0
VERTEX
  5
DC
330
A0
100
AcDbEntity
  8
Calque 1
370
     0
100
AcDbVertex
100
AcDb2dVertex
 10
407.6435916401746
 20
-14.87370424905819
 30
0.0
  0
VERTEX
  5
DD
330
A0
100
AcDbEntity
  8
Calque 1
370
     0
100
AcDbVertex
100
AcDb2dVertex
 10
407.6435916401746
 20
-2.37370518795168
 30
0.0
  0
SEQEND
  5
DE
330
A0
100
AcDbEntity
  8
Calque 1
370
     0
  0
ENDBLK
  5
9F
330
9C
100
AcDbEntity
  8
0
100
AcDbBlockEnd
  0
BLOCK
  5
E1
330
DF
100
AcDbEntity
  8
0
100
AcDbBlockBegin
  2
block 4
 70
     0
 10
0.0
 20
0.0
 30
0.0
  3
block 4
  1

  0
INSERT
  5
E4
330
DF
100
AcDbEntity
  8
Calque 1
100
AcDbBlockReference
  2
block 5
 10
0.0
 20
0.0
 30
0.0
  0
SPLINE
  5
136
330
DF
100
AcDbEntity
  8
Calque 1
370
     0
100
AcDbSpline
210
0.0
220
0.0
230
1.0
 70
    11
 71
     3
 72
    17
 73
    13
 74
     0
 42
0.0000000001
 43
0.0000000001
 12
1.0
 22
0.0
 32
0.0
 13
1.0
 23
0.0
 33
0.0
 40
0.0
 40
0.0
 40
0.0
 40
0.0
 40
1.0
 40
1.0
 40
1.0
 40
2.0
 40
2.0
 40
2.0
 40
3.0
 40
3.0
 40
3.0
 40
4.0
 40
4.0
 40
4.0
 40
4.0
 10
630.203438468625
 20
-88.54398067859496
 30
0.0
 10
624.5563269033307
 20
-88.54398067859496
 30
0.0
 10
619.9784384711792
 20
-83.96608936273586
 30
0.0
 10
619.9784384711792
 20
-78.31897424020634
 30
0.0
 10
619.9784384711792
 20
-72.67185911768006
 30
0.0
 10
624.5563269033307
 20
-68.09396780181774
 30
0.0
 10
630.203438468625
 20
-68.09396780181774
 30
0.0
 10
635.8505500339168
 20
-68.09396780181774
 30
0.0
 10
640.4284384660676
 20
-72.67185911768006
 30
0.0
 10
640.4284384660676
 20
-78.31897424020634
 30
0.0
 10
640.4284384660676
 20
-83.96608936273586
 30
0.0
 10
635.8505500339168
 20
-88.54398067859496
 30
0.0
 10
630.203438468625
 20
-88.54398067859496
 30
0.0
  0
ENDBLK
  5
E2
330
DF
100
AcDbEntity
  8
0
100
AcDbBlockEnd
  0
BLOCK
  5
E5
330
E3
100
AcDbEntity
  8
0
100
AcDbBlockBegin
  2
block 5
 70
     0
 10
0.0
 20
0.0
 30
0.0
  3
block 5
  1

  0
POLYLINE
  5
E7
330
E3
100
AcDbEntity
  8
Calque 1
370
     0
100
AcDb2dPolyline
 66
     1
 10
0.0
 20
0.0
 30
0.0
  0
VERTEX
  5
E8
330
E7
100
AcDbEntity
  8
Calque 1
370
     0
100
AcDbVertex
100
AcDb2dVertex
 10
670.203434279911
 20
-8.318975514622986
 30
0.0
  0
VERTEX
  5
E9
330
E7
100
AcDbEntity
  8
Calque 1
370
     0
100
AcDbVertex
100
AcDb2dVertex
 10
670.203434279911
 20
-18.31897487116668
 30
0.0
  0
VERTEX
  5
EA
330
E7
100
AcDbEntity
  8
Calque 1
370
     0
100
AcDbVertex
100
AcDb2dVertex
 10
675.2034342273336
 20
-18.31897487116668
 30
0.0
  0
VERTEX
  5
EB
330
E7
100
AcDbEntity
  8
Calque 1
370
     0
100
AcDbVertex
100
AcDb2dVertex
 10
675.2034342273336
 20
-33.3189741751291
 30
0.0
  0
VERTEX
  5
EC
330
E7
100
AcDbEntity
  8
Calque 1
370
     0
100
AcDbVertex
100
AcDb2dVertex
 10
670.203434279911
 20
-33.3189741751291
 30
0.0
  0
VERTEX
  5
ED
330
E7
100
AcDbEntity
  8
Calque 1
370
     0
100
AcDbVertex
100
AcDb2dVertex
 10
670.203434279911
 20
-43.31897514656298
 30
0.0
  0
VERTEX
  5
EE
330
E7
100
AcDbEntity
  8
Calque 1
370
     0
100
AcDbVertex
100
AcDb2dVertex
 10
675.2034342273336
 20
-43.31897514656298
 30
0.0
  0
VERTEX
  5
EF
330
E7
100
AcDbEntity
  8
Calque 1
370
     0
100
AcDbVertex
100
AcDb2dVertex
 10
675.2034342273336
 20
-53.31897181162775
 30
0.0
  0
VERTEX
  5
F0
330
E7
100
AcDbEntity
  8
Calque 1
370
     0
100
AcDbVertex
100
AcDb2dVertex
 10
670.203434279911
 20
-53.31897181162775
 30
0.0
  0
VERTEX
  5
F1
330
E7
100
AcDbEntity
  8
Calque 1
370
     0
100
AcDbVertex
100
AcDb2dVertex
 10
670.203434279911
 20
-63.31897278305778
 30
0.0
  0
VERTEX
  5
F2
330
E7
100
AcDbEntity
  8
Calque 1
370
     0
100
AcDbVertex
100
AcDb2dVertex
 10
675.2034342273336
 20
-63.31897278305778
 30
0.0
  0
VERTEX
  5
F3
330
E7
100
AcDbEntity
  8
Calque 1
370
     0
100
AcDbVertex
100
AcDb2dVertex
 10
675.2034342273336
 20
-73.31896944812577
 30
0.0
  0
VERTEX
  5
F4
330
E7
100
AcDbEntity
  8
Calque 1
370
     0
100
AcDbVertex
100
AcDb2dVertex
 10
670.203434279911
 20
-73.31896944812577
 30
0.0
  0
VERTEX
  5
F5
330
E7
100
AcDbEntity
  8
Calque 1
370
     0
100
AcDbVertex
100
AcDb2dVertex
 10
670.203434279911
 20
-83.31897472592136
 30
0.0
  0
VERTEX
  5
F6
330
E7
100
AcDbEntity
  8
Calque 1
370
     0
100
AcDbVertex
100
AcDb2dVertex
 10
675.2034342273336
 20
-83.31897472592136
 30
0.0
  0
VERTEX
  5
F7
330
E7
100
AcDbEntity
  8
Calque 1
370
     0
100
AcDbVertex
100
AcDb2dVertex
 10
675.2034342273336
 20
-93.31896708462057
 30
0.0
  0
VERTEX
  5
F8
330
E7
100
AcDbEntity
  8
Calque 1
370
     0
100
AcDbVertex
100
AcDb2dVertex
 10
670.203434279911
 20
-93.31896708462057
 30
0.0
  0
VERTEX
  5
F9
330
E7
100
AcDbEntity
  8
Calque 1
370
     0
100
AcDbVertex
100
AcDb2dVertex
 10
670.203434279911
 20
-103.3189680560544
 30
0.0
  0
VERTEX
  5
FA
330
E7
100
AcDbEntity
  8
Calque 1
370
     0
100
AcDbVertex
100
AcDb2dVertex
 10
675.2034342273336
 20
-103.3189680560544
 30
0.0
  0
VERTEX
  5
FB
330
E7
100
AcDbEntity
  8
Calque 1
370
     0
100
AcDbVertex
100
AcDb2dVertex
 10
675.2034342273336
 20
-113.3189690274845
 30
0.0
  0
VERTEX
  5
FC
330
E7
100
AcDbEntity
  8
Calque 1
370
     0
100
AcDbVertex
100
AcDb2dVertex
 10
670.203434279911
 20
-113.3189690274845
 30
0.0
  0
VERTEX
  5
FD
330
E7
100
AcDbEntity
  8
Calque 1
370
     0
100
AcDbVertex
100
AcDb2dVertex
 10
670.203434279911
 20
-123.3189699989145
 30
0.0
  0
VERTEX
  5
FE
330
E7
100
AcDbEntity
  8
Calque 1
370
     0
100
AcDbVertex
100
AcDb2dVertex
 10
675.2034342273336
 20
-123.3189699989145
 30
0.0
  0
VERTEX
  5
FF
330
E7
100
AcDbEntity
  8
Calque 1
370
     0
100
AcDbVertex
100
AcDb2dVertex
 10
675.2034342273336
 20
-138.3189714560627
 30
0.0
  0
VERTEX
  5
100
330
E7
100
AcDbEntity
  8
Calque 1
370
     0
100
AcDbVertex
100
AcDb2dVertex
 10
670.203434279911
 20
-138.3189714560627
 30
0.0
  0
VERTEX
  5
101
330
E7
100
AcDbEntity
  8
Calque 1
370
     0
100
AcDbVertex
100
AcDb2dVertex
 10
670.203434279911
 20
-148.3189724274928
 30
0.0
  0
VERTEX
  5
102
330
E7
100
AcDbEntity
  8
Calque 1
370
     0
100
AcDbVertex
100
AcDb2dVertex
 10
660.2034349233672
 20
-148.3189724274928
 30
0.0
  0
VERTEX
  5
103
330
E7
100
AcDbEntity
  8
Calque 1
370
     0
100
AcDbVertex
100
AcDb2dVertex
 10
660.2034349233672
 20
-153.3189729132116
 30
0.0
  0
VERTEX
  5
104
330
E7
100
AcDbEntity
  8
Calque 1
370
     0
100
AcDbVertex
100
AcDb2dVertex
 10
645.2034356194048
 20
-153.3189729132116
 30
0.0
  0
VERTEX
  5
105
330
E7
100
AcDbEntity
  8
Calque 1
370
     0
100
AcDbVertex
100
AcDb2dVertex
 10
645.2034356194048
 20
-148.3189724274928
 30
0.0
  0
VERTEX
  5
106
330
E7
100
AcDbEntity
  8
Calque 1
370
     0
100
AcDbVertex
100
AcDb2dVertex
 10
635.2034346479716
 20
-148.3189724274928
 30
0.0
  0
VERTEX
  5
107
330
E7
100
AcDbEntity
  8
Calque 1
370
     0
100
AcDbVertex
100
AcDb2dVertex
 10
635.2034346479716
 20
-153.3189729132116
 30
0.0
  0
VERTEX
  5
108
330
E7
100
AcDbEntity
  8
Calque 1
370
     0
100
AcDbVertex
100
AcDb2dVertex
 10
625.2034379829068
 20
-153.3189729132116
 30
0.0
  0
VERTEX
  5
109
330
E7
100
AcDbEntity
  8
Calque 1
370
     0
100
AcDbVertex
100
AcDb2dVertex
 10
625.2034379829068
 20
-148.3189724274928
 30
0.0
  0
VERTEX
  5
10A
330
E7
100
AcDbEntity
  8
Calque 1
370
     0
100
AcDbVertex
100
AcDb2dVertex
 10
615.2034370114768
 20
-148.3189724274928
 30
0.0
  0
VERTEX
  5
10B
330
E7
100
AcDbEntity
  8
Calque 1
370
     0
100
AcDbVertex
100
AcDb2dVertex
 10
615.2034370114768
 20
-153.3189729132116
 30
0.0
  0
VERTEX
  5
10C
330
E7
100
AcDbEntity
  8
Calque 1
370
     0
100
AcDbVertex
100
AcDb2dVertex
 10
600.2034355543318
 20
-153.3189729132116
 30
0.0
  0
VERTEX
  5
10D
330
E7
100
AcDbEntity
  8
Calque 1
370
     0
100
AcDbVertex
100
AcDb2dVertex
 10
600.2034355543318
 20
-148.3189724274928
 30
0.0
  0
VERTEX
  5
10E
330
E7
100
AcDbEntity
  8
Calque 1
370
     0
100
AcDbVertex
100
AcDb2dVertex
 10
590.203443195629
 20
-148.3189724274928
 30
0.0
  0
VERTEX
  5
10F
330
E7
100
AcDbEntity
  8
Calque 1
370
     0
100
AcDbVertex
100
AcDb2dVertex
 10
590.203443195629
 20
-138.3189714560627
 30
0.0
  0
VERTEX
  5
110
330
E7
100
AcDbEntity
  8
Calque 1
370
     0
100
AcDbVertex
100
AcDb2dVertex
 10
585.203442709914
 20
-138.3189714560627
 30
0.0
  0
VERTEX
  5
111
330
E7
100
AcDbEntity
  8
Calque 1
370
     0
100
AcDbVertex
100
AcDb2dVertex
 10
585.203442709914
 20
-123.3189699989145
 30
0.0
  0
VERTEX
  5
112
330
E7
100
AcDbEntity
  8
Calque 1
370
     0
100
AcDbVertex
100
AcDb2dVertex
 10
590.203443195629
 20
-123.3189699989145
 30
0.0
  0
VERTEX
  5
113
330
E7
100
AcDbEntity
  8
Calque 1
370
     0
100
AcDbVertex
100
AcDb2dVertex
 10
590.203443195629
 20
-113.3189690274845
 30
0.0
  0
VERTEX
  5
114
330
E7
100
AcDbEntity
  8
Calque 1
370
     0
100
AcDbVertex
100
AcDb2dVertex
 10
585.203442709914
 20
-113.3189690274845
 30
0.0
  0
VERTEX
  5
115
330
E7
100
AcDbEntity
  8
Calque 1
370
     0
100
AcDbVertex
100
AcDb2dVertex
 10
585.203442709914
 20
-103.3189680560544
 30
0.0
  0
VERTEX
  5
116
330
E7
100
AcDbEntity
  8
Calque 1
370
     0
100
AcDbVertex
100
AcDb2dVertex
 10
590.203443195629
 20
-103.3189680560544
 30
0.0
  0
VERTEX
  5
117
330
E7
100
AcDbEntity
  8
Calque 1
370
     0
100
AcDbVertex
100
AcDb2dVertex
 10
590.203443195629
 20
-93.31896708462057
 30
0.0
  0
VERTEX
  5
118
330
E7
100
AcDbEntity
  8
Calque 1
370
     0
100
AcDbVertex
100
AcDb2dVertex
 10
585.203442709914
 20
-93.31896708462057
 30
0.0
  0
VERTEX
  5
119
330
E7
100
AcDbEntity
  8
Calque 1
370
     0
100
AcDbVertex
100
AcDb2dVertex
 10
585.203442709914
 20
-83.31897472592136
 30
0.0
  0
VERTEX
  5
11A
330
E7
100
AcDbEntity
  8
Calque 1
370
     0
100
AcDbVertex
100
AcDb2dVertex
 10
590.203443195629
 20
-83.31897472592136
 30
0.0
  0
VERTEX
  5
11B
330
E7
100
AcDbEntity
  8
Calque 1
370
     0
100
AcDbVertex
100
AcDb2dVertex
 10
590.203443195629
 20
-73.31896944812577
 30
0.0
  0
VERTEX
  5
11C
330
E7
100
AcDbEntity
  8
Calque 1
370
     0
100
AcDbVertex
100
AcDb2dVertex
 10
585.203442709914
 20
-73.31896944812577
 30
0.0
  0
VERTEX
  5
11D
330
E7
100
AcDbEntity
  8
Calque 1
370
     0
100
AcDbVertex
100
AcDb2dVertex
 10
585.203442709914
 20
-63.31897278305778
 30
0.0
  0
VERTEX
  5
11E
330
E7
100
AcDbEntity
  8
Calque 1
370
     0
100
AcDbVertex
100
AcDb2dVertex
 10
590.203443195629
 20
-63.31897278305778
 30
0.0
  0
VERTEX
  5
11F
330
E7
100
AcDbEntity
  8
Calque 1
370
     0
100
AcDbVertex
100
AcDb2dVertex
 10
590.203443195629
 20
-53.31897181162775
 30
0.0
  0
VERTEX
  5
120
330
E7
100
AcDbEntity
  8
Calque 1
370
     0
100
AcDbVertex
100
AcDb2dVertex
 10
585.203442709914
 20
-53.31897181162775
 30
0.0
  0
VERTEX
  5
121
330
E7
100
AcDbEntity
  8
Calque 1
370
     0
100
AcDbVertex
100
AcDb2dVertex
 10
585.203442709914
 20
-43.31897514656298
 30
0.0
  0
VERTEX
  5
122
330
E7
100
AcDbEntity
  8
Calque 1
370
     0
100
AcDbVertex
100
AcDb2dVertex
 10
590.203443195629
 20
-43.31897514656298
 30
0.0
  0
VERTEX
  5
123
330
E7
100
AcDbEntity
  8
Calque 1
370
     0
100
AcDbVertex
100
AcDb2dVertex
 10
590.203443195629
 20
-33.3189741751291
 30
0.0
  0
VERTEX
  5
124
330
E7
100
AcDbEntity
  8
Calque 1
370
     0
100
AcDbVertex
100
AcDb2dVertex
 10
585.203442709914
 20
-33.3189741751291
 30
0.0
  0
VERTEX
  5
125
330
E7
100
AcDbEntity
  8
Calque 1
370
     0
100
AcDbVertex
100
AcDb2dVertex
 10
585.203442709914
 20
-18.31897487116668
 30
0.0
  0
VERTEX
  5
126
330
E7
100
AcDbEntity
  8
Calque 1
370
     0
100
AcDbVertex
100
AcDb2dVertex
 10
590.203443195629
 20
-18.31897487116668
 30
0.0
  0
VERTEX
  5
127
330
E7
100
AcDbEntity
  8
Calque 1
370
     0
100
AcDbVertex
100
AcDb2dVertex
 10
590.203443195629
 20
-8.318975514622986
 30
0.0
  0
VERTEX
  5
128
330
E7
100
AcDbEntity
  8
Calque 1
370
     0
100
AcDbVertex
100
AcDb2dVertex
 10
600.2034355543318
 20
-8.318975514622986
 30
0.0
  0
VERTEX
  5
129
330
E7
100
AcDbEntity
  8
Calque 1
370
     0
100
AcDbVertex
100
AcDb2dVertex
 10
600.2034355543318
 20
-3.318975567201062
 30
0.0
  0
VERTEX
  5
12A
330
E7
100
AcDbEntity
  8
Calque 1
370
     0
100
AcDbVertex
100
AcDb2dVertex
 10
615.2034370114768
 20
-3.318975567201062
 30
0.0
  0
VERTEX
  5
12B
330
E7
100
AcDbEntity
  8
Calque 1
370
     0
100
AcDbVertex
100
AcDb2dVertex
 10
615.2034370114768
 20
-8.318975514622986
 30
0.0
  0
VERTEX
  5
12C
330
E7
100
AcDbEntity
  8
Calque 1
370
     0
100
AcDbVertex
100
AcDb2dVertex
 10
625.2034379829068
 20
-8.318975514622986
 30
0.0
  0
VERTEX
  5
12D
330
E7
100
AcDbEntity
  8
Calque 1
370
     0
100
AcDbVertex
100
AcDb2dVertex
 10
625.2034379829068
 20
-3.318975567201062
 30
0.0
  0
VERTEX
  5
12E
330
E7
100
AcDbEntity
  8
Calque 1
370
     0
100
AcDbVertex
100
AcDb2dVertex
 10
635.2034346479716
 20
-3.318975567201062
 30
0.0
  0
VERTEX
  5
12F
330
E7
100
AcDbEntity
  8
Calque 1
370
     0
100
AcDbVertex
100
AcDb2dVertex
 10
635.2034346479716
 20
-8.318975514622986
 30
0.0
  0
VERTEX
  5
130
330
E7
100
AcDbEntity
  8
Calque 1
370
     0
100
AcDbVertex
100
AcDb2dVertex
 10
645.2034356194048
 20
-8.318975514622986
 30
0.0
  0
VERTEX
  5
131
330
E7
100
AcDbEntity
  8
Calque 1
370
     0
100
AcDbVertex
100
AcDb2dVertex
 10
645.2034356194048
 20
-3.318975567201062
 30
0.0
  0
VERTEX
  5
132
330
E7
100
AcDbEntity
  8
Calque 1
370
     0
100
AcDbVertex
100
AcDb2dVertex
 10
660.2034349233672
 20
-3.318975567201062
 30
0.0
  0
VERTEX
  5
133
330
E7
100
AcDbEntity
  8
Calque 1
370
     0
100
AcDbVertex
100
AcDb2dVertex
 10
660.2034349233672
 20
-8.318975514622986
 30
0.0
  0
VERTEX
  5
134
330
E7
100
AcDbEntity
  8
Calque 1
370
     0
100
AcDbVertex
100
AcDb2dVertex
 10
670.203434279911
 20
-8.318975514622986
 30
0.0
  0
SEQEND
  5
135
330
E7
100
AcDbEntity
  8
Calque 1
370
     0
  0
ENDBLK
  5
E6
330
E3
100
AcDbEntity
  8
0
100
AcDbBlockEnd
  0
BLOCK
  5
139
330
137
100
AcDbEntity
  8
0
100
AcDbBlockBegin
  2
block 6
 70
     0
 10
0.0
 20
0.0
 30
0.0
  3
block 6
  1

  0
INSERT
  5
13C
330
137
100
AcDbEntity
  8
Calque 1
100
AcDbBlockReference
  2
block 7
 10
0.0
 20
0.0
 30
0.0
  0
SPLINE
  5
18E
330
137
100
AcDbEntity
  8
Calque 1
370
     0
100
AcDbSpline
210
0.0
220
0.0
230
1.0
 70
    11
 71
     3
 72
    17
 73
    13
 74
     0
 42
0.0000000001
 43
0.0000000001
 12
1.0
 22
0.0
 32
0.0
 13
1.0
 23
0.0
 33
0.0
 40
0.0
 40
0.0
 40
0.0
 40
0.0
 40
1.0
 40
1.0
 40
1.0
 40
2.0
 40
2.0
 40
2.0
 40
3.0
 40
3.0
 40
3.0
 40
4.0
 40
4.0
 40
4.0
 40
4.0
 10
539.4430834826596
 20
-76.71894808873732
 30
0.0
 10
539.4430834826596
 20
-77.6026581443978
 30
0.0
 10
538.7268050675839
 20
-78.31897424020634
 30
0.0
 10
537.8430950119244
 20
-78.31897424020634
 30
0.0
 10
536.9593849562617
 20
-78.31897424020634
 30
0.0
 10
536.2431065411853
 20
-77.6026581443978
 30
0.0
 10
536.2431065411853
 20
-76.71894808873732
 30
0.0
 10
536.2431065411853
 20
-75.83527571380904
 30
0.0
 10
536.9593849562617
 20
-75.11895961800018
 30
0.0
 10
537.8430950119244
 20
-75.11895961800018
 30
0.0
 10
538.7268050675839
 20
-75.11895961800018
 30
0.0
 10
539.4430834826596
 20
-75.83527571380904
 30
0.0
 10
539.4430834826596
 20
-76.71894808873732
 30
0.0
  0
SPLINE
  5
18F
330
137
100
AcDbEntity
  8
Calque 1
370
     0
100
AcDbSpline
210
0.0
220
0.0
230
1.0
 70
    11
 71
     3
 72
    17
 73
    13
 74
     0
 42
0.0000000001
 43
0.0000000001
 12
1.0
 22
0.0
 32
0.0
 13
1.0
 23
0.0
 33
0.0
 40
0.0
 40
0.0
 40
0.0
 40
0.0
 40
1.0
 40
1.0
 40
1.0
 40
2.0
 40
2.0
 40
2.0
 40
3.0
 40
3.0
 40
3.0
 40
4.0
 40
4.0
 40
4.0
 40
4.0
 10
511.5030791832759
 20
-76.71894808873732
 30
0.0
 10
511.5030791832759
 20
-77.6026581443978
 30
0.0
 10
510.7868007681996
 20
-78.31897424020634
 30
0.0
 10
509.9030907125407
 20
-78.31897424020634
 30
0.0
 10
509.019380656878
 20
-78.31897424020634
 30
0.0
 10
508.3031022418016
 20
-77.6026581443978
 30
0.0
 10
508.3031022418016
 20
-76.71894808873732
 30
0.0
 10
508.3031022418016
 20
-75.83527571380904
 30
0.0
 10
509.019380656878
 20
-75.11895961800018
 30
0.0
 10
509.9030907125407
 20
-75.11895961800018
 30
0.0
 10
510.7868007681996
 20
-75.11895961800018
 30
0.0
 10
511.5030791832759
 20
-75.83527571380904
 30
0.0
 10
511.5030791832759
 20
-76.71894808873732
 30
0.0
  0
SPLINE
  5
190
330
137
100
AcDbEntity
  8
Calque 1
370
     0
100
AcDbSpline
210
0.0
220
0.0
230
1.0
 70
    11
 71
     3
 72
    17
 73
    13
 74
     0
 42
0.0000000001
 43
0.0000000001
 12
1.0
 22
0.0
 32
0.0
 13
1.0
 23
0.0
 33
0.0
 40
0.0
 40
0.0
 40
0.0
 40
0.0
 40
1.0
 40
1.0
 40
1.0
 40
2.0
 40
2.0
 40
2.0
 40
3.0
 40
3.0
 40
3.0
 40
4.0
 40
4.0
 40
4.0
 40
4.0
 10
506.4230813377319
 20
-24.64905629928491
 30
0.0
 10
506.4230813377319
 20
-25.53276366346421
 30
0.0
 10
505.7068029226523
 20
-26.24904477002206
 30
0.0
 10
504.8230928669934
 20
-26.24904477002206
 30
0.0
 10
503.9393828113339
 20
-26.24904477002206
 30
0.0
 10
503.2231043962576
 20
-25.53276366346421
 30
0.0
 10
503.2231043962576
 20
-24.64905629928491
 30
0.0
 10
503.2231043962576
 20
-23.76534624362476
 30
0.0
 10
503.9393828113339
 20
-23.04906782854775
 30
0.0
 10
504.8230928669934
 20
-23.04906782854775
 30
0.0
 10
505.7068029226523
 20
-23.04906782854775
 30
0.0
 10
506.4230813377319
 20
-23.76534624362476
 30
0.0
 10
506.4230813377319
 20
-24.64905629928491
 30
0.0
  0
ENDBLK
  5
13A
330
137
100
AcDbEntity
  8
0
100
AcDbBlockEnd
  0
BLOCK
  5
13D
330
13B
100
AcDbEntity
  8
0
100
AcDbBlockBegin
  2
block 7
 70
     0
 10
0.0
 20
0.0
 30
0.0
  3
block 7
  1

  0
POLYLINE
  5
13F
330
13B
100
AcDbEntity
  8
Calque 1
370
     0
100
AcDb2dPolyline
 66
     1
 10
0.0
 20
0.0
 30
0.0
  0
VERTEX
  5
140
330
13F
100
AcDbEntity
  8
Calque 1
370
     0
100
AcDbVertex
100
AcDb2dVertex
 10
578.9235087713306
 20
-7.373705135371678
 30
0.0
  0
VERTEX
  5
141
330
13F
100
AcDbEntity
  8
Calque 1
370
     0
100
AcDbVertex
100
AcDb2dVertex
 10
578.9235087713306
 20
-17.37370449191602
 30
0.0
  0
VERTEX
  5
142
330
13F
100
AcDbEntity
  8
Calque 1
370
     0
100
AcDbVertex
100
AcDb2dVertex
 10
583.9235087187526
 20
-17.37370449191602
 30
0.0
  0
VERTEX
  5
143
330
13F
100
AcDbEntity
  8
Calque 1
370
     0
100
AcDbVertex
100
AcDb2dVertex
 10
583.9235087187526
 20
-32.37370379587972
 30
0.0
  0
VERTEX
  5
144
330
13F
100
AcDbEntity
  8
Calque 1
370
     0
100
AcDbVertex
100
AcDb2dVertex
 10
578.9235087713306
 20
-32.37370379587972
 30
0.0
  0
VERTEX
  5
145
330
13F
100
AcDbEntity
  8
Calque 1
370
     0
100
AcDbVertex
100
AcDb2dVertex
 10
578.9235087713306
 20
-42.37370476731103
 30
0.0
  0
VERTEX
  5
146
330
13F
100
AcDbEntity
  8
Calque 1
370
     0
100
AcDbVertex
100
AcDb2dVertex
 10
583.9235087187526
 20
-42.37370476731103
 30
0.0
  0
VERTEX
  5
147
330
13F
100
AcDbEntity
  8
Calque 1
370
     0
100
AcDbVertex
100
AcDb2dVertex
 10
583.9235087187526
 20
-52.37370143237741
 30
0.0
  0
VERTEX
  5
148
330
13F
100
AcDbEntity
  8
Calque 1
370
     0
100
AcDbVertex
100
AcDb2dVertex
 10
578.9235087713306
 20
-52.37370143237741
 30
0.0
  0
VERTEX
  5
149
330
13F
100
AcDbEntity
  8
Calque 1
370
     0
100
AcDbVertex
100
AcDb2dVertex
 10
578.9235087713306
 20
-62.3737024038084
 30
0.0
  0
VERTEX
  5
14A
330
13F
100
AcDbEntity
  8
Calque 1
370
     0
100
AcDbVertex
100
AcDb2dVertex
 10
583.9235087187526
 20
-62.3737024038084
 30
0.0
  0
VERTEX
  5
14B
330
13F
100
AcDbEntity
  8
Calque 1
370
     0
100
AcDbVertex
100
AcDb2dVertex
 10
583.9235087187526
 20
-72.37369906887446
 30
0.0
  0
VERTEX
  5
14C
330
13F
100
AcDbEntity
  8
Calque 1
370
     0
100
AcDbVertex
100
AcDb2dVertex
 10
578.9235087713306
 20
-72.37369906887446
 30
0.0
  0
VERTEX
  5
14D
330
13F
100
AcDbEntity
  8
Calque 1
370
     0
100
AcDbVertex
100
AcDb2dVertex
 10
578.9235087713306
 20
-82.37370434667102
 30
0.0
  0
VERTEX
  5
14E
330
13F
100
AcDbEntity
  8
Calque 1
370
     0
100
AcDbVertex
100
AcDb2dVertex
 10
583.9235087187526
 20
-82.37370434667102
 30
0.0
  0
VERTEX
  5
14F
330
13F
100
AcDbEntity
  8
Calque 1
370
     0
100
AcDbVertex
100
AcDb2dVertex
 10
583.9235087187526
 20
-92.37369670537119
 30
0.0
  0
VERTEX
  5
150
330
13F
100
AcDbEntity
  8
Calque 1
370
     0
100
AcDbVertex
100
AcDb2dVertex
 10
578.9235087713306
 20
-92.37369670537119
 30
0.0
  0
VERTEX
  5
151
330
13F
100
AcDbEntity
  8
Calque 1
370
     0
100
AcDbVertex
100
AcDb2dVertex
 10
578.9235087713306
 20
-102.3736976768031
 30
0.0
  0
VERTEX
  5
152
330
13F
100
AcDbEntity
  8
Calque 1
370
     0
100
AcDbVertex
100
AcDb2dVertex
 10
583.9235087187526
 20
-102.3736976768031
 30
0.0
  0
VERTEX
  5
153
330
13F
100
AcDbEntity
  8
Calque 1
370
     0
100
AcDbVertex
100
AcDb2dVertex
 10
583.9235087187526
 20
-112.3736986482338
 30
0.0
  0
VERTEX
  5
154
330
13F
100
AcDbEntity
  8
Calque 1
370
     0
100
AcDbVertex
100
AcDb2dVertex
 10
578.9235087713306
 20
-112.3736986482338
 30
0.0
  0
VERTEX
  5
155
330
13F
100
AcDbEntity
  8
Calque 1
370
     0
100
AcDbVertex
100
AcDb2dVertex
 10
578.9235087713306
 20
-122.3736996196651
 30
0.0
  0
VERTEX
  5
156
330
13F
100
AcDbEntity
  8
Calque 1
370
     0
100
AcDbVertex
100
AcDb2dVertex
 10
583.9235087187526
 20
-122.3736996196651
 30
0.0
  0
VERTEX
  5
157
330
13F
100
AcDbEntity
  8
Calque 1
370
     0
100
AcDbVertex
100
AcDb2dVertex
 10
583.9235087187526
 20
-137.3737010768108
 30
0.0
  0
VERTEX
  5
158
330
13F
100
AcDbEntity
  8
Calque 1
370
     0
100
AcDbVertex
100
AcDb2dVertex
 10
578.9235087713306
 20
-137.3737010768108
 30
0.0
  0
VERTEX
  5
159
330
13F
100
AcDbEntity
  8
Calque 1
370
     0
100
AcDbVertex
100
AcDb2dVertex
 10
578.9235087713306
 20
-147.373702048244
 30
0.0
  0
VERTEX
  5
15A
330
13F
100
AcDbEntity
  8
Calque 1
370
     0
100
AcDbVertex
100
AcDb2dVertex
 10
568.923509414787
 20
-147.373702048244
 30
0.0
  0
VERTEX
  5
15B
330
13F
100
AcDbEntity
  8
Calque 1
370
     0
100
AcDbVertex
100
AcDb2dVertex
 10
568.923509414787
 20
-152.3737025339591
 30
0.0
  0
VERTEX
  5
15C
330
13F
100
AcDbEntity
  8
Calque 1
370
     0
100
AcDbVertex
100
AcDb2dVertex
 10
553.9235101108245
 20
-152.3737025339591
 30
0.0
  0
VERTEX
  5
15D
330
13F
100
AcDbEntity
  8
Calque 1
370
     0
100
AcDbVertex
100
AcDb2dVertex
 10
553.9235101108245
 20
-147.373702048244
 30
0.0
  0
VERTEX
  5
15E
330
13F
100
AcDbEntity
  8
Calque 1
370
     0
100
AcDbVertex
100
AcDb2dVertex
 10
543.9235091393945
 20
-147.373702048244
 30
0.0
  0
VERTEX
  5
15F
330
13F
100
AcDbEntity
  8
Calque 1
370
     0
100
AcDbVertex
100
AcDb2dVertex
 10
543.9235091393945
 20
-152.3737025339591
 30
0.0
  0
VERTEX
  5
160
330
13F
100
AcDbEntity
  8
Calque 1
370
     0
100
AcDbVertex
100
AcDb2dVertex
 10
533.9235124743265
 20
-152.3737025339591
 30
0.0
  0
VERTEX
  5
161
330
13F
100
AcDbEntity
  8
Calque 1
370
     0
100
AcDbVertex
100
AcDb2dVertex
 10
533.9235124743265
 20
-147.373702048244
 30
0.0
  0
VERTEX
  5
162
330
13F
100
AcDbEntity
  8
Calque 1
370
     0
100
AcDbVertex
100
AcDb2dVertex
 10
523.9235115028964
 20
-147.373702048244
 30
0.0
  0
VERTEX
  5
163
330
13F
100
AcDbEntity
  8
Calque 1
370
     0
100
AcDbVertex
100
AcDb2dVertex
 10
523.9235115028964
 20
-152.3737025339591
 30
0.0
  0
VERTEX
  5
164
330
13F
100
AcDbEntity
  8
Calque 1
370
     0
100
AcDbVertex
100
AcDb2dVertex
 10
508.9235100457514
 20
-152.3737025339591
 30
0.0
  0
VERTEX
  5
165
330
13F
100
AcDbEntity
  8
Calque 1
370
     0
100
AcDbVertex
100
AcDb2dVertex
 10
508.9235100457514
 20
-147.373702048244
 30
0.0
  0
VERTEX
  5
166
330
13F
100
AcDbEntity
  8
Calque 1
370
     0
100
AcDbVertex
100
AcDb2dVertex
 10
498.9235176870487
 20
-147.373702048244
 30
0.0
  0
VERTEX
  5
167
330
13F
100
AcDbEntity
  8
Calque 1
370
     0
100
AcDbVertex
100
AcDb2dVertex
 10
498.9235176870487
 20
-137.3737010768108
 30
0.0
  0
VERTEX
  5
168
330
13F
100
AcDbEntity
  8
Calque 1
370
     0
100
AcDbVertex
100
AcDb2dVertex
 10
493.923517201333
 20
-137.3737010768108
 30
0.0
  0
VERTEX
  5
169
330
13F
100
AcDbEntity
  8
Calque 1
370
     0
100
AcDbVertex
100
AcDb2dVertex
 10
493.923517201333
 20
-122.3736996196651
 30
0.0
  0
VERTEX
  5
16A
330
13F
100
AcDbEntity
  8
Calque 1
370
     0
100
AcDbVertex
100
AcDb2dVertex
 10
498.9235176870487
 20
-122.3736996196651
 30
0.0
  0
VERTEX
  5
16B
330
13F
100
AcDbEntity
  8
Calque 1
370
     0
100
AcDbVertex
100
AcDb2dVertex
 10
498.9235176870487
 20
-112.3736986482338
 30
0.0
  0
VERTEX
  5
16C
330
13F
100
AcDbEntity
  8
Calque 1
370
     0
100
AcDbVertex
100
AcDb2dVertex
 10
493.923517201333
 20
-112.3736986482338
 30
0.0
  0
VERTEX
  5
16D
330
13F
100
AcDbEntity
  8
Calque 1
370
     0
100
AcDbVertex
100
AcDb2dVertex
 10
493.923517201333
 20
-102.3736976768031
 30
0.0
  0
VERTEX
  5
16E
330
13F
100
AcDbEntity
  8
Calque 1
370
     0
100
AcDbVertex
100
AcDb2dVertex
 10
498.9235176870487
 20
-102.3736976768031
 30
0.0
  0
VERTEX
  5
16F
330
13F
100
AcDbEntity
  8
Calque 1
370
     0
100
AcDbVertex
100
AcDb2dVertex
 10
498.9235176870487
 20
-92.37369670537119
 30
0.0
  0
VERTEX
  5
170
330
13F
100
AcDbEntity
  8
Calque 1
370
     0
100
AcDbVertex
100
AcDb2dVertex
 10
493.923517201333
 20
-92.37369670537119
 30
0.0
  0
VERTEX
  5
171
330
13F
100
AcDbEntity
  8
Calque 1
370
     0
100
AcDbVertex
100
AcDb2dVertex
 10
493.923517201333
 20
-82.37370434667102
 30
0.0
  0
VERTEX
  5
172
330
13F
100
AcDbEntity
  8
Calque 1
370
     0
100
AcDbVertex
100
AcDb2dVertex
 10
498.9235176870487
 20
-82.37370434667102
 30
0.0
  0
VERTEX
  5
173
330
13F
100
AcDbEntity
  8
Calque 1
370
     0
100
AcDbVertex
100
AcDb2dVertex
 10
498.9235176870487
 20
-72.37369906887446
 30
0.0
  0
VERTEX
  5
174
330
13F
100
AcDbEntity
  8
Calque 1
370
     0
100
AcDbVertex
100
AcDb2dVertex
 10
493.923517201333
 20
-72.37369906887446
 30
0.0
  0
VERTEX
  5
175
330
13F
100
AcDbEntity
  8
Calque 1
370
     0
100
AcDbVertex
100
AcDb2dVertex
 10
493.923517201333
 20
-62.3737024038084
 30
0.0
  0
VERTEX
  5
176
330
13F
100
AcDbEntity
  8
Calque 1
370
     0
100
AcDbVertex
100
AcDb2dVertex
 10
498.9235176870487
 20
-62.3737024038084
 30
0.0
  0
VERTEX
  5
177
330
13F
100
AcDbEntity
  8
Calque 1
370
     0
100
AcDbVertex
100
AcDb2dVertex
 10
498.9235176870487
 20
-52.37370143237741
 30
0.0
  0
VERTEX
  5
178
330
13F
100
AcDbEntity
  8
Calque 1
370
     0
100
AcDbVertex
100
AcDb2dVertex
 10
493.923517201333
 20
-52.37370143237741
 30
0.0
  0
VERTEX
  5
179
330
13F
100
AcDbEntity
  8
Calque 1
370
     0
100
AcDbVertex
100
AcDb2dVertex
 10
493.923517201333
 20
-42.37370476731103
 30
0.0
  0
VERTEX
  5
17A
330
13F
100
AcDbEntity
  8
Calque 1
370
     0
100
AcDbVertex
100
AcDb2dVertex
 10
498.9235176870487
 20
-42.37370476731103
 30
0.0
  0
VERTEX
  5
17B
330
13F
100
AcDbEntity
  8
Calque 1
370
     0
100
AcDbVertex
100
AcDb2dVertex
 10
498.9235176870487
 20
-32.37370379587972
 30
0.0
  0
VERTEX
  5
17C
330
13F
100
AcDbEntity
  8
Calque 1
370
     0
100
AcDbVertex
100
AcDb2dVertex
 10
493.923517201333
 20
-32.37370379587972
 30
0.0
  0
VERTEX
  5
17D
330
13F
100
AcDbEntity
  8
Calque 1
370
     0
100
AcDbVertex
100
AcDb2dVertex
 10
493.923517201333
 20
-17.37370449191602
 30
0.0
  0
VERTEX
  5
17E
330
13F
100
AcDbEntity
  8
Calque 1
370
     0
100
AcDbVertex
100
AcDb2dVertex
 10
498.9235176870487
 20
-17.37370449191602
 30
0.0
  0
VERTEX
  5
17F
330
13F
100
AcDbEntity
  8
Calque 1
370
     0
100
AcDbVertex
100
AcDb2dVertex
 10
498.9235176870487
 20
-7.373705135371678
 30
0.0
  0
VERTEX
  5
180
330
13F
100
AcDbEntity
  8
Calque 1
370
     0
100
AcDbVertex
100
AcDb2dVertex
 10
508.9235100457514
 20
-7.373705135371678
 30
0.0
  0
VERTEX
  5
181
330
13F
100
AcDbEntity
  8
Calque 1
370
     0
100
AcDbVertex
100
AcDb2dVertex
 10
508.9235100457514
 20
-2.37370518795168
 30
0.0
  0
VERTEX
  5
182
330
13F
100
AcDbEntity
  8
Calque 1
370
     0
100
AcDbVertex
100
AcDb2dVertex
 10
523.9235115028964
 20
-2.37370518795168
 30
0.0
  0
VERTEX
  5
183
330
13F
100
AcDbEntity
  8
Calque 1
370
     0
100
AcDbVertex
100
AcDb2dVertex
 10
523.9235115028964
 20
-7.373705135371678
 30
0.0
  0
VERTEX
  5
184
330
13F
100
AcDbEntity
  8
Calque 1
370
     0
100
AcDbVertex
100
AcDb2dVertex
 10
533.9235124743265
 20
-7.373705135371678
 30
0.0
  0
VERTEX
  5
185
330
13F
100
AcDbEntity
  8
Calque 1
370
     0
100
AcDbVertex
100
AcDb2dVertex
 10
533.9235124743265
 20
-2.37370518795168
 30
0.0
  0
VERTEX
  5
186
330
13F
100
AcDbEntity
  8
Calque 1
370
     0
100
AcDbVertex
100
AcDb2dVertex
 10
543.9235091393945
 20
-2.37370518795168
 30
0.0
  0
VERTEX
  5
187
330
13F
100
AcDbEntity
  8
Calque 1
370
     0
100
AcDbVertex
100
AcDb2dVertex
 10
543.9235091393945
 20
-7.373705135371678
 30
0.0
  0
VERTEX
  5
188
330
13F
100
AcDbEntity
  8
Calque 1
370
     0
100
AcDbVertex
100
AcDb2dVertex
 10
553.9235101108245
 20
-7.373705135371678
 30
0.0
  0
VERTEX
  5
189
330
13F
100
AcDbEntity
  8
Calque 1
370
     0
100
AcDbVertex
100
AcDb2dVertex
 10
553.9235101108245
 20
-2.37370518795168
 30
0.0
  0
VERTEX
  5
18A
330
13F
100
AcDbEntity
  8
Calque 1
370
     0
100
AcDbVertex
100
AcDb2dVertex
 10
568.923509414787
 20
-2.37370518795168
 30
0.0
  0
VERTEX
  5
18B
330
13F
100
AcDbEntity
  8
Calque 1
370
     0
100
AcDbVertex
100
AcDb2dVertex
 10
568.923509414787
 20
-7.373705135371678
 30
0.0
  0
VERTEX
  5
18C
330
13F
100
AcDbEntity
  8
Calque 1
370
     0
100
AcDbVertex
100
AcDb2dVertex
 10
578.9235087713306
 20
-7.373705135371678
 30
0.0
  0
SEQEND
  5
18D
330
13F
100
AcDbEntity
  8
Calque 1
370
     0
  0
ENDBLK
  5
13E
330
13B
100
AcDbEntity
  8
0
100
AcDbBlockEnd
  0
BLOCK
  5
193
330
191
100
AcDbEntity
  8
0
100
AcDbBlockBegin
  2
block 8
 70
     0
 10
0.0
 20
0.0
 30
0.0
  3
block 8
  1

  0
INSERT
  5
196
330
191
100
AcDbEntity
  8
Calque 1
100
AcDbBlockReference
  2
block 9
 10
0.0
 20
0.0
 30
0.0
  0
POLYLINE
  5
1D8
330
191
100
AcDbEntity
  8
Calque 1
370
     0
100
AcDb2dPolyline
 66
     1
 10
0.0
 20
0.0
 30
0.0
  0
VERTEX
  5
1D9
330
1D8
100
AcDbEntity
  8
Calque 1
370
     0
100
AcDbVertex
100
AcDb2dVertex
 10
362.4183207875783
 20
-77.28968571988491
 30
0.0
  0
VERTEX
  5
1DA
330
1D8
100
AcDbEntity
  8
Calque 1
370
     0
100
AcDbVertex
100
AcDb2dVertex
 10
362.4183207875783
 20
-93.87024127129534
 30
0.0
  0
VERTEX
  5
1DB
330
1D8
100
AcDbEntity
  8
Calque 1
370
     0
100
AcDbVertex
100
AcDb2dVertex
 10
319.0854504280374
 20
-93.87024127129534
 30
0.0
  0
VERTEX
  5
1DC
330
1D8
100
AcDbEntity
  8
Calque 1
370
     0
100
AcDbVertex
100
AcDb2dVertex
 10
319.0854504280374
 20
-77.28968571988491
 30
0.0
  0
VERTEX
  5
1DD
330
1D8
100
AcDbEntity
  8
Calque 1
370
     0
100
AcDbVertex
100
AcDb2dVertex
 10
362.4183207875783
 20
-77.28968571988491
 30
0.0
  0
SEQEND
  5
1DE
330
1D8
100
AcDbEntity
  8
Calque 1
370
     0
  0
ENDBLK
  5
194
330
191
100
AcDbEntity
  8
0
100
AcDbBlockEnd
  0
BLOCK
  5
197
330
195
100
AcDbEntity
  8
0
100
AcDbBlockBegin
  2
block 9
 70
     0
 10
0.0
 20
0.0
 30
0.0
  3
block 9
  1

  0
POLYLINE
  5
199
330
195
100
AcDbEntity
  8
Calque 1
370
     0
100
AcDb2dPolyline
 66
     1
 10
0.0
 20
0.0
 30
0.0
  0
VERTEX
  5
19A
330
199
100
AcDbEntity
  8
Calque 1
370
     0
100
AcDbVertex
100
AcDb2dVertex
 10
313.683259712734
 20
-2.37370518795168
 30
0.0
  0
VERTEX
  5
19B
330
199
100
AcDbEntity
  8
Calque 1
370
     0
100
AcDbVertex
100
AcDb2dVertex
 10
323.6832590692815
 20
-2.37370518795168
 30
0.0
  0
VERTEX
  5
19C
330
199
100
AcDbEntity
  8
Calque 1
370
     0
100
AcDbVertex
100
AcDb2dVertex
 10
323.6832590692815
 20
-7.373705135371678
 30
0.0
  0
VERTEX
  5
19D
330
199
100
AcDbEntity
  8
Calque 1
370
     0
100
AcDbVertex
100
AcDb2dVertex
 10
338.6832583732439
 20
-7.373705135371678
 30
0.0
  0
VERTEX
  5
19E
330
199
100
AcDbEntity
  8
Calque 1
370
     0
100
AcDbVertex
100
AcDb2dVertex
 10
338.6832583732439
 20
-2.37370518795168
 30
0.0
  0
VERTEX
  5
19F
330
199
100
AcDbEntity
  8
Calque 1
370
     0
100
AcDbVertex
100
AcDb2dVertex
 10
348.683259344674
 20
-2.37370518795168
 30
0.0
  0
VERTEX
  5
1A0
330
199
100
AcDbEntity
  8
Calque 1
370
     0
100
AcDbVertex
100
AcDb2dVertex
 10
348.683259344674
 20
-7.373705135371678
 30
0.0
  0
VERTEX
  5
1A1
330
199
100
AcDbEntity
  8
Calque 1
370
     0
100
AcDbVertex
100
AcDb2dVertex
 10
358.6832560097397
 20
-7.373705135371678
 30
0.0
  0
VERTEX
  5
1A2
330
199
100
AcDbEntity
  8
Calque 1
370
     0
100
AcDbVertex
100
AcDb2dVertex
 10
358.6832560097397
 20
-2.37370518795168
 30
0.0
  0
VERTEX
  5
1A3
330
199
100
AcDbEntity
  8
Calque 1
370
     0
100
AcDbVertex
100
AcDb2dVertex
 10
368.6832569811729
 20
-2.37370518795168
 30
0.0
  0
VERTEX
  5
1A4
330
199
100
AcDbEntity
  8
Calque 1
370
     0
100
AcDbVertex
100
AcDb2dVertex
 10
368.6832569811729
 20
-7.373705135371678
 30
0.0
  0
VERTEX
  5
1A5
330
199
100
AcDbEntity
  8
Calque 1
370
     0
100
AcDbVertex
100
AcDb2dVertex
 10
383.6832584383186
 20
-7.373705135371678
 30
0.0
  0
VERTEX
  5
1A6
330
199
100
AcDbEntity
  8
Calque 1
370
     0
100
AcDbVertex
100
AcDb2dVertex
 10
383.6832584383186
 20
-2.37370518795168
 30
0.0
  0
VERTEX
  5
1A7
330
199
100
AcDbEntity
  8
Calque 1
370
     0
100
AcDbVertex
100
AcDb2dVertex
 10
393.6832507970213
 20
-2.37370518795168
 30
0.0
  0
VERTEX
  5
1A8
330
199
100
AcDbEntity
  8
Calque 1
370
     0
100
AcDbVertex
100
AcDb2dVertex
 10
393.6832507970213
 20
-14.87370424905819
 30
0.0
  0
VERTEX
  5
1A9
330
199
100
AcDbEntity
  8
Calque 1
370
     0
100
AcDbVertex
100
AcDb2dVertex
 10
398.6832512827364
 20
-14.87370424905819
 30
0.0
  0
VERTEX
  5
1AA
330
199
100
AcDbEntity
  8
Calque 1
370
     0
100
AcDbVertex
100
AcDb2dVertex
 10
398.6832512827364
 20
-27.37370331016471
 30
0.0
  0
VERTEX
  5
1AB
330
199
100
AcDbEntity
  8
Calque 1
370
     0
100
AcDbVertex
100
AcDb2dVertex
 10
393.6832507970213
 20
-27.37370331016471
 30
0.0
  0
VERTEX
  5
1AC
330
199
100
AcDbEntity
  8
Calque 1
370
     0
100
AcDbVertex
100
AcDb2dVertex
 10
393.6832507970213
 20
-37.37370212841339
 30
0.0
  0
VERTEX
  5
1AD
330
199
100
AcDbEntity
  8
Calque 1
370
     0
100
AcDbVertex
100
AcDb2dVertex
 10
398.6832512827364
 20
-37.37370212841339
 30
0.0
  0
VERTEX
  5
1AE
330
199
100
AcDbEntity
  8
Calque 1
370
     0
100
AcDbVertex
100
AcDb2dVertex
 10
398.6832512827364
 20
-47.37370094666144
 30
0.0
  0
VERTEX
  5
1AF
330
199
100
AcDbEntity
  8
Calque 1
370
     0
100
AcDbVertex
100
AcDb2dVertex
 10
393.6832507970213
 20
-47.37370094666144
 30
0.0
  0
VERTEX
  5
1B0
330
199
100
AcDbEntity
  8
Calque 1
370
     0
100
AcDbVertex
100
AcDb2dVertex
 10
393.6832507970213
 20
-57.37370191809274
 30
0.0
  0
VERTEX
  5
1B1
330
199
100
AcDbEntity
  8
Calque 1
370
     0
100
AcDbVertex
100
AcDb2dVertex
 10
398.6832512827364
 20
-57.37370191809274
 30
0.0
  0
VERTEX
  5
1B2
330
199
100
AcDbEntity
  8
Calque 1
370
     0
100
AcDbVertex
100
AcDb2dVertex
 10
398.6832512827364
 20
-67.37370288952374
 30
0.0
  0
VERTEX
  5
1B3
330
199
100
AcDbEntity
  8
Calque 1
370
     0
100
AcDbVertex
100
AcDb2dVertex
 10
393.6832507970213
 20
-67.37370288952374
 30
0.0
  0
VERTEX
  5
1B4
330
199
100
AcDbEntity
  8
Calque 1
370
     0
100
AcDbVertex
100
AcDb2dVertex
 10
393.6832507970213
 20
-77.37370386095536
 30
0.0
  0
VERTEX
  5
1B5
330
199
100
AcDbEntity
  8
Calque 1
370
     0
100
AcDbVertex
100
AcDb2dVertex
 10
398.6832512827364
 20
-77.37370386095536
 30
0.0
  0
VERTEX
  5
1B6
330
199
100
AcDbEntity
  8
Calque 1
370
     0
100
AcDbVertex
100
AcDb2dVertex
 10
398.6832512827364
 20
-89.87369646251337
 30
0.0
  0
VERTEX
  5
1B7
330
199
100
AcDbEntity
  8
Calque 1
370
     0
100
AcDbVertex
100
AcDb2dVertex
 10
393.6832507970213
 20
-89.87369646251337
 30
0.0
  0
VERTEX
  5
1B8
330
199
100
AcDbEntity
  8
Calque 1
370
     0
100
AcDbVertex
100
AcDb2dVertex
 10
393.6832507970213
 20
-102.3736976768025
 30
0.0
  0
VERTEX
  5
1B9
330
199
100
AcDbEntity
  8
Calque 1
370
     0
100
AcDbVertex
100
AcDb2dVertex
 10
383.6832584383186
 20
-102.3736976768025
 30
0.0
  0
VERTEX
  5
1BA
330
199
100
AcDbEntity
  8
Calque 1
370
     0
100
AcDbVertex
100
AcDb2dVertex
 10
383.6832584383186
 20
-97.37369719108685
 30
0.0
  0
VERTEX
  5
1BB
330
199
100
AcDbEntity
  8
Calque 1
370
     0
100
AcDbVertex
100
AcDb2dVertex
 10
368.6832569811729
 20
-97.37369719108685
 30
0.0
  0
VERTEX
  5
1BC
330
199
100
AcDbEntity
  8
Calque 1
370
     0
100
AcDbVertex
100
AcDb2dVertex
 10
368.6832569811729
 20
-102.3736976768025
 30
0.0
  0
VERTEX
  5
1BD
330
199
100
AcDbEntity
  8
Calque 1
370
     0
100
AcDbVertex
100
AcDb2dVertex
 10
358.6832560097397
 20
-102.3736976768025
 30
0.0
  0
VERTEX
  5
1BE
330
199
100
AcDbEntity
  8
Calque 1
370
     0
100
AcDbVertex
100
AcDb2dVertex
 10
358.6832560097397
 20
-97.37369719108685
 30
0.0
  0
VERTEX
  5
1BF
330
199
100
AcDbEntity
  8
Calque 1
370
     0
100
AcDbVertex
100
AcDb2dVertex
 10
348.683259344674
 20
-97.37369719108685
 30
0.0
  0
VERTEX
  5
1C0
330
199
100
AcDbEntity
  8
Calque 1
370
     0
100
AcDbVertex
100
AcDb2dVertex
 10
348.683259344674
 20
-102.3736976768025
 30
0.0
  0
VERTEX
  5
1C1
330
199
100
AcDbEntity
  8
Calque 1
370
     0
100
AcDbVertex
100
AcDb2dVertex
 10
338.6832583732439
 20
-102.3736976768025
 30
0.0
  0
VERTEX
  5
1C2
330
199
100
AcDbEntity
  8
Calque 1
370
     0
100
AcDbVertex
100
AcDb2dVertex
 10
338.6832583732439
 20
-97.37369719108685
 30
0.0
  0
VERTEX
  5
1C3
330
199
100
AcDbEntity
  8
Calque 1
370
     0
100
AcDbVertex
100
AcDb2dVertex
 10
323.6832590692815
 20
-97.37369719108685
 30
0.0
  0
VERTEX
  5
1C4
330
199
100
AcDbEntity
  8
Calque 1
370
     0
100
AcDbVertex
100
AcDb2dVertex
 10
323.6832590692815
 20
-102.3736976768025
 30
0.0
  0
VERTEX
  5
1C5
330
199
100
AcDbEntity
  8
Calque 1
370
     0
100
AcDbVertex
100
AcDb2dVertex
 10
313.683259712734
 20
-102.3736976768025
 30
0.0
  0
VERTEX
  5
1C6
330
199
100
AcDbEntity
  8
Calque 1
370
     0
100
AcDbVertex
100
AcDb2dVertex
 10
313.683259712734
 20
-89.87369646251337
 30
0.0
  0
VERTEX
  5
1C7
330
199
100
AcDbEntity
  8
Calque 1
370
     0
100
AcDbVertex
100
AcDb2dVertex
 10
308.6832597653153
 20
-89.87369646251337
 30
0.0
  0
VERTEX
  5
1C8
330
199
100
AcDbEntity
  8
Calque 1
370
     0
100
AcDbVertex
100
AcDb2dVertex
 10
308.6832597653153
 20
-77.37370386095536
 30
0.0
  0
VERTEX
  5
1C9
330
199
100
AcDbEntity
  8
Calque 1
370
     0
100
AcDbVertex
100
AcDb2dVertex
 10
313.683259712734
 20
-77.37370386095536
 30
0.0
  0
VERTEX
  5
1CA
330
199
100
AcDbEntity
  8
Calque 1
370
     0
100
AcDbVertex
100
AcDb2dVertex
 10
313.683259712734
 20
-67.37370288952374
 30
0.0
  0
VERTEX
  5
1CB
330
199
100
AcDbEntity
  8
Calque 1
370
     0
100
AcDbVertex
100
AcDb2dVertex
 10
308.6832597653153
 20
-67.37370288952374
 30
0.0
  0
VERTEX
  5
1CC
330
199
100
AcDbEntity
  8
Calque 1
370
     0
100
AcDbVertex
100
AcDb2dVertex
 10
308.6832597653153
 20
-57.37370191809274
 30
0.0
  0
VERTEX
  5
1CD
330
199
100
AcDbEntity
  8
Calque 1
370
     0
100
AcDbVertex
100
AcDb2dVertex
 10
313.683259712734
 20
-57.37370191809274
 30
0.0
  0
VERTEX
  5
1CE
330
199
100
AcDbEntity
  8
Calque 1
370
     0
100
AcDbVertex
100
AcDb2dVertex
 10
313.683259712734
 20
-47.37370094666144
 30
0.0
  0
VERTEX
  5
1CF
330
199
100
AcDbEntity
  8
Calque 1
370
     0
100
AcDbVertex
100
AcDb2dVertex
 10
308.6832597653153
 20
-47.37370094666144
 30
0.0
  0
VERTEX
  5
1D0
330
199
100
AcDbEntity
  8
Calque 1
370
     0
100
AcDbVertex
100
AcDb2dVertex
 10
308.6832597653153
 20
-37.37370212841339
 30
0.0
  0
VERTEX
  5
1D1
330
199
100
AcDbEntity
  8
Calque 1
370
     0
100
AcDbVertex
100
AcDb2dVertex
 10
313.683259712734
 20
-37.37370212841339
 30
0.0
  0
VERTEX
  5
1D2
330
199
100
AcDbEntity
  8
Calque 1
370
     0
100
AcDbVertex
100
AcDb2dVertex
 10
313.683259712734
 20
-27.37370331016471
 30
0.0
  0
VERTEX
  5
1D3
330
199
100
AcDbEntity
  8
Calque 1
370
     0
100
AcDbVertex
100
AcDb2dVertex
 10
308.6832597653153
 20
-27.37370331016471
 30
0.0
  0
VERTEX
  5
1D4
330
199
100
AcDbEntity
  8
Calque 1
370
     0
100
AcDbVertex
100
AcDb2dVertex
 10
308.6832597653153
 20
-14.87370424905819
 30
0.0
  0
VERTEX
  5
1D5
330
199
100
AcDbEntity
  8
Calque 1
370
     0
100
AcDbVertex
100
AcDb2dVertex
 10
313.683259712734
 20
-14.87370424905819
 30
0.0
  0
VERTEX
  5
1D6
330
199
100
AcDbEntity
  8
Calque 1
370
     0
100
AcDbVertex
100
AcDb2dVertex
 10
313.683259712734
 20
-2.37370518795168
 30
0.0
  0
SEQEND
  5
1D7
330
199
100
AcDbEntity
  8
Calque 1
370
     0
  0
ENDBLK
  5
198
330
195
100
AcDbEntity
  8
0
100
AcDbBlockEnd
  0
BLOCK
  5
1E1
330
1DF
100
AcDbEntity
  8
0
100
AcDbBlockBegin
  2
block 10
 70
     0
 10
0.0
 20
0.0
 30
0.0
  3
block 10
  1

  0
POLYLINE
  5
1E3
330
1DF
100
AcDbEntity
  8
Calque 1
370
     0
100
AcDb2dPolyline
 66
     1
 10
0.0
 20
0.0
 30
0.0
  0
VERTEX
  5
1E4
330
1E3
100
AcDbEntity
  8
Calque 1
370
     0
100
AcDbVertex
100
AcDb2dVertex
 10
143.7967752530842
 20
-84.37370514966953
 30
0.0
  0
VERTEX
  5
1E5
330
1E3
100
AcDbEntity
  8
Calque 1
370
     0
100
AcDbVertex
100
AcDb2dVertex
 10
15.2967752852092
 20
-84.37370514966953
 30
0.0
  0
VERTEX
  5
1E6
330
1E3
100
AcDbEntity
  8
Calque 1
370
     0
100
AcDbVertex
100
AcDb2dVertex
 10
15.2967752852092
 20
-20.37370516567092
 30
0.0
  0
VERTEX
  5
1E7
330
1E3
100
AcDbEntity
  8
Calque 1
370
     0
100
AcDbVertex
100
AcDb2dVertex
 10
143.7967752530842
 20
-20.37370516567092
 30
0.0
  0
VERTEX
  5
1E8
330
1E3
100
AcDbEntity
  8
Calque 1
370
     0
100
AcDbVertex
100
AcDb2dVertex
 10
143.7967752530842
 20
-84.37370514966953
 30
0.0
  0
SEQEND
  5
1E9
330
1E3
100
AcDbEntity
  8
Calque 1
370
     0
  0
SPLINE
  5
1EA
330
1DF
100
AcDbEntity
  8
Calque 1
370
     0
100
AcDbSpline
210
0.0
220
0.0
230
1.0
 70
    11
 71
     3
 72
    17
 73
    13
 74
     0
 42
0.0000000001
 43
0.0000000001
 12
1.0
 22
0.0
 32
0.0
 13
1.0
 23
0.0
 33
0.0
 40
0.0
 40
0.0
 40
0.0
 40
0.0
 40
1.0
 40
1.0
 40
1.0
 40
2.0
 40
2.0
 40
2.0
 40
3.0
 40
3.0
 40
3.0
 40
4.0
 40
4.0
 40
4.0
 40
4.0
 10
22.87409995000092
 20
-15.07370516699584
 30
0.0
 10
22.87409995000092
 20
-16.31634585373545
 30
0.0
 10
21.86309439455135
 20
-17.32370516643331
 30
0.0
 10
20.61595583943475
 20
-17.32370516643331
 30
0.0
 10
19.3688172843175
 20
-17.32370516643331
 30
0.0
 10
18.35781172886729
 20
-16.31634585373545
 30
0.0
 10
18.35781172886729
 20
-15.07370516699584
 30
0.0
 10
18.35781172886729
 20
-13.83106448025688
 30
0.0
 10
19.3688172843175
 20
-12.82370516755773
 30
0.0
 10
20.61595583943475
 20
-12.82370516755773
 30
0.0
 10
21.86309439455135
 20
-12.82370516755773
 30
0.0
 10
22.87409995000092
 20
-13.83106448025688
 30
0.0
 10
22.87409995000092
 20
-15.07370516699584
 30
0.0
  0
SPLINE
  5
1EB
330
1DF
100
AcDbEntity
  8
Calque 1
370
     0
100
AcDbSpline
210
0.0
220
0.0
230
1.0
 70
    11
 71
     3
 72
    17
 73
    13
 74
     0
 42
0.0000000001
 43
0.0000000001
 12
1.0
 22
0.0
 32
0.0
 13
1.0
 23
0.0
 33
0.0
 40
0.0
 40
0.0
 40
0.0
 40
0.0
 40
1.0
 40
1.0
 40
1.0
 40
2.0
 40
2.0
 40
2.0
 40
3.0
 40
3.0
 40
3.0
 40
4.0
 40
4.0
 40
4.0
 40
4.0
 10
140.7357388094248
 20
-15.07370516699584
 30
0.0
 10
140.7357388094248
 20
-16.31634585373545
 30
0.0
 10
139.7247332539749
 20
-17.32370516643331
 30
0.0
 10
138.477594698858
 20
-17.32370516643331
 30
0.0
 10
137.2304561437414
 20
-17.32370516643331
 30
0.0
 10
136.2194505882915
 20
-16.31634585373545
 30
0.0
 10
136.2194505882915
 20
-15.07370516699584
 30
0.0
 10
136.2194505882915
 20
-13.83106448025688
 30
0.0
 10
137.2304561437414
 20
-12.82370516755773
 30
0.0
 10
138.477594698858
 20
-12.82370516755773
 30
0.0
 10
139.7247332539749
 20
-12.82370516755773
 30
0.0
 10
140.7357388094248
 20
-13.83106448025688
 30
0.0
 10
140.7357388094248
 20
-15.07370516699584
 30
0.0
  0
SPLINE
  5
1EC
330
1DF
100
AcDbEntity
  8
Calque 1
370
     0
100
AcDbSpline
210
0.0
220
0.0
230
1.0
 70
    11
 71
     3
 72
    17
 73
    13
 74
     0
 42
0.0000000001
 43
0.0000000001
 12
1.0
 22
0.0
 32
0.0
 13
1.0
 23
0.0
 33
0.0
 40
0.0
 40
0.0
 40
0.0
 40
0.0
 40
1.0
 40
1.0
 40
1.0
 40
2.0
 40
2.0
 40
2.0
 40
3.0
 40
3.0
 40
3.0
 40
4.0
 40
4.0
 40
4.0
 40
4.0
 10
140.7293915872042
 20
-89.67370514834556
 30
0.0
 10
140.7293915872042
 20
-90.91634583508517
 30
0.0
 10
139.718386031754
 20
-91.92370514778304
 30
0.0
 10
138.471247476638
 20
-91.92370514778304
 30
0.0
 10
137.2241089215208
 20
-91.92370514778304
 30
0.0
 10
136.2131033660706
 20
-90.91634583508517
 30
0.0
 10
136.2131033660706
 20
-89.67370514834556
 30
0.0
 10
136.2131033660706
 20
-88.43106446160597
 30
0.0
 10
137.2241089215208
 20
-87.4237051489081
 30
0.0
 10
138.471247476638
 20
-87.4237051489081
 30
0.0
 10
139.718386031754
 20
-87.4237051489081
 30
0.0
 10
140.7293915872042
 20
-88.43106446160597
 30
0.0
 10
140.7293915872042
 20
-89.67370514834556
 30
0.0
  0
SPLINE
  5
1ED
330
1DF
100
AcDbEntity
  8
Calque 1
370
     0
100
AcDbSpline
210
0.0
220
0.0
230
1.0
 70
    11
 71
     3
 72
    17
 73
    13
 74
     0
 42
0.0000000001
 43
0.0000000001
 12
1.0
 22
0.0
 32
0.0
 13
1.0
 23
0.0
 33
0.0
 40
0.0
 40
0.0
 40
0.0
 40
0.0
 40
1.0
 40
1.0
 40
1.0
 40
2.0
 40
2.0
 40
2.0
 40
3.0
 40
3.0
 40
3.0
 40
4.0
 40
4.0
 40
4.0
 40
4.0
 10
22.87409995000092
 20
-89.67370514834556
 30
0.0
 10
22.87409995000092
 20
-90.91634583508517
 30
0.0
 10
21.86309439455071
 20
-91.92370514778304
 30
0.0
 10
20.61595583943442
 20
-91.92370514778304
 30
0.0
 10
19.3688172843175
 20
-91.92370514778304
 30
0.0
 10
18.35781172886729
 20
-90.91634583508517
 30
0.0
 10
18.35781172886729
 20
-89.67370514834556
 30
0.0
 10
18.35781172886729
 20
-88.43106446160597
 30
0.0
 10
19.3688172843175
 20
-87.4237051489081
 30
0.0
 10
20.61595583943442
 20
-87.4237051489081
 30
0.0
 10
21.86309439455071
 20
-87.4237051489081
 30
0.0
 10
22.87409995000092
 20
-88.43106446160597
 30
0.0
 10
22.87409995000092
 20
-89.67370514834556
 30
0.0
  0
INSERT
  5
1EF
330
1DF
100
AcDbEntity
  8
Calque 1
100
AcDbBlockReference
  2
block 11
 10
0.0
 20
0.0
 30
0.0
  0
ENDBLK
  5
1E2
330
1DF
100
AcDbEntity
  8
0
100
AcDbBlockEnd
  0
BLOCK
  5
1F0
330
1EE
100
AcDbEntity
  8
0
100
AcDbBlockBegin
  2
block 11
 70
     0
 10
0.0
 20
0.0
 30
0.0
  3
block 11
  1

  0
POLYLINE
  5
1F2
330
1EE
100
AcDbEntity
  8
Calque 1
370
     0
100
AcDb2dPolyline
 66
     1
 10
0.0
 20
0.0
 30
0.0
  0
VERTEX
  5
1F3
330
1F2
100
AcDbEntity
  8
Calque 1
370
     0
100
AcDbVertex
100
AcDb2dVertex
 10
4.546776596142041
 20
-2.37370518795168
 30
0.0
  0
VERTEX
  5
1F4
330
1F2
100
AcDbEntity
  8
Calque 1
370
     0
100
AcDbVertex
100
AcDb2dVertex
 10
19.54677590010638
 20
-2.37370518795168
 30
0.0
  0
VERTEX
  5
1F5
330
1F2
100
AcDbEntity
  8
Calque 1
370
     0
100
AcDbVertex
100
AcDb2dVertex
 10
19.54677590010638
 20
-7.373705135371678
 30
0.0
  0
VERTEX
  5
1F6
330
1F2
100
AcDbEntity
  8
Calque 1
370
     0
100
AcDbVertex
100
AcDb2dVertex
 10
34.54677520407104
 20
-7.373705135371678
 30
0.0
  0
VERTEX
  5
1F7
330
1F2
100
AcDbEntity
  8
Calque 1
370
     0
100
AcDbVertex
100
AcDb2dVertex
 10
34.54677520407104
 20
-2.37370518795168
 30
0.0
  0
VERTEX
  5
1F8
330
1F2
100
AcDbEntity
  8
Calque 1
370
     0
100
AcDbVertex
100
AcDb2dVertex
 10
44.54677617550235
 20
-2.37370518795168
 30
0.0
  0
VERTEX
  5
1F9
330
1F2
100
AcDbEntity
  8
Calque 1
370
     0
100
AcDbVertex
100
AcDb2dVertex
 10
44.54677617550235
 20
-7.373705135371678
 30
0.0
  0
VERTEX
  5
1FA
330
1F2
100
AcDbEntity
  8
Calque 1
370
     0
100
AcDbVertex
100
AcDb2dVertex
 10
54.54677284056713
 20
-7.373705135371678
 30
0.0
  0
VERTEX
  5
1FB
330
1F2
100
AcDbEntity
  8
Calque 1
370
     0
100
AcDbVertex
100
AcDb2dVertex
 10
54.54677284056713
 20
-2.37370518795168
 30
0.0
  0
VERTEX
  5
1FC
330
1F2
100
AcDbEntity
  8
Calque 1
370
     0
100
AcDbVertex
100
AcDb2dVertex
 10
64.54677381199843
 20
-2.37370518795168
 30
0.0
  0
VERTEX
  5
1FD
330
1F2
100
AcDbEntity
  8
Calque 1
370
     0
100
AcDbVertex
100
AcDb2dVertex
 10
64.54677381199843
 20
-7.373705135371678
 30
0.0
  0
VERTEX
  5
1FE
330
1F2
100
AcDbEntity
  8
Calque 1
370
     0
100
AcDbVertex
100
AcDb2dVertex
 10
74.5467704770645
 20
-7.373705135371678
 30
0.0
  0
VERTEX
  5
1FF
330
1F2
100
AcDbEntity
  8
Calque 1
370
     0
100
AcDbVertex
100
AcDb2dVertex
 10
74.5467704770645
 20
-2.37370518795168
 30
0.0
  0
VERTEX
  5
200
330
1F2
100
AcDbEntity
  8
Calque 1
370
     0
100
AcDbVertex
100
AcDb2dVertex
 10
84.54677575486106
 20
-2.37370518795168
 30
0.0
  0
VERTEX
  5
201
330
1F2
100
AcDbEntity
  8
Calque 1
370
     0
100
AcDbVertex
100
AcDb2dVertex
 10
84.54677575486106
 20
-7.373705135371678
 30
0.0
  0
VERTEX
  5
202
330
1F2
100
AcDbEntity
  8
Calque 1
370
     0
100
AcDbVertex
100
AcDb2dVertex
 10
94.54676811356187
 20
-7.373705135371678
 30
0.0
  0
VERTEX
  5
203
330
1F2
100
AcDbEntity
  8
Calque 1
370
     0
100
AcDbVertex
100
AcDb2dVertex
 10
94.54676811356187
 20
-2.37370518795168
 30
0.0
  0
VERTEX
  5
204
330
1F2
100
AcDbEntity
  8
Calque 1
370
     0
100
AcDbVertex
100
AcDb2dVertex
 10
104.5467690849932
 20
-2.37370518795168
 30
0.0
  0
VERTEX
  5
205
330
1F2
100
AcDbEntity
  8
Calque 1
370
     0
100
AcDbVertex
100
AcDb2dVertex
 10
104.5467690849932
 20
-7.373705135371678
 30
0.0
  0
VERTEX
  5
206
330
1F2
100
AcDbEntity
  8
Calque 1
370
     0
100
AcDbVertex
100
AcDb2dVertex
 10
114.5467700564245
 20
-7.373705135371678
 30
0.0
  0
VERTEX
  5
207
330
1F2
100
AcDbEntity
  8
Calque 1
370
     0
100
AcDbVertex
100
AcDb2dVertex
 10
114.5467700564245
 20
-2.37370518795168
 30
0.0
  0
VERTEX
  5
208
330
1F2
100
AcDbEntity
  8
Calque 1
370
     0
100
AcDbVertex
100
AcDb2dVertex
 10
124.5467710278571
 20
-2.37370518795168
 30
0.0
  0
VERTEX
  5
209
330
1F2
100
AcDbEntity
  8
Calque 1
370
     0
100
AcDbVertex
100
AcDb2dVertex
 10
124.5467710278571
 20
-7.373705135371678
 30
0.0
  0
VERTEX
  5
20A
330
1F2
100
AcDbEntity
  8
Calque 1
370
     0
100
AcDbVertex
100
AcDb2dVertex
 10
139.5467724850028
 20
-7.373705135371678
 30
0.0
  0
VERTEX
  5
20B
330
1F2
100
AcDbEntity
  8
Calque 1
370
     0
100
AcDbVertex
100
AcDb2dVertex
 10
139.5467724850028
 20
-2.37370518795168
 30
0.0
  0
VERTEX
  5
20C
330
1F2
100
AcDbEntity
  8
Calque 1
370
     0
100
AcDbVertex
100
AcDb2dVertex
 10
154.546773942151
 20
-2.37370518795168
 30
0.0
  0
VERTEX
  5
20D
330
1F2
100
AcDbEntity
  8
Calque 1
370
     0
100
AcDbVertex
100
AcDb2dVertex
 10
154.546773942151
 20
-14.87370424905819
 30
0.0
  0
VERTEX
  5
20E
330
1F2
100
AcDbEntity
  8
Calque 1
370
     0
100
AcDbVertex
100
AcDb2dVertex
 10
149.5467734564328
 20
-14.87370424905819
 30
0.0
  0
VERTEX
  5
20F
330
1F2
100
AcDbEntity
  8
Calque 1
370
     0
100
AcDbVertex
100
AcDb2dVertex
 10
149.5467734564328
 20
-27.37370331016471
 30
0.0
  0
VERTEX
  5
210
330
1F2
100
AcDbEntity
  8
Calque 1
370
     0
100
AcDbVertex
100
AcDb2dVertex
 10
154.546773942151
 20
-27.37370331016471
 30
0.0
  0
VERTEX
  5
211
330
1F2
100
AcDbEntity
  8
Calque 1
370
     0
100
AcDbVertex
100
AcDb2dVertex
 10
154.546773942151
 20
-37.37370212841339
 30
0.0
  0
VERTEX
  5
212
330
1F2
100
AcDbEntity
  8
Calque 1
370
     0
100
AcDbVertex
100
AcDb2dVertex
 10
149.5467734564328
 20
-37.37370212841339
 30
0.0
  0
VERTEX
  5
213
330
1F2
100
AcDbEntity
  8
Calque 1
370
     0
100
AcDbVertex
100
AcDb2dVertex
 10
149.5467734564328
 20
-47.37370094666144
 30
0.0
  0
VERTEX
  5
214
330
1F2
100
AcDbEntity
  8
Calque 1
370
     0
100
AcDbVertex
100
AcDb2dVertex
 10
154.546773942151
 20
-47.37370094666144
 30
0.0
  0
VERTEX
  5
215
330
1F2
100
AcDbEntity
  8
Calque 1
370
     0
100
AcDbVertex
100
AcDb2dVertex
 10
154.546773942151
 20
-57.37370191809307
 30
0.0
  0
VERTEX
  5
216
330
1F2
100
AcDbEntity
  8
Calque 1
370
     0
100
AcDbVertex
100
AcDb2dVertex
 10
149.5467734564328
 20
-57.37370191809307
 30
0.0
  0
VERTEX
  5
217
330
1F2
100
AcDbEntity
  8
Calque 1
370
     0
100
AcDbVertex
100
AcDb2dVertex
 10
149.5467734564328
 20
-67.37370288952405
 30
0.0
  0
VERTEX
  5
218
330
1F2
100
AcDbEntity
  8
Calque 1
370
     0
100
AcDbVertex
100
AcDb2dVertex
 10
154.546773942151
 20
-67.37370288952405
 30
0.0
  0
VERTEX
  5
219
330
1F2
100
AcDbEntity
  8
Calque 1
370
     0
100
AcDbVertex
100
AcDb2dVertex
 10
154.546773942151
 20
-77.37370386095536
 30
0.0
  0
VERTEX
  5
21A
330
1F2
100
AcDbEntity
  8
Calque 1
370
     0
100
AcDbVertex
100
AcDb2dVertex
 10
149.5467734564328
 20
-77.37370386095536
 30
0.0
  0
VERTEX
  5
21B
330
1F2
100
AcDbEntity
  8
Calque 1
370
     0
100
AcDbVertex
100
AcDb2dVertex
 10
149.5467734564328
 20
-89.87369646251337
 30
0.0
  0
VERTEX
  5
21C
330
1F2
100
AcDbEntity
  8
Calque 1
370
     0
100
AcDbVertex
100
AcDb2dVertex
 10
154.546773942151
 20
-89.87369646251337
 30
0.0
  0
VERTEX
  5
21D
330
1F2
100
AcDbEntity
  8
Calque 1
370
     0
100
AcDbVertex
100
AcDb2dVertex
 10
154.546773942151
 20
-102.3736976768028
 30
0.0
  0
VERTEX
  5
21E
330
1F2
100
AcDbEntity
  8
Calque 1
370
     0
100
AcDbVertex
100
AcDb2dVertex
 10
139.5467724850028
 20
-102.3736976768028
 30
0.0
  0
VERTEX
  5
21F
330
1F2
100
AcDbEntity
  8
Calque 1
370
     0
100
AcDbVertex
100
AcDb2dVertex
 10
139.5467724850028
 20
-97.37369719108685
 30
0.0
  0
VERTEX
  5
220
330
1F2
100
AcDbEntity
  8
Calque 1
370
     0
100
AcDbVertex
100
AcDb2dVertex
 10
124.5467710278571
 20
-97.37369719108685
 30
0.0
  0
VERTEX
  5
221
330
1F2
100
AcDbEntity
  8
Calque 1
370
     0
100
AcDbVertex
100
AcDb2dVertex
 10
124.5467710278571
 20
-102.3736976768028
 30
0.0
  0
VERTEX
  5
222
330
1F2
100
AcDbEntity
  8
Calque 1
370
     0
100
AcDbVertex
100
AcDb2dVertex
 10
114.5467700564245
 20
-102.3736976768028
 30
0.0
  0
VERTEX
  5
223
330
1F2
100
AcDbEntity
  8
Calque 1
370
     0
100
AcDbVertex
100
AcDb2dVertex
 10
114.5467700564245
 20
-97.37369719108685
 30
0.0
  0
VERTEX
  5
224
330
1F2
100
AcDbEntity
  8
Calque 1
370
     0
100
AcDbVertex
100
AcDb2dVertex
 10
104.5467690849932
 20
-97.37369719108685
 30
0.0
  0
VERTEX
  5
225
330
1F2
100
AcDbEntity
  8
Calque 1
370
     0
100
AcDbVertex
100
AcDb2dVertex
 10
104.5467690849932
 20
-102.3736976768028
 30
0.0
  0
VERTEX
  5
226
330
1F2
100
AcDbEntity
  8
Calque 1
370
     0
100
AcDbVertex
100
AcDb2dVertex
 10
94.54676811356187
 20
-102.3736976768028
 30
0.0
  0
VERTEX
  5
227
330
1F2
100
AcDbEntity
  8
Calque 1
370
     0
100
AcDbVertex
100
AcDb2dVertex
 10
94.54676811356187
 20
-97.37369719108685
 30
0.0
  0
VERTEX
  5
228
330
1F2
100
AcDbEntity
  8
Calque 1
370
     0
100
AcDbVertex
100
AcDb2dVertex
 10
84.54677575486106
 20
-97.37369719108685
 30
0.0
  0
VERTEX
  5
229
330
1F2
100
AcDbEntity
  8
Calque 1
370
     0
100
AcDbVertex
100
AcDb2dVertex
 10
84.54677575486106
 20
-102.3736976768028
 30
0.0
  0
VERTEX
  5
22A
330
1F2
100
AcDbEntity
  8
Calque 1
370
     0
100
AcDbVertex
100
AcDb2dVertex
 10
74.5467704770645
 20
-102.3736976768028
 30
0.0
  0
VERTEX
  5
22B
330
1F2
100
AcDbEntity
  8
Calque 1
370
     0
100
AcDbVertex
100
AcDb2dVertex
 10
74.5467704770645
 20
-97.37369719108685
 30
0.0
  0
VERTEX
  5
22C
330
1F2
100
AcDbEntity
  8
Calque 1
370
     0
100
AcDbVertex
100
AcDb2dVertex
 10
64.54677381199843
 20
-97.37369719108685
 30
0.0
  0
VERTEX
  5
22D
330
1F2
100
AcDbEntity
  8
Calque 1
370
     0
100
AcDbVertex
100
AcDb2dVertex
 10
64.54677381199843
 20
-102.3736976768028
 30
0.0
  0
VERTEX
  5
22E
330
1F2
100
AcDbEntity
  8
Calque 1
370
     0
100
AcDbVertex
100
AcDb2dVertex
 10
54.54677284056713
 20
-102.3736976768028
 30
0.0
  0
VERTEX
  5
22F
330
1F2
100
AcDbEntity
  8
Calque 1
370
     0
100
AcDbVertex
100
AcDb2dVertex
 10
54.54677284056713
 20
-97.37369719108685
 30
0.0
  0
VERTEX
  5
230
330
1F2
100
AcDbEntity
  8
Calque 1
370
     0
100
AcDbVertex
100
AcDb2dVertex
 10
44.54677617550235
 20
-97.37369719108685
 30
0.0
  0
VERTEX
  5
231
330
1F2
100
AcDbEntity
  8
Calque 1
370
     0
100
AcDbVertex
100
AcDb2dVertex
 10
44.54677617550235
 20
-102.3736976768028
 30
0.0
  0
VERTEX
  5
232
330
1F2
100
AcDbEntity
  8
Calque 1
370
     0
100
AcDbVertex
100
AcDb2dVertex
 10
34.54677520407104
 20
-102.3736976768028
 30
0.0
  0
VERTEX
  5
233
330
1F2
100
AcDbEntity
  8
Calque 1
370
     0
100
AcDbVertex
100
AcDb2dVertex
 10
34.54677520407104
 20
-97.37369719108685
 30
0.0
  0
VERTEX
  5
234
330
1F2
100
AcDbEntity
  8
Calque 1
370
     0
100
AcDbVertex
100
AcDb2dVertex
 10
19.54677590010638
 20
-97.37369719108685
 30
0.0
  0
VERTEX
  5
235
330
1F2
100
AcDbEntity
  8
Calque 1
370
     0
100
AcDbVertex
100
AcDb2dVertex
 10
19.54677590010638
 20
-102.3736976768028
 30
0.0
  0
VERTEX
  5
236
330
1F2
100
AcDbEntity
  8
Calque 1
370
     0
100
AcDbVertex
100
AcDb2dVertex
 10
4.546776596142041
 20
-102.3736976768028
 30
0.0
  0
VERTEX
  5
237
330
1F2
100
AcDbEntity
  8
Calque 1
370
     0
100
AcDbVertex
100
AcDb2dVertex
 10
4.546776596142041
 20
-89.87369646251337
 30
0.0
  0
VERTEX
  5
238
330
1F2
100
AcDbEntity
  8
Calque 1
370
     0
100
AcDbVertex
100
AcDb2dVertex
 10
9.54677654356236
 20
-89.87369646251337
 30
0.0
  0
VERTEX
  5
239
330
1F2
100
AcDbEntity
  8
Calque 1
370
     0
100
AcDbVertex
100
AcDb2dVertex
 10
9.54677654356236
 20
-77.37370386095536
 30
0.0
  0
VERTEX
  5
23A
330
1F2
100
AcDbEntity
  8
Calque 1
370
     0
100
AcDbVertex
100
AcDb2dVertex
 10
4.546776596142041
 20
-77.37370386095536
 30
0.0
  0
VERTEX
  5
23B
330
1F2
100
AcDbEntity
  8
Calque 1
370
     0
100
AcDbVertex
100
AcDb2dVertex
 10
4.546776596142041
 20
-67.37370288952405
 30
0.0
  0
VERTEX
  5
23C
330
1F2
100
AcDbEntity
  8
Calque 1
370
     0
100
AcDbVertex
100
AcDb2dVertex
 10
9.54677654356236
 20
-67.37370288952405
 30
0.0
  0
VERTEX
  5
23D
330
1F2
100
AcDbEntity
  8
Calque 1
370
     0
100
AcDbVertex
100
AcDb2dVertex
 10
9.54677654356236
 20
-57.37370191809307
 30
0.0
  0
VERTEX
  5
23E
330
1F2
100
AcDbEntity
  8
Calque 1
370
     0
100
AcDbVertex
100
AcDb2dVertex
 10
4.546776596142041
 20
-57.37370191809307
 30
0.0
  0
VERTEX
  5
23F
330
1F2
100
AcDbEntity
  8
Calque 1
370
     0
100
AcDbVertex
100
AcDb2dVertex
 10
4.546776596142041
 20
-47.37370094666144
 30
0.0
  0
VERTEX
  5
240
330
1F2
100
AcDbEntity
  8
Calque 1
370
     0
100
AcDbVertex
100
AcDb2dVertex
 10
9.54677654356236
 20
-47.37370094666144
 30
0.0
  0
VERTEX
  5
241
330
1F2
100
AcDbEntity
  8
Calque 1
370
     0
100
AcDbVertex
100
AcDb2dVertex
 10
9.54677654356236
 20
-37.37370212841339
 30
0.0
  0
VERTEX
  5
242
330
1F2
100
AcDbEntity
  8
Calque 1
370
     0
100
AcDbVertex
100
AcDb2dVertex
 10
4.546776596142041
 20
-37.37370212841339
 30
0.0
  0
VERTEX
  5
243
330
1F2
100
AcDbEntity
  8
Calque 1
370
     0
100
AcDbVertex
100
AcDb2dVertex
 10
4.546776596142041
 20
-27.37370331016471
 30
0.0
  0
VERTEX
  5
244
330
1F2
100
AcDbEntity
  8
Calque 1
370
     0
100
AcDbVertex
100
AcDb2dVertex
 10
9.54677654356236
 20
-27.37370331016471
 30
0.0
  0
VERTEX
  5
245
330
1F2
100
AcDbEntity
  8
Calque 1
370
     0
100
AcDbVertex
100
AcDb2dVertex
 10
9.54677654356236
 20
-14.87370424905819
 30
0.0
  0
VERTEX
  5
246
330
1F2
100
AcDbEntity
  8
Calque 1
370
     0
100
AcDbVertex
100
AcDb2dVertex
 10
4.546776596142041
 20
-14.87370424905819
 30
0.0
  0
VERTEX
  5
247
330
1F2
100
AcDbEntity
  8
Calque 1
370
     0
100
AcDbVertex
100
AcDb2dVertex
 10
4.546776596142041
 20
-2.37370518795168
 30
0.0
  0
SEQEND
  5
248
330
1F2
100
AcDbEntity
  8
Calque 1
370
     0
  0
ENDBLK
  5
1F1
330
1EE
100
AcDbEntity
  8
0
100
AcDbBlockEnd
  0
ENDSEC
  0
SECTION
  2
ENTITIES
  0
INSERT
  5
42
330
1F
100
AcDbEntity
  8
Calque 1
100
AcDbBlockReference
  2
block 2
 10
0.0
 20
0.0
 30
0.0
  0
INSERT
  5
9D
330
1F
100
AcDbEntity
  8
Calque 1
100
AcDbBlockReference
  2
block 3
 10
0.0
 20
0.0
 30
0.0
  0
INSERT
  5
E0
330
1F
100
AcDbEntity
  8
Calque 1
100
AcDbBlockReference
  2
block 4
 10
0.0
 20
0.0
 30
0.0
  0
INSERT
  5
138
330
1F
100
AcDbEntity
  8
Calque 1
100
AcDbBlockReference
  2
block 6
 10
0.0
 20
0.0
 30
0.0
  0
INSERT
  5
192
330
1F
100
AcDbEntity
  8
Calque 1
100
AcDbBlockReference
  2
block 8
 10
0.0
 20
0.0
 30
0.0
  0
INSERT
  5
1E0
330
1F
100
AcDbEntity
  8
Calque 1
100
AcDbBlockReference
  2
block 10
 10
0.0
 20
0.0
 30
0.0
  0
MTEXT
  5
249
330
1F
100
AcDbEntity
  8
Calque 1
 62
     7
420
 16777215
100
AcDbMText
 10
344.334645333567
 20
-47.46393100823493
 30
0.0
 40
3.540000454875956
 41
0.0
 46
0.0
 71
     7
 72
     1
  1
\fMyriad Pro|b0|i0|c0|p34;\W1;Intrieur
 73
     1
 44
1.0
  0
MTEXT
  5
24A
330
1F
100
AcDbEntity
  8
Calque 1
 62
     7
420
 16777215
100
AcDbMText
 10
320.6657735234848
 20
-64.38194442834896
 30
0.0
 40
3.540000454875956
 41
0.0
 46
0.0
 71
     7
 72
     1
  1
\fMyriad Pro|b0|i0|c0|p34;\W1;Arrire
 11
6.123233995736766E-17
 21
1.0
 31
0.0
 73
     1
 44
1.0
  0
MTEXT
  5
24B
330
1F
100
AcDbEntity
  8
Calque 1
 62
     7
420
 16777215
100
AcDbMText
 10
388.7075397791252
 20
-43.02510849618817
 30
0.0
 40
3.540000454875956
 41
0.0
 46
0.0
 71
     7
 72
     1
  1
\fMyriad Pro|b0|i0|c0|p34;\W1;Avant
 11
-1.836970198721030E-16
 21
-1.0
 31
0.0
 73
     1
 44
1.0
  0
MTEXT
  5
24C
330
1F
100
AcDbEntity
  8
Calque 1
 62
     7
420
 16777215
100
AcDbMText
 10
344.334645333567
 20
-40.74735670130676
 30
0.0
 40
3.540000454875956
 41
0.0
 46
0.0
 71
     7
 72
     1
  1
\fMyriad Pro|b0|i0|c0|p34;\W1;Gauche
 73
     1
 44
1.0
  0
MTEXT
  5
24D
330
1F
100
AcDbEntity
  8
Calque 1
 62
     7
420
 16777215
100
AcDbMText
 10
413.9308063743819
 20
-45.68493752926887
 30
0.0
 40
3.540000454875956
 41
0.0
 46
0.0
 71
     7
 72
     1
  1
\fMyriad Pro|b0|i0|c0|p34;\W1;Avant
 11
-1.836970198721030E-16
 21
-1.0
 31
0.0
 73
     1
 44
1.0
  0
MTEXT
  5
24E
330
1F
100
AcDbEntity
  8
Calque 1
 62
     7
420
 16777215
100
AcDbMText
 10
436.0607217334327
 20
-53.29166125978568
 30
0.0
 40
3.540000454875956
 41
0.0
 46
0.0
 71
     7
 72
     1
  1
\fMyriad Pro|b0|i0|c0|p34;\W1;Intrieur
 73
     1
 44
1.0
  0
MTEXT
  5
24F
330
1F
100
AcDbEntity
  8
Calque 1
 62
     7
420
 16777215
100
AcDbMText
 10
436.0607217334327
 20
-46.57509031720856
 30
0.0
 40
3.540000454875956
 41
0.0
 46
0.0
 71
     7
 72
     1
  1
\fMyriad Pro|b0|i0|c0|p34;\W1;Droite
 73
     1
 44
1.0
  0
MTEXT
  5
250
330
1F
100
AcDbEntity
  8
Calque 1
 62
     7
420
 16777215
100
AcDbMText
 10
478.4750578637797
 20
-60.83349607854163
 30
0.0
 40
3.540000454875956
 41
0.0
 46
0.0
 71
     7
 72
     1
  1
\fMyriad Pro|b0|i0|c0|p34;\W1;Arrire
 11
6.123233995736766E-17
 21
1.0
 31
0.0
 73
     1
 44
1.0
  0
MTEXT
  5
251
330
1F
100
AcDbEntity
  8
Calque 1
 62
     7
420
 16777215
100
AcDbMText
 10
532.2553130620588
 20
-95.97777639744653
 30
0.0
 40
3.540000454875956
 41
0.0
 46
0.0
 71
     7
 72
     1
  1
\fMyriad Pro|b0|i0|c0|p34;\W1;Intrieur
 73
     1
 44
1.0
  0
MTEXT
  5
252
330
1F
100
AcDbEntity
  8
Calque 1
 62
     7
420
 16777215
100
AcDbMText
 10
507.9529743196264
 20
-80.76539745430952
 30
0.0
 40
3.540000454875956
 41
0.0
 46
0.0
 71
     7
 72
     1
  1
\fMyriad Pro|b0|i0|c0|p34;\W1;Arrire
 11
-1.836970198721030E-16
 21
-1.0
 31
0.0
 73
     1
 44
1.0
  0
MTEXT
  5
253
330
1F
100
AcDbEntity
  8
Calque 1
 62
     7
420
 16777215
100
AcDbMText
 10
567.316534281999
 20
-84.46754012645256
 30
0.0
 40
3.540000454875956
 41
0.0
 46
0.0
 71
     7
 72
     1
  1
\fMyriad Pro|b0|i0|c0|p34;\W1;Avant
 11
6.123233995736766E-17
 21
1.0
 31
0.0
 73
     1
 44
1.0
  0
MTEXT
  5
254
330
1F
100
AcDbEntity
  8
Calque 1
 62
     7
420
 16777215
100
AcDbMText
 10
531.8398883761546
 20
-140.8843484314402
 30
0.0
 40
3.540000454875956
 41
0.0
 46
0.0
 71
     7
 72
     1
  1
\fMyriad Pro|b0|i0|c0|p34;\W1;Droite
 73
     1
 44
1.0
  0
MTEXT
  5
255
330
1F
100
AcDbEntity
  8
Calque 1
 62
     7
420
 16777215
100
AcDbMText
 10
549.4748154008257
 20
-17.39480386934922
 30
0.0
 40
3.540000454875956
 41
0.0
 46
0.0
 71
     7
 72
     1
  1
\fMyriad Pro|b0|i0|c0|p34;\W1;Gauche
 11
-1.0
 21
1.224646799147353E-16
 31
0.0
 73
     1
 44
1.0
  0
MTEXT
  5
256
330
1F
100
AcDbEntity
  8
Calque 1
 62
     7
420
 16777215
100
AcDbMText
 10
39.33011439717702
 20
-91.19457891091717
 30
0.0
 40
3.540000454875956
 41
0.0
 46
0.0
 71
     7
 72
     1
  1
\fMyriad Pro|b0|i0|c0|p34;\W1;Intrieur
 73
     1
 44
1.0
  0
MTEXT
  5
257
330
1F
100
AcDbEntity
  8
Calque 1
 62
     7
420
 16777215
100
AcDbMText
 10
628.1444764898112
 20
-140.8844345588273
 30
0.0
 40
3.540000454875956
 41
0.0
 46
0.0
 71
     7
 72
     1
  1
\fMyriad Pro|b0|i0|c0|p34;\W1;Gauche
 73
     1
 44
1.0
  0
MTEXT
  5
258
330
1F
100
AcDbEntity
  8
Calque 1
 62
     7
420
 16777215
100
AcDbMText
 10
620.8548314078882
 20
-56.11388751852361
 30
0.0
 40
3.540000454875956
 41
0.0
 46
0.0
 71
     7
 72
     1
  1
\fMyriad Pro|b0|i0|c0|p34;\W1;Intrieur
 73
     1
 44
1.0
  0
MTEXT
  5
259
330
1F
100
AcDbEntity
  8
Calque 1
 62
     7
420
 16777215
100
AcDbMText
 10
637.4928709343768
 20
-17.39480386934922
 30
0.0
 40
3.540000454875956
 41
0.0
 46
0.0
 71
     7
 72
     1
  1
\fMyriad Pro|b0|i0|c0|p34;\W1;Droite
 11
-1.0
 21
1.224646799147353E-16
 31
0.0
 73
     1
 44
1.0
  0
MTEXT
  5
25A
330
1F
100
AcDbEntity
  8
Calque 1
 62
     7
420
 16777215
100
AcDbMText
 10
220.1568460549868
 20
-49.23472085357674
 30
0.0
 40
3.540000454875956
 41
0.0
 46
0.0
 71
     7
 72
     1
  1
\fMyriad Pro|b0|i0|c0|p34;\W1;Intrieur
 73
     1
 44
1.0
  0
MTEXT
  5
25B
330
1F
100
AcDbEntity
  8
Calque 1
 62
     7
420
 16777215
100
AcDbMText
 10
173.039050249709
 20
-43.02510849618817
 30
0.0
 40
3.540000454875956
 41
0.0
 46
0.0
 71
     7
 72
     1
  1
\fMyriad Pro|b0|i0|c0|p34;\W1;Droite
 11
-1.836970198721030E-16
 21
-1.0
 31
0.0
 73
     1
 44
1.0
  0
MTEXT
  5
25C
330
1F
100
AcDbEntity
  8
Calque 1
 62
     7
420
 16777215
100
AcDbMText
 10
291.7929773236989
 20
-60.83349607854163
 30
0.0
 40
3.540000454875956
 41
0.0
 46
0.0
 71
     7
 72
     1
  1
\fMyriad Pro|b0|i0|c0|p34;\W1;Gauche
 11
6.123233995736766E-17
 21
1.0
 31
0.0
 73
     1
 44
1.0
  0
MTEXT
  5
25D
330
1F
100
AcDbEntity
  8
Calque 1
 62
     7
420
 16777215
100
AcDbMText
 10
218.0401793888493
 20
-16.38099974116775
 30
0.0
 40
3.540000454875956
 41
0.0
 46
0.0
 71
     7
 72
     1
  1
\fMyriad Pro|b0|i0|c0|p34;\W1;Haut
 73
     1
 44
1.0
  0
MTEXT
  5
25E
330
1F
100
AcDbEntity
  8
Calque 1
 62
     7
420
 16777215
100
AcDbMText
 10
345.2806685538166
 20
-14.08794418618545
 30
0.0
 40
3.540000454875956
 41
0.0
 46
0.0
 71
     7
 72
     1
  1
\fMyriad Pro|b0|i0|c0|p34;\W1;Haut
 73
     1
 44
1.0
  0
MTEXT
  5
25F
330
1F
100
AcDbEntity
  8
Calque 1
 62
     7
420
 16777215
100
AcDbMText
 10
439.2371536004501
 20
-16.38099974116775
 30
0.0
 40
3.540000454875956
 41
0.0
 46
0.0
 71
     7
 72
     1
  1
\fMyriad Pro|b0|i0|c0|p34;\W1;Haut
 73
     1
 44
1.0
  0
MTEXT
  5
260
330
1F
100
AcDbEntity
  8
Calque 1
 62
     7
420
 16777215
100
AcDbMText
 10
440.3540104930745
 20
-91.19457891091717
 30
0.0
 40
3.540000454875956
 41
0.0
 46
0.0
 71
     7
 72
     1
  1
\fMyriad Pro|b0|i0|c0|p34;\W1;Bas
 73
     1
 44
1.0
  0
MTEXT
  5
261
330
1F
100
AcDbEntity
  8
Calque 1
 62
     7
420
 16777215
100
AcDbMText
 10
366.7410296053091
 20
-92.0939802999203
 30
0.0
 40
3.540000454875956
 41
0.0
 46
0.0
 71
     7
 72
     1
  1
\fMyriad Pro|b0|i0|c0|p34;\W1;Bas
 73
     1
 44
1.0
  0
MTEXT
  5
262
330
1F
100
AcDbEntity
  8
Calque 1
 62
     7
420
 16777215
100
AcDbMText
 10
219.2798969992165
 20
-92.0939802999203
 30
0.0
 40
3.540000454875956
 41
0.0
 46
0.0
 71
     7
 72
     1
  1
\fMyriad Pro|b0|i0|c0|p34;\W1;Bas
 73
     1
 44
1.0
  0
MTEXT
  5
263
330
1F
100
AcDbEntity
  8
Calque 1
 62
     7
420
 16777215
100
AcDbMText
 10
220.1568891186804
 20
-43.21680114513384
 30
0.0
 40
3.540000454875956
 41
0.0
 46
0.0
 71
     7
 72
     1
  1
\fMyriad Pro|b0|i0|c0|p34;\W1;Arrire
 73
     1
 44
1.0
  0
MTEXT
  5
264
330
1F
100
AcDbEntity
  8
Calque 1
 62
     7
420
 16777215
100
AcDbMText
 10
10.54560953512402
 20
-43.55423209902898
 30
0.0
 40
3.540000454875956
 41
0.0
 46
0.0
 71
     7
 72
     1
  1
\fMyriad Pro|b0|i0|c0|p34;\W1;Gauche
 11
-1.836970198721030E-16
 21
-1.0
 31
0.0
 73
     1
 44
1.0
  0
MTEXT
  5
265
330
1F
100
AcDbEntity
  8
Calque 1
 62
     7
420
 16777215
100
AcDbMText
 10
148.346732081308
 20
-58.36405163471454
 30
0.0
 40
3.540000454875956
 41
0.0
 46
0.0
 71
     7
 72
     1
  1
\fMyriad Pro|b0|i0|c0|p34;\W1;Droite
 11
6.123233995736766E-17
 21
1.0
 31
0.0
 73
     1
 44
1.0
  0
MTEXT
  5
266
330
1F
100
AcDbEntity
  8
Calque 1
 62
     7
420
 16777215
100
AcDbMText
 10
83.63684147757169
 20
-91.19457891091717
 30
0.0
 40
3.540000454875956
 41
0.0
 46
0.0
 71
     7
 72
     1
  1
\fMyriad Pro|b0|i0|c0|p34;\W1;Bas
 73
     1
 44
1.0
  0
MTEXT
  5
267
330
1F
100
AcDbEntity
  8
Calque 1
 62
     7
420
 16777215
100
AcDbMText
 10
72.695734980741
 20
-14.79349974156462
 30
0.0
 40
3.540000454875956
 41
0.0
 46
0.0
 71
     7
 72
     1
  1
\fMyriad Pro|b0|i0|c0|p34;\W1;Haut
 73
     1
 44
1.0
  0
MTEXT
  5
268
330
1F
100
AcDbEntity
  8
Calque 1
 62
     7
420
 16777215
100
AcDbMText
 10
595.6706175268636
 20
-71.41682940922912
 30
0.0
 40
3.540000454875956
 41
0.0
 46
0.0
 71
     7
 72
     1
  1
\fMyriad Pro|b0|i0|c0|p34;\W1;Avant
 11
-1.836970198721030E-16
 21
-1.0
 31
0.0
 73
     1
 44
1.0
  0
MTEXT
  5
269
330
1F
100
AcDbEntity
  8
Calque 1
 62
     7
420
 16777215
100
AcDbMText
 10
662.0750913872156
 20
-85.54861108972396
 30
0.0
 40
3.540000454875956
 41
0.0
 46
0.0
 71
     7
 72
     1
  1
\fMyriad Pro|b0|i0|c0|p34;\W1;Arrire
 11
6.123233995736766E-17
 21
1.0
 31
0.0
 73
     1
 44
1.0
  0
MTEXT
  5
26A
330
1F
100
AcDbEntity
  8
Calque 1
 62
     7
420
 16777215
100
AcDbMText
 10
531.3092198633071
 20
-103.0126344635182
 30
0.0
 40
3.540000454875956
 41
0.0
 46
0.0
 71
     7
 72
     1
  1
\fMyriad Pro|b0|i0|c0|p34;\W1;Bas
 73
     1
 44
1.0
  0
MTEXT
  5
26B
330
1F
100
AcDbEntity
  8
Calque 1
 62
     7
420
 16777215
100
AcDbMText
 10
623.0890646489407
 20
-63.1487455845953
 30
0.0
 40
3.540000454875956
 41
0.0
 46
0.0
 71
     7
 72
     1
  1
\fMyriad Pro|b0|i0|c0|p34;\W1;Haut
 73
     1
 44
1.0
  0
ENDSEC
  0
SECTION
  2
OBJECTS
  0
DICTIONARY
  5
C
330
0
100
AcDbDictionary
281
     1
  3
ACAD_GROUP
350
D
  3
ACAD_LAYOUT
350
1A
  3
ACAD_MATERIAL
350
3B
  3
ACAD_MLEADERSTYLE
350
26D
  3
ACAD_MLINESTYLE
350
17
  3
ACAD_PLOTSETTINGS
350
19
  3
ACAD_PLOTSTYLENAME
350
E
  3
ACAD_TABLESTYLE
350
26C
  3
ACAD_VISUALSTYLE
350
2A
  0
SUN
  5
3F
330
29
100
AcDbSun
 90
        1
290
     0
 63
     7
421
 16777215
 40
1.0
291
     1
 91
  2455826
 92
 54000000
292
     0
 70
     2
 71
   256
280
     1
  0
DICTIONARY
  5
D
102
{ACAD_REACTORS
330
C
102
}
330
C
100
AcDbDictionary
281
     1
  0
DICTIONARY
  5
1A
102
{ACAD_REACTORS
330
C
102
}
330
C
100
AcDbDictionary
281
     1
  3
Layout1
350
1E
  3
Layout2
350
26
  3
Model
350
22
  0
DICTIONARY
  5
3B
102
{ACAD_REACTORS
330
C
102
}
330
C
100
AcDbDictionary
281
     1
  3
ByBlock
350
3D
  3
ByLayer
350
3C
  3
Global
350
3E
  0
DICTIONARY
  5
26D
102
{ACAD_REACTORS
330
C
102
}
330
C
100
AcDbDictionary
281
     1
  0
DICTIONARY
  5
17
102
{ACAD_REACTORS
330
C
102
}
330
C
100
AcDbDictionary
281
     1
  3
Standard
350
18
  0
DICTIONARY
  5
19
102
{ACAD_REACTORS
330
C
102
}
330
C
100
AcDbDictionary
281
     1
  0
ACDBDICTIONARYWDFLT
  5
E
102
{ACAD_REACTORS
330
C
102
}
330
C
100
AcDbDictionary
281
     1
  3
Normal
350
F
100
AcDbDictionaryWithDefault
340
F
  0
DICTIONARY
  5
26C
102
{ACAD_REACTORS
330
C
102
}
330
C
100
AcDbDictionary
281
     1
  0
DICTIONARY
  5
2A
102
{ACAD_REACTORS
330
C
102
}
330
C
100
AcDbDictionary
281
     1
  3
2dWireframe
350
2F
  3
3D Hidden
350
31
  3
3dWireframe
350
30
  3
Basic
350
32
  3
Brighten
350
36
  3
ColorChange
350
3A
  3
Conceptual
350
34
  3
Dim
350
35
  3
Facepattern
350
39
  3
Flat
350
2B
  3
FlatWithEdges
350
2C
  3
Gouraud
350
2D
  3
GouraudWithEdges
350
2E
  3
Linepattern
350
38
  3
Realistic
350
33
  3
Thicken
350
37
  0
LAYOUT
  5
1E
102
{ACAD_REACTORS
330
1A
102
}
330
1A
100
AcDbPlotSettings
  1

  2
none_device
  4

  6

 40
0.0
 41
0.0
 42
0.0
 43
0.0
 44
0.0
 45
0.0
 46
0.0
 47
0.0
 48
0.0
 49
0.0
140
0.0
141
0.0
142
1.0
143
1.0
 70
   688
 72
     0
 73
     0
 74
     5
  7

 75
    16
 76
     0
 77
     2
 78
   300
147
1.0
148
0.0
149
0.0
100
AcDbLayout
  1
Layout1
 70
     1
 71
     1
 10
0.0
 20
0.0
 11
12.0
 21
9.0
 12
0.0
 22
0.0
 32
0.0
 14
1.000000000000000E+20
 24
1.000000000000000E+20
 34
1.000000000000000E+20
 15
-1.000000000000000E+20
 25
-1.000000000000000E+20
 35
-1.000000000000000E+20
146
0.0
 13
0.0
 23
0.0
 33
0.0
 16
1.0
 26
0.0
 36
0.0
 17
0.0
 27
1.0
 37
0.0
 76
     0
330
1B
  0
LAYOUT
  5
26
102
{ACAD_REACTORS
330
1A
102
}
330
1A
100
AcDbPlotSettings
  1

  2
none_device
  4

  6

 40
0.0
 41
0.0
 42
0.0
 43
0.0
 44
0.0
 45
0.0
 46
0.0
 47
0.0
 48
0.0
 49
0.0
140
0.0
141
0.0
142
1.0
143
1.0
 70
   688
 72
     0
 73
     0
 74
     5
  7

 75
    16
 76
     0
 77
     2
 78
   300
147
1.0
148
0.0
149
0.0
100
AcDbLayout
  1
Layout2
 70
     1
 71
     2
 10
0.0
 20
0.0
 11
0.0
 21
0.0
 12
0.0
 22
0.0
 32
0.0
 14
0.0
 24
0.0
 34
0.0
 15
0.0
 25
0.0
 35
0.0
146
0.0
 13
0.0
 23
0.0
 33
0.0
 16
1.0
 26
0.0
 36
0.0
 17
0.0
 27
1.0
 37
0.0
 76
     0
330
23
  0
LAYOUT
  5
22
102
{ACAD_REACTORS
330
1A
102
}
330
1A
100
AcDbPlotSettings
  1

  2
none_device
  4

  6

 40
0.0
 41
0.0
 42
0.0
 43
0.0
 44
0.0
 45
0.0
 46
0.0
 47
0.0
 48
0.0
 49
0.0
140
0.0
141
0.0
142
1.0
143
1.0
 70
  1712
 72
     0
 73
     0
 74
     0
  7

 75
     0
 76
     0
 77
     2
 78
   300
147
1.0
148
0.0
149
0.0
100
AcDbLayout
  1
Model
 70
     1
 71
     0
 10
0.0
 20
0.0
 11
12.0
 21
9.0
 12
0.0
 22
0.0
 32
0.0
 14
1.000000000000000E+20
 24
1.000000000000000E+20
 34
1.000000000000000E+20
 15
-1.000000000000000E+20
 25
-1.000000000000000E+20
 35
-1.000000000000000E+20
146
0.0
 13
0.0
 23
0.0
 33
0.0
 16
1.0
 26
0.0
 36
0.0
 17
0.0
 27
1.0
 37
0.0
 76
     0
330
1F
331
29
  0
MATERIAL
  5
3D
102
{ACAD_REACTORS
330
3B
102
}
330
3B
100
AcDbMaterial
  1
ByBlock
 72
     1
 94
      127
  0
MATERIAL
  5
3C
102
{ACAD_REACTORS
330
3B
102
}
330
3B
100
AcDbMaterial
  1
ByLayer
 72
     1
 94
      127
  0
MATERIAL
  5
3E
102
{ACAD_REACTORS
330
3B
102
}
330
3B
100
AcDbMaterial
  1
Global
 72
     1
 94
      127
  0
MLINESTYLE
  5
18
102
{ACAD_REACTORS
330
17
102
}
330
17
100
AcDbMlineStyle
  2
Standard
 70
     0
  3

 62
   256
 51
90.0
 52
90.0
 71
     2
 49
0.5
 62
   256
  6
BYLAYER
 49
-0.5
 62
   256
  6
BYLAYER
  0
ACDBPLACEHOLDER
  5
F
102
{ACAD_REACTORS
330
E
102
}
330
E
  0
VISUALSTYLE
  5
2F
102
{ACAD_REACTORS
330
2A
102
}
330
2A
100
AcDbVisualStyle
  2
2dWireframe
 70
     4
177
     2
291
     0
 71
     0
176
     1
 72
     2
176
     1
 73
     0
176
     1
 90
        0
176
     1
 40
-0.6
176
     1
 41
-30.0
176
     1
 62
     5
 63
     7
421
 16777215
176
     1
 74
     1
176
     1
 91
        4
176
     1
 64
     7
176
     1
 65
   257
176
     1
 75
     1
176
     1
175
     1
176
     1
 42
1.0
176
     1
 92
        0
176
     1
 66
   257
176
     1
 43
1.0
176
     1
 76
     1
176
     1
 77
     6
176
     1
 78
     2
176
     1
 67
     7
176
     1
 79
     5
176
     1
170
     0
176
     1
171
     0
176
     1
290
     0
176
     1
 93
        1
176
     1
 44
0.0
176
     1
173
     0
176
     1
  0
VISUALSTYLE
  5
31
102
{ACAD_REACTORS
330
2A
102
}
330
2A
100
AcDbVisualStyle
  2
3D Hidden
 70
     6
177
     2
291
     0
 71
     1
176
     1
 72
     2
176
     1
 73
     2
176
     1
 90
        0
176
     1
 40
-0.6
176
     1
 41
-30.0
176
     1
 62
     5
 63
     7
421
 16777215
176
     1
 74
     2
176
     1
 91
        2
176
     1
 64
     7
176
     1
 65
   257
176
     1
 75
     2
176
     1
175
     1
176
     1
 42
40.0
176
     1
 92
        0
176
     1
 66
   257
176
     1
 43
1.0
176
     1
 76
     1
176
     1
 77
     6
176
     1
 78
     2
176
     1
 67
     7
176
     1
 79
     3
176
     1
170
     0
176
     1
171
     0
176
     1
290
     0
176
     1
 93
        1
176
     1
 44
0.0
176
     1
173
     0
176
     1
  0
VISUALSTYLE
  5
30
102
{ACAD_REACTORS
330
2A
102
}
330
2A
100
AcDbVisualStyle
  2
3dWireframe
 70
     5
177
     2
291
     0
 71
     0
176
     1
 72
     2
176
     1
 73
     0
176
     1
 90
        0
176
     1
 40
-0.6
176
     1
 41
-30.0
176
     1
 62
     5
 63
     7
421
 16777215
176
     1
 74
     1
176
     1
 91
        4
176
     1
 64
     7
176
     1
 65
   257
176
     1
 75
     1
176
     1
175
     1
176
     1
 42
1.0
176
     1
 92
        0
176
     1
 66
   257
176
     1
 43
1.0
176
     1
 76
     1
176
     1
 77
     6
176
     1
 78
     2
176
     1
 67
     7
176
     1
 79
     5
176
     1
170
     0
176
     1
171
     0
176
     1
290
     0
176
     1
 93
        1
176
     1
 44
0.0
176
     1
173
     0
176
     1
  0
VISUALSTYLE
  5
32
102
{ACAD_REACTORS
330
2A
102
}
330
2A
100
AcDbVisualStyle
  2
Basic
 70
     7
177
     2
291
     1
 71
     1
176
     1
 72
     0
176
     1
 73
     1
176
     1
 90
        0
176
     1
 40
-0.6
176
     1
 41
-30.0
176
     1
 62
     5
 63
     7
421
 16777215
176
     1
 74
     0
176
     1
 91
        4
176
     1
 64
     7
176
     1
 65
   257
176
     1
 75
     1
176
     1
175
     1
176
     1
 42
1.0
176
     1
 92
        8
176
     1
 66
     7
176
     1
 43
1.0
176
     1
 76
     1
176
     1
 77
     6
176
     1
 78
     2
176
     1
 67
     7
176
     1
 79
     5
176
     1
170
     0
176
     1
171
     0
176
     1
290
     0
176
     1
 93
        1
176
     1
 44
0.0
176
     1
173
     0
176
     1
  0
VISUALSTYLE
  5
36
102
{ACAD_REACTORS
330
2A
102
}
330
2A
100
AcDbVisualStyle
  2
Brighten
 70
    12
177
     2
291
     1
 71
     2
176
     1
 72
     2
176
     1
 73
     0
176
     1
 90
        0
176
     1
 40
-0.6
176
     1
 41
-30.0
176
     1
 62
     5
 63
     7
421
 16777215
176
     1
 74
     1
176
     1
 91
        4
176
     1
 64
     7
176
     1
 65
   257
176
     1
 75
     1
176
     1
175
     1
176
     1
 42
1.0
176
     1
 92
        8
176
     1
 66
     7
176
     1
 43
1.0
176
     1
 76
     1
176
     1
 77
     6
176
     1
 78
     2
176
     1
 67
     7
176
     1
 79
     5
176
     1
170
     0
176
     1
171
     0
176
     1
290
     0
176
     1
 93
        1
176
     1
 44
50.0
176
     1
173
     0
176
     1
  0
VISUALSTYLE
  5
3A
102
{ACAD_REACTORS
330
2A
102
}
330
2A
100
AcDbVisualStyle
  2
ColorChange
 70
    16
177
     2
291
     1
 71
     2
176
     1
 72
     2
176
     1
 73
     3
176
     1
 90
        0
176
     1
 40
-0.6
176
     1
 41
-30.0
176
     1
 62
     5
 63
     8
421
  8421504
176
     1
 74
     1
176
     1
 91
        4
176
     1
 64
     7
176
     1
 65
   257
176
     1
 75
     1
176
     1
175
     1
176
     1
 42
1.0
176
     1
 92
        8
176
     1
 66
     8
424
  8421504
176
     1
 43
1.0
176
     1
 76
     1
176
     1
 77
     6
176
     1
 78
     2
176
     1
 67
     7
176
     1
 79
     5
176
     1
170
     0
176
     1
171
     0
176
     1
290
     0
176
     1
 93
        1
176
     1
 44
0.0
176
     1
173
     0
176
     1
  0
VISUALSTYLE
  5
34
102
{ACAD_REACTORS
330
2A
102
}
330
2A
100
AcDbVisualStyle
  2
Conceptual
 70
     9
177
     2
291
     0
 71
     3
176
     1
 72
     2
176
     1
 73
     0
176
     1
 90
        0
176
     1
 40
-0.6
176
     1
 41
-30.0
176
     1
 62
     5
 63
     7
421
 16777215
176
     1
 74
     2
176
     1
 91
        2
176
     1
 64
     7
176
     1
 65
   257
176
     1
 75
     1
176
     1
175
     1
176
     1
 42
40.0
176
     1
 92
        8
176
     1
 66
     7
176
     1
 43
1.0
176
     1
 76
     1
176
     1
 77
     6
176
     1
 78
     2
176
     1
 67
     7
176
     1
 79
     3
176
     1
170
     0
176
     1
171
     0
176
     1
290
     0
176
     1
 93
        1
176
     1
 44
0.0
176
     1
173
     0
176
     1
  0
VISUALSTYLE
  5
35
102
{ACAD_REACTORS
330
2A
102
}
330
2A
100
AcDbVisualStyle
  2
Dim
 70
    11
177
     2
291
     1
 71
     2
176
     1
 72
     2
176
     1
 73
     0
176
     1
 90
        0
176
     1
 40
-0.6
176
     1
 41
-30.0
176
     1
 62
     5
 63
     7
421
 16777215
176
     1
 74
     1
176
     1
 91
        4
176
     1
 64
     7
176
     1
 65
   257
176
     1
 75
     1
176
     1
175
     1
176
     1
 42
1.0
176
     1
 92
        8
176
     1
 66
     7
176
     1
 43
1.0
176
     1
 76
     1
176
     1
 77
     6
176
     1
 78
     2
176
     1
 67
     7
176
     1
 79
     5
176
     1
170
     0
176
     1
171
     0
176
     1
290
     0
176
     1
 93
        1
176
     1
 44
-50.0
176
     1
173
     0
176
     1
  0
VISUALSTYLE
  5
39
102
{ACAD_REACTORS
330
2A
102
}
330
2A
100
AcDbVisualStyle
  2
Facepattern
 70
    15
177
     2
291
     1
 71
     2
176
     1
 72
     2
176
     1
 73
     0
176
     1
 90
        0
176
     1
 40
-0.6
176
     1
 41
-30.0
176
     1
 62
     5
 63
     7
421
 16777215
176
     1
 74
     1
176
     1
 91
        4
176
     1
 64
     7
176
     1
 65
   257
176
     1
 75
     1
176
     1
175
     1
176
     1
 42
1.0
176
     1
 92
        8
176
     1
 66
     7
176
     1
 43
1.0
176
     1
 76
     1
176
     1
 77
     6
176
     1
 78
     2
176
     1
 67
     7
176
     1
 79
     5
176
     1
170
     0
176
     1
171
     0
176
     1
290
     0
176
     1
 93
        1
176
     1
 44
0.0
176
     1
173
     0
176
     1
  0
VISUALSTYLE
  5
2B
102
{ACAD_REACTORS
330
2A
102
}
330
2A
100
AcDbVisualStyle
  2
Flat
 70
     0
177
     2
291
     1
 71
     2
176
     1
 72
     1
176
     1
 73
     1
176
     1
 90
        2
176
     1
 40
-0.6
176
     1
 41
30.0
176
     1
 62
     5
 63
     7
421
 16777215
176
     1
 74
     0
176
     1
 91
        4
176
     1
 64
     7
176
     1
 65
   257
176
     1
 75
     1
176
     1
175
     1
176
     1
 42
1.0
176
     1
 92
        8
176
     1
 66
     7
176
     1
 43
1.0
176
     1
 76
     1
176
     1
 77
     6
176
     1
 78
     2
176
     1
 67
     7
176
     1
 79
     5
176
     1
170
     0
176
     1
171
     0
176
     1
290
     0
176
     1
 93
       13
176
     1
 44
0.0
176
     1
173
     0
176
     1
  0
VISUALSTYLE
  5
2C
102
{ACAD_REACTORS
330
2A
102
}
330
2A
100
AcDbVisualStyle
  2
FlatWithEdges
 70
     1
177
     2
291
     1
 71
     2
176
     1
 72
     1
176
     1
 73
     1
176
     1
 90
        2
176
     1
 40
-0.6
176
     1
 41
30.0
176
     1
 62
     5
 63
     7
421
 16777215
176
     1
 74
     1
176
     1
 91
        4
176
     1
 64
     7
176
     1
 65
   257
176
     1
 75
     1
176
     1
175
     1
176
     1
 42
1.0
176
     1
 92
        0
176
     1
 66
   257
176
     1
 43
1.0
176
     1
 76
     1
176
     1
 77
     6
176
     1
 78
     2
176
     1
 67
     7
176
     1
 79
     5
176
     1
170
     0
176
     1
171
     0
176
     1
290
     0
176
     1
 93
       13
176
     1
 44
0.0
176
     1
173
     0
176
     1
  0
VISUALSTYLE
  5
2D
102
{ACAD_REACTORS
330
2A
102
}
330
2A
100
AcDbVisualStyle
  2
Gouraud
 70
     2
177
     2
291
     1
 71
     2
176
     1
 72
     2
176
     1
 73
     1
176
     1
 90
        2
176
     1
 40
-0.6
176
     1
 41
30.0
176
     1
 62
     5
 63
     7
421
 16777215
176
     1
 74
     0
176
     1
 91
        4
176
     1
 64
     7
176
     1
 65
   257
176
     1
 75
     1
176
     1
175
     1
176
     1
 42
1.0
176
     1
 92
        0
176
     1
 66
     7
176
     1
 43
1.0
176
     1
 76
     1
176
     1
 77
     6
176
     1
 78
     2
176
     1
 67
     7
176
     1
 79
     5
176
     1
170
     0
176
     1
171
     0
176
     1
290
     0
176
     1
 93
       13
176
     1
 44
0.0
176
     1
173
     0
176
     1
  0
VISUALSTYLE
  5
2E
102
{ACAD_REACTORS
330
2A
102
}
330
2A
100
AcDbVisualStyle
  2
GouraudWithEdges
 70
     3
177
     2
291
     1
 71
     2
176
     1
 72
     2
176
     1
 73
     1
176
     1
 90
        2
176
     1
 40
-0.6
176
     1
 41
30.0
176
     1
 62
     5
 63
     7
421
 16777215
176
     1
 74
     1
176
     1
 91
        4
176
     1
 64
     7
176
     1
 65
   257
176
     1
 75
     1
176
     1
175
     1
176
     1
 42
1.0
176
     1
 92
        0
176
     1
 66
   257
176
     1
 43
1.0
176
     1
 76
     1
176
     1
 77
     6
176
     1
 78
     2
176
     1
 67
     7
176
     1
 79
     5
176
     1
170
     0
176
     1
171
     0
176
     1
290
     0
176
     1
 93
       13
176
     1
 44
0.0
176
     1
173
     0
176
     1
  0
VISUALSTYLE
  5
38
102
{ACAD_REACTORS
330
2A
102
}
330
2A
100
AcDbVisualStyle
  2
Linepattern
 70
    14
177
     2
291
     1
 71
     2
176
     1
 72
     2
176
     1
 73
     0
176
     1
 90
        0
176
     1
 40
-0.6
176
     1
 41
-30.0
176
     1
 62
     5
 63
     7
421
 16777215
176
     1
 74
     1
176
     1
 91
        4
176
     1
 64
     7
176
     1
 65
   257
176
     1
 75
     7
176
     1
175
     7
176
     1
 42
1.0
176
     1
 92
        8
176
     1
 66
     7
176
     1
 43
1.0
176
     1
 76
     1
176
     1
 77
     6
176
     1
 78
     2
176
     1
 67
     7
176
     1
 79
     5
176
     1
170
     0
176
     1
171
     0
176
     1
290
     0
176
     1
 93
        1
176
     1
 44
0.0
176
     1
173
     0
176
     1
  0
VISUALSTYLE
  5
33
102
{ACAD_REACTORS
330
2A
102
}
330
2A
100
AcDbVisualStyle
  2
Realistic
 70
     8
177
     2
291
     0
 71
     2
176
     1
 72
     2
176
     1
 73
     0
176
     1
 90
        0
176
     1
 40
-0.6
176
     1
 41
-30.0
176
     1
 62
     5
 63
     7
421
 16777215
176
     1
 74
     1
176
     1
 91
        0
176
     1
 64
     7
176
     1
 65
   257
176
     1
 75
     1
176
     1
175
     1
176
     1
 42
1.0
176
     1
 92
        8
176
     1
 66
     8
424
  7895160
176
     1
 43
1.0
176
     1
 76
     1
176
     1
 77
     6
176
     1
 78
     2
176
     1
 67
     7
176
     1
 79
     5
176
     1
170
     0
176
     1
171
     0
176
     1
290
     0
176
     1
 93
       13
176
     1
 44
0.0
176
     1
173
     0
176
     1
  0
VISUALSTYLE
  5
37
102
{ACAD_REACTORS
330
2A
102
}
330
2A
100
AcDbVisualStyle
  2
Thicken
 70
    13
177
     2
291
     1
 71
     2
176
     1
 72
     2
176
     1
 73
     0
176
     1
 90
        0
176
     1
 40
-0.6
176
     1
 41
-30.0
176
     1
 62
     5
 63
     7
421
 16777215
176
     1
 74
     1
176
     1
 91
        4
176
     1
 64
     7
176
     1
 65
   257
176
     1
 75
     1
176
     1
175
     1
176
     1
 42
1.0
176
     1
 92
       12
176
     1
 66
     7
176
     1
 43
1.0
176
     1
 76
     1
176
     1
 77
     6
176
     1
 78
     2
176
     1
 67
     7
176
     1
 79
     5
176
     1
170
     0
176
     1
171
     0
176
     1
290
     0
176
     1
 93
        1
176
     1
 44
0.0
176
     1
173
     0
176
     1
  0
ENDSEC
  0
EOF
