<?xml version="1.0" encoding="utf-8"?>
<!-- Generator: Adobe Illustrator 21.0.2, SVG Export Plug-In . SVG Version: 6.00 Build 0)  -->
<svg version="1.0" id="Calque_1" xmlns="http://www.w3.org/2000/svg" xmlns:xlink="http://www.w3.org/1999/xlink" x="0px" y="0px"
	 viewBox="0 0 2040.9 1190.6" style="enable-background:new 0 0 2040.9 1190.6;" xml:space="preserve">
<style type="text/css">
	.st0{fill:none;stroke:#FF0000;stroke-width:3.543310e-02;}
	.st1{fill:none;stroke:#FF0000;stroke-width:2.834646e-02;}
	.st2{fill:none;stroke:#FF0000;stroke-width:1.000000e-02;stroke-miterlimit:2.6131;}
	.st3{fill:none;stroke:#FF0000;stroke-width:2.834646e-02;stroke-miterlimit:2.6131;}
	.st4{fill:none;}
	.st5{fill:none;stroke:#0000FF;stroke-width:2.835000e-02;stroke-miterlimit:10;}
	.st6{font-family:'MyriadPro-Regular';}
	.st7{font-size:14.1732px;}
</style>
<g transform="translate(538.58312, 7.08662) ">
	<polygon class="st0" points="-94.6,-0.4 -52.1,-0.4 -52.1,13.8 -9.6,13.8 -9.6,-0.4 18.8,-0.4 18.8,13.8 47.1,13.8 47.1,-0.4 
		75.4,-0.4 75.4,13.8 103.8,13.8 103.8,-0.4 132.1,-0.4 132.1,13.8 160.5,13.8 160.5,-0.4 188.8,-0.4 188.8,13.8 217.2,13.8 
		217.2,-0.4 245.5,-0.4 245.5,13.8 288,13.8 288,-0.4 330.6,-0.4 330.6,35.1 316.4,35.1 316.4,70.5 330.6,70.5 330.6,98.9 
		316.4,98.9 316.4,127.2 330.6,127.2 330.6,155.5 316.4,155.5 316.4,183.9 330.6,183.9 330.6,212.2 316.4,212.2 316.4,247.7 
		330.6,247.7 330.6,283.1 288,283.1 288,268.9 245.5,268.9 245.5,283.1 217.2,283.1 217.2,268.9 188.8,268.9 188.8,283.1 
		160.5,283.1 160.5,268.9 132.1,268.9 132.1,283.1 103.8,283.1 103.8,268.9 75.4,268.9 75.4,283.1 47.1,283.1 47.1,268.9 
		18.8,268.9 18.8,283.1 -9.6,283.1 -9.6,268.9 -52.1,268.9 -52.1,283.1 -94.6,283.1 -94.6,247.7 -80.5,247.7 -80.5,212.2 
		-94.6,212.2 -94.6,183.9 -80.5,183.9 -80.5,155.5 -94.6,155.5 -94.6,127.2 -80.5,127.2 -80.5,98.9 -94.6,98.9 -94.6,70.5 
		-80.5,70.5 -80.5,35.1 -94.6,35.1 	"/>
</g>
<g transform="translate(1070.07962, 361.41762) ">
	<polygon class="st0" points="85.4,-354.7 113.8,-354.7 113.8,-340.5 156.3,-340.5 156.3,-354.7 184.7,-354.7 184.7,-340.5 
		213,-340.5 213,-354.7 241.4,-354.7 241.4,-340.5 283.9,-340.5 283.9,-354.7 312.2,-354.7 312.2,-319.3 326.4,-319.3 326.4,-283.8 
		312.2,-283.8 312.2,-255.5 326.4,-255.5 326.4,-227.1 312.2,-227.1 312.2,-198.8 326.4,-198.8 326.4,-170.4 312.2,-170.4 
		312.2,-142.1 326.4,-142.1 326.4,-106.7 312.2,-106.7 312.2,-71.2 283.9,-71.2 283.9,-85.4 241.4,-85.4 241.4,-71.2 213,-71.2 
		213,-85.4 184.7,-85.4 184.7,-71.2 156.3,-71.2 156.3,-85.4 113.8,-85.4 113.8,-71.2 85.4,-71.2 85.4,-106.7 71.3,-106.7 
		71.3,-142.1 85.4,-142.1 85.4,-170.4 71.3,-170.4 71.3,-198.8 85.4,-198.8 85.4,-227.1 71.3,-227.1 71.3,-255.5 85.4,-255.5 
		85.4,-283.8 71.3,-283.8 71.3,-319.3 85.4,-319.3 	"/>
</g>
<g>
	<g transform="translate(538.58312, 361.41762) ">
		<polygon class="st0" points="1361.2,-337.8 1361.2,-309.5 1375.4,-309.5 1375.4,-267 1361.2,-267 1361.2,-238.6 1375.4,-238.6 
			1375.4,-210.3 1361.2,-210.3 1361.2,-181.9 1375.4,-181.9 1375.4,-153.6 1361.2,-153.6 1361.2,-125.2 1375.4,-125.2 1375.4,-96.9 
			1361.2,-96.9 1361.2,-68.5 1375.4,-68.5 1375.4,-40.2 1361.2,-40.2 1361.2,-11.9 1375.4,-11.9 1375.4,30.7 1361.2,30.7 1361.2,59 
			1332.9,59 1332.9,73.2 1290.3,73.2 1290.3,59 1262,59 1262,73.2 1233.6,73.2 1233.6,59 1205.3,59 1205.3,73.2 1162.8,73.2 
			1162.8,59 1134.4,59 1134.4,30.7 1120.3,30.7 1120.3,-11.9 1134.4,-11.9 1134.4,-40.2 1120.3,-40.2 1120.3,-68.5 1134.4,-68.5 
			1134.4,-96.9 1120.3,-96.9 1120.3,-125.2 1134.4,-125.2 1134.4,-153.6 1120.3,-153.6 1120.3,-181.9 1134.4,-181.9 1134.4,-210.3 
			1120.3,-210.3 1120.3,-238.6 1134.4,-238.6 1134.4,-267 1120.3,-267 1120.3,-309.5 1134.4,-309.5 1134.4,-337.8 1162.8,-337.8 
			1162.8,-352 1205.3,-352 1205.3,-337.8 1233.6,-337.8 1233.6,-352 1262,-352 1262,-337.8 1290.3,-337.8 1290.3,-352 1332.9,-352 
			1332.9,-337.8 		"/>
	</g>
	<circle class="st1" cx="1786.4" cy="222" r="29"/>
</g>
<g>
	<g transform="translate(7.08662, 361.41762) ">
		<polygon class="st0" points="1634,-340.5 1634,-312.2 1648.1,-312.2 1648.1,-269.6 1634,-269.6 1634,-241.3 1648.1,-241.3 
			1648.1,-213 1634,-213 1634,-184.6 1648.1,-184.6 1648.1,-156.3 1634,-156.3 1634,-127.9 1648.1,-127.9 1648.1,-99.6 1634,-99.6 
			1634,-71.2 1648.1,-71.2 1648.1,-42.9 1634,-42.9 1634,-14.5 1648.1,-14.5 1648.1,28 1634,28 1634,56.3 1605.6,56.3 1605.6,70.5 
			1563.1,70.5 1563.1,56.3 1534.7,56.3 1534.7,70.5 1506.4,70.5 1506.4,56.3 1478.1,56.3 1478.1,70.5 1435.5,70.5 1435.5,56.3 
			1407.2,56.3 1407.2,28 1393,28 1393,-14.5 1407.2,-14.5 1407.2,-42.9 1393,-42.9 1393,-71.2 1407.2,-71.2 1407.2,-99.6 
			1393,-99.6 1393,-127.9 1407.2,-127.9 1407.2,-156.3 1393,-156.3 1393,-184.6 1407.2,-184.6 1407.2,-213 1393,-213 1393,-241.3 
			1407.2,-241.3 1407.2,-269.6 1393,-269.6 1393,-312.2 1407.2,-312.2 1407.2,-340.5 1435.5,-340.5 1435.5,-354.7 1478.1,-354.7 
			1478.1,-340.5 1506.4,-340.5 1506.4,-354.7 1534.7,-354.7 1534.7,-340.5 1563.1,-340.5 1563.1,-354.7 1605.6,-354.7 
			1605.6,-340.5 		"/>
	</g>
	<circle class="st2" cx="1524.6" cy="217.5" r="4.5"/>
	<circle class="st2" cx="1445.4" cy="217.5" r="4.5"/>
	<circle class="st2" cx="1431" cy="69.9" r="4.5"/>
</g>
<g>
	<g transform="translate(1070.07962, 7.08662) ">
		<polygon class="st0" points="-180.9,-0.4 -152.6,-0.4 -152.6,13.8 -110,13.8 -110,-0.4 -81.7,-0.4 -81.7,13.8 -53.3,13.8 
			-53.3,-0.4 -25,-0.4 -25,13.8 17.5,13.8 17.5,-0.4 45.9,-0.4 45.9,35.1 60,35.1 60,70.5 45.9,70.5 45.9,98.9 60,98.9 60,127.2 
			45.9,127.2 45.9,155.5 60,155.5 60,183.9 45.9,183.9 45.9,212.2 60,212.2 60,247.7 45.9,247.7 45.9,283.1 17.5,283.1 17.5,268.9 
			-25,268.9 -25,283.1 -53.3,283.1 -53.3,268.9 -81.7,268.9 -81.7,283.1 -110,283.1 -110,268.9 -152.6,268.9 -152.6,283.1 
			-180.9,283.1 -180.9,247.7 -195.1,247.7 -195.1,212.2 -180.9,212.2 -180.9,183.9 -195.1,183.9 -195.1,155.5 -180.9,155.5 
			-180.9,127.2 -195.1,127.2 -195.1,98.9 -180.9,98.9 -180.9,70.5 -195.1,70.5 -195.1,35.1 -180.9,35.1 		"/>
	</g>
	
		<rect x="942.4" y="181.2" transform="matrix(-1.836970e-16 1 -1 -1.836970e-16 1208.4998 -723.322)" class="st3" width="47" height="122.8"/>
</g>
<g>
	<rect x="43.4" y="57.8" class="st1" width="364.3" height="181.4"/>
	<ellipse class="st1" cx="58.4" cy="42.7" rx="6.4" ry="6.4"/>
	<ellipse class="st1" cx="392.5" cy="42.7" rx="6.4" ry="6.4"/>
	<ellipse class="st1" cx="392.5" cy="254.2" rx="6.4" ry="6.4"/>
	<ellipse class="st1" cx="58.4" cy="254.2" rx="6.4" ry="6.4"/>
	<g transform="translate(538.58312, 7.08662) ">
		<polygon class="st0" points="-525.7,-0.4 -483.2,-0.4 -483.2,13.8 -440.7,13.8 -440.7,-0.4 -412.3,-0.4 -412.3,13.8 -384,13.8 
			-384,-0.4 -355.6,-0.4 -355.6,13.8 -327.3,13.8 -327.3,-0.4 -298.9,-0.4 -298.9,13.8 -270.6,13.8 -270.6,-0.4 -242.2,-0.4 
			-242.2,13.8 -213.9,13.8 -213.9,-0.4 -185.5,-0.4 -185.5,13.8 -143,13.8 -143,-0.4 -100.5,-0.4 -100.5,35.1 -114.7,35.1 
			-114.7,70.5 -100.5,70.5 -100.5,98.9 -114.7,98.9 -114.7,127.2 -100.5,127.2 -100.5,155.5 -114.7,155.5 -114.7,183.9 
			-100.5,183.9 -100.5,212.2 -114.7,212.2 -114.7,247.7 -100.5,247.7 -100.5,283.1 -143,283.1 -143,268.9 -185.5,268.9 
			-185.5,283.1 -213.9,283.1 -213.9,268.9 -242.2,268.9 -242.2,283.1 -270.6,283.1 -270.6,268.9 -298.9,268.9 -298.9,283.1 
			-327.3,283.1 -327.3,268.9 -355.6,268.9 -355.6,283.1 -384,283.1 -384,268.9 -412.3,268.9 -412.3,283.1 -440.7,283.1 
			-440.7,268.9 -483.2,268.9 -483.2,283.1 -525.7,283.1 -525.7,247.7 -511.5,247.7 -511.5,212.2 -525.7,212.2 -525.7,183.9 
			-511.5,183.9 -511.5,155.5 -525.7,155.5 -525.7,127.2 -511.5,127.2 -511.5,98.9 -525.7,98.9 -525.7,70.5 -511.5,70.5 -511.5,35.1 
			-525.7,35.1 		"/>
	</g>
</g>
<rect x="976.1" y="124.5" class="st4" width="53" height="67"/>
<text transform="matrix(1 0 0 1 976.0667 134.5434)" class="st5 st6 st7">Intérieur</text>
<rect x="898.9" y="129.5" class="st4" width="67" height="53"/>
<text transform="matrix(0 -1 1 0 908.9739 182.5)" class="st5 st6 st7">Arrière</text>
<rect x="1044.9" y="122" class="st4" width="67" height="53"/>
<text transform="matrix(0 1 -1 0 1101.8481 121.9609)" class="st5 st6 st7">Avant</text>
<rect x="976.1" y="105.4" class="st4" width="53" height="67"/>
<text transform="matrix(1 0 0 1 976.0667 115.5043)" class="st5 st6 st7">Gauche</text>
<rect x="1116.4" y="129.5" class="st4" width="67" height="53"/>
<text transform="matrix(0 1 -1 0 1173.3472 129.5006)" class="st5 st6 st7">Avant</text>
<rect x="1236.1" y="141" class="st4" width="53" height="67"/>
<text transform="matrix(1 0 0 1 1236.0776 151.063)" class="st5 st6 st7">Intérieur</text>
<rect x="1236.1" y="122" class="st4" width="53" height="67"/>
<text transform="matrix(1 0 0 1 1236.0776 132.0239)" class="st5 st6 st7">Droite</text>
<rect x="1346.2" y="119.4" class="st4" width="67" height="53"/>
<text transform="matrix(0 -1 1 0 1356.3073 172.4414)" class="st5 st6 st7">Arrière</text>
<rect x="1508.8" y="262" class="st4" width="53" height="67"/>
<text transform="matrix(1 0 0 1 1508.7552 272.063)" class="st5 st6 st7">Intérieur</text>
<rect x="1382.9" y="228.9" class="st4" width="67" height="53"/>
<text transform="matrix(0 1 -1 0 1439.8667 228.9413)" class="st5 st6 st7">Arrière</text>
<rect x="1598.1" y="186.4" class="st4" width="67" height="53"/>
<text transform="matrix(0 -1 1 0 1608.1414 239.4355)" class="st5 st6 st7">Avant</text>
<rect x="1507.6" y="389.3" class="st4" width="53" height="67"/>
<text transform="matrix(1 0 0 1 1507.5776 399.3572)" class="st5 st6 st7">Droite</text>
<rect x="1504.6" y="-7.6" class="st4" width="53" height="67"/>
<text transform="matrix(-1 0 0 -1 1557.5664 49.3081)" class="st5 st6 st7">Gauche</text>
<rect x="111.5" y="248.4" class="st4" width="53" height="67"/>
<text transform="matrix(1 0 0 1 111.4869 258.5043)" class="st5 st6 st7">Intérieur</text>
<rect x="1780.6" y="389.3" class="st4" width="53" height="67"/>
<text transform="matrix(1 0 0 1 1780.567 399.3575)" class="st5 st6 st7">Gauche</text>
<rect x="1759.9" y="149" class="st4" width="53" height="67"/>
<text transform="matrix(1 0 0 1 1759.9034 159.063)" class="st5 st6 st7">Intérieur</text>
<rect x="1754.1" y="-7.6" class="st4" width="53" height="67"/>
<text transform="matrix(-1 0 0 -1 1807.0664 49.3081)" class="st5 st6 st7">Droite</text>
<rect x="624.1" y="129.5" class="st4" width="53" height="67"/>
<text transform="matrix(1 0 0 1 624.0667 139.563)" class="st5 st6 st7">Intérieur</text>
<rect x="433.6" y="122" class="st4" width="67" height="53"/>
<text transform="matrix(0 1 -1 0 490.5044 121.9609)" class="st5 st6 st7">Droite</text>
<rect x="817.1" y="119.4" class="st4" width="67" height="53"/>
<text transform="matrix(0 -1 1 0 827.1297 172.4414)" class="st5 st6 st7">Gauche</text>
<rect x="618.1" y="36.4" class="st4" width="53" height="67"/>
<text transform="matrix(1 0 0 1 618.0667 46.4343)" class="st5 st6 st7">Haut</text>
<rect x="978.7" y="29.9" class="st4" width="53" height="67"/>
<text transform="matrix(1 0 0 1 978.7484 39.9343)" class="st5 st6 st7">Haut</text>
<rect x="1245.1" y="36.4" class="st4" width="53" height="67"/>
<text transform="matrix(1 0 0 1 1245.0817 46.4343)" class="st5 st6 st7">Haut</text>
<rect x="1248.2" y="248.4" class="st4" width="53" height="67"/>
<text transform="matrix(1 0 0 1 1248.2476 258.5043)" class="st5 st6 st7">Bas</text>
<rect x="1039.6" y="251" class="st4" width="53" height="67"/>
<text transform="matrix(1 0 0 1 1039.5808 261.0538)" class="st5 st6 st7">Bas</text>
<rect x="621.6" y="251" class="st4" width="53" height="67"/>
<text transform="matrix(1 0 0 1 621.5808 261.0538)" class="st5 st6 st7">Bas</text>
<rect x="624.1" y="112.4" class="st4" width="53" height="67"/>
<text transform="matrix(1 0 0 1 624.0668 122.5043)" class="st5 st6 st7">Arrière</text>
<rect x="-27" y="123.5" class="st4" width="67" height="53"/>
<text transform="matrix(0 1 -1 0 29.8931 123.4608)" class="st5 st6 st7">Gauche</text>
<rect x="410.4" y="112.4" class="st4" width="67" height="53"/>
<text transform="matrix(0 -1 1 0 420.5104 165.4414)" class="st5 st6 st7">Droite</text>
<rect x="237.1" y="248.4" class="st4" width="53" height="67"/>
<text transform="matrix(1 0 0 1 237.0808 258.5043)" class="st5 st6 st7">Bas</text>
<rect x="206.1" y="31.9" class="st4" width="53" height="67"/>
<text transform="matrix(1 0 0 1 206.0667 41.9343)" class="st5 st6 st7">Haut</text>
<rect x="1631.6" y="202.4" class="st4" width="67" height="53"/>
<text transform="matrix(0 1 -1 0 1688.5151 202.4414)" class="st5 st6 st7">Avant</text>
<rect x="1866.7" y="189.5" class="st4" width="67" height="53"/>
<text transform="matrix(0 -1 1 0 1876.7483 242.5)" class="st5 st6 st7">Arrière</text>
<rect x="1506.1" y="281.9" class="st4" width="53" height="67"/>
<text transform="matrix(1 0 0 1 1506.0734 292.0043)" class="st5 st6 st7">Bas</text>
<rect x="1766.2" y="168.9" class="st4" width="53" height="67"/>
<text transform="matrix(1 0 0 1 1766.2367 179.0043)" class="st5 st6 st7">Haut</text>
</svg>
